<?xml version="1.0" encoding="us-ascii" standalone="no"?><svg xmlns="http://www.w3.org/2000/svg" xmlns:xlink="http://www.w3.org/1999/xlink" contentStyleType="text/css" height="351px" preserveAspectRatio="none" style="width:1474px;height:351px;background:#FFFFFF;" version="1.1" viewBox="0 0 1474 351" width="1474px" zoomAndPan="magnify"><defs/><g><rect fill="#FFFFFF" height="46.7373" rx="12.5" ry="12.5" style="stroke:#AAAAAA;stroke-width:1.5;" width="183" x="737" y="151.2119"/><text fill="#000000" font-family="Verdana" font-size="11" font-weight="bold" lengthAdjust="spacing" textLength="163" x="747" y="172.271">Planifica&#231;&#227;o de Atividades</text><text fill="#000000" font-family="Verdana" font-size="11" font-weight="bold" lengthAdjust="spacing" textLength="161" x="747" y="185.6396">de Aprendizagem Digitais</text><rect fill="#FFFFFF" height="33.3687" rx="12.5" ry="12.5" style="stroke:#AAAAAA;stroke-width:1.5;" width="129" x="970" y="102.2903"/><text fill="#000000" font-family="Verdana" font-size="11" lengthAdjust="spacing" textLength="109" x="980" y="123.3494">Design Instrucional</text><rect fill="#FFFFFF" height="33.3687" rx="12.5" ry="12.5" style="stroke:#AAAAAA;stroke-width:1.5;" width="267" x="1149" y="37.1843"/><text fill="#000000" font-family="Verdana" font-size="11" lengthAdjust="spacing" textLength="247" x="1159" y="58.2434">Cria&#231;&#227;o de processos pedag&#243;gicos eficazes</text><path d="M1099,118.9746 L1109,118.9746 C1124,118.9746 1124,53.8687 1139,53.8687 L1149,53.8687 " fill="none" style="stroke:#000000;stroke-width:1.0;"/><rect fill="#FFFFFF" height="33.3687" rx="12.5" ry="12.5" style="stroke:#AAAAAA;stroke-width:1.5;" width="261" x="1149" y="90.553"/><text fill="#000000" font-family="Verdana" font-size="11" lengthAdjust="spacing" textLength="241" x="1159" y="111.6121">Utiliza&#231;&#227;o de recursos digitais apropriados</text><path d="M1099,118.9746 L1109,118.9746 C1124,118.9746 1124,107.2373 1139,107.2373 L1149,107.2373 " fill="none" style="stroke:#000000;stroke-width:1.0;"/><rect fill="#FFFFFF" height="33.3687" rx="12.5" ry="12.5" style="stroke:#AAAAAA;stroke-width:1.5;" width="100" x="1149" y="155.6589"/><text fill="#000000" font-family="Verdana" font-size="11" lengthAdjust="spacing" textLength="80" x="1159" y="176.718">Modelo ADDIE</text><text fill="#000000" font-family="Verdana" font-size="11" lengthAdjust="spacing" textLength="41" x="1302" y="145.9807">An&#225;lise</text><path d="M1249,172.3433 L1259,172.3433 C1274,172.3433 1274,141.606 1289,141.606 L1299,141.606 " fill="none" style="stroke:#000000;stroke-width:1.0;"/><text fill="#000000" font-family="Verdana" font-size="11" lengthAdjust="spacing" textLength="49" x="1302" y="161.3494">Desenho</text><path d="M1249,172.3433 L1259,172.3433 C1274,172.3433 1274,156.9746 1289,156.9746 L1299,156.9746 " fill="none" style="stroke:#000000;stroke-width:1.0;"/><text fill="#000000" font-family="Verdana" font-size="11" lengthAdjust="spacing" textLength="98" x="1302" y="176.718">Desenvolvimento</text><path d="M1249,172.3433 L1259,172.3433 C1274,172.3433 1274,172.3433 1289,172.3433 L1299,172.3433 " fill="none" style="stroke:#000000;stroke-width:1.0;"/><text fill="#000000" font-family="Verdana" font-size="11" lengthAdjust="spacing" textLength="89" x="1302" y="192.0867">Implementa&#231;&#227;o</text><path d="M1249,172.3433 L1259,172.3433 C1274,172.3433 1274,187.7119 1289,187.7119 L1299,187.7119 " fill="none" style="stroke:#000000;stroke-width:1.0;"/><text fill="#000000" font-family="Verdana" font-size="11" lengthAdjust="spacing" textLength="55" x="1302" y="207.4553">Avalia&#231;&#227;o</text><path d="M1249,172.3433 L1259,172.3433 C1274,172.3433 1274,203.0806 1289,203.0806 L1299,203.0806 " fill="none" style="stroke:#000000;stroke-width:1.0;"/><path d="M1099,118.9746 L1109,118.9746 C1124,118.9746 1124,172.3433 1139,172.3433 L1149,172.3433 " fill="none" style="stroke:#000000;stroke-width:1.0;"/><path d="M920,174.5806 L930,174.5806 C945,174.5806 945,118.9746 960,118.9746 L970,118.9746 " fill="none" style="stroke:#000000;stroke-width:1.0;"/><rect fill="#FFFFFF" height="33.3687" rx="12.5" ry="12.5" style="stroke:#AAAAAA;stroke-width:1.5;" width="173" x="970" y="224.8179"/><text fill="#000000" font-family="Verdana" font-size="11" lengthAdjust="spacing" textLength="153" x="980" y="245.877">Apresenta&#231;&#227;o da Atividade</text><text fill="#000000" font-family="Verdana" font-size="11" lengthAdjust="spacing" textLength="29" x="1196" y="245.877">inclui</text><text fill="#000000" font-family="Verdana" font-size="11" lengthAdjust="spacing" textLength="105" x="1278" y="222.824">T&#237;tulo da atividade</text><path d="M1225,241.5022 L1235,241.5022 C1250,241.5022 1250,218.4492 1265,218.4492 L1275,218.4492 " fill="none" style="stroke:#000000;stroke-width:1.0;"/><text fill="#000000" font-family="Verdana" font-size="11" lengthAdjust="spacing" textLength="88" x="1278" y="238.1926">Descri&#231;&#227;o geral</text><path d="M1225,241.5022 L1235,241.5022 C1250,241.5022 1250,233.8179 1265,233.8179 L1275,233.8179 " fill="none" style="stroke:#000000;stroke-width:1.0;"/><text fill="#000000" font-family="Verdana" font-size="11" lengthAdjust="spacing" textLength="184" x="1278" y="253.5613">Recursos e tecnologias a utilizar</text><path d="M1225,241.5022 L1235,241.5022 C1250,241.5022 1250,249.1865 1265,249.1865 L1275,249.1865 " fill="none" style="stroke:#000000;stroke-width:1.0;"/><text fill="#000000" font-family="Verdana" font-size="11" lengthAdjust="spacing" textLength="172" x="1278" y="268.9299">Desenvolvimento da atividade</text><path d="M1225,241.5022 L1235,241.5022 C1250,241.5022 1250,264.5552 1265,264.5552 L1275,264.5552 " fill="none" style="stroke:#000000;stroke-width:1.0;"/><path d="M1143,241.5022 L1153,241.5022 C1168,241.5022 1168,241.5022 1183,241.5022 L1193,241.5022 " fill="none" style="stroke:#000000;stroke-width:1.0;"/><path d="M920,174.5806 L930,174.5806 C945,174.5806 945,241.5022 960,241.5022 L970,241.5022 " fill="none" style="stroke:#000000;stroke-width:1.0;"/><rect fill="#FFFFFF" height="33.3687" rx="12.5" ry="12.5" style="stroke:#AAAAAA;stroke-width:1.5;" width="127" x="970" y="278.6082"/><text fill="#000000" font-family="Verdana" font-size="11" lengthAdjust="spacing" textLength="107" x="980" y="299.6672">Papel do Professor</text><text fill="#000000" font-family="Verdana" font-size="11" lengthAdjust="spacing" textLength="258" x="1150" y="284.2986">Capacidade para usar tecnologias educativas</text><path d="M1097,295.2925 L1107,295.2925 C1122,295.2925 1122,279.9238 1137,279.9238 L1147,279.9238 " fill="none" style="stroke:#000000;stroke-width:1.0;"/><text fill="#000000" font-family="Verdana" font-size="11" lengthAdjust="spacing" textLength="219" x="1150" y="299.6672">Alinhamento das pr&#225;ticas pedag&#243;gicas</text><path d="M1097,295.2925 L1107,295.2925 C1122,295.2925 1122,295.2925 1137,295.2925 L1147,295.2925 " fill="none" style="stroke:#000000;stroke-width:1.0;"/><text fill="#000000" font-family="Verdana" font-size="11" lengthAdjust="spacing" textLength="159" x="1150" y="315.0359">Capacita&#231;&#227;o dos estudantes</text><path d="M1097,295.2925 L1107,295.2925 C1122,295.2925 1122,310.6611 1137,310.6611 L1147,310.6611 " fill="none" style="stroke:#000000;stroke-width:1.0;"/><path d="M920,174.5806 L930,174.5806 C945,174.5806 945,295.2925 960,295.2925 L970,295.2925 " fill="none" style="stroke:#000000;stroke-width:1.0;"/><rect fill="#FFFFFF" height="33.3687" rx="12.5" ry="12.5" style="stroke:#AAAAAA;stroke-width:1.5;" width="115" x="572" y="39.4216"/><text fill="#000000" font-family="Verdana" font-size="11" lengthAdjust="spacing" textLength="95" x="582" y="60.4807">Foco Pedag&#243;gico</text><text fill="#000000" font-family="Verdana" font-size="11" lengthAdjust="spacing" textLength="46" x="473" y="29.7434">definem</text><text fill="#000000" font-family="Verdana" font-size="11" lengthAdjust="spacing" textLength="116" x="304" y="22.0591">Centro no estudante</text><path d="M473,25.3687 L463,25.3687 C448,25.3687 448,17.6843 433,17.6843 L423,17.6843 " fill="none" style="stroke:#000000;stroke-width:1.0;"/><text fill="#000000" font-family="Verdana" font-size="11" lengthAdjust="spacing" textLength="198" x="222" y="37.4277">Comunica&#231;&#227;o e colabora&#231;&#227;o digital</text><path d="M473,25.3687 L463,25.3687 C448,25.3687 448,33.053 433,33.053 L423,33.053 " fill="none" style="stroke:#000000;stroke-width:1.0;"/><path d="M572,56.106 L562,56.106 C547,56.106 547,25.3687 532,25.3687 L522,25.3687 " fill="none" style="stroke:#000000;stroke-width:1.0;"/><text fill="#000000" font-family="Verdana" font-size="11" lengthAdjust="spacing" textLength="90" x="429" y="75.8494">promovidos por</text><text fill="#000000" font-family="Verdana" font-size="11" lengthAdjust="spacing" textLength="61" x="315" y="52.7964">Autonomia</text><path d="M429,71.4746 L419,71.4746 C404,71.4746 404,48.4216 389,48.4216 L379,48.4216 " fill="none" style="stroke:#000000;stroke-width:1.0;"/><text fill="#000000" font-family="Verdana" font-size="11" lengthAdjust="spacing" textLength="87" x="289" y="68.165">Autorregula&#231;&#227;o</text><path d="M429,71.4746 L419,71.4746 C404,71.4746 404,63.7903 389,63.7903 L379,63.7903 " fill="none" style="stroke:#000000;stroke-width:1.0;"/><text fill="#000000" font-family="Verdana" font-size="11" lengthAdjust="spacing" textLength="80" x="296" y="83.5337">Esp&#237;rito cr&#237;tico</text><path d="M429,71.4746 L419,71.4746 C404,71.4746 404,79.1589 389,79.1589 L379,79.1589 " fill="none" style="stroke:#000000;stroke-width:1.0;"/><text fill="#000000" font-family="Verdana" font-size="11" lengthAdjust="spacing" textLength="68" x="308" y="98.9023">Criatividade</text><path d="M429,71.4746 L419,71.4746 C404,71.4746 404,94.5276 389,94.5276 L379,94.5276 " fill="none" style="stroke:#000000;stroke-width:1.0;"/><path d="M572,56.106 L562,56.106 C547,56.106 547,71.4746 532,71.4746 L522,71.4746 " fill="none" style="stroke:#000000;stroke-width:1.0;"/><path d="M737,174.5806 L727,174.5806 C712,174.5806 712,56.106 697,56.106 L687,56.106 " fill="none" style="stroke:#000000;stroke-width:1.0;"/><rect fill="#FFFFFF" height="33.3687" rx="12.5" ry="12.5" style="stroke:#AAAAAA;stroke-width:1.5;" width="164" x="523" y="123.9492"/><text fill="#000000" font-family="Verdana" font-size="11" lengthAdjust="spacing" textLength="144" x="533" y="145.0083">Qualidade das Atividades</text><text fill="#000000" font-family="Verdana" font-size="11" lengthAdjust="spacing" textLength="68" x="402" y="145.0083">caraterizam</text><text fill="#000000" font-family="Verdana" font-size="11" lengthAdjust="spacing" textLength="43" x="306" y="114.271">Clareza</text><path d="M402,140.6335 L392,140.6335 C377,140.6335 377,109.8962 362,109.8962 L352,109.8962 " fill="none" style="stroke:#000000;stroke-width:1.0;"/><text fill="#000000" font-family="Verdana" font-size="11" lengthAdjust="spacing" textLength="51" x="298" y="129.6396">Concis&#227;o</text><path d="M402,140.6335 L392,140.6335 C377,140.6335 377,125.2649 362,125.2649 L352,125.2649 " fill="none" style="stroke:#000000;stroke-width:1.0;"/><text fill="#000000" font-family="Verdana" font-size="11" lengthAdjust="spacing" textLength="62" x="287" y="145.0083">Relevancia</text><path d="M402,140.6335 L392,140.6335 C377,140.6335 377,140.6335 362,140.6335 L352,140.6335 " fill="none" style="stroke:#000000;stroke-width:1.0;"/><text fill="#000000" font-family="Verdana" font-size="11" lengthAdjust="spacing" textLength="239" x="110" y="160.377">Alinhamento com os objetivos da unidade</text><path d="M402,140.6335 L392,140.6335 C377,140.6335 377,156.0022 362,156.0022 L352,156.0022 " fill="none" style="stroke:#000000;stroke-width:1.0;"/><text fill="#000000" font-family="Verdana" font-size="11" lengthAdjust="spacing" textLength="198" x="151" y="175.7456">Desenvolvimento de compet&#234;ncias</text><path d="M402,140.6335 L392,140.6335 C377,140.6335 377,171.3708 362,171.3708 L352,171.3708 " fill="none" style="stroke:#000000;stroke-width:1.0;"/><path d="M523,140.6335 L513,140.6335 C498,140.6335 498,140.6335 483,140.6335 L473,140.6335 " fill="none" style="stroke:#000000;stroke-width:1.0;"/><path d="M737,174.5806 L727,174.5806 C712,174.5806 712,140.6335 697,140.6335 L687,140.6335 " fill="none" style="stroke:#000000;stroke-width:1.0;"/><rect fill="#FFFFFF" height="33.3687" rx="12.5" ry="12.5" style="stroke:#AAAAAA;stroke-width:1.5;" width="170" x="517" y="242.4238"/><text fill="#000000" font-family="Verdana" font-size="11" lengthAdjust="spacing" textLength="150" x="527" y="263.4829">Pressupostos e Objectivos</text><text fill="#000000" font-family="Verdana" font-size="11" lengthAdjust="spacing" textLength="68" x="396" y="263.4829">caraterizam</text><rect fill="#FFFFFF" height="33.3687" rx="12.5" ry="12.5" style="stroke:#AAAAAA;stroke-width:1.5;" width="189" x="157" y="189.0552"/><text fill="#000000" font-family="Verdana" font-size="11" lengthAdjust="spacing" textLength="169" x="167" y="210.1143">Expectativa de aprendizagem</text><path d="M396,259.1082 L386,259.1082 C371,259.1082 371,205.7395 356,205.7395 L346,205.7395 " fill="none" style="stroke:#000000;stroke-width:1.0;"/><rect fill="#FFFFFF" height="33.3687" rx="12.5" ry="12.5" style="stroke:#AAAAAA;stroke-width:1.5;" width="255" x="91" y="242.4238"/><text fill="#000000" font-family="Verdana" font-size="11" lengthAdjust="spacing" textLength="235" x="101" y="263.4829">Contribui&#231;&#227;o da atividade para a unidade</text><path d="M396,259.1082 L386,259.1082 C371,259.1082 371,259.1082 356,259.1082 L346,259.1082 " fill="none" style="stroke:#000000;stroke-width:1.0;"/><rect fill="#FFFFFF" height="33.3687" rx="12.5" ry="12.5" style="stroke:#AAAAAA;stroke-width:1.5;" width="140" x="206" y="295.7925"/><text fill="#000000" font-family="Verdana" font-size="11" lengthAdjust="spacing" textLength="120" x="216" y="316.8516">Perfil do p&#250;blico-alvo</text><text fill="#000000" font-family="Verdana" font-size="11" lengthAdjust="spacing" textLength="57" x="96" y="309.1672">Motiva&#231;&#227;o</text><path d="M206,312.4768 L196,312.4768 C181,312.4768 181,304.7925 166,304.7925 L156,304.7925 " fill="none" style="stroke:#000000;stroke-width:1.0;"/><text fill="#000000" font-family="Verdana" font-size="11" lengthAdjust="spacing" textLength="143" x="10" y="324.5359">Necessidades espec&#237;ficas</text><path d="M206,312.4768 L196,312.4768 C181,312.4768 181,320.1611 166,320.1611 L156,320.1611 " fill="none" style="stroke:#000000;stroke-width:1.0;"/><path d="M396,259.1082 L386,259.1082 C371,259.1082 371,312.4768 356,312.4768 L346,312.4768 " fill="none" style="stroke:#000000;stroke-width:1.0;"/><path d="M517,259.1082 L507,259.1082 C492,259.1082 492,259.1082 477,259.1082 L467,259.1082 " fill="none" style="stroke:#000000;stroke-width:1.0;"/><path d="M737,174.5806 L727,174.5806 C712,174.5806 712,259.1082 697,259.1082 L687,259.1082 " fill="none" style="stroke:#000000;stroke-width:1.0;"/><!--SRC=[xLbBRzms4BxhLqo07f85OciVNZzwYP-fNJjnOpljpU2I8oqRYbH9QXExo8y9UYXG8AVUUjq_rg6arMfjvvO6tjfhmx26vF2RRxxXO_N2UMPz9hN8M0vn_v9-SyMqJ2Hdd9bBWPVCouaKJA0hdtABMiXhbc9sAMGgFPCkUY8maHhX-F3b3-SxnnVxqHEfkIe45bR1sFlSRQskfjBv5HenBaQ5GykDzgZz2ZVPAijIjofmRNrj6CVT7jjWQqcCWzuWJlgRlT5mVOCDubNBtg_opRZFXwD1qXsEXl5e3J7fzmORIRpP7sok9unXVtqZMUkkEd-bS2KlCXL5dQrEvtGMr_JFwHy61C9s4rcd4tKwmTAA3lRgw3gTxwD8OUB1IO7ah0C7XXiuHS7IwT-fv8PidKkeICZ20ptjKcpMW3Q0pXU2KR2p5fCLkW62m8rY8sDdmCffLUKojoOp1D8uo8sjnsyNtcYJITPwjXRJGbKkQlE-owUVhVG6k9r-zZNCCB-LJL93D3yLJ9KF89XhiL91uCmoZvP8QI9JpE8rQwBHNBhvj6zGuOIHhO6df1wpZEWW92O3YiMCVaMQXluJ38YB6adelOSEzSIeYQn6YC1FbgEV_XLy1b1mQj6v8ZVEamU4r-IDb-xkHWpx7tBg469cmLzRmrK7Yi5REIfadG863K6GapTOH4cfjubK80paqtz6YgXzpjIaOe00d9WmrJmNP7g5d31Nl98W2C_qSn2ZYo8hqt5BMqI0J3KSQkTjmQNHbHRAh3NI9Lq4Vq4MSnMIu-3okieSN7YfACXcZ4LUs31aLhQ129EJMr4nHxW5AWFRUtk7-xFawUad9Tr2TiRcxbpLriCiLnWC2shSdf386ajPQQxf4nZVRacI-fVhXwm7dvD-2xMOc3a6RkkyfMWhiaePrj4YUEJQA9EIUa8YArhib_IsE0MSiXpBJ9zQamJAROLlb-MCjnHIE6ONPa9Hy59ojIhRPH3gBBVJJpuee9N2MT_AUKDEY6AsXhZe1OctNhAZwCLNMi7793_0BFTNaA4V6x5WOhuiZp1x-BXtKeUWCt1KPsZyLOwxEuo_IwqfjDWb2YnqsN38Ur7zcGyPtUYN94bqknUNbYiKksDwuZG9_1u1M2PauM23_aseOi_aDKAtMp-z8cxXBLfYYKKV5tmfvbpf06xD_jtEwrzsNb8JBS02RMLaZ9MTWzlA4iVnNTFSn36duw0Psk_tRxNCHm0mQytxzYobuU3sL8szxRSnpbm6sonRjpgt6-OO6lCXRSapyyU5T50EZFq2XRHR3x5tWy8w-z-4nOLaqr-gAfbJhTpBb2ygqoWLjYwZtVq7UuQ_5QWvxfWFTsF5EFpSmChBppU3sy8hQRMq2UEu5BeDXnoZSHbKg-cOSFzH2kRPYBabG4fbLTnRc2sST6dZzvNG_s0d_NXZ0wH351s57cBmhbxvw-2Nz5YaP8B7T47VQQMesGEQnhltj0KwHg6PsQibsLV2rn1gAR3IxlVb4hiFKEzO4FOaoumM3sLT0A20KoAWNKLtt2w-phM3BhSU7mwrvLt-XjhnndrwaI1JVlNrW3QbXMEeNvAZlJA5U9071nk-TjMfMe93kFF6ilJ-7iCVNs4yli9uV8Nn-0hZ__SA8wng_kBa62Pe7Oa5kYkzk3TOwJyz7nTmW2Feha5tSsiGRyLhyFF-EOJcPz7JbwV7anuuKrYwcWhfgkCaUNWM7J6gapS5tISot8BNEUgZlHzd1jZN4scD3e54HszFvXs6W-SxqiCPMi82Rq-YFKnOeJoDu4P8dMx1nVd1yutec7QrWeflYyvdqIxj4zvUKTlPlm00]--></g></svg>