<?xml version="1.0" encoding="us-ascii" standalone="no"?><svg xmlns="http://www.w3.org/2000/svg" xmlns:xlink="http://www.w3.org/1999/xlink" contentStyleType="text/css" height="325px" preserveAspectRatio="none" style="width:1683px;height:325px;background:#FFFFFF;" version="1.1" viewBox="0 0 1683 325" width="1683px" zoomAndPan="magnify"><defs/><g><rect fill="#FFFFFF" height="46.7373" rx="12.5" ry="12.5" style="stroke:#AAAAAA;stroke-width:1.5;" width="162" x="767" y="138.2914"/><text fill="#000000" font-family="Verdana" font-size="11" font-weight="bold" lengthAdjust="spacing" textLength="128" x="777" y="159.3505">Modelos Pedag&#243;gico</text><text fill="#000000" font-family="Verdana" font-size="11" font-weight="bold" lengthAdjust="spacing" textLength="142" x="777" y="172.7191">para Cen&#225;rios H&#237;bridos</text><rect fill="#FFFFFF" height="33.3687" rx="12.5" ry="12.5" style="stroke:#AAAAAA;stroke-width:1.5;" width="142" x="979" y="20"/><text fill="#000000" font-family="Verdana" font-size="11" lengthAdjust="spacing" textLength="122" x="989" y="41.0591">Inova&#231;&#227;o Pedag&#243;gica</text><text fill="#000000" font-family="Verdana" font-size="11" lengthAdjust="spacing" textLength="190" x="1174" y="33.3748">Inova&#231;&#227;o sustentada e disruptiva</text><path d="M1121,36.6843 L1131,36.6843 C1146,36.6843 1146,29 1161,29 L1171,29 " fill="none" style="stroke:#000000;stroke-width:1.0;"/><text fill="#000000" font-family="Verdana" font-size="11" lengthAdjust="spacing" textLength="188" x="1174" y="48.7434">Adapta&#231;&#227;o das pr&#225;ticas docentes</text><path d="M1121,36.6843 L1131,36.6843 C1146,36.6843 1146,44.3687 1161,44.3687 L1171,44.3687 " fill="none" style="stroke:#000000;stroke-width:1.0;"/><path d="M929,161.66 L939,161.66 C954,161.66 954,36.6843 969,36.6843 L979,36.6843 " fill="none" style="stroke:#000000;stroke-width:1.0;"/><rect fill="#FFFFFF" height="33.3687" rx="12.5" ry="12.5" style="stroke:#AAAAAA;stroke-width:1.5;" width="233" x="979" y="96.8433"/><text fill="#000000" font-family="Verdana" font-size="11" lengthAdjust="spacing" textLength="213" x="989" y="117.9023">Taxonomia de Stacker e Horn (2012)</text><text fill="#000000" font-family="Verdana" font-size="11" font-style="italic" lengthAdjust="spacing" textLength="84" x="1265" y="71.7964">Rotation Model</text><text fill="#000000" font-family="Verdana" font-size="11" lengthAdjust="spacing" textLength="209" x="1402" y="64.1121">Altern&#226;ncia entre online e presencial</text><path d="M1349,67.4216 L1359,67.4216 C1374,67.4216 1374,59.7373 1389,59.7373 L1399,59.7373 " fill="none" style="stroke:#000000;stroke-width:1.0;"/><text fill="#000000" font-family="Verdana" font-size="11" lengthAdjust="spacing" textLength="137" x="1402" y="79.4807">Personaliza&#231;&#227;o do ritmo</text><path d="M1349,67.4216 L1359,67.4216 C1374,67.4216 1374,75.106 1389,75.106 L1399,75.106 " fill="none" style="stroke:#000000;stroke-width:1.0;"/><path d="M1212,113.5276 L1222,113.5276 C1237,113.5276 1237,67.4216 1252,67.4216 L1262,67.4216 " fill="none" style="stroke:#000000;stroke-width:1.0;"/><text fill="#000000" font-family="Verdana" font-size="11" font-style="italic" lengthAdjust="spacing" textLength="60" x="1265" y="102.5337">Flex Model</text><text fill="#000000" font-family="Verdana" font-size="11" lengthAdjust="spacing" textLength="177" x="1378" y="94.8494">Ensino maioritariamente online</text><path d="M1325,98.1589 L1335,98.1589 C1350,98.1589 1350,90.4746 1365,90.4746 L1375,90.4746 " fill="none" style="stroke:#000000;stroke-width:1.0;"/><text fill="#000000" font-family="Verdana" font-size="11" lengthAdjust="spacing" textLength="205" x="1378" y="110.218">Apoio presencial quando necess&#225;rio</text><path d="M1325,98.1589 L1335,98.1589 C1350,98.1589 1350,105.8433 1365,105.8433 L1375,105.8433 " fill="none" style="stroke:#000000;stroke-width:1.0;"/><path d="M1212,113.5276 L1222,113.5276 C1237,113.5276 1237,98.1589 1252,98.1589 L1262,98.1589 " fill="none" style="stroke:#000000;stroke-width:1.0;"/><text fill="#000000" font-family="Verdana" font-size="11" font-style="italic" lengthAdjust="spacing" textLength="96" x="1265" y="133.271">Self-Blend Model</text><text fill="#000000" font-family="Verdana" font-size="11" lengthAdjust="spacing" textLength="257" x="1414" y="125.5867">Aluno escolhe cursos online complementares</text><path d="M1361,128.8962 L1371,128.8962 C1386,128.8962 1386,121.2119 1401,121.2119 L1411,121.2119 " fill="none" style="stroke:#000000;stroke-width:1.0;"/><text fill="#000000" font-family="Verdana" font-size="11" lengthAdjust="spacing" textLength="115" x="1414" y="140.9553">Promove autonomia</text><path d="M1361,128.8962 L1371,128.8962 C1386,128.8962 1386,136.5806 1401,136.5806 L1411,136.5806 " fill="none" style="stroke:#000000;stroke-width:1.0;"/><path d="M1212,113.5276 L1222,113.5276 C1237,113.5276 1237,128.8962 1252,128.8962 L1262,128.8962 " fill="none" style="stroke:#000000;stroke-width:1.0;"/><text fill="#000000" font-family="Verdana" font-size="11" font-style="italic" lengthAdjust="spacing" textLength="127" x="1265" y="164.0083">Enriched Virtual Model</text><text fill="#000000" font-family="Verdana" font-size="11" lengthAdjust="spacing" textLength="153" x="1445" y="156.324">Predominantemente online</text><path d="M1392,159.6335 L1402,159.6335 C1417,159.6335 1417,151.9492 1432,151.9492 L1442,151.9492 " fill="none" style="stroke:#000000;stroke-width:1.0;"/><text fill="#000000" font-family="Verdana" font-size="11" lengthAdjust="spacing" textLength="182" x="1445" y="171.6926">Encontros presenciais regulares</text><path d="M1392,159.6335 L1402,159.6335 C1417,159.6335 1417,167.3179 1432,167.3179 L1442,167.3179 " fill="none" style="stroke:#000000;stroke-width:1.0;"/><path d="M1212,113.5276 L1222,113.5276 C1237,113.5276 1237,159.6335 1252,159.6335 L1262,159.6335 " fill="none" style="stroke:#000000;stroke-width:1.0;"/><path d="M929,161.66 L939,161.66 C954,161.66 954,113.5276 969,113.5276 L979,113.5276 " fill="none" style="stroke:#000000;stroke-width:1.0;"/><rect fill="#FFFFFF" height="33.3687" rx="12.5" ry="12.5" style="stroke:#AAAAAA;stroke-width:1.5;" width="195" x="979" y="227.4768"/><text fill="#000000" font-family="Verdana" font-size="11" lengthAdjust="spacing" textLength="175" x="989" y="248.5359">Modelos derivados do Rotation</text><text fill="#000000" font-family="Verdana" font-size="11" font-style="italic" lengthAdjust="spacing" textLength="104" x="1227" y="194.7456">Flipped Classroom</text><text fill="#000000" font-family="Verdana" font-size="11" lengthAdjust="spacing" textLength="116" x="1384" y="187.0613">Estudo online pr&#233;vio</text><path d="M1331,190.3708 L1341,190.3708 C1356,190.3708 1356,182.6865 1371,182.6865 L1381,182.6865 " fill="none" style="stroke:#000000;stroke-width:1.0;"/><text fill="#000000" font-family="Verdana" font-size="11" lengthAdjust="spacing" textLength="242" x="1384" y="202.4299">Aulas presenciais para pr&#225;tica e discuss&#227;o</text><path d="M1331,190.3708 L1341,190.3708 C1356,190.3708 1356,198.0552 1371,198.0552 L1381,198.0552 " fill="none" style="stroke:#000000;stroke-width:1.0;"/><path d="M1174,244.1611 L1184,244.1611 C1199,244.1611 1199,190.3708 1214,190.3708 L1224,190.3708 " fill="none" style="stroke:#000000;stroke-width:1.0;"/><text fill="#000000" font-family="Verdana" font-size="11" font-style="italic" lengthAdjust="spacing" textLength="91" x="1227" y="225.4829">Station Rotation</text><text fill="#000000" font-family="Verdana" font-size="11" lengthAdjust="spacing" textLength="194" x="1371" y="217.7986">Esta&#231;&#245;es de aprendizagem mistas</text><path d="M1318,221.1082 L1328,221.1082 C1343,221.1082 1343,213.4238 1358,213.4238 L1368,213.4238 " fill="none" style="stroke:#000000;stroke-width:1.0;"/><text fill="#000000" font-family="Verdana" font-size="11" lengthAdjust="spacing" textLength="147" x="1371" y="233.1672">Diversidade metodol&#243;gica</text><path d="M1318,221.1082 L1328,221.1082 C1343,221.1082 1343,228.7925 1358,228.7925 L1368,228.7925 " fill="none" style="stroke:#000000;stroke-width:1.0;"/><path d="M1174,244.1611 L1184,244.1611 C1199,244.1611 1199,221.1082 1214,221.1082 L1224,221.1082 " fill="none" style="stroke:#000000;stroke-width:1.0;"/><text fill="#000000" font-family="Verdana" font-size="11" font-style="italic" lengthAdjust="spacing" textLength="71" x="1227" y="256.2202">Lab Rotation</text><text fill="#000000" font-family="Verdana" font-size="11" lengthAdjust="spacing" textLength="245" x="1351" y="248.5359">Presencial + laborat&#243;rios/ambientes online</text><path d="M1298,251.8455 L1308,251.8455 C1323,251.8455 1323,244.1611 1338,244.1611 L1348,244.1611 " fill="none" style="stroke:#000000;stroke-width:1.0;"/><text fill="#000000" font-family="Verdana" font-size="11" lengthAdjust="spacing" textLength="159" x="1351" y="263.9045">Integra&#231;&#227;o pr&#225;tica e te&#243;rica</text><path d="M1298,251.8455 L1308,251.8455 C1323,251.8455 1323,259.5298 1338,259.5298 L1348,259.5298 " fill="none" style="stroke:#000000;stroke-width:1.0;"/><path d="M1174,244.1611 L1184,244.1611 C1199,244.1611 1199,251.8455 1214,251.8455 L1224,251.8455 " fill="none" style="stroke:#000000;stroke-width:1.0;"/><text fill="#000000" font-family="Verdana" font-size="11" font-style="italic" lengthAdjust="spacing" textLength="106" x="1227" y="294.6418">Individual Rotation</text><text fill="#000000" font-family="Verdana" font-size="11" lengthAdjust="spacing" textLength="149" x="1386" y="279.2732">Trabalho online aut&#243;nomo</text><path d="M1333,290.2671 L1343,290.2671 C1358,290.2671 1358,274.8984 1373,274.8984 L1383,274.8984 " fill="none" style="stroke:#000000;stroke-width:1.0;"/><text fill="#000000" font-family="Verdana" font-size="11" lengthAdjust="spacing" textLength="134" x="1386" y="294.6418">Professor como mentor</text><path d="M1333,290.2671 L1343,290.2671 C1358,290.2671 1358,290.2671 1373,290.2671 L1383,290.2671 " fill="none" style="stroke:#000000;stroke-width:1.0;"/><text fill="#000000" font-family="Verdana" font-size="11" lengthAdjust="spacing" textLength="117" x="1386" y="310.0105">Fora da zona h&#237;brida</text><path d="M1333,290.2671 L1343,290.2671 C1358,290.2671 1358,305.6357 1373,305.6357 L1383,305.6357 " fill="none" style="stroke:#000000;stroke-width:1.0;"/><path d="M1174,244.1611 L1184,244.1611 C1199,244.1611 1199,290.2671 1214,290.2671 L1224,290.2671 " fill="none" style="stroke:#000000;stroke-width:1.0;"/><path d="M929,161.66 L939,161.66 C954,161.66 954,244.1611 969,244.1611 L979,244.1611 " fill="none" style="stroke:#000000;stroke-width:1.0;"/><text fill="#000000" font-family="Verdana" font-size="11" lengthAdjust="spacing" textLength="79" x="635" y="81.9288">fundamentam</text><text fill="#000000" font-family="Verdana" font-size="11" lengthAdjust="spacing" textLength="240" x="342" y="58.8759">Combina&#231;&#227;o de ensino presencial e online</text><path d="M635,77.5541 L625,77.5541 C610,77.5541 610,54.5011 595,54.5011 L585,54.5011 " fill="none" style="stroke:#000000;stroke-width:1.0;"/><text fill="#000000" font-family="Verdana" font-size="11" lengthAdjust="spacing" textLength="273" x="309" y="74.2445">Flexibilidade e personaliza&#231;&#227;o da aprendizagem</text><path d="M635,77.5541 L625,77.5541 C610,77.5541 610,69.8698 595,69.8698 L585,69.8698 " fill="none" style="stroke:#000000;stroke-width:1.0;"/><text fill="#000000" font-family="Verdana" font-size="11" lengthAdjust="spacing" textLength="265" x="317" y="89.6132">Necessidade de repensar modelos tradicionais</text><text fill="#000000" font-family="Verdana" font-size="11" lengthAdjust="spacing" textLength="254" x="10" y="74.2445">Espa&#231;os, tempos e metodologias inovadoras</text><path d="M317,85.2384 L307,85.2384 C292,85.2384 292,69.8698 277,69.8698 L267,69.8698 " fill="none" style="stroke:#000000;stroke-width:1.0;"/><text fill="#000000" font-family="Verdana" font-size="11" lengthAdjust="spacing" textLength="125" x="139" y="89.6132">Tarefas diversificadas</text><path d="M317,85.2384 L307,85.2384 C292,85.2384 292,85.2384 277,85.2384 L267,85.2384 " fill="none" style="stroke:#000000;stroke-width:1.0;"/><text fill="#000000" font-family="Verdana" font-size="11" lengthAdjust="spacing" textLength="240" x="24" y="104.9818">Promo&#231;&#227;o da autonomia e autorregula&#231;&#227;o</text><path d="M317,85.2384 L307,85.2384 C292,85.2384 292,100.6071 277,100.6071 L267,100.6071 " fill="none" style="stroke:#000000;stroke-width:1.0;"/><path d="M635,77.5541 L625,77.5541 C610,77.5541 610,85.2384 595,85.2384 L585,85.2384 " fill="none" style="stroke:#000000;stroke-width:1.0;"/><path d="M767,161.66 L757,161.66 C742,161.66 742,77.5541 727,77.5541 L717,77.5541 " fill="none" style="stroke:#000000;stroke-width:1.0;"/><rect fill="#FFFFFF" height="33.3687" rx="12.5" ry="12.5" style="stroke:#AAAAAA;stroke-width:1.5;" width="214" x="503" y="118.2914"/><text fill="#000000" font-family="Verdana" font-size="11" lengthAdjust="spacing" textLength="194" x="513" y="139.3505">Ambientes Educativos Inovadores</text><text fill="#000000" font-family="Verdana" font-size="11" lengthAdjust="spacing" textLength="90" x="360" y="139.3505">promovidos por</text><text fill="#000000" font-family="Verdana" font-size="11" lengthAdjust="spacing" textLength="71" x="236" y="123.9818">Colabora&#231;&#227;o</text><path d="M360,134.9757 L350,134.9757 C335,134.9757 335,119.6071 320,119.6071 L310,119.6071 " fill="none" style="stroke:#000000;stroke-width:1.0;"/><text fill="#000000" font-family="Verdana" font-size="11" lengthAdjust="spacing" textLength="68" x="239" y="139.3505">Criatividade</text><path d="M360,134.9757 L350,134.9757 C335,134.9757 335,134.9757 320,134.9757 L310,134.9757 " fill="none" style="stroke:#000000;stroke-width:1.0;"/><text fill="#000000" font-family="Verdana" font-size="11" lengthAdjust="spacing" textLength="108" x="199" y="154.7191">Pensamento cr&#237;tico</text><path d="M360,134.9757 L350,134.9757 C335,134.9757 335,150.3444 320,150.3444 L310,150.3444 " fill="none" style="stroke:#000000;stroke-width:1.0;"/><path d="M503,134.9757 L493,134.9757 C478,134.9757 478,134.9757 463,134.9757 L453,134.9757 " fill="none" style="stroke:#000000;stroke-width:1.0;"/><path d="M767,161.66 L757,161.66 C742,161.66 742,134.9757 727,134.9757 L717,134.9757 " fill="none" style="stroke:#000000;stroke-width:1.0;"/><rect fill="#FFFFFF" height="33.3687" rx="12.5" ry="12.5" style="stroke:#AAAAAA;stroke-width:1.5;" width="153" x="564" y="202.3973"/><text fill="#000000" font-family="Verdana" font-size="11" lengthAdjust="spacing" textLength="133" x="574" y="223.4564">Integra&#231;&#227;o Tecnol&#243;gica</text><rect fill="#FFFFFF" height="33.3687" rx="12.5" ry="12.5" style="stroke:#AAAAAA;stroke-width:1.5;" width="102" x="412" y="171.66"/><text fill="#000000" font-family="Verdana" font-size="11" lengthAdjust="spacing" textLength="82" x="422" y="192.7191">Modelo TPACK</text><text fill="#000000" font-family="Verdana" font-size="11" lengthAdjust="spacing" textLength="46" x="313" y="192.7191">definem</text><text fill="#000000" font-family="Verdana" font-size="11" lengthAdjust="spacing" textLength="149" x="111" y="177.3505">Conhecimento tecnol&#243;gico</text><path d="M313,188.3444 L303,188.3444 C288,188.3444 288,172.9757 273,172.9757 L263,172.9757 " fill="none" style="stroke:#000000;stroke-width:1.0;"/><text fill="#000000" font-family="Verdana" font-size="11" lengthAdjust="spacing" textLength="150" x="110" y="192.7191">Conhecimento pedag&#243;gico</text><path d="M313,188.3444 L303,188.3444 C288,188.3444 288,188.3444 273,188.3444 L263,188.3444 " fill="none" style="stroke:#000000;stroke-width:1.0;"/><text fill="#000000" font-family="Verdana" font-size="11" lengthAdjust="spacing" textLength="155" x="105" y="208.0878">Conhecimento de conte&#250;do</text><path d="M313,188.3444 L303,188.3444 C288,188.3444 288,203.713 273,203.713 L263,203.713 " fill="none" style="stroke:#000000;stroke-width:1.0;"/><path d="M412,188.3444 L402,188.3444 C387,188.3444 387,188.3444 372,188.3444 L362,188.3444 " fill="none" style="stroke:#000000;stroke-width:1.0;"/><path d="M564,219.0817 L554,219.0817 C539,219.0817 539,188.3444 524,188.3444 L514,188.3444 " fill="none" style="stroke:#000000;stroke-width:1.0;"/><rect fill="#FFFFFF" height="33.3687" rx="12.5" ry="12.5" style="stroke:#AAAAAA;stroke-width:1.5;" width="97" x="417" y="229.0817"/><text fill="#000000" font-family="Verdana" font-size="11" lengthAdjust="spacing" textLength="77" x="427" y="250.1407">Modelo SAMR</text><text fill="#000000" font-family="Verdana" font-size="11" lengthAdjust="spacing" textLength="46" x="318" y="250.1407">definem</text><text fill="#000000" font-family="Verdana" font-size="11" lengthAdjust="spacing" textLength="67" x="198" y="227.0878">Substitution</text><path d="M318,245.766 L308,245.766 C293,245.766 293,222.713 278,222.713 L268,222.713 " fill="none" style="stroke:#000000;stroke-width:1.0;"/><text fill="#000000" font-family="Verdana" font-size="11" lengthAdjust="spacing" textLength="79" x="186" y="242.4564">Augmentation</text><path d="M318,245.766 L308,245.766 C293,245.766 293,238.0817 278,238.0817 L268,238.0817 " fill="none" style="stroke:#000000;stroke-width:1.0;"/><text fill="#000000" font-family="Verdana" font-size="11" lengthAdjust="spacing" textLength="67" x="198" y="257.8251">Modification</text><path d="M318,245.766 L308,245.766 C293,245.766 293,253.4503 278,253.4503 L268,253.4503 " fill="none" style="stroke:#000000;stroke-width:1.0;"/><text fill="#000000" font-family="Verdana" font-size="11" lengthAdjust="spacing" textLength="67" x="198" y="273.1937">Redefinition</text><path d="M318,245.766 L308,245.766 C293,245.766 293,268.819 278,268.819 L268,268.819 " fill="none" style="stroke:#000000;stroke-width:1.0;"/><path d="M417,245.766 L407,245.766 C392,245.766 392,245.766 377,245.766 L367,245.766 " fill="none" style="stroke:#000000;stroke-width:1.0;"/><path d="M564,219.0817 L554,219.0817 C539,219.0817 539,245.766 524,245.766 L514,245.766 " fill="none" style="stroke:#000000;stroke-width:1.0;"/><path d="M767,161.66 L757,161.66 C742,161.66 742,219.0817 727,219.0817 L717,219.0817 " fill="none" style="stroke:#000000;stroke-width:1.0;"/><!--SRC=[xLbBSzis4BxpLw0pFIHgOr5FFtg99Tk94plnM8hRcmSabX8Q4600K8dJoOz9S-Zqa5EcbrxrnxhWGwGUERNDM6FB7esumBw_tGM6ZusbsiPSifWcnEzS-zthM34GobmdmEX4JNZeVbDDhqEGL7Dycl90SwQCzns3Y4iWPwTFdeu7Pw-ElU-u34NA8DM2JArDp46pEU76xaoudQP1Qa27IbgGTYTKSPF64zDaqDljzNs_rQPxj1Vvq6rt_QYptmxwktkqwpSrVTiCz_rEs0-wKQiVzFsW1n1rsjszoD_lTFTt8qgXixiNzLfDOsy4x2HfB3olST1edEVka0ldploBywVHy1eDvn8PWfn_T3wHf_FFkLEDna-U9o2on706AADnJQ9KCXgZqJJ6PoGCLHnmIUT_p3yfme20D5mgacWm84DE1G6YfC3OvFjF1BpZ0HUSKRUR9A2DabJmzwKCIYXoIuQK2HHQNa08nkGy-AyXGJrKao93n6hAUCXH43UE0rcEJO8IbVcHM8WJt0Ca1gkO4fX9QWXQEQDCQLeoZAc621SOdw5DFE8XPOl52wrYLHcOMYLLp2aATR-rXaagSWUGWHnYJ316OCWnIqDg-GprdnOAmUG-9Kxap0MQ94eNUePAq02DAaLbDCsTYCpxqXpdlak38g6UVxQOIgVt57LE2cOoXb0gaUMPEZQIvv-CBmw7pmivEMgp8EVQvHH2dWks5R_Qk26fSBHn7HEL8Np-DrDr0qQ7vvURzO_Im5XkKukPB6c7wIJ3Mvs6WhByr6cNa0dZ6StJV3AjS9l7FWzBXNwQvw6sPbBZ2XBpZebbtEWqmS0N-muPJUm2f9WqFV-8WNU8KM6MRQTfJDyLq43tHvQ6hq6ZiATAI_AWZPNzC9VMR5wgtAayBCrc4P93OK7B-U-kUB2Qh2xhnnNBegeME5Yj7aKqjx4gbRXoMr5md5TeJBd2hTZ7CY3LgzHPaIY-LCLlKYfHkCmACUiKfOeHYEZHG635hdcIeXumeH9JX4AAffhI5snvYO0iiKL1b4KsWwgyIXN7KlDm2enSSMrJj6PPqOK6XjibHJSs-78i7GorgxFI7sv8NhAvSbAsHWQQko9rEILbWgfOyWGnJuQ26gCLDkr5I8rDaQ7m3O7nvuoNrNk8MfOrP_ssH4yEj335e7wgGbeWexIWhiWb-YzmfYxrIHBZR5cqgwEyXsNzikXwTSWtcsSqM9T-KQNx1vBt8Jl_ueO2ZgUoeos5TgdXr5p2eaU-IjqfceaDpALkJUjOqu2AwI9ycFtv5qo_gb0H8UQKTg11tBhUKhRB4pJHDUJtM0HacWykwZt6g1IJtFCU_xl1FkLkJCM9lN61d2gsHABMQXwahlRTnxpcqic92VOH3ShU930SO0-OQ8M34vixUj6Y_NxOzefFnHAix8kYo5lV5N8T2c33AJw5g8JyvX7Yfbzgo1x-Z13g8_uUIAjLFBt0-YPNe1cLrFkm9Ci1EHD0rhH_FtZvo-09BY4Ai2fo8gKqs-p4vXJVzpUfMRMZ2iV9WhNJwQojL1o4KAtLsxgMZ72ohcf1hyjT44kHZbPcQsrpVQ6oOK4-nGPIaZyifGDpeFHNGeY7k3wqLq9OPF-RH74fsVYDnSaJR9AtCkNBo5H2GEZQXBdznexWJOfj4mRgtMPRmNT_AxQ6sUURcLkpbsFJrX4DOIjmwquAIi8se5RYMBdzLZ9gSU2QBR0KoogzjMRMxCIxV7XR0_e_JD8FAmCGJtPu5BgBpfkYynVER-cnIF08pl3aFQYbQ3435ekRPzfIE0AtJFNDbimLToSKMs4hJh-lbzXjC7L3GpZYD5QItPM-GF3EJV4g7DUhQCFjuh-vTk2TriBT2MrsXLz1EwpSfvS3f89VyVvmXuRIqZ7KRidHNgYKtSc3WqPmKZaHMt08DrPfEhczn_3xDrltRxRktspTlzcwVxDr_sRhRhtPkX08YrVdPoIB20QrjTFsszsTpeFnD2Kd491MZxJs3xh-WTyZFn-FYLj-w3ruSd4sQnEZKXrcESgl6oZXeVUCpYYvJF6-6SC1UOd3wDdHyvA0U9jnhQGpr7jsTLvjw7SV3RWb8z1e2xawzuvmuAJ2PWXbN4uEoAlnoQCzxmnFFIbczG0RW3V4SuJLDxWs-WS0]--></g></svg>