<?xml version="1.0" encoding="us-ascii" standalone="no"?><svg xmlns="http://www.w3.org/2000/svg" xmlns:xlink="http://www.w3.org/1999/xlink" contentStyleType="text/css" height="723px" preserveAspectRatio="none" style="width:1585px;height:723px;background:#FFFFFF;" version="1.1" viewBox="0 0 1585 723" width="1585px" zoomAndPan="magnify"><defs/><g><rect fill="none" height="21.1992" style="stroke:none;stroke-width:1.0;" width="1552" x="15" y="12.2969"/><ellipse cx="282" cy="48.4961" fill="#222222" rx="10" ry="10" style="stroke:#222222;stroke-width:1.0;"/><rect fill="none" height="135.3315" style="stroke:#000000;stroke-width:1.5;" width="218" x="173" y="68.4961"/><path d="M272,68.4961 L272,77.9844 L262,87.9844 L173,87.9844 " fill="none" style="stroke:#000000;stroke-width:1.5;"/><text fill="#000000" font-family="sans-serif" font-size="14" lengthAdjust="spacing" textLength="89" x="176" y="83.0313">Planeamento</text><rect fill="#FFFFFF" height="86.8433" rx="12.5" ry="12.5" style="stroke:#AAAAAA;stroke-width:0.5;" width="198" x="183" y="104.9844"/><text fill="#000000" font-family="Verdana" font-size="11" lengthAdjust="spacing" textLength="63" x="193" y="126.0435">Identificar:</text><text fill="#000000" font-family="Verdana" font-size="11" lengthAdjust="spacing" textLength="170" x="193" y="139.4121">- Objetivos de aprendizagem.</text><text fill="#000000" font-family="Verdana" font-size="11" lengthAdjust="spacing" textLength="126" x="193" y="152.7808">- Conte&#250;dos a utilizar.</text><text fill="#000000" font-family="Verdana" font-size="11" lengthAdjust="spacing" textLength="163" x="193" y="166.1494">- Habilidades a desenvolver.</text><text fill="#000000" font-family="Verdana" font-size="11" lengthAdjust="spacing" textLength="178" x="193" y="179.5181">- Compet&#234;ncias a desenvolver.</text><rect fill="none" height="135.2256" style="stroke:#000000;stroke-width:1.5;" width="522" x="21" y="213.8276"/><path d="M112,213.8276 L112,223.3159 L102,233.3159 L21,233.3159 " fill="none" style="stroke:#000000;stroke-width:1.5;"/><text fill="#000000" font-family="sans-serif" font-size="14" lengthAdjust="spacing" textLength="81" x="24" y="228.3628">Diagn&#243;stico</text><line style="stroke:#000000;stroke-width:1.5;" x1="145.5" x2="408.5" y1="250.3159" y2="250.3159"/><rect fill="#FFFFFF" height="46.7373" rx="12.5" ry="12.5" style="stroke:#AAAAAA;stroke-width:0.5;" width="225" x="33" y="270.3159"/><text fill="#000000" font-family="Verdana" font-size="11" lengthAdjust="spacing" textLength="193" x="43" y="291.375">Identificar/definir conhecimento e</text><text fill="#000000" font-family="Verdana" font-size="11" lengthAdjust="spacing" textLength="205" x="43" y="304.7437">compet&#234;ncias adquiridas/a adquirir.</text><rect fill="#FFFFFF" height="33.3687" rx="12.5" ry="12.5" style="stroke:#AAAAAA;stroke-width:0.5;" width="245" x="286" y="277.0002"/><text fill="#000000" font-family="Verdana" font-size="11" lengthAdjust="spacing" textLength="225" x="296" y="298.0593">Identificar diferen&#231;as entre estudantes.</text><line style="stroke:#000000;stroke-width:1.5;" x1="145.5" x2="408.5" y1="337.0532" y2="337.0532"/><rect fill="#FFFFFF" height="33.3687" rx="12.5" ry="12.5" style="stroke:#AAAAAA;stroke-width:0.5;" width="195" x="184.5" y="369.0532"/><text fill="#000000" font-family="Verdana" font-size="11" lengthAdjust="spacing" textLength="175" x="194.5" y="390.1123">Definir performance esperada.</text><rect fill="#FFFFFF" height="33.3687" rx="12.5" ry="12.5" style="stroke:#AAAAAA;stroke-width:0.5;" width="214" x="175" y="422.4219"/><text fill="#000000" font-family="Verdana" font-size="11" lengthAdjust="spacing" textLength="194" x="185" y="443.481">Caraterizar tipo de acessibilidade.</text><line style="stroke:#000000;stroke-width:1.5;" x1="15" x2="15" y1="12.2969" y2="711.3711"/><rect fill="#FFFFFF" height="86.8433" rx="12.5" ry="12.5" style="stroke:#AAAAAA;stroke-width:0.5;" width="280" x="553" y="475.7905"/><text fill="#000000" font-family="Verdana" font-size="11" lengthAdjust="spacing" textLength="69" x="563" y="496.8496">Determinar:</text><text fill="#000000" font-family="Verdana" font-size="11" lengthAdjust="spacing" textLength="223" x="563" y="510.2183">- Ambiente de aprendizagem a utilizar.</text><text fill="#000000" font-family="Verdana" font-size="11" lengthAdjust="spacing" textLength="260" x="563" y="523.5869">- Recursos humanos e materiais necess&#225;rios.</text><text fill="#000000" font-family="Verdana" font-size="11" lengthAdjust="spacing" textLength="146" x="563" y="536.9556">- Metodologias de ensino.</text><text fill="#000000" font-family="Verdana" font-size="11" lengthAdjust="spacing" textLength="140" x="563" y="550.3242">- Processo de avalia&#231;&#227;o.</text><line style="stroke:#000000;stroke-width:1.5;" x1="547" x2="547" y1="12.2969" y2="711.3711"/><rect fill="#FFFFFF" height="33.3687" rx="12.5" ry="12.5" style="stroke:#AAAAAA;stroke-width:0.5;" width="347" x="843" y="582.6338"/><text fill="#000000" font-family="Verdana" font-size="11" lengthAdjust="spacing" textLength="327" x="853" y="603.6929">Identificar as estrat&#233;gias de aprendizagem do estudante.</text><line style="stroke:#000000;stroke-width:1.5;" x1="837" x2="837" y1="12.2969" y2="711.3711"/><rect fill="#FFFFFF" height="33.3687" rx="12.5" ry="12.5" style="stroke:#AAAAAA;stroke-width:0.5;" width="361" x="1200" y="636.0024"/><text fill="#000000" font-family="Verdana" font-size="11" lengthAdjust="spacing" textLength="341" x="1210" y="657.0615">Reunir artefactos que permitam mensurar a aprendizagem.</text><ellipse cx="1380.5" cy="700.3711" fill="none" rx="11" ry="11" style="stroke:#222222;stroke-width:1.0;"/><ellipse cx="1380.5" cy="700.3711" fill="#222222" rx="6" ry="6" style="stroke:#222222;stroke-width:1.0;"/><line style="stroke:#000000;stroke-width:1.5;" x1="1194" x2="1194" y1="12.2969" y2="711.3711"/><line style="stroke:#000000;stroke-width:1.5;" x1="1565" x2="1565" y1="12.2969" y2="711.3711"/><line style="stroke:#000000;stroke-width:1.0;" x1="282" x2="282" y1="58.4961" y2="104.9844"/><polygon fill="#000000" points="278,94.9844,282,104.9844,286,94.9844,282,98.9844" style="stroke:#000000;stroke-width:1.0;"/><line style="stroke:#000000;stroke-width:1.0;" x1="145.5" x2="145.5" y1="251.8159" y2="270.3159"/><polygon fill="#000000" points="141.5,260.3159,145.5,270.3159,149.5,260.3159,145.5,264.3159" style="stroke:#000000;stroke-width:1.0;"/><line style="stroke:#000000;stroke-width:1.0;" x1="408.5" x2="408.5" y1="251.8159" y2="277.0002"/><polygon fill="#000000" points="404.5,267.0002,408.5,277.0002,412.5,267.0002,408.5,271.0002" style="stroke:#000000;stroke-width:1.0;"/><line style="stroke:#000000;stroke-width:1.0;" x1="145.5" x2="145.5" y1="317.0532" y2="337.0532"/><polygon fill="#000000" points="141.5,327.0532,145.5,337.0532,149.5,327.0532,145.5,331.0532" style="stroke:#000000;stroke-width:1.0;"/><line style="stroke:#000000;stroke-width:1.0;" x1="408.5" x2="408.5" y1="310.3689" y2="337.0532"/><polygon fill="#000000" points="404.5,327.0532,408.5,337.0532,412.5,327.0532,408.5,331.0532" style="stroke:#000000;stroke-width:1.0;"/><line style="stroke:#000000;stroke-width:1.0;" x1="282" x2="282" y1="191.8276" y2="250.3159"/><polygon fill="#000000" points="278,240.3159,282,250.3159,286,240.3159,282,244.3159" style="stroke:#000000;stroke-width:1.0;"/><line style="stroke:#000000;stroke-width:1.0;" x1="282" x2="282" y1="338.5532" y2="369.0532"/><polygon fill="#000000" points="278,359.0532,282,369.0532,286,359.0532,282,363.0532" style="stroke:#000000;stroke-width:1.0;"/><line style="stroke:#000000;stroke-width:1.0;" x1="282" x2="282" y1="402.4219" y2="422.4219"/><polygon fill="#000000" points="278,412.4219,282,422.4219,286,412.4219,282,416.4219" style="stroke:#000000;stroke-width:1.0;"/><line style="stroke:#000000;stroke-width:1.0;" x1="1380.5" x2="1380.5" y1="669.3711" y2="689.3711"/><polygon fill="#000000" points="1376.5,679.3711,1380.5,689.3711,1384.5,679.3711,1380.5,683.3711" style="stroke:#000000;stroke-width:1.0;"/><line style="stroke:#000000;stroke-width:1.0;" x1="282" x2="282" y1="455.7905" y2="460.7905"/><line style="stroke:#000000;stroke-width:1.0;" x1="282" x2="693" y1="460.7905" y2="460.7905"/><line style="stroke:#000000;stroke-width:1.0;" x1="693" x2="693" y1="460.7905" y2="475.7905"/><polygon fill="#000000" points="689,465.7905,693,475.7905,697,465.7905,693,469.7905" style="stroke:#000000;stroke-width:1.0;"/><line style="stroke:#000000;stroke-width:1.0;" x1="693" x2="693" y1="562.6338" y2="567.6338"/><line style="stroke:#000000;stroke-width:1.0;" x1="693" x2="1016.5" y1="567.6338" y2="567.6338"/><line style="stroke:#000000;stroke-width:1.0;" x1="1016.5" x2="1016.5" y1="567.6338" y2="582.6338"/><polygon fill="#000000" points="1012.5,572.6338,1016.5,582.6338,1020.5,572.6338,1016.5,576.6338" style="stroke:#000000;stroke-width:1.0;"/><line style="stroke:#000000;stroke-width:1.0;" x1="1016.5" x2="1016.5" y1="616.0024" y2="621.0024"/><line style="stroke:#000000;stroke-width:1.0;" x1="1016.5" x2="1380.5" y1="621.0024" y2="621.0024"/><line style="stroke:#000000;stroke-width:1.0;" x1="1380.5" x2="1380.5" y1="621.0024" y2="636.0024"/><polygon fill="#000000" points="1376.5,626.0024,1380.5,636.0024,1384.5,626.0024,1380.5,630.0024" style="stroke:#000000;stroke-width:1.0;"/><text fill="#000000" font-family="sans-serif" font-size="18" lengthAdjust="spacing" textLength="105" x="228.5" y="29.6992">Antecipa&#231;&#227;o</text><text fill="#000000" font-family="sans-serif" font-size="18" lengthAdjust="spacing" textLength="167" x="608.5" y="29.6992">Coloca&#231;&#227;o em cena</text><text fill="#000000" font-family="sans-serif" font-size="18" lengthAdjust="spacing" textLength="148" x="941.5" y="29.6992">Modelos mentais</text><text fill="#000000" font-family="sans-serif" font-size="18" lengthAdjust="spacing" textLength="68" x="1345.5" y="29.6992">Produto</text><!--SRC=[RPFDJjmm4CVlUGh3dKts-uCJXQeWWOfG-m0JUvATAhQ3FxPgkpnCrGEYrzvwpOjrlEm2kseEJcpFpF_d_pX72YioAAwlFbn-UdVz-NrsH4OsKM5qZLY6qFf5djVaGw-ci8nbzEYaDG5Dw4chSz2rpnMEf-D9KVG7C8DnLU1eC2gguNnGJgOp61MvWw-vd1T3EIb7LNzIJefoZ5WD1wDPLSo7e_cq0i3XT5QD-xaFtnhijL4tMRO-Oob9BNIFtI-xpdm05xAM1mfaZJY-RS0WQCQnn-979lXPN2cUKaKIt6ApSY8-bbymqCfweL10wz0e-Wurwjusu3oTgVkhE0943DJmjjjjNaB92meKfbqUqQniiqBtcgrR3Drl8maEGqwpXxV05mIrwVxuGFA5sBSDXStN8N- -wGyvmPulsOZDGGM-nCfzONKVoJ6eps4tIG0l6W9g8FDV9Q6eGlQbU-H2lEfGe0zH0VlYjpNOjIthGvOjBhPeBRhAEWr6fXIUWG9EM9o3Wu0k6Ia2jNPZlKJlQUScHwtFRMFbSti5QY7Hm3hLvanD9dNmH9pfaXW93vktrweJSOSoEiyTN4QcuJSAlI40yi9Wakv-Eh8-1TzWi8grwsGSrqNZoTYqS-ji2dtcNK53ptG9ziOgRBXmQWCNPT2t3YRZVE13Tq-xgdkqohvQcggna8g1R_NY3cDoacy9LY03Azn7JCPg2g2Jd8ykAUpVtLF-7spx3m00]--></g></svg>