<?xml version="1.0" encoding="us-ascii" standalone="no"?><svg xmlns="http://www.w3.org/2000/svg" xmlns:xlink="http://www.w3.org/1999/xlink" contentStyleType="text/css" height="506px" preserveAspectRatio="none" style="width:2005px;height:506px;background:#FFFFFF;" version="1.1" viewBox="0 0 2005 506" width="2005px" zoomAndPan="magnify"><defs/><g><rect fill="#FFFFFF" height="33.3687" rx="12.5" ry="12.5" style="stroke:#AAAAAA;stroke-width:1.5;" width="235" x="974" y="235.7119"/><text fill="#000000" font-family="Verdana" font-size="11" font-weight="bold" lengthAdjust="spacing" textLength="215" x="984" y="256.771">Pedagogia e Aprendizagem Digital</text><text fill="#000000" font-family="Verdana" font-size="11" lengthAdjust="spacing" textLength="51" x="1262" y="107.1375">implicam</text><rect fill="#FFFFFF" height="33.3687" rx="12.5" ry="12.5" style="stroke:#AAAAAA;stroke-width:1.5;" width="233" x="1363" y="86.0784"/><text fill="#000000" font-family="Verdana" font-size="11" lengthAdjust="spacing" textLength="213" x="1373" y="107.1375">Flexibilidade e Adapta&#231;&#227;o de Modelos</text><text fill="#000000" font-family="Verdana" font-size="11" lengthAdjust="spacing" textLength="117" x="1649" y="91.7688">N&#227;o h&#225; modelo ideal</text><path d="M1596,102.7627 L1606,102.7627 C1621,102.7627 1621,87.394 1636,87.394 L1646,87.394 " fill="none" style="stroke:#000000;stroke-width:1.0;"/><text fill="#000000" font-family="Verdana" font-size="11" lengthAdjust="spacing" textLength="231" x="1649" y="107.1375">Combina&#231;&#227;o conforme objetivos e perfis</text><path d="M1596,102.7627 L1606,102.7627 C1621,102.7627 1621,102.7627 1636,102.7627 L1646,102.7627 " fill="none" style="stroke:#000000;stroke-width:1.0;"/><text fill="#000000" font-family="Verdana" font-size="11" lengthAdjust="spacing" textLength="181" x="1649" y="122.5061">Aprendizagem l&#237;quida (podcast)</text><path d="M1596,102.7627 L1606,102.7627 C1621,102.7627 1621,118.1313 1636,118.1313 L1646,118.1313 " fill="none" style="stroke:#000000;stroke-width:1.0;"/><path d="M1313,102.7627 L1323,102.7627 C1338,102.7627 1338,102.7627 1353,102.7627 L1363,102.7627 " fill="none" style="stroke:#000000;stroke-width:1.0;"/><path d="M1209,252.3962 L1219,252.3962 C1234,252.3962 1234,102.7627 1249,102.7627 L1259,102.7627 " fill="none" style="stroke:#000000;stroke-width:1.0;"/><text fill="#000000" font-family="Verdana" font-size="11" lengthAdjust="spacing" textLength="86" x="1262" y="283.4553">suportadas por</text><rect fill="#FFFFFF" height="33.3687" rx="12.5" ry="12.5" style="stroke:#AAAAAA;stroke-width:1.5;" width="137" x="1398" y="262.3962"/><text fill="#000000" font-family="Verdana" font-size="11" lengthAdjust="spacing" textLength="117" x="1408" y="283.4553">Ferramentas Digitais</text><rect fill="#FFFFFF" height="33.3687" rx="12.5" ry="12.5" style="stroke:#AAAAAA;stroke-width:1.5;" width="43" x="1585" y="143.5"/><text fill="#000000" font-family="Verdana" font-size="11" lengthAdjust="spacing" textLength="23" x="1595" y="164.5591">LMS</text><text fill="#000000" font-family="Verdana" font-size="11" lengthAdjust="spacing" textLength="104" x="1681" y="141.5061">Google Classroom</text><path d="M1628,160.1843 L1638,160.1843 C1653,160.1843 1653,137.1313 1668,137.1313 L1678,137.1313 " fill="none" style="stroke:#000000;stroke-width:1.0;"/><text fill="#000000" font-family="Verdana" font-size="11" lengthAdjust="spacing" textLength="40" x="1681" y="156.8748">Moodle</text><path d="M1628,160.1843 L1638,160.1843 C1653,160.1843 1653,152.5 1668,152.5 L1678,152.5 " fill="none" style="stroke:#000000;stroke-width:1.0;"/><text fill="#000000" font-family="Verdana" font-size="11" lengthAdjust="spacing" textLength="42" x="1681" y="172.2434">Canvas</text><path d="M1628,160.1843 L1638,160.1843 C1653,160.1843 1653,167.8687 1668,167.8687 L1678,167.8687 " fill="none" style="stroke:#000000;stroke-width:1.0;"/><text fill="#000000" font-family="Verdana" font-size="11" lengthAdjust="spacing" textLength="172" x="1681" y="187.6121">Microsoft Teams for Education</text><path d="M1628,160.1843 L1638,160.1843 C1653,160.1843 1653,183.2373 1668,183.2373 L1678,183.2373 " fill="none" style="stroke:#000000;stroke-width:1.0;"/><path d="M1535,279.0806 L1545,279.0806 C1560,279.0806 1560,160.1843 1575,160.1843 L1585,160.1843 " fill="none" style="stroke:#000000;stroke-width:1.0;"/><rect fill="#FFFFFF" height="33.3687" rx="12.5" ry="12.5" style="stroke:#AAAAAA;stroke-width:1.5;" width="185" x="1585" y="204.9746"/><text fill="#000000" font-family="Verdana" font-size="11" lengthAdjust="spacing" textLength="165" x="1595" y="226.0337">Colabora&#231;&#227;o em Tempo Real</text><text fill="#000000" font-family="Verdana" font-size="11" lengthAdjust="spacing" textLength="35" x="1823" y="202.9807">Padlet</text><path d="M1770,221.6589 L1780,221.6589 C1795,221.6589 1795,198.606 1810,198.606 L1820,198.606 " fill="none" style="stroke:#000000;stroke-width:1.0;"/><text fill="#000000" font-family="Verdana" font-size="11" lengthAdjust="spacing" textLength="93" x="1823" y="218.3494">Miro / Jamboard</text><path d="M1770,221.6589 L1780,221.6589 C1795,221.6589 1795,213.9746 1810,213.9746 L1820,213.9746 " fill="none" style="stroke:#000000;stroke-width:1.0;"/><text fill="#000000" font-family="Verdana" font-size="11" lengthAdjust="spacing" textLength="77" x="1823" y="233.718">Figma FigJam</text><path d="M1770,221.6589 L1780,221.6589 C1795,221.6589 1795,229.3433 1810,229.3433 L1820,229.3433 " fill="none" style="stroke:#000000;stroke-width:1.0;"/><text fill="#000000" font-family="Verdana" font-size="11" lengthAdjust="spacing" textLength="170" x="1823" y="249.0867">Google Docs / Slides / Sheets</text><path d="M1770,221.6589 L1780,221.6589 C1795,221.6589 1795,244.7119 1810,244.7119 L1820,244.7119 " fill="none" style="stroke:#000000;stroke-width:1.0;"/><path d="M1535,279.0806 L1545,279.0806 C1560,279.0806 1560,221.6589 1575,221.6589 L1585,221.6589 " fill="none" style="stroke:#000000;stroke-width:1.0;"/><rect fill="#FFFFFF" height="33.3687" rx="12.5" ry="12.5" style="stroke:#AAAAAA;stroke-width:1.5;" width="227" x="1585" y="266.4492"/><text fill="#000000" font-family="Verdana" font-size="11" lengthAdjust="spacing" textLength="207" x="1595" y="287.5083">Comunica&#231;&#227;o S&#237;ncrona e Ass&#237;ncrona</text><text fill="#000000" font-family="Verdana" font-size="11" lengthAdjust="spacing" textLength="117" x="1865" y="264.4553">Zoom / Google Meet</text><path d="M1812,283.1335 L1822,283.1335 C1837,283.1335 1837,260.0806 1852,260.0806 L1862,260.0806 " fill="none" style="stroke:#000000;stroke-width:1.0;"/><text fill="#000000" font-family="Verdana" font-size="11" lengthAdjust="spacing" textLength="42" x="1865" y="279.824">Discord</text><path d="M1812,283.1335 L1822,283.1335 C1837,283.1335 1837,275.4492 1852,275.4492 L1862,275.4492 " fill="none" style="stroke:#000000;stroke-width:1.0;"/><text fill="#000000" font-family="Verdana" font-size="11" lengthAdjust="spacing" textLength="31" x="1865" y="295.1926">Slack</text><path d="M1812,283.1335 L1822,283.1335 C1837,283.1335 1837,290.8179 1852,290.8179 L1862,290.8179 " fill="none" style="stroke:#000000;stroke-width:1.0;"/><text fill="#000000" font-family="Verdana" font-size="11" lengthAdjust="spacing" textLength="46" x="1865" y="310.5613">Edmodo</text><path d="M1812,283.1335 L1822,283.1335 C1837,283.1335 1837,306.1865 1852,306.1865 L1862,306.1865 " fill="none" style="stroke:#000000;stroke-width:1.0;"/><path d="M1535,279.0806 L1545,279.0806 C1560,279.0806 1560,283.1335 1575,283.1335 L1585,283.1335 " fill="none" style="stroke:#000000;stroke-width:1.0;"/><rect fill="#FFFFFF" height="33.3687" rx="12.5" ry="12.5" style="stroke:#AAAAAA;stroke-width:1.5;" width="135" x="1585" y="327.9238"/><text fill="#000000" font-family="Verdana" font-size="11" lengthAdjust="spacing" textLength="115" x="1595" y="348.9829">Aprendizagem Ativa</text><text fill="#000000" font-family="Verdana" font-size="11" lengthAdjust="spacing" textLength="44" x="1773" y="325.9299">Kahoot!</text><path d="M1720,344.6082 L1730,344.6082 C1745,344.6082 1745,321.5552 1760,321.5552 L1770,321.5552 " fill="none" style="stroke:#000000;stroke-width:1.0;"/><text fill="#000000" font-family="Verdana" font-size="11" lengthAdjust="spacing" textLength="64" x="1773" y="341.2986">Mentimeter</text><path d="M1720,344.6082 L1730,344.6082 C1745,344.6082 1745,336.9238 1760,336.9238 L1770,336.9238 " fill="none" style="stroke:#000000;stroke-width:1.0;"/><text fill="#000000" font-family="Verdana" font-size="11" lengthAdjust="spacing" textLength="19" x="1773" y="356.6672">Flip</text><path d="M1720,344.6082 L1730,344.6082 C1745,344.6082 1745,352.2925 1760,352.2925 L1770,352.2925 " fill="none" style="stroke:#000000;stroke-width:1.0;"/><text fill="#000000" font-family="Verdana" font-size="11" lengthAdjust="spacing" textLength="81" x="1773" y="372.0359">Trello / Notion</text><path d="M1720,344.6082 L1730,344.6082 C1745,344.6082 1745,367.6611 1760,367.6611 L1770,367.6611 " fill="none" style="stroke:#000000;stroke-width:1.0;"/><path d="M1535,279.0806 L1545,279.0806 C1560,279.0806 1560,344.6082 1575,344.6082 L1585,344.6082 " fill="none" style="stroke:#000000;stroke-width:1.0;"/><rect fill="#FFFFFF" height="33.3687" rx="12.5" ry="12.5" style="stroke:#AAAAAA;stroke-width:1.5;" width="186" x="1585" y="385.3455"/><text fill="#000000" font-family="Verdana" font-size="11" lengthAdjust="spacing" textLength="166" x="1595" y="406.4045">Privacidade e Personaliza&#231;&#227;o</text><text fill="#000000" font-family="Verdana" font-size="11" lengthAdjust="spacing" textLength="113" x="1824" y="391.0359">OneNote Classroom</text><path d="M1771,402.0298 L1781,402.0298 C1796,402.0298 1796,386.6611 1811,386.6611 L1821,386.6611 " fill="none" style="stroke:#000000;stroke-width:1.0;"/><text fill="#000000" font-family="Verdana" font-size="11" lengthAdjust="spacing" textLength="64" x="1824" y="406.4045">Mattermost</text><path d="M1771,402.0298 L1781,402.0298 C1796,402.0298 1796,402.0298 1811,402.0298 L1821,402.0298 " fill="none" style="stroke:#000000;stroke-width:1.0;"/><text fill="#000000" font-family="Verdana" font-size="11" lengthAdjust="spacing" textLength="56" x="1824" y="421.7732">Nextcloud</text><path d="M1771,402.0298 L1781,402.0298 C1796,402.0298 1796,417.3984 1811,417.3984 L1821,417.3984 " fill="none" style="stroke:#000000;stroke-width:1.0;"/><path d="M1535,279.0806 L1545,279.0806 C1560,279.0806 1560,402.0298 1575,402.0298 L1585,402.0298 " fill="none" style="stroke:#000000;stroke-width:1.0;"/><path d="M1348,279.0806 L1358,279.0806 C1373,279.0806 1373,279.0806 1388,279.0806 L1398,279.0806 " fill="none" style="stroke:#000000;stroke-width:1.0;"/><path d="M1209,252.3962 L1219,252.3962 C1234,252.3962 1234,279.0806 1249,279.0806 L1259,279.0806 " fill="none" style="stroke:#000000;stroke-width:1.0;"/><text fill="#000000" font-family="Verdana" font-size="11" lengthAdjust="spacing" textLength="46" x="875" y="256.771">definem</text><rect fill="#FFFFFF" height="33.3687" rx="12.5" ry="12.5" style="stroke:#AAAAAA;stroke-width:1.5;" width="273" x="552" y="46.6843"/><text fill="#000000" font-family="Verdana" font-size="11" lengthAdjust="spacing" textLength="253" x="562" y="67.7434">Import&#226;ncia da Comunica&#231;&#227;o e Colabora&#231;&#227;o</text><text fill="#000000" font-family="Verdana" font-size="11" lengthAdjust="spacing" textLength="143" x="356" y="41.0591">suportam a comunica&#231;&#227;o</text><rect fill="#FFFFFF" height="33.3687" rx="12.5" ry="12.5" style="stroke:#AAAAAA;stroke-width:1.5;" width="286" x="20" y="20"/><text fill="#000000" font-family="Verdana" font-size="11" lengthAdjust="spacing" textLength="266" x="30" y="41.0591">Transmiss&#227;o de informa&#231;&#227;o, intera&#231;&#227;o, debate</text><path d="M356,36.6843 L346,36.6843 C331,36.6843 331,36.6843 316,36.6843 L306,36.6843 " fill="none" style="stroke:#000000;stroke-width:1.0;"/><path d="M552,63.3687 L542,63.3687 C527,63.3687 527,36.6843 512,36.6843 L502,36.6843 " fill="none" style="stroke:#000000;stroke-width:1.0;"/><text fill="#000000" font-family="Verdana" font-size="11" lengthAdjust="spacing" textLength="138" x="361" y="94.4277">suportam a colabora&#231;&#227;o</text><rect fill="#FFFFFF" height="33.3687" rx="12.5" ry="12.5" style="stroke:#AAAAAA;stroke-width:1.5;" width="246" x="65" y="73.3687"/><text fill="#000000" font-family="Verdana" font-size="11" lengthAdjust="spacing" textLength="226" x="75" y="94.4277">Comunidades virtuais de aprendizagem</text><path d="M361,90.053 L351,90.053 C336,90.053 336,90.053 321,90.053 L311,90.053 " fill="none" style="stroke:#000000;stroke-width:1.0;"/><path d="M552,63.3687 L542,63.3687 C527,63.3687 527,90.053 512,90.053 L502,90.053 " fill="none" style="stroke:#000000;stroke-width:1.0;"/><path d="M875,252.3962 L865,252.3962 C850,252.3962 850,63.3687 835,63.3687 L825,63.3687 " fill="none" style="stroke:#000000;stroke-width:1.0;"/><rect fill="#FFFFFF" height="33.3687" rx="12.5" ry="12.5" style="stroke:#AAAAAA;stroke-width:1.5;" width="226" x="599" y="153.4216"/><text fill="#000000" font-family="Verdana" font-size="11" lengthAdjust="spacing" textLength="206" x="609" y="174.4807">Transforma&#231;&#227;o na Sociedade Digital</text><text fill="#000000" font-family="Verdana" font-size="11" lengthAdjust="spacing" textLength="61" x="485" y="174.4807">motivam a</text><rect fill="#FFFFFF" height="33.3687" rx="12.5" ry="12.5" style="stroke:#AAAAAA;stroke-width:1.5;" width="175" x="260" y="126.7373"/><text fill="#000000" font-family="Verdana" font-size="11" lengthAdjust="spacing" textLength="155" x="270" y="147.7964">Sociedade da comunica&#231;&#227;o</text><path d="M485,170.106 L475,170.106 C460,170.106 460,143.4216 445,143.4216 L435,143.4216 " fill="none" style="stroke:#000000;stroke-width:1.0;"/><rect fill="#FFFFFF" height="33.3687" rx="12.5" ry="12.5" style="stroke:#AAAAAA;stroke-width:1.5;" width="242" x="193" y="180.106"/><text fill="#000000" font-family="Verdana" font-size="11" lengthAdjust="spacing" textLength="222" x="203" y="201.165">Risco de desconex&#227;o escola-sociedade</text><path d="M485,170.106 L475,170.106 C460,170.106 460,196.7903 445,196.7903 L435,196.7903 " fill="none" style="stroke:#000000;stroke-width:1.0;"/><path d="M599,170.106 L589,170.106 C574,170.106 574,170.106 559,170.106 L549,170.106 " fill="none" style="stroke:#000000;stroke-width:1.0;"/><path d="M875,252.3962 L865,252.3962 C850,252.3962 850,170.106 835,170.106 L825,170.106 " fill="none" style="stroke:#000000;stroke-width:1.0;"/><rect fill="#FFFFFF" height="33.3687" rx="12.5" ry="12.5" style="stroke:#AAAAAA;stroke-width:1.5;" width="170" x="655" y="229.8433"/><text fill="#000000" font-family="Verdana" font-size="11" lengthAdjust="spacing" textLength="150" x="665" y="250.9023">Espa&#231;os de Aprendizagem</text><text fill="#000000" font-family="Verdana" font-size="11" lengthAdjust="spacing" textLength="76" x="526" y="250.9023">reconfiguram</text><text fill="#000000" font-family="Verdana" font-size="11" lengthAdjust="spacing" textLength="161" x="312" y="235.5337">Novas compet&#234;ncias digitais</text><path d="M526,246.5276 L516,246.5276 C501,246.5276 501,231.1589 486,231.1589 L476,231.1589 " fill="none" style="stroke:#000000;stroke-width:1.0;"/><text fill="#000000" font-family="Verdana" font-size="11" lengthAdjust="spacing" textLength="204" x="269" y="250.9023">Comunica&#231;&#227;o s&#237;ncrona e ass&#237;ncrona</text><path d="M526,246.5276 L516,246.5276 C501,246.5276 501,246.5276 486,246.5276 L476,246.5276 " fill="none" style="stroke:#000000;stroke-width:1.0;"/><text fill="#000000" font-family="Verdana" font-size="11" lengthAdjust="spacing" textLength="244" x="229" y="266.271">Espa&#231;os h&#237;bridos e centrados no estudante</text><path d="M526,246.5276 L516,246.5276 C501,246.5276 501,261.8962 486,261.8962 L476,261.8962 " fill="none" style="stroke:#000000;stroke-width:1.0;"/><path d="M655,246.5276 L645,246.5276 C630,246.5276 630,246.5276 615,246.5276 L605,246.5276 " fill="none" style="stroke:#000000;stroke-width:1.0;"/><path d="M875,252.3962 L865,252.3962 C850,252.3962 850,246.5276 835,246.5276 L825,246.5276 " fill="none" style="stroke:#000000;stroke-width:1.0;"/><rect fill="#FFFFFF" height="33.3687" rx="12.5" ry="12.5" style="stroke:#AAAAAA;stroke-width:1.5;" width="141" x="684" y="336.5806"/><text fill="#000000" font-family="Verdana" font-size="11" lengthAdjust="spacing" textLength="121" x="694" y="357.6396">Modelos Pedag&#243;gicos</text><text fill="#000000" font-family="Verdana" font-size="11" lengthAdjust="spacing" textLength="65" x="566" y="357.6396">influenciam</text><rect fill="#FFFFFF" height="33.3687" rx="12.5" ry="12.5" style="stroke:#AAAAAA;stroke-width:1.5;" width="313" x="203" y="283.2119"/><text fill="#000000" font-family="Verdana" font-size="11" lengthAdjust="spacing" textLength="293" x="213" y="304.271">Comunica&#231;&#227;o e colabora&#231;&#227;o orientadas por modelo</text><path d="M566,353.2649 L556,353.2649 C541,353.2649 541,299.8962 526,299.8962 L516,299.8962 " fill="none" style="stroke:#000000;stroke-width:1.0;"/><rect fill="#FFFFFF" height="33.3687" rx="12.5" ry="12.5" style="stroke:#AAAAAA;stroke-width:1.5;" width="158" x="358" y="336.5806"/><text fill="#000000" font-family="Verdana" font-size="11" lengthAdjust="spacing" textLength="138" x="368" y="357.6396">Comunidades de pr&#225;tica</text><path d="M566,353.2649 L556,353.2649 C541,353.2649 541,353.2649 526,353.2649 L516,353.2649 " fill="none" style="stroke:#000000;stroke-width:1.0;"/><rect fill="#FFFFFF" height="33.3687" rx="12.5" ry="12.5" style="stroke:#AAAAAA;stroke-width:1.5;" width="173" x="343" y="389.9492"/><text fill="#000000" font-family="Verdana" font-size="11" lengthAdjust="spacing" textLength="153" x="353" y="411.0083">Plataformas e ferramentas</text><text fill="#000000" font-family="Verdana" font-size="11" lengthAdjust="spacing" textLength="97" x="193" y="411.0083">s&#227;o exemplos de</text><text fill="#000000" font-family="Verdana" font-size="11" lengthAdjust="spacing" textLength="57" x="83" y="395.6396">WhatsApp</text><path d="M193,406.6335 L183,406.6335 C168,406.6335 168,391.2649 153,391.2649 L143,391.2649 " fill="none" style="stroke:#000000;stroke-width:1.0;"/><text fill="#000000" font-family="Verdana" font-size="11" lengthAdjust="spacing" textLength="42" x="98" y="411.0083">Discord</text><path d="M193,406.6335 L183,406.6335 C168,406.6335 168,406.6335 153,406.6335 L143,406.6335 " fill="none" style="stroke:#000000;stroke-width:1.0;"/><text fill="#000000" font-family="Verdana" font-size="11" lengthAdjust="spacing" textLength="130" x="10" y="426.377">Redes sociais privadas</text><path d="M193,406.6335 L183,406.6335 C168,406.6335 168,422.0022 153,422.0022 L143,422.0022 " fill="none" style="stroke:#000000;stroke-width:1.0;"/><path d="M343,406.6335 L333,406.6335 C318,406.6335 318,406.6335 303,406.6335 L293,406.6335 " fill="none" style="stroke:#000000;stroke-width:1.0;"/><path d="M566,353.2649 L556,353.2649 C541,353.2649 541,406.6335 526,406.6335 L516,406.6335 " fill="none" style="stroke:#000000;stroke-width:1.0;"/><path d="M684,353.2649 L674,353.2649 C659,353.2649 659,353.2649 644,353.2649 L634,353.2649 " fill="none" style="stroke:#000000;stroke-width:1.0;"/><path d="M875,252.3962 L865,252.3962 C850,252.3962 850,353.2649 835,353.2649 L825,353.2649 " fill="none" style="stroke:#000000;stroke-width:1.0;"/><rect fill="#FFFFFF" height="33.3687" rx="12.5" ry="12.5" style="stroke:#AAAAAA;stroke-width:1.5;" width="219" x="606" y="447.3708"/><text fill="#000000" font-family="Verdana" font-size="11" lengthAdjust="spacing" textLength="199" x="616" y="468.4299">Pol&#237;ticas Educativas e Investiga&#231;&#227;o</text><text fill="#000000" font-family="Verdana" font-size="11" lengthAdjust="spacing" textLength="67" x="486" y="468.4299">manifestam</text><text fill="#000000" font-family="Verdana" font-size="11" lengthAdjust="spacing" textLength="170" x="263" y="445.377">UNESCO - Relat&#243;rio Educa&#231;&#227;o</text><path d="M486,464.0552 L476,464.0552 C461,464.0552 461,441.0022 446,441.0022 L436,441.0022 " fill="none" style="stroke:#000000;stroke-width:1.0;"/><text fill="#000000" font-family="Verdana" font-size="11" lengthAdjust="spacing" textLength="215" x="218" y="460.7456">Comiss&#227;o Europeia - Educa&#231;&#227;o Digital</text><path d="M486,464.0552 L476,464.0552 C461,464.0552 461,456.3708 446,456.3708 L436,456.3708 " fill="none" style="stroke:#000000;stroke-width:1.0;"/><text fill="#000000" font-family="Verdana" font-size="11" lengthAdjust="spacing" textLength="189" x="244" y="476.1143">Portugal - Plano Transi&#231;&#227;o Digital</text><path d="M486,464.0552 L476,464.0552 C461,464.0552 461,471.7395 446,471.7395 L436,471.7395 " fill="none" style="stroke:#000000;stroke-width:1.0;"/><text fill="#000000" font-family="Verdana" font-size="11" lengthAdjust="spacing" textLength="201" x="232" y="491.4829">Brasil - Diretrizes Educa&#231;&#227;o H&#237;brida</text><path d="M486,464.0552 L476,464.0552 C461,464.0552 461,487.1082 446,487.1082 L436,487.1082 " fill="none" style="stroke:#000000;stroke-width:1.0;"/><path d="M606,464.0552 L596,464.0552 C581,464.0552 581,464.0552 566,464.0552 L556,464.0552 " fill="none" style="stroke:#000000;stroke-width:1.0;"/><path d="M875,252.3962 L865,252.3962 C850,252.3962 850,464.0552 835,464.0552 L825,464.0552 " fill="none" style="stroke:#000000;stroke-width:1.0;"/><path d="M974,252.3962 L964,252.3962 C949,252.3962 949,252.3962 934,252.3962 L924,252.3962 " fill="none" style="stroke:#000000;stroke-width:1.0;"/><!--SRC=[xLbBRzj64BxpLso07XAXjgc7vSSfViUEPHkHd1Iz64DoI6r3SfdTfMAdo8z9UoXG8AVy1Fsnpl9DMJq4Q0CPjWmOukxip3VppSxEYY-L1gaZ7diH9CpktzZTcmGz24J0uGOIYR77Fq60qOt70wuXj9vvwFCOsVdfoQl9_ldraVMCnswOUfZAa4srJjJknaR0bLwd1TFKIHLALyGQOxtkYcW3ea1jUBYvjJcqxMuFjc7Jjt7G6zX-VwVd3BUsOM1lIFYuuUxOVNVe3Fpkq1dQpYQYt-yDjdrxfp_OsV81iB-rxMzsDvI-2t4zIQFGiaBqDLFSGylgi4xdglI68Tjh-CCEStyw7PBhtB3SgyWyTDXfb0Yfvt_4BgtpW1s8A8sv2_E_vdyAKdGWGd24p9_D2bAWKhC68WRCROfdqnqsaH2hY2jbD7Z8UEmB6UKYFzEJHba-UEY0ncLg5wrs2cGUUAZOZ4kT0bT6VPEwtASCG6sJnS36mkLerfR1A6n6GlEPCLaOgUMyvSwzuShDl28OH3NUPc5I1l2QAXVdC8vKGaj51hB9Hs5Q8gttUP1Ao8Tex4BCG1cx2UhvtuOJMfq1vggKQJEavbzZLuhOa0wgUYg5AmpJ-LT7Se- -8NCfFoMOxx71hbCFY9GSz4Xu6D9CbappRm5tXIe04uzXYWPKrAAaJfOMRKn8JeR08n-8M0grqRo4J0fF8kTVD2agPgz2q90HQE3wA2b4HbKH0vChcS5RZ98m2t0nGJFlfg3LNfBK8uU6CkdL0s_Gc3LicHHA96K0WSpzlnBX_Ak1ejYHbxfWqiE0E8rd52aUj3P2137tQRWcyFhYQ7nmoTR81lam_oQvoFKqSYYZiDWUHwaK2TBMMsk8jNAKnAzeMwG1X2H4aI7EiWJdIsNt9IXk90-vH2tv9rHDpQ_oD03BaZoOLjN3i4kX9BSpJzXnYBVSuM76a2ad7YIwK443HP8KKRWmezFvbu9XHYgh_KMUEZmkLffy9rAH2UStfC1coPYWz7cfgbMsY8WFAI5WpnFX4I7wHOwqg1D5NkLuwnGf0i9pFZliV3GkOtCYH11IIGjfeqWXAj96GdWXLkH0F8DgjuquxISbgD1E42B5o84oCKHSc6ZLI4R89vINWbAWGI6G1LqhbO9ji3E8705bPjwmOnv4OFwVrGbLO3uKhg8LOs84iozJHAqg-yrjE6vKXBtx5U5NSfmK57f7MADgxPCRiWNk-wgEU4IkAEorMDepEwGKUmrJ8VIpoazYX4T81RzoCUH9-NqYCGnD72v48vXNPZkwPU9TeLG4FYHZhHrq6IEjMiObQ38N2LMvTO6tsWr5wbdMIu9TT03qyFqDmPGRK56YxnXvDHMUQWwHPScTL2FnGX_rdiS9K5eoHOXGwBi43_Offe4KQUnHqb0gTM4uT7jMyQcNE0jolkzRzwLSBjqGlOCfFRbaXFrkCKQLdQUARTDNdtgHCPK0rkqMJnUqIzXRb5JnmVhSqcKYcIbWzwp_j7_vo_u9JL6MUoZpGG38X8tQVCIsxMLc5d7KuJYkblRx_NipzGh6G4hniMab6pY-RweQR-gj1akLPgnawvvmSwB6K0sVKXahXp-tw20EXFoN45BpDyJUGWWBzdz855jaqtywutX2v_vAKjxEJ166w9eIeLOVx1W_c1u9zyNjSgnecxy5h6xs-M5m6tYpTjm75nz4tfhEc9hkXv2rCJL3gu_IeqRR0VK0aDAsIbSMPWDdgj1TrO3-3oVfvuK3aCyujKAFqNbLLFx2-GVQ5eLqeJtdCPrVDKNL6L1DBZ_JMk5mp3J8kmTohiHQYl11O3LtAhtAOLrI40uvH2Bs7ajTO7INXe02qDn5IsuN_ysrW-wn6XzFQBDh-qAsuy9zkXqWytEJgn_HeTHgG_K3QUtDJpIFid6Gb9mGcr_ZLhu9Lrf825Qt3Nzw8_RqHkpfZTZJ6x6dDs9FRyIUteXzxninivNqzUYSpSW6sMVTzPxT6wptdq-cAMMKmxgRhBkpEx1txKtsxcZ2pFGBw_d9rVciH-KZbIuT0rpbLnRIyC8wWncmDsdczIwxJ30-EtnT3h2ZcCuj4PiyjSxUZcg1uM1jdsisHabOsDkHTOW-fA6c5QxmU1piikl9yTgsTKwTKqfXtwKxW7L0lOYMTpGt_WS0]--></g></svg>