<?xml version="1.0" encoding="us-ascii" standalone="no"?><svg xmlns="http://www.w3.org/2000/svg" xmlns:xlink="http://www.w3.org/1999/xlink" contentStyleType="text/css" height="424px" preserveAspectRatio="none" style="width:1936px;height:424px;background:#FFFFFF;" version="1.1" viewBox="0 0 1936 424" width="1936px" zoomAndPan="magnify"><defs/><g><rect fill="#FFFFFF" height="33.3687" rx="12.5" ry="12.5" style="stroke:#AAAAAA;stroke-width:1.5;" width="181" x="1017" y="194.5022"/><text fill="#000000" font-family="Verdana" font-size="11" font-weight="bold" lengthAdjust="spacing" textLength="161" x="1027" y="215.5613">Educa&#231;&#227;o Digital em Rede</text><text fill="#000000" font-family="Verdana" font-size="11" lengthAdjust="spacing" textLength="45" x="1251" y="215.5613">envolve</text><rect fill="#FFFFFF" height="33.3687" rx="12.5" ry="12.5" style="stroke:#AAAAAA;stroke-width:1.5;" width="182" x="1346" y="112.2119"/><text fill="#000000" font-family="Verdana" font-size="11" lengthAdjust="spacing" textLength="162" x="1356" y="133.271">Comunica&#231;&#227;o e Colabora&#231;&#227;o</text><text fill="#000000" font-family="Verdana" font-size="11" lengthAdjust="spacing" textLength="204" x="1581" y="117.9023">Comunica&#231;&#227;o s&#237;ncrona e ass&#237;ncrona</text><path d="M1528,128.8962 L1538,128.8962 C1553,128.8962 1553,113.5276 1568,113.5276 L1578,113.5276 " fill="none" style="stroke:#000000;stroke-width:1.0;"/><text fill="#000000" font-family="Verdana" font-size="11" lengthAdjust="spacing" textLength="226" x="1581" y="133.271">Comunidades virtuais de aprendizagem</text><path d="M1528,128.8962 L1538,128.8962 C1553,128.8962 1553,128.8962 1568,128.8962 L1578,128.8962 " fill="none" style="stroke:#000000;stroke-width:1.0;"/><text fill="#000000" font-family="Verdana" font-size="11" lengthAdjust="spacing" textLength="190" x="1581" y="148.6396">Emo&#231;&#245;es e media&#231;&#227;o pedag&#243;gica</text><path d="M1528,128.8962 L1538,128.8962 C1553,128.8962 1553,144.2649 1568,144.2649 L1578,144.2649 " fill="none" style="stroke:#000000;stroke-width:1.0;"/><path d="M1296,211.1865 L1306,211.1865 C1321,211.1865 1321,128.8962 1336,128.8962 L1346,128.8962 " fill="none" style="stroke:#000000;stroke-width:1.0;"/><rect fill="#FFFFFF" height="33.3687" rx="12.5" ry="12.5" style="stroke:#AAAAAA;stroke-width:1.5;" width="154" x="1346" y="165.5806"/><text fill="#000000" font-family="Verdana" font-size="11" lengthAdjust="spacing" textLength="134" x="1356" y="186.6396">Recursos e Tecnologias</text><text fill="#000000" font-family="Verdana" font-size="11" lengthAdjust="spacing" textLength="136" x="1553" y="171.271">Curadoria de conte&#250;dos</text><path d="M1500,182.2649 L1510,182.2649 C1525,182.2649 1525,166.8962 1540,166.8962 L1550,166.8962 " fill="none" style="stroke:#000000;stroke-width:1.0;"/><text fill="#000000" font-family="Verdana" font-size="11" lengthAdjust="spacing" textLength="214" x="1553" y="186.6396">Recursos Educacionais Abertos (REA)</text><path d="M1500,182.2649 L1510,182.2649 C1525,182.2649 1525,182.2649 1540,182.2649 L1550,182.2649 " fill="none" style="stroke:#000000;stroke-width:1.0;"/><text fill="#000000" font-family="Verdana" font-size="11" lengthAdjust="spacing" textLength="240" x="1553" y="202.0083">Crit&#233;rios de qualidade de recursos digitais</text><path d="M1500,182.2649 L1510,182.2649 C1525,182.2649 1525,197.6335 1540,197.6335 L1550,197.6335 " fill="none" style="stroke:#000000;stroke-width:1.0;"/><path d="M1296,211.1865 L1306,211.1865 C1321,211.1865 1321,182.2649 1336,182.2649 L1346,182.2649 " fill="none" style="stroke:#000000;stroke-width:1.0;"/><rect fill="#FFFFFF" height="33.3687" rx="12.5" ry="12.5" style="stroke:#AAAAAA;stroke-width:1.5;" width="160" x="1346" y="218.9492"/><text fill="#000000" font-family="Verdana" font-size="11" lengthAdjust="spacing" textLength="140" x="1356" y="240.0083">E-atividades e Avalia&#231;&#227;o</text><text fill="#000000" font-family="Verdana" font-size="11" lengthAdjust="spacing" textLength="102" x="1559" y="224.6396">Aprender fazendo</text><path d="M1506,235.6335 L1516,235.6335 C1531,235.6335 1531,220.2649 1546,220.2649 L1556,220.2649 " fill="none" style="stroke:#000000;stroke-width:1.0;"/><text fill="#000000" font-family="Verdana" font-size="11" lengthAdjust="spacing" textLength="162" x="1559" y="240.0083">Autoavalia&#231;&#227;o e coavalia&#231;&#227;o</text><path d="M1506,235.6335 L1516,235.6335 C1531,235.6335 1531,235.6335 1546,235.6335 L1556,235.6335 " fill="none" style="stroke:#000000;stroke-width:1.0;"/><text fill="#000000" font-family="Verdana" font-size="11" lengthAdjust="spacing" textLength="104" x="1559" y="255.377">Portef&#243;lios digitais</text><path d="M1506,235.6335 L1516,235.6335 C1531,235.6335 1531,251.0022 1546,251.0022 L1556,251.0022 " fill="none" style="stroke:#000000;stroke-width:1.0;"/><path d="M1296,211.1865 L1306,211.1865 C1321,211.1865 1321,235.6335 1336,235.6335 L1346,235.6335 " fill="none" style="stroke:#000000;stroke-width:1.0;"/><rect fill="#FFFFFF" height="33.3687" rx="12.5" ry="12.5" style="stroke:#AAAAAA;stroke-width:1.5;" width="230" x="1346" y="272.7395"/><text fill="#000000" font-family="Verdana" font-size="11" lengthAdjust="spacing" textLength="210" x="1356" y="293.7986">Produ&#231;&#227;o de Conte&#250;dos Audiovisuais</text><text fill="#000000" font-family="Verdana" font-size="11" lengthAdjust="spacing" textLength="149" x="1629" y="270.7456">Papel do professor-maker</text><path d="M1576,289.4238 L1586,289.4238 C1601,289.4238 1601,266.3708 1616,266.3708 L1626,266.3708 " fill="none" style="stroke:#000000;stroke-width:1.0;"/><text fill="#000000" font-family="Verdana" font-size="11" lengthAdjust="spacing" textLength="154" x="1629" y="286.1143">Pr&#233;-produ&#231;&#227;o e storyboard</text><path d="M1576,289.4238 L1586,289.4238 C1601,289.4238 1601,281.7395 1616,281.7395 L1626,281.7395 " fill="none" style="stroke:#000000;stroke-width:1.0;"/><text fill="#000000" font-family="Verdana" font-size="11" lengthAdjust="spacing" textLength="107" x="1629" y="301.4829">Grava&#231;&#227;o e edi&#231;&#227;o</text><path d="M1576,289.4238 L1586,289.4238 C1601,289.4238 1601,297.1082 1616,297.1082 L1626,297.1082 " fill="none" style="stroke:#000000;stroke-width:1.0;"/><text fill="#000000" font-family="Verdana" font-size="11" lengthAdjust="spacing" textLength="295" x="1629" y="316.8516">Linguagem audiovisual como estrat&#233;gia pedag&#243;gica</text><path d="M1576,289.4238 L1586,289.4238 C1601,289.4238 1601,312.4768 1616,312.4768 L1626,312.4768 " fill="none" style="stroke:#000000;stroke-width:1.0;"/><path d="M1296,211.1865 L1306,211.1865 C1321,211.1865 1321,289.4238 1336,289.4238 L1346,289.4238 " fill="none" style="stroke:#000000;stroke-width:1.0;"/><path d="M1198,211.1865 L1208,211.1865 C1223,211.1865 1223,211.1865 1238,211.1865 L1248,211.1865 " fill="none" style="stroke:#000000;stroke-width:1.0;"/><text fill="#000000" font-family="Verdana" font-size="11" lengthAdjust="spacing" textLength="209" x="755" y="104.3494">ecossistemas de aprendizagem para</text><rect fill="#FFFFFF" height="33.3687" rx="12.5" ry="12.5" style="stroke:#AAAAAA;stroke-width:1.5;" width="168" x="537" y="20"/><text fill="#000000" font-family="Verdana" font-size="11" lengthAdjust="spacing" textLength="148" x="547" y="41.0591">Atores humanos e digitais</text><path d="M755,99.9746 L745,99.9746 C730,99.9746 730,36.6843 715,36.6843 L705,36.6843 " fill="none" style="stroke:#000000;stroke-width:1.0;"/><text fill="#000000" font-family="Verdana" font-size="11" lengthAdjust="spacing" textLength="221" x="481" y="75.4277">Ambientes adaptativos e colaborativos</text><path d="M755,99.9746 L745,99.9746 C730,99.9746 730,71.053 715,71.053 L705,71.053 " fill="none" style="stroke:#000000;stroke-width:1.0;"/><text fill="#000000" font-family="Verdana" font-size="11" lengthAdjust="spacing" textLength="173" x="529" y="90.7964">Met&#225;fora biol&#243;gico-tecnol&#243;gica</text><path d="M755,99.9746 L745,99.9746 C730,99.9746 730,86.4216 715,86.4216 L705,86.4216 " fill="none" style="stroke:#000000;stroke-width:1.0;"/><rect fill="#FFFFFF" height="33.3687" rx="12.5" ry="12.5" style="stroke:#AAAAAA;stroke-width:1.5;" width="325" x="380" y="104.106"/><text fill="#000000" font-family="Verdana" font-size="11" lengthAdjust="spacing" textLength="305" x="390" y="125.165">Arquitectura do Ecossistema Digital (Wilkinson, 2002)</text><text fill="#000000" font-family="Verdana" font-size="11" lengthAdjust="spacing" textLength="204" x="123" y="63.6904">Taxonomia de conte&#250;dos partilhada</text><path d="M380,120.7903 L370,120.7903 C355,120.7903 355,59.3157 340,59.3157 L330,59.3157 " fill="none" style="stroke:#000000;stroke-width:1.0;"/><text fill="#000000" font-family="Verdana" font-size="11" lengthAdjust="spacing" textLength="252" x="75" y="79.0591">Sistemas de gest&#227;o da aprendizagem (LMS)</text><path d="M380,120.7903 L370,120.7903 C355,120.7903 355,74.6843 340,74.6843 L330,74.6843 " fill="none" style="stroke:#000000;stroke-width:1.0;"/><text fill="#000000" font-family="Verdana" font-size="11" lengthAdjust="spacing" textLength="192" x="135" y="94.4277">Sistemas de gest&#227;o de conte&#250;dos</text><path d="M380,120.7903 L370,120.7903 C355,120.7903 355,90.053 340,90.053 L330,90.053 " fill="none" style="stroke:#000000;stroke-width:1.0;"/><text fill="#000000" font-family="Verdana" font-size="11" lengthAdjust="spacing" textLength="243" x="84" y="109.7964">Reposit&#243;rios de objectos de aprendizagem</text><path d="M380,120.7903 L370,120.7903 C355,120.7903 355,105.4216 340,105.4216 L330,105.4216 " fill="none" style="stroke:#000000;stroke-width:1.0;"/><text fill="#000000" font-family="Verdana" font-size="11" lengthAdjust="spacing" textLength="159" x="168" y="125.165">Gest&#227;o de fluxo de trabalho</text><path d="M380,120.7903 L370,120.7903 C355,120.7903 355,120.7903 340,120.7903 L330,120.7903 " fill="none" style="stroke:#000000;stroke-width:1.0;"/><text fill="#000000" font-family="Verdana" font-size="11" lengthAdjust="spacing" textLength="121" x="206" y="140.5337">Motores de avalia&#231;&#227;o</text><path d="M380,120.7903 L370,120.7903 C355,120.7903 355,136.1589 340,136.1589 L330,136.1589 " fill="none" style="stroke:#000000;stroke-width:1.0;"/><text fill="#000000" font-family="Verdana" font-size="11" lengthAdjust="spacing" textLength="170" x="157" y="155.9023">Motores de simula&#231;&#227;o e jogos</text><path d="M380,120.7903 L370,120.7903 C355,120.7903 355,151.5276 340,151.5276 L330,151.5276 " fill="none" style="stroke:#000000;stroke-width:1.0;"/><text fill="#000000" font-family="Verdana" font-size="11" lengthAdjust="spacing" textLength="233" x="94" y="171.271">Ferramentas de colabora&#231;&#227;o e discuss&#227;o</text><path d="M380,120.7903 L370,120.7903 C355,120.7903 355,166.8962 340,166.8962 L330,166.8962 " fill="none" style="stroke:#000000;stroke-width:1.0;"/><text fill="#000000" font-family="Verdana" font-size="11" lengthAdjust="spacing" textLength="199" x="128" y="186.6396">Elementos de suporte e orienta&#231;&#227;o</text><path d="M380,120.7903 L370,120.7903 C355,120.7903 355,182.2649 340,182.2649 L330,182.2649 " fill="none" style="stroke:#000000;stroke-width:1.0;"/><path d="M755,99.9746 L745,99.9746 C730,99.9746 730,120.7903 715,120.7903 L705,120.7903 " fill="none" style="stroke:#000000;stroke-width:1.0;"/><path d="M1017,211.1865 L1007,211.1865 C992,211.1865 992,99.9746 977,99.9746 L967,99.9746 " fill="none" style="stroke:#000000;stroke-width:1.0;"/><text fill="#000000" font-family="Verdana" font-size="11" lengthAdjust="spacing" textLength="199" x="765" y="305.5359">modelos Ppdag&#243;gicos virtuais para</text><rect fill="#FFFFFF" height="33.3687" rx="12.5" ry="12.5" style="stroke:#AAAAAA;stroke-width:1.5;" width="241" x="474" y="204.0022"/><text fill="#000000" font-family="Verdana" font-size="11" lengthAdjust="spacing" textLength="221" x="484" y="225.0613">Community of Inquiry (Garrison et al.)</text><text fill="#000000" font-family="Verdana" font-size="11" lengthAdjust="spacing" textLength="232" x="189" y="202.0083">Organiza&#231;&#227;o social e defini&#231;&#227;o de pap&#233;is</text><path d="M474,220.6865 L464,220.6865 C449,220.6865 449,197.6335 434,197.6335 L424,197.6335 " fill="none" style="stroke:#000000;stroke-width:1.0;"/><text fill="#000000" font-family="Verdana" font-size="11" lengthAdjust="spacing" textLength="137" x="284" y="217.377">Metodologia e avalia&#231;&#227;o</text><path d="M474,220.6865 L464,220.6865 C449,220.6865 449,213.0022 434,213.0022 L424,213.0022 " fill="none" style="stroke:#000000;stroke-width:1.0;"/><text fill="#000000" font-family="Verdana" font-size="11" lengthAdjust="spacing" textLength="209" x="212" y="232.7456">Ambiente virtual e suas ferramentas</text><path d="M474,220.6865 L464,220.6865 C449,220.6865 449,228.3708 434,228.3708 L424,228.3708 " fill="none" style="stroke:#000000;stroke-width:1.0;"/><text fill="#000000" font-family="Verdana" font-size="11" lengthAdjust="spacing" textLength="191" x="230" y="248.1143">Conte&#250;dos como objectos digitais</text><path d="M474,220.6865 L464,220.6865 C449,220.6865 449,243.7395 434,243.7395 L424,243.7395 " fill="none" style="stroke:#000000;stroke-width:1.0;"/><path d="M765,301.1611 L755,301.1611 C740,301.1611 740,220.6865 725,220.6865 L715,220.6865 " fill="none" style="stroke:#000000;stroke-width:1.0;"/><rect fill="#FFFFFF" height="33.3687" rx="12.5" ry="12.5" style="stroke:#AAAAAA;stroke-width:1.5;" width="232" x="483" y="257.7925"/><text fill="#000000" font-family="Verdana" font-size="11" lengthAdjust="spacing" textLength="212" x="493" y="278.8516">Modelo e-Moderating (Salmon, 2000)</text><text fill="#000000" font-family="Verdana" font-size="11" lengthAdjust="spacing" textLength="190" x="240" y="263.4829">E-moderador como figura central</text><path d="M483,274.4768 L473,274.4768 C458,274.4768 458,259.1082 443,259.1082 L433,259.1082 " fill="none" style="stroke:#000000;stroke-width:1.0;"/><text fill="#000000" font-family="Verdana" font-size="11" lengthAdjust="spacing" textLength="227" x="203" y="278.8516">Aprendizagem estruturada em 5 etapas</text><path d="M483,274.4768 L473,274.4768 C458,274.4768 458,274.4768 443,274.4768 L433,274.4768 " fill="none" style="stroke:#000000;stroke-width:1.0;"/><text fill="#000000" font-family="Verdana" font-size="11" lengthAdjust="spacing" textLength="253" x="177" y="294.2202">Foco na autonomia e interac&#231;&#227;o progressiva</text><path d="M483,274.4768 L473,274.4768 C458,274.4768 458,289.8455 443,289.8455 L433,289.8455 " fill="none" style="stroke:#000000;stroke-width:1.0;"/><path d="M765,301.1611 L755,301.1611 C740,301.1611 740,274.4768 725,274.4768 L715,274.4768 " fill="none" style="stroke:#000000;stroke-width:1.0;"/><rect fill="#FFFFFF" height="33.3687" rx="12.5" ry="12.5" style="stroke:#AAAAAA;stroke-width:1.5;" width="231" x="484" y="311.1611"/><text fill="#000000" font-family="Verdana" font-size="11" lengthAdjust="spacing" textLength="211" x="494" y="332.2202">Modelo de Intera&#231;&#227;o (Faerber, 2022)</text><text fill="#000000" font-family="Verdana" font-size="11" lengthAdjust="spacing" textLength="150" x="281" y="316.8516">L&#243;gica socio-construtivista</text><path d="M484,327.8455 L474,327.8455 C459,327.8455 459,312.4768 444,312.4768 L434,312.4768 " fill="none" style="stroke:#000000;stroke-width:1.0;"/><text fill="#000000" font-family="Verdana" font-size="11" lengthAdjust="spacing" textLength="300" x="131" y="332.2202">Grupo como novo elemento do tri&#226;ngulo pedag&#243;gico</text><path d="M484,327.8455 L474,327.8455 C459,327.8455 459,327.8455 444,327.8455 L434,327.8455 " fill="none" style="stroke:#000000;stroke-width:1.0;"/><text fill="#000000" font-family="Verdana" font-size="11" lengthAdjust="spacing" textLength="259" x="172" y="347.5889">Tr&#234;s dimens&#245;es: participar, facilitar, partilhar</text><path d="M484,327.8455 L474,327.8455 C459,327.8455 459,343.2141 444,343.2141 L434,343.2141 " fill="none" style="stroke:#000000;stroke-width:1.0;"/><path d="M765,301.1611 L755,301.1611 C740,301.1611 740,327.8455 725,327.8455 L715,327.8455 " fill="none" style="stroke:#000000;stroke-width:1.0;"/><rect fill="#FFFFFF" height="33.3687" rx="12.5" ry="12.5" style="stroke:#AAAAAA;stroke-width:1.5;" width="330" x="385" y="364.9514"/><text fill="#000000" font-family="Verdana" font-size="11" lengthAdjust="spacing" textLength="310" x="395" y="386.0105">Modelo da Desconstru&#231;&#227;o de Imagens (Moreira, 2017)</text><text fill="#000000" font-family="Verdana" font-size="11" lengthAdjust="spacing" textLength="300" x="32" y="362.9575">Baseado na Teoria da Flexibilidade Cognitiva (Spiro)</text><path d="M385,381.6357 L375,381.6357 C360,381.6357 360,358.5828 345,358.5828 L335,358.5828 " fill="none" style="stroke:#000000;stroke-width:1.0;"/><text fill="#000000" font-family="Verdana" font-size="11" lengthAdjust="spacing" textLength="244" x="88" y="378.3262">An&#225;lise de casos sob m&#250;ltiplas perspetivas</text><path d="M385,381.6357 L375,381.6357 C360,381.6357 360,373.9514 345,373.9514 L335,373.9514 " fill="none" style="stroke:#000000;stroke-width:1.0;"/><text fill="#000000" font-family="Verdana" font-size="11" lengthAdjust="spacing" textLength="280" x="52" y="393.6948">Processos: desconstru&#231;&#227;o e travessias tem&#225;ticas</text><path d="M385,381.6357 L375,381.6357 C360,381.6357 360,389.3201 345,389.3201 L335,389.3201 " fill="none" style="stroke:#000000;stroke-width:1.0;"/><text fill="#000000" font-family="Verdana" font-size="11" lengthAdjust="spacing" textLength="322" x="10" y="409.0635">Objecto de aprendizagem: caso + perspetivas + an&#225;lise</text><path d="M385,381.6357 L375,381.6357 C360,381.6357 360,404.6887 345,404.6887 L335,404.6887 " fill="none" style="stroke:#000000;stroke-width:1.0;"/><path d="M765,301.1611 L755,301.1611 C740,301.1611 740,381.6357 725,381.6357 L715,381.6357 " fill="none" style="stroke:#000000;stroke-width:1.0;"/><path d="M1017,211.1865 L1007,211.1865 C992,211.1865 992,301.1611 977,301.1611 L967,301.1611 " fill="none" style="stroke:#000000;stroke-width:1.0;"/><!--SRC=[xLbDSnkv4RtFhy1MvK0hIubVeZvEbcHAAqUALPBipKq5plICiCO0Om33jPpoZt5oI3bLERbosIl_M1xcYqDIcqCgsKWbKQeI1zC0NdU_rutHlBIE6vSA5QKyOxtXJMzmmvsOYOX7P6yYkk6P8HM9JpoXz2OIYN1S1jz550j5xEpqv8VhmxEta-0xeKAPHvGRoMwTo-p-rbOYhDl4XDjycbioeLQEbDiCTRh5qyHkHRIziptkzVe3liktunwD1gDUFDmRJCSxktpKspByvwrmhpSCnzDHt1zFnxtfDb4y78nsuzxUSBIt4tDEmvtTUBk_PTsTfCqiJsKGRB2DZKcKXtp-j_bVDNjLmcQKiakAQ6CZ22J5ZbaH4OmtRXY5sbh0fPHR5X5hUyqoRZYiDjY1quOikyrJhhHbnCfu2Ellth23T2hW82nun3FdurXOXLhogJRbTMbwJcx-9SOOcmejvzyI4Ugker1L5zL-vaCkCEfo64QQJHOe6vywFmhvNYYhrVTiqEiDNlYPsE6QVzHAfu9xTuhGpt-900VEE25lWR0ol6gvdP1rFc0HNuv0v-pywiM_iszlKTbTKgQjSFDlHkZ2M4z_WYjwBRwL_SbYhLZc7uilpl0fbxUwCZdNPGBy0ZCkHPdUzPjMfBciSa_i9vqqe8x969uYIIN-EZErQIHic5kxM7GYoLkNe6sUQUC8TjhuH3VRtx1KHoHXTP55F2dJQTbC69U37Gi27UaqpPLmTqp7x5GXk-QETKwuCG89PEGObvjreD-OX2k4g0HdTIWyXLaXFL4E0bJ6i_bNKVi7Nkb8IvqWx_S5gQPeXSslPtF48bx4fR8yMb06WjMjxBKuZw1xlnbr_HVFS9MmpXMNQKN7NktCf9iM5f4svNgnI3ohG-nfK54gU6tIWGyczzG76t6vZV3mhC5th4FD57YQkuhdn0GW6nwMiScCJi07AsQy3HKXEotCIglECISp9UFH3Xhnd9KYB8Akkw1s0GLb4UMofgi16qfNb9uX11LJl4wT4VE_g2J7TXarXAY5QUP_zr64jPt_a-n-ASbGuC_tBEQXa8WlljPADKlmeNoo5QA61ASf8gOiwvn30i9mxqr_f_Rca5j2u7sqhWdKvNwLOqaVnHHx-KgFR2UW9KA5x6N2w7hgWPf_aS9I8HPkaNwhfooT_oATo2I8av6n6VcPTM8kZ0uHTWt7eXMaXQ1dFYUOYI8o_mA_cublIeQjbeVzOcFs-_PMkE8LiY0m8hbTgkLgfkMCQi51Rs4ZyAEsu1kcjsti_1ygD5eL-h7DrP9jqHmNyhw_darIZHMHO2oKKbJfi4M8afQN5ER65dtYkgZ_NhkD2FD2CQj5lAcmrTIYrO6fogCv09kzJZkNauCwZKS6XVXhNOW_GFXbsl5hwaMMT3tfBau1G7QmNaWAXyc0i9_mfHc66bjLfsX-wrNemfVHUFvDYjLzGPveGUjM3Jh88w6XlvmtjUw2PoIztA3qs3FET5F-dap3m_dNRhPO3vKE3U9kghc96Wq3MtqNAMfZF4Cfouiwn9kjPQbtNvWuukcBR3kTBn68wYWL12__ivFLBMYCQfUXHQJaRdLasqFSeRHCSnmn0l-nQFo-jwHmZGnfTvVHqI4FtoT6voe2sL5j-tmy3WT1zLbCcQxOnN4Sh5k5meIIeYEK8HvY4_RdW36GKkIMxU9hZ1HTYK_4-ltgwe_e8-mTcOX3DP-NraB1iCK2R6tttns- -TFX2Mv1dQ1LESWvBupzikK8EifzswpYM8JZk9aw70xNxYncC8Och7zkxr8C7AzlrOotrsq6woNzM9sjDUFsZGM6PlWKKg-7Fo-b0pdGvbT2Y5Fqc0Oh8Qoo_vj4SIdPJLDJxa6cV9cPMahq7bHG-_31Nj67d5H8X_hZ_LYfvtzMi8R5vpU3sy9RdCfmhg57mLjK-4mhUWoiLJWIFdoK4NTuYBEF02babJzOc2sSkQNmeGRqVz19FwyqG9oXS1HwYixRgl9NpZ_IOv4KCU5qZVwrI57J0vgRz_UqfN1C_MrkxXv9Nr7EQFaeiABx_Rh47WBKUmh2Ay5JhQAdKXSOWyC90j1MqJrF5_-TnmuyopfwEg4j7jrNs4uhpzFB0Ih_E_g4cjBICTGzagEzr7dq90yE1kJaAf6Fu13k_qd7auTx37z-jVZyQl7vrUBpgyNdLulFhnQVNoq-lrhyFxnQl91SkRVdPsm6sY8rhB-92ZFQ77QkRtFqeIdhRxF-tlwejz_RPZzEhdq16hq8EYSNPxC1P9QRi6X8vNCVLdWHl0PSTfdZmJ-bVVOc8_NwrH_g0JPHOAHMlWe5hz-TBmp6e-wXSEoA3B2mT-V1AufvBXrcX3g2d_lixVLnTpSuuwNF-z1GS8G3dJDtk7VrBm00]--></g></svg>