<?xml version="1.0" encoding="us-ascii" standalone="no"?><svg xmlns="http://www.w3.org/2000/svg" xmlns:xlink="http://www.w3.org/1999/xlink" contentStyleType="text/css" height="206px" preserveAspectRatio="none" style="width:1876px;height:206px;background:#FFFFFF;" version="1.1" viewBox="0 0 1876 206" width="1876px" zoomAndPan="magnify"><defs/><g><rect fill="#FFFFFF" height="33.3687" rx="12.5" ry="12.5" style="stroke:#AAAAAA;stroke-width:1.5;" width="235" x="888" y="85.5276"/><text fill="#000000" font-family="Verdana" font-size="11" font-weight="bold" lengthAdjust="spacing" textLength="215" x="898" y="106.5867">Pedagogia e Aprendizagem Digital</text><rect fill="#FFFFFF" height="33.3687" rx="12.5" ry="12.5" style="stroke:#AAAAAA;stroke-width:1.5;" width="275" x="1173" y="54.7903"/><text fill="#000000" font-family="Verdana" font-size="11" lengthAdjust="spacing" textLength="255" x="1183" y="75.8494">Modelos Pedag&#243;gicos para Cen&#225;rios H&#237;bridos</text><text fill="#000000" font-family="Verdana" font-size="11" lengthAdjust="spacing" textLength="256" x="1501" y="52.7964">Combina&#231;&#227;o entre ensino presencial e online</text><path d="M1448,71.4746 L1458,71.4746 C1473,71.4746 1473,48.4216 1488,48.4216 L1498,48.4216 " fill="none" style="stroke:#000000;stroke-width:1.0;"/><text fill="#000000" font-family="Verdana" font-size="11" lengthAdjust="spacing" textLength="170" x="1501" y="68.165">Flexibilidade e personaliza&#231;&#227;o</text><path d="M1448,71.4746 L1458,71.4746 C1473,71.4746 1473,63.7903 1488,63.7903 L1498,63.7903 " fill="none" style="stroke:#000000;stroke-width:1.0;"/><text fill="#000000" font-family="Verdana" font-size="11" lengthAdjust="spacing" textLength="298" x="1501" y="83.5337">Modelos: Rotation, Flex, Self-Blend, Enriched Virtual</text><path d="M1448,71.4746 L1458,71.4746 C1473,71.4746 1473,79.1589 1488,79.1589 L1498,79.1589 " fill="none" style="stroke:#000000;stroke-width:1.0;"/><text fill="#000000" font-family="Verdana" font-size="11" lengthAdjust="spacing" textLength="210" x="1501" y="98.9023">Flipped Classroom e Station Rotation</text><path d="M1448,71.4746 L1458,71.4746 C1473,71.4746 1473,94.5276 1488,94.5276 L1498,94.5276 " fill="none" style="stroke:#000000;stroke-width:1.0;"/><path d="M1123,102.2119 L1133,102.2119 C1148,102.2119 1148,71.4746 1163,71.4746 L1173,71.4746 " fill="none" style="stroke:#000000;stroke-width:1.0;"/><rect fill="#FFFFFF" height="33.3687" rx="12.5" ry="12.5" style="stroke:#AAAAAA;stroke-width:1.5;" width="282" x="1173" y="116.2649"/><text fill="#000000" font-family="Verdana" font-size="11" lengthAdjust="spacing" textLength="262" x="1183" y="137.324">Modelos Pedag&#243;gicos para Ambientes Virtuais</text><text fill="#000000" font-family="Verdana" font-size="11" lengthAdjust="spacing" textLength="356" x="1508" y="114.271">Community of Inquiry (presen&#231;a social, cognitiva e de ensino)</text><path d="M1455,132.9492 L1465,132.9492 C1480,132.9492 1480,109.8962 1495,109.8962 L1505,109.8962 " fill="none" style="stroke:#000000;stroke-width:1.0;"/><text fill="#000000" font-family="Verdana" font-size="11" lengthAdjust="spacing" textLength="176" x="1508" y="129.6396">Modelo E-Moderating (Salmon)</text><path d="M1455,132.9492 L1465,132.9492 C1480,132.9492 1480,125.2649 1495,125.2649 L1505,125.2649 " fill="none" style="stroke:#000000;stroke-width:1.0;"/><text fill="#000000" font-family="Verdana" font-size="11" lengthAdjust="spacing" textLength="220" x="1508" y="145.0083">Modelo de Faerber (tri&#226;ngulo + grupo)</text><path d="M1455,132.9492 L1465,132.9492 C1480,132.9492 1480,140.6335 1495,140.6335 L1505,140.6335 " fill="none" style="stroke:#000000;stroke-width:1.0;"/><text fill="#000000" font-family="Verdana" font-size="11" lengthAdjust="spacing" textLength="198" x="1508" y="160.377">Avalia&#231;&#227;o integrada e colaborativa</text><path d="M1455,132.9492 L1465,132.9492 C1480,132.9492 1480,156.0022 1495,156.0022 L1505,156.0022 " fill="none" style="stroke:#000000;stroke-width:1.0;"/><path d="M1123,102.2119 L1133,102.2119 C1148,102.2119 1148,132.9492 1163,132.9492 L1173,132.9492 " fill="none" style="stroke:#000000;stroke-width:1.0;"/><rect fill="#FFFFFF" height="33.3687" rx="12.5" ry="12.5" style="stroke:#AAAAAA;stroke-width:1.5;" width="221" x="617" y="24.053"/><text fill="#000000" font-family="Verdana" font-size="11" lengthAdjust="spacing" textLength="201" x="627" y="45.1121">Comunica&#231;&#227;o e Colabora&#231;&#227;o Digital</text><text fill="#000000" font-family="Verdana" font-size="11" lengthAdjust="spacing" textLength="189" x="375" y="22.0591">Interac&#231;&#227;o s&#237;ncrona e ass&#237;ncrona</text><path d="M617,40.7373 L607,40.7373 C592,40.7373 592,17.6843 577,17.6843 L567,17.6843 " fill="none" style="stroke:#000000;stroke-width:1.0;"/><text fill="#000000" font-family="Verdana" font-size="11" lengthAdjust="spacing" textLength="192" x="372" y="37.4277">Plataformas digitais colaborativas</text><path d="M617,40.7373 L607,40.7373 C592,40.7373 592,33.053 577,33.053 L567,33.053 " fill="none" style="stroke:#000000;stroke-width:1.0;"/><text fill="#000000" font-family="Verdana" font-size="11" lengthAdjust="spacing" textLength="226" x="338" y="52.7964">Comunidades virtuais de aprendizagem</text><path d="M617,40.7373 L607,40.7373 C592,40.7373 592,48.4216 577,48.4216 L567,48.4216 " fill="none" style="stroke:#000000;stroke-width:1.0;"/><text fill="#000000" font-family="Verdana" font-size="11" lengthAdjust="spacing" textLength="295" x="269" y="68.165">Desenvolvimento de compet&#234;ncias sociais e digitais</text><path d="M617,40.7373 L607,40.7373 C592,40.7373 592,63.7903 577,63.7903 L567,63.7903 " fill="none" style="stroke:#000000;stroke-width:1.0;"/><path d="M888,102.2119 L878,102.2119 C863,102.2119 863,40.7373 848,40.7373 L838,40.7373 " fill="none" style="stroke:#000000;stroke-width:1.0;"/><rect fill="#FFFFFF" height="33.3687" rx="12.5" ry="12.5" style="stroke:#AAAAAA;stroke-width:1.5;" width="228" x="610" y="85.5276"/><text fill="#000000" font-family="Verdana" font-size="11" lengthAdjust="spacing" textLength="208" x="620" y="106.5867">Atividades de Aprendizagem Digitais</text><text fill="#000000" font-family="Verdana" font-size="11" lengthAdjust="spacing" textLength="246" x="311" y="83.5337">Aprendizagem activa e "aprender fazendo"</text><path d="M610,102.2119 L600,102.2119 C585,102.2119 585,79.1589 570,79.1589 L560,79.1589 " fill="none" style="stroke:#000000;stroke-width:1.0;"/><text fill="#000000" font-family="Verdana" font-size="11" lengthAdjust="spacing" textLength="239" x="318" y="98.9023">Utiliza&#231;&#227;o de recursos digitais interactivos</text><path d="M610,102.2119 L600,102.2119 C585,102.2119 585,94.5276 570,94.5276 L560,94.5276 " fill="none" style="stroke:#000000;stroke-width:1.0;"/><text fill="#000000" font-family="Verdana" font-size="11" lengthAdjust="spacing" textLength="233" x="324" y="114.271">Avalia&#231;&#227;o formativa e portef&#243;lios digitais</text><path d="M610,102.2119 L600,102.2119 C585,102.2119 585,109.8962 570,109.8962 L560,109.8962 " fill="none" style="stroke:#000000;stroke-width:1.0;"/><text fill="#000000" font-family="Verdana" font-size="11" lengthAdjust="spacing" textLength="359" x="198" y="129.6396">Cria&#231;&#227;o de produtos digitais (v&#237;deos, apresenta&#231;&#245;es, podcasts)</text><path d="M610,102.2119 L600,102.2119 C585,102.2119 585,125.2649 570,125.2649 L560,125.2649 " fill="none" style="stroke:#000000;stroke-width:1.0;"/><path d="M888,102.2119 L878,102.2119 C863,102.2119 863,102.2119 848,102.2119 L838,102.2119 " fill="none" style="stroke:#000000;stroke-width:1.0;"/><rect fill="#FFFFFF" height="33.3687" rx="12.5" ry="12.5" style="stroke:#AAAAAA;stroke-width:1.5;" width="317" x="521" y="147.0022"/><text fill="#000000" font-family="Verdana" font-size="11" lengthAdjust="spacing" textLength="297" x="531" y="168.0613">Planifica&#231;&#227;o de Atividades de Aprendizagem Digitais</text><text fill="#000000" font-family="Verdana" font-size="11" lengthAdjust="spacing" textLength="130" x="338" y="145.0083">Centrada no estudante</text><path d="M521,163.6865 L511,163.6865 C496,163.6865 496,140.6335 481,140.6335 L471,140.6335 " fill="none" style="stroke:#000000;stroke-width:1.0;"/><text fill="#000000" font-family="Verdana" font-size="11" lengthAdjust="spacing" textLength="240" x="228" y="160.377">Promo&#231;&#227;o da autonomia e autorregula&#231;&#227;o</text><path d="M521,163.6865 L511,163.6865 C496,163.6865 496,156.0022 481,156.0022 L471,156.0022 " fill="none" style="stroke:#000000;stroke-width:1.0;"/><text fill="#000000" font-family="Verdana" font-size="11" lengthAdjust="spacing" textLength="458" x="10" y="175.7456">Modelo ADDIE (An&#225;lise, Desenho, Desenvolvimento, Implementa&#231;&#227;o, Avalia&#231;&#227;o)</text><path d="M521,163.6865 L511,163.6865 C496,163.6865 496,171.3708 481,171.3708 L471,171.3708 " fill="none" style="stroke:#000000;stroke-width:1.0;"/><text fill="#000000" font-family="Verdana" font-size="11" lengthAdjust="spacing" textLength="293" x="175" y="191.1143">Alinhamento entre objectivos, m&#233;todos e avalia&#231;&#227;o</text><path d="M521,163.6865 L511,163.6865 C496,163.6865 496,186.7395 481,186.7395 L471,186.7395 " fill="none" style="stroke:#000000;stroke-width:1.0;"/><path d="M888,102.2119 L878,102.2119 C863,102.2119 863,163.6865 848,163.6865 L838,163.6865 " fill="none" style="stroke:#000000;stroke-width:1.0;"/><!--SRC=[xLdRRjis6BxNKx35BXpFYULZ4byrTWvDbwn5SzZk0ahy9NEbI9MatAP37wRhHR41lIhs17wn_RHaMtRSOHYsmaQY08b4_iVlFv0CdnXBjKsuP0bDYT-wyVsR51YDLSpf3TpGL8Da_1sD8RbXFEQM2kyHWuXB86Ud9qyl-sTNHzuZBaEHCSYq84DhKzEhrsDkx0uo3BCWCw139Ir8knEgf4wJsDGPT7OxNTzlDEaUxKG-j9jjFshjDuFkxXvj-tLDtzJ3VRyLTeDsrEW6NJ_e04IjPdilylTRxVtTY59exUv5dKRTs5i1EscM2AzAgjKNKny8a8EI3-Gmzw5QzJm1aIM6C_2yQfKCL9997jBnf_57XLm39MYWTF5Ti25XzOQSeYUQXlcC6N-MeLRIQQ9czfLJlX3KqaZfX1gIeySD2Gl9be-eoUbovOmoC6J4jSqS7KE19TDpoaCm84TAZ7Y2Q2f7X8YcOCT_o92Z6gFm3tB3JA7pxW2L5VBPIaHuOSd250sTZIZgSMu8Q1BHT_YY7kVKLvOBfCsHGC4QmamRLNAMvrYX73NLCAA25omJQ0eTgT8Mel4NmKly1JoQptMaMh7CbdLKHkFF39IfJV12VAoZ_XDm85KifCQQBGS2HaFoQ1PZ1yG_XMM0GZLbb4ZC3MCpHj6l8iPQ9QgGI0b5qwHA9eddthM6E1Evnfp-N34GYXmS7fuUaSg177yGt40jZ-nGrPP3N2EdIIeWATpwY0Cb2BSAK0MNGvgdX3CLY0f-WHps6ad6lrl5b4iAEcVrFCtZOQa4SiiCcHJF-4lCG_n8gQRE_V47xGBpTFmvq9ofUU86N4wBPg8OfE68KXu9p4M1MfL4-mgyZWMyvG7cZSFTnHqmOoITvL4P9TCZBvN5356oDc6iaGiGqNPVOA1gv4Xg7Ww1aUj9pOYf0fvY3oC3WVMebKfGoKKkP2RjxzqzGAVG6SoAww8OPzwwEhMtH4NO1LvdND-IIkxf-1FDQq_Ki29ZfChJcaqHsLe8_z6sUt5DGCQaSa55ekGY1J8UKz015bt5QZx-JM8YAV8zYNMMpk9UAYPNQl4aIM6XntXF4AoYnNlUat_JyOVSkP6aw7a2TgYOAGzHY_O56UBbkSUyujB1c123jG_AtgOmwDFmLQnL9XasLgL9WtQxOTChdZbBi4GNHP5tbohaEXJ01aFgUWiYzAj72BhECqFsy3N2nUQ2lmFIQ1HVFs9na6lGMBZKUxyWowN9H02ve_sx_lEV-oSuXLXYjF91Ikc4s8dDHtpVNwLcsOuv7CSprbQhTMTcpa48rLgzAMkP31pVLJKRBykT3Kv5kh5fjEuGboVcDio6Jt49dmw_NmW7na3fhq28gtiNcaiG5j7_9YWk11j_Mnxo5DltMePyCJEL4Aw7AsdMtzWBU9rXluU-UhlQLl3TpvAjuUJvPkQMx9riJ28QmaRahTlZAGcRaBKIbw_rjvBXnZoWPWCinRBArjRCafruo0lN5T3_OILzlxG0ua42jqBtqNbJTFx2-GtT5WaUmHaUKlgb4CtMWDdawZLj0Ox0JLDzko7h2fxPbDW8Mt7r-tg9hOEfAnh28QTui6FtfIyGWWxZ6JGfLz6AqyL_S-p0awo5-mFjvE2-bEsmT9vU12Z_7z0zMfGMjg5sGxRsGcNiNcuSD2OdbR7OW4suiKhJU6qDVRZoUBZoUBZoUBZoUBZoM7NbuOh0NfsVaH7YxY1fx3JzPdkdLRaSPkGO0jBeaCP-h-tt_0xvwUYIkEajhtBoucpKH1Sp7RhUOl8TANTcFyEi8YypF98aq2FFKv3F3d-O3c2KiAKfwPBJUtPzFYVejhVxt694DTf2hi-zGuXe9YnoX8eXC3roTNcylUUTuSAOOLNs44flW4kDrRSuT_4N]--></g></svg>