<?xml version="1.0" encoding="us-ascii" standalone="no"?><svg xmlns="http://www.w3.org/2000/svg" xmlns:xlink="http://www.w3.org/1999/xlink" contentStyleType="text/css" height="235px" preserveAspectRatio="none" style="width:1379px;height:235px;background:#FFFFFF;" version="1.1" viewBox="0 0 1379 235" width="1379px" zoomAndPan="magnify"><defs/><g><rect fill="#FFFFFF" height="46.7373" rx="12.5" ry="12.5" style="stroke:#AAAAAA;stroke-width:1.5;" width="248" x="661" y="93.3687"/><text fill="#000000" font-family="Verdana" font-size="11" font-weight="bold" lengthAdjust="spacing" textLength="228" x="671" y="114.4277">Desenvolvimento da Implementa&#231;&#227;o</text><text fill="#000000" font-family="Verdana" font-size="11" font-weight="bold" lengthAdjust="spacing" textLength="148" x="671" y="127.7964">do Projeto de Forma&#231;&#227;o</text><rect fill="#FFFFFF" height="33.3687" rx="12.5" ry="12.5" style="stroke:#AAAAAA;stroke-width:1.5;" width="172" x="959" y="20"/><text fill="#000000" font-family="Verdana" font-size="11" lengthAdjust="spacing" textLength="152" x="969" y="41.0591">Cronograma de Atividades</text><text fill="#000000" font-family="Verdana" font-size="11" lengthAdjust="spacing" textLength="29" x="1184" y="41.0591">inclui</text><text fill="#000000" font-family="Verdana" font-size="11" lengthAdjust="spacing" textLength="101" x="1266" y="25.6904">Etapas do projeto</text><path d="M1213,36.6843 L1223,36.6843 C1238,36.6843 1238,21.3157 1253,21.3157 L1263,21.3157 " fill="none" style="stroke:#000000;stroke-width:1.0;"/><text fill="#000000" font-family="Verdana" font-size="11" lengthAdjust="spacing" textLength="95" x="1266" y="41.0591">Prazos e marcos</text><path d="M1213,36.6843 L1223,36.6843 C1238,36.6843 1238,36.6843 1253,36.6843 L1263,36.6843 " fill="none" style="stroke:#000000;stroke-width:1.0;"/><text fill="#000000" font-family="Verdana" font-size="11" lengthAdjust="spacing" textLength="78" x="1266" y="56.4277">Monitoriza&#231;&#227;o</text><path d="M1213,36.6843 L1223,36.6843 C1238,36.6843 1238,52.053 1253,52.053 L1263,52.053 " fill="none" style="stroke:#000000;stroke-width:1.0;"/><path d="M1131,36.6843 L1141,36.6843 C1156,36.6843 1156,36.6843 1171,36.6843 L1181,36.6843 " fill="none" style="stroke:#000000;stroke-width:1.0;"/><path d="M909,116.7373 L919,116.7373 C934,116.7373 934,36.6843 949,36.6843 L959,36.6843 " fill="none" style="stroke:#000000;stroke-width:1.0;"/><rect fill="#FFFFFF" height="33.3687" rx="12.5" ry="12.5" style="stroke:#AAAAAA;stroke-width:1.5;" width="138" x="959" y="73.3687"/><text fill="#000000" font-family="Verdana" font-size="11" lengthAdjust="spacing" textLength="118" x="969" y="94.4277">Recursos e Materiais</text><text fill="#000000" font-family="Verdana" font-size="11" lengthAdjust="spacing" textLength="170" x="1150" y="79.0591">Exemplos de recursos digitais</text><path d="M1097,90.053 L1107,90.053 C1122,90.053 1122,74.6843 1137,74.6843 L1147,74.6843 " fill="none" style="stroke:#000000;stroke-width:1.0;"/><text fill="#000000" font-family="Verdana" font-size="11" lengthAdjust="spacing" textLength="191" x="1150" y="94.4277">Atividades e din&#226;micas propostas</text><path d="M1097,90.053 L1107,90.053 C1122,90.053 1122,90.053 1137,90.053 L1147,90.053 " fill="none" style="stroke:#000000;stroke-width:1.0;"/><text fill="#000000" font-family="Verdana" font-size="11" lengthAdjust="spacing" textLength="209" x="1150" y="109.7964">Estrat&#233;gias de media&#231;&#227;o pedag&#243;gica</text><path d="M1097,90.053 L1107,90.053 C1122,90.053 1122,105.4216 1137,105.4216 L1147,105.4216 " fill="none" style="stroke:#000000;stroke-width:1.0;"/><path d="M909,116.7373 L919,116.7373 C934,116.7373 934,90.053 949,90.053 L959,90.053 " fill="none" style="stroke:#000000;stroke-width:1.0;"/><rect fill="#FFFFFF" height="33.3687" rx="12.5" ry="12.5" style="stroke:#AAAAAA;stroke-width:1.5;" width="192" x="959" y="126.7373"/><text fill="#000000" font-family="Verdana" font-size="11" lengthAdjust="spacing" textLength="172" x="969" y="147.7964">Avalia&#231;&#227;o e Melhoria Cont&#237;nua</text><text fill="#000000" font-family="Verdana" font-size="11" lengthAdjust="spacing" textLength="155" x="1204" y="132.4277">Feedback dos participantes</text><path d="M1151,143.4216 L1161,143.4216 C1176,143.4216 1176,128.053 1191,128.053 L1201,128.053 " fill="none" style="stroke:#000000;stroke-width:1.0;"/><text fill="#000000" font-family="Verdana" font-size="11" lengthAdjust="spacing" textLength="133" x="1204" y="147.7964">Ajustes e reformula&#231;&#227;o</text><path d="M1151,143.4216 L1161,143.4216 C1176,143.4216 1176,143.4216 1191,143.4216 L1201,143.4216 " fill="none" style="stroke:#000000;stroke-width:1.0;"/><text fill="#000000" font-family="Verdana" font-size="11" lengthAdjust="spacing" textLength="122" x="1204" y="163.165">Avalia&#231;&#227;o de impacto</text><path d="M1151,143.4216 L1161,143.4216 C1176,143.4216 1176,158.7903 1191,158.7903 L1201,158.7903 " fill="none" style="stroke:#000000;stroke-width:1.0;"/><path d="M909,116.7373 L919,116.7373 C934,116.7373 934,143.4216 949,143.4216 L959,143.4216 " fill="none" style="stroke:#000000;stroke-width:1.0;"/><rect fill="#FFFFFF" height="33.3687" rx="12.5" ry="12.5" style="stroke:#AAAAAA;stroke-width:1.5;" width="144" x="959" y="180.106"/><text fill="#000000" font-family="Verdana" font-size="11" lengthAdjust="spacing" textLength="124" x="969" y="201.165">Refer&#234;ncias e Anexos</text><text fill="#000000" font-family="Verdana" font-size="11" lengthAdjust="spacing" textLength="146" x="1156" y="193.4807">Refer&#234;ncias bibliogr&#225;ficas</text><path d="M1103,196.7903 L1113,196.7903 C1128,196.7903 1128,189.106 1143,189.106 L1153,189.106 " fill="none" style="stroke:#000000;stroke-width:1.0;"/><text fill="#000000" font-family="Verdana" font-size="11" lengthAdjust="spacing" textLength="130" x="1156" y="208.8494">Exemplos de materiais</text><path d="M1103,196.7903 L1113,196.7903 C1128,196.7903 1128,204.4746 1143,204.4746 L1153,204.4746 " fill="none" style="stroke:#000000;stroke-width:1.0;"/><path d="M909,116.7373 L919,116.7373 C934,116.7373 934,196.7903 949,196.7903 L959,196.7903 " fill="none" style="stroke:#000000;stroke-width:1.0;"/><rect fill="#FFFFFF" height="33.3687" rx="12.5" ry="12.5" style="stroke:#AAAAAA;stroke-width:1.5;" width="132" x="479" y="20"/><text fill="#000000" font-family="Verdana" font-size="11" lengthAdjust="spacing" textLength="112" x="489" y="41.0591">Tecnologias Digitais</text><text fill="#000000" font-family="Verdana" font-size="11" lengthAdjust="spacing" textLength="80" x="346" y="41.0591">facilitados por</text><text fill="#000000" font-family="Verdana" font-size="11" lengthAdjust="spacing" textLength="84" x="209" y="25.6904">Inclus&#227;o social</text><path d="M346,36.6843 L336,36.6843 C321,36.6843 321,21.3157 306,21.3157 L296,21.3157 " fill="none" style="stroke:#000000;stroke-width:1.0;"/><text fill="#000000" font-family="Verdana" font-size="11" lengthAdjust="spacing" textLength="124" x="169" y="41.0591">Envolvimento pessoal</text><path d="M346,36.6843 L336,36.6843 C321,36.6843 321,36.6843 306,36.6843 L296,36.6843 " fill="none" style="stroke:#000000;stroke-width:1.0;"/><text fill="#000000" font-family="Verdana" font-size="11" lengthAdjust="spacing" textLength="124" x="169" y="56.4277">Compet&#234;ncias digitais</text><path d="M346,36.6843 L336,36.6843 C321,36.6843 321,52.053 306,52.053 L296,52.053 " fill="none" style="stroke:#000000;stroke-width:1.0;"/><path d="M479,36.6843 L469,36.6843 C454,36.6843 454,36.6843 439,36.6843 L429,36.6843 " fill="none" style="stroke:#000000;stroke-width:1.0;"/><path d="M661,116.7373 L651,116.7373 C636,116.7373 636,36.6843 621,36.6843 L611,36.6843 " fill="none" style="stroke:#000000;stroke-width:1.0;"/><rect fill="#FFFFFF" height="33.3687" rx="12.5" ry="12.5" style="stroke:#AAAAAA;stroke-width:1.5;" width="138" x="473" y="73.3687"/><text fill="#000000" font-family="Verdana" font-size="11" lengthAdjust="spacing" textLength="118" x="483" y="94.4277">Descri&#231;&#227;o do Projeto</text><text fill="#000000" font-family="Verdana" font-size="11" lengthAdjust="spacing" textLength="62" x="358" y="94.4277">constituem</text><text fill="#000000" font-family="Verdana" font-size="11" lengthAdjust="spacing" textLength="95" x="210" y="79.0591">Introdu&#231;&#227;o geral</text><path d="M358,90.053 L348,90.053 C333,90.053 333,74.6843 318,74.6843 L308,74.6843 " fill="none" style="stroke:#000000;stroke-width:1.0;"/><text fill="#000000" font-family="Verdana" font-size="11" lengthAdjust="spacing" textLength="92" x="213" y="94.4277">Objetivos claros</text><path d="M358,90.053 L348,90.053 C333,90.053 333,90.053 318,90.053 L308,90.053 " fill="none" style="stroke:#000000;stroke-width:1.0;"/><text fill="#000000" font-family="Verdana" font-size="11" lengthAdjust="spacing" textLength="108" x="197" y="109.7964">Motiva&#231;&#227;o do tema</text><path d="M358,90.053 L348,90.053 C333,90.053 333,105.4216 318,105.4216 L308,105.4216 " fill="none" style="stroke:#000000;stroke-width:1.0;"/><path d="M473,90.053 L463,90.053 C448,90.053 448,90.053 433,90.053 L423,90.053 " fill="none" style="stroke:#000000;stroke-width:1.0;"/><path d="M661,116.7373 L651,116.7373 C636,116.7373 636,90.053 621,90.053 L611,90.053 " fill="none" style="stroke:#000000;stroke-width:1.0;"/><rect fill="#FFFFFF" height="33.3687" rx="12.5" ry="12.5" style="stroke:#AAAAAA;stroke-width:1.5;" width="174" x="437" y="126.7373"/><text fill="#000000" font-family="Verdana" font-size="11" lengthAdjust="spacing" textLength="154" x="447" y="147.7964">Apresenta&#231;&#227;o do Problema</text><text fill="#000000" font-family="Verdana" font-size="11" lengthAdjust="spacing" textLength="94" x="290" y="147.7964">contribuem para</text><text fill="#000000" font-family="Verdana" font-size="11" lengthAdjust="spacing" textLength="131" x="106" y="140.1121">Descri&#231;&#227;o do problema</text><path d="M290,143.4216 L280,143.4216 C265,143.4216 265,135.7373 250,135.7373 L240,135.7373 " fill="none" style="stroke:#000000;stroke-width:1.0;"/><text fill="#000000" font-family="Verdana" font-size="11" lengthAdjust="spacing" textLength="130" x="107" y="155.4807">Justifica&#231;&#227;o da escolha</text><path d="M290,143.4216 L280,143.4216 C265,143.4216 265,151.106 250,151.106 L240,151.106 " fill="none" style="stroke:#000000;stroke-width:1.0;"/><path d="M437,143.4216 L427,143.4216 C412,143.4216 412,143.4216 397,143.4216 L387,143.4216 " fill="none" style="stroke:#000000;stroke-width:1.0;"/><path d="M661,116.7373 L651,116.7373 C636,116.7373 636,143.4216 621,143.4216 L611,143.4216 " fill="none" style="stroke:#000000;stroke-width:1.0;"/><rect fill="#FFFFFF" height="33.3687" rx="12.5" ry="12.5" style="stroke:#AAAAAA;stroke-width:1.5;" width="200" x="411" y="180.106"/><text fill="#000000" font-family="Verdana" font-size="11" lengthAdjust="spacing" textLength="180" x="421" y="201.165">Estrutura e Formato da Entrega</text><text fill="#000000" font-family="Verdana" font-size="11" lengthAdjust="spacing" textLength="46" x="312" y="201.165">definem</text><text fill="#000000" font-family="Verdana" font-size="11" lengthAdjust="spacing" textLength="223" x="36" y="185.7964">Plataforma digital (ex: Moodle, Teams)</text><path d="M312,196.7903 L302,196.7903 C287,196.7903 287,181.4216 272,181.4216 L262,181.4216 " fill="none" style="stroke:#000000;stroke-width:1.0;"/><text fill="#000000" font-family="Verdana" font-size="11" lengthAdjust="spacing" textLength="192" x="67" y="201.165">Modalidade (s&#237;ncrona/ass&#237;ncrona)</text><path d="M312,196.7903 L302,196.7903 C287,196.7903 287,196.7903 272,196.7903 L262,196.7903 " fill="none" style="stroke:#000000;stroke-width:1.0;"/><text fill="#000000" font-family="Verdana" font-size="11" lengthAdjust="spacing" textLength="249" x="10" y="216.5337">Tipos de conte&#250;dos (v&#237;deo, quizzes, f&#243;runs)</text><path d="M312,196.7903 L302,196.7903 C287,196.7903 287,212.1589 272,212.1589 L262,212.1589 " fill="none" style="stroke:#000000;stroke-width:1.0;"/><path d="M411,196.7903 L401,196.7903 C386,196.7903 386,196.7903 371,196.7903 L361,196.7903 " fill="none" style="stroke:#000000;stroke-width:1.0;"/><path d="M661,116.7373 L651,116.7373 C636,116.7373 636,196.7903 621,196.7903 L611,196.7903 " fill="none" style="stroke:#000000;stroke-width:1.0;"/><!--SRC=[xLdDSjis4BxpAP2P7XoDOr6_jjLB8l-aTkqc4pjfRvebiPIGW0G3W8hjJXwcxQ7JpkIKMwzwiIv8Yg9avvPafB7fYxWBx7xxxM81c4-D1MrZaV0OKkRtHtvxnD5WCbLoAc9Ch1fn68aubUZU80GIg56grLjqEXn5IiUv6EDHAi52BXXnCHOMfFU8OoGIP6Sdpt-w79wzFl8UYIIK6STCIpQnDZM3PdCiZDsX2PCio0pgK2MMlEs4Acv2F3PDZhtTNj_tMstOWrxaOxVTzQFEVZlex-v1rszg-D0Cz_rEs0-wKQiVzFsWXnXrsjszoD_lTFTt8m3ixEv5lLRJs6k9EsaMIyzh31gDm-M86GTsKaKy-tlsbseql4Q3A_QoY9jnPCSkp5Bve-T9Z2mpWYEPRB1B31CbrLY0OOSv4yAGl35Y4OH2qZjNXgLAEo59JnmbXcmneq91j1NYepgg58rHbUf0nIdQsRz9w7pmXGz6qOHQvCZO0dBXdOWrLjWCuygnrOfdnUWnwih-Yu1cYIcX32LePKhnkI8XLCOjnk1yFakruz12tMqW2stXrseHa5-MWeRIs0hIj3Q5jASPGOr4EBS9Z8OhESaT7XchCvjf4XQPAD9sH6vmN3ejAcyUwSkgDaks9Dl2gm55fBZ4RKePnEPn5IO7AJXGdhVCx5CIQfL04qprUpxmKgH44GtBItRsdqlhrdJsYQFQPkypSNE3Pfj5iyywIyYwfyLuKgkJ0xAbnXeSA6JFYDlSQLah-K8HyrgmaBfCvppDC-hYqd13Jf75GEjcaQT4MAN5JS6Uy_KAmqoRVEWvMDIYgicZAwHoB-BGyr5ygMmNq6Ww5ydipvWoOnmM8i32t1Ab1UpidxpmoLgCN9JvIv73UFPvJDFoYfaImQMA0A6S45gWiauiSPoLAJn6v064xrY-NAXLYL2aG4pFORsb8ianQNIvpMGLhzFMV10Owc8GsfAB2FLyyH3n2LwfqkIIAX2159IWsH-k4E-WAwwOV8hKH8j6wdbFltbVdL09CS9XhubaEr7Sr4LWy-NcU7AFUISIj-vYHcnfLFOwnOCXyJhMAalu0RKgpLhGxuTjhtmMKuALSL4KURT7XKA74ld1XDv2Si9-znZJm4Lcs1xzZ2Yn5-86MQjLllq2CR8tg3aau7rSiYLffUK6s2tlFmnV_3PyJgf0QOww4090FjYPBII-xz_bPXN7WexZQcgdqxcbMSnW3BHM7-fUSi7nRLULl6wt4ivDEjayMxS6rnKB39NuXBhENFnnAHskqFKNAAGzj8_j5GhBx7yN5fUINLlLQvdovSfKKc9e1MsZwm_s0jzdc8GuL5TtOqNV_QrW3VFdky6juHNKrpMTZt0ZwfREfgbAS1EgDb4Srnybfpqk0BC1I6bPPMiBiuQJhbBXkXBw3NRIZoiR89rOwIXq7uCtPUSlWz_GOv4K4PxH3MvOIr6r1rJAk_Uq9Je2fmPzlI7xYhkIout0IhlVbvVOEa2zeo4S2eXLmkzBNs2C0dR_OQYleZjk5r_dsa7NNeltXzhybhzIxRXodrucI0LlwVvmZpQbfMEetP2ZlLGPlvS71qt52SbORi0Xt5YbORo-n_273miF7nOUFYmyV5ZukXyMgDWI-_hyZ4rH6w4Irjff- -tkJcVhSf9HL05hzLXhVz3r1twF_NfqoPpwiRVr_ENPj4rD8DEXuzaKHpcoyDWxXIcmLncTvMCSi1Sf9gU7Fyy5hbK8AYRNAhpJD-UB0Vtkaw6mx08rOM5lphr3Z22JbcQ4YZ8v7h3NbyTFzhmpsb4oQjK3EXjv1zIZhRuctSN_]--></g></svg>