<?xml version="1.0" encoding="us-ascii" standalone="no"?><svg xmlns="http://www.w3.org/2000/svg" xmlns:xlink="http://www.w3.org/1999/xlink" contentStyleType="text/css" height="298px" preserveAspectRatio="none" style="width:786px;height:298px;background:#FFFFFF;" version="1.1" viewBox="0 0 786 298" width="786px" zoomAndPan="magnify"><defs/><g><rect fill="#FFFFFF" height="46.7373" rx="12.5" ry="12.5" style="stroke:#AAAAAA;stroke-width:1.5;" width="148" x="10" y="124.9492"/><text fill="#000000" font-family="Verdana" font-size="11" font-weight="bold" lengthAdjust="spacing" textLength="128" x="20" y="146.0083">Projeto de Forma&#231;&#227;o</text><text fill="#000000" font-family="Verdana" font-size="11" font-weight="bold" lengthAdjust="spacing" textLength="124" x="20" y="159.377">em Contexto Digital</text><rect fill="#FFFFFF" height="33.3687" rx="12.5" ry="12.5" style="stroke:#AAAAAA;stroke-width:1.5;" width="210" x="208" y="31.7373"/><text fill="#000000" font-family="Verdana" font-size="11" lengthAdjust="spacing" textLength="190" x="218" y="52.7964">Desenho do Projeto de Forma&#231;&#227;o</text><text fill="#000000" font-family="Verdana" font-size="11" lengthAdjust="spacing" textLength="126" x="471" y="22.0591">Defini&#231;&#227;o de objetivos</text><path d="M418,48.4216 L428,48.4216 C443,48.4216 443,17.6843 458,17.6843 L468,17.6843 " fill="none" style="stroke:#000000;stroke-width:1.0;"/><text fill="#000000" font-family="Verdana" font-size="11" lengthAdjust="spacing" textLength="164" x="471" y="37.4277">Identifica&#231;&#227;o do p&#250;blico-alvo</text><path d="M418,48.4216 L428,48.4216 C443,48.4216 443,33.053 458,33.053 L468,33.053 " fill="none" style="stroke:#000000;stroke-width:1.0;"/><text fill="#000000" font-family="Verdana" font-size="11" lengthAdjust="spacing" textLength="156" x="471" y="52.7964">Estrutura modular do curso</text><path d="M418,48.4216 L428,48.4216 C443,48.4216 443,48.4216 458,48.4216 L468,48.4216 " fill="none" style="stroke:#000000;stroke-width:1.0;"/><text fill="#000000" font-family="Verdana" font-size="11" lengthAdjust="spacing" textLength="216" x="471" y="68.165">Sele&#231;&#227;o de conte&#250;dos e metodologias</text><path d="M418,48.4216 L428,48.4216 C443,48.4216 443,63.7903 458,63.7903 L468,63.7903 " fill="none" style="stroke:#000000;stroke-width:1.0;"/><text fill="#000000" font-family="Verdana" font-size="11" lengthAdjust="spacing" textLength="150" x="471" y="83.5337">Planeamento da avalia&#231;&#227;o</text><path d="M418,48.4216 L428,48.4216 C443,48.4216 443,79.1589 458,79.1589 L468,79.1589 " fill="none" style="stroke:#000000;stroke-width:1.0;"/><path d="M158,148.3179 L168,148.3179 C183,148.3179 183,48.4216 198,48.4216 L208,48.4216 " fill="none" style="stroke:#000000;stroke-width:1.0;"/><rect fill="#FFFFFF" height="33.3687" rx="12.5" ry="12.5" style="stroke:#AAAAAA;stroke-width:1.5;" width="229" x="208" y="108.5806"/><text fill="#000000" font-family="Verdana" font-size="11" lengthAdjust="spacing" textLength="209" x="218" y="129.6396">Desenvolvimento da Implementa&#231;&#227;o</text><text fill="#000000" font-family="Verdana" font-size="11" lengthAdjust="spacing" textLength="167" x="490" y="98.9023">Cria&#231;&#227;o de conte&#250;dos digitais</text><path d="M437,125.2649 L447,125.2649 C462,125.2649 462,94.5276 477,94.5276 L487,94.5276 " fill="none" style="stroke:#000000;stroke-width:1.0;"/><text fill="#000000" font-family="Verdana" font-size="11" lengthAdjust="spacing" textLength="148" x="490" y="114.271">Estrutura&#231;&#227;o dos m&#243;dulos</text><path d="M437,125.2649 L447,125.2649 C462,125.2649 462,109.8962 477,109.8962 L487,109.8962 " fill="none" style="stroke:#000000;stroke-width:1.0;"/><text fill="#000000" font-family="Verdana" font-size="11" lengthAdjust="spacing" textLength="206" x="490" y="129.6396">Integra&#231;&#227;o de atividades interativas</text><path d="M437,125.2649 L447,125.2649 C462,125.2649 462,125.2649 477,125.2649 L487,125.2649 " fill="none" style="stroke:#000000;stroke-width:1.0;"/><text fill="#000000" font-family="Verdana" font-size="11" lengthAdjust="spacing" textLength="162" x="490" y="145.0083">Gest&#227;o da plataforma digital</text><path d="M437,125.2649 L447,125.2649 C462,125.2649 462,140.6335 477,140.6335 L487,140.6335 " fill="none" style="stroke:#000000;stroke-width:1.0;"/><text fill="#000000" font-family="Verdana" font-size="11" lengthAdjust="spacing" textLength="157" x="490" y="160.377">Monitoriza&#231;&#227;o do progresso</text><path d="M437,125.2649 L447,125.2649 C462,125.2649 462,156.0022 477,156.0022 L487,156.0022 " fill="none" style="stroke:#000000;stroke-width:1.0;"/><path d="M158,148.3179 L168,148.3179 C183,148.3179 183,125.2649 198,125.2649 L208,125.2649 " fill="none" style="stroke:#000000;stroke-width:1.0;"/><rect fill="#FFFFFF" height="33.3687" rx="12.5" ry="12.5" style="stroke:#AAAAAA;stroke-width:1.5;" width="161" x="208" y="208.4768"/><text fill="#000000" font-family="Verdana" font-size="11" lengthAdjust="spacing" textLength="141" x="218" y="229.5359">Apresenta&#231;&#227;o do Projeto</text><text fill="#000000" font-family="Verdana" font-size="11" lengthAdjust="spacing" textLength="154" x="422" y="191.1143">Elabora&#231;&#227;o de documentos</text><text fill="#000000" font-family="Verdana" font-size="11" lengthAdjust="spacing" textLength="113" x="629" y="175.7456">Proposta do projeto</text><path d="M576,186.7395 L586,186.7395 C601,186.7395 601,171.3708 616,171.3708 L626,171.3708 " fill="none" style="stroke:#000000;stroke-width:1.0;"/><text fill="#000000" font-family="Verdana" font-size="11" lengthAdjust="spacing" textLength="84" x="629" y="191.1143">Plano de curso</text><path d="M576,186.7395 L586,186.7395 C601,186.7395 601,186.7395 616,186.7395 L626,186.7395 " fill="none" style="stroke:#000000;stroke-width:1.0;"/><text fill="#000000" font-family="Verdana" font-size="11" lengthAdjust="spacing" textLength="136" x="629" y="206.4829">Relat&#243;rios de progresso</text><path d="M576,186.7395 L586,186.7395 C601,186.7395 601,202.1082 616,202.1082 L626,202.1082 " fill="none" style="stroke:#000000;stroke-width:1.0;"/><path d="M369,225.1611 L379,225.1611 C394,225.1611 394,186.7395 409,186.7395 L419,186.7395 " fill="none" style="stroke:#000000;stroke-width:1.0;"/><text fill="#000000" font-family="Verdana" font-size="11" lengthAdjust="spacing" textLength="150" x="422" y="237.2202">Suportes de apresenta&#231;&#227;o</text><text fill="#000000" font-family="Verdana" font-size="11" lengthAdjust="spacing" textLength="127" x="625" y="221.8516">Apresenta&#231;&#245;es visuais</text><path d="M572,232.8455 L582,232.8455 C597,232.8455 597,217.4768 612,217.4768 L622,217.4768 " fill="none" style="stroke:#000000;stroke-width:1.0;"/><text fill="#000000" font-family="Verdana" font-size="11" lengthAdjust="spacing" textLength="113" x="625" y="237.2202">V&#237;deos informativos</text><path d="M572,232.8455 L582,232.8455 C597,232.8455 597,232.8455 612,232.8455 L622,232.8455 " fill="none" style="stroke:#000000;stroke-width:1.0;"/><text fill="#000000" font-family="Verdana" font-size="11" lengthAdjust="spacing" textLength="141" x="625" y="252.5889">Prot&#243;tipos na plataforma</text><path d="M572,232.8455 L582,232.8455 C597,232.8455 597,248.2141 612,248.2141 L622,248.2141 " fill="none" style="stroke:#000000;stroke-width:1.0;"/><path d="M369,225.1611 L379,225.1611 C394,225.1611 394,232.8455 409,232.8455 L419,232.8455 " fill="none" style="stroke:#000000;stroke-width:1.0;"/><text fill="#000000" font-family="Verdana" font-size="11" lengthAdjust="spacing" textLength="113" x="422" y="275.6418">Comunica&#231;&#227;o visual</text><text fill="#000000" font-family="Verdana" font-size="11" lengthAdjust="spacing" textLength="186" x="588" y="267.9575">Escolha de imagens e esquemas</text><path d="M535,271.2671 L545,271.2671 C560,271.2671 560,263.5828 575,263.5828 L585,263.5828 " fill="none" style="stroke:#000000;stroke-width:1.0;"/><text fill="#000000" font-family="Verdana" font-size="11" lengthAdjust="spacing" textLength="170" x="588" y="283.3262">Organiza&#231;&#227;o clara e apelativa</text><path d="M535,271.2671 L545,271.2671 C560,271.2671 560,278.9514 575,278.9514 L585,278.9514 " fill="none" style="stroke:#000000;stroke-width:1.0;"/><path d="M369,225.1611 L379,225.1611 C394,225.1611 394,271.2671 409,271.2671 L419,271.2671 " fill="none" style="stroke:#000000;stroke-width:1.0;"/><path d="M158,148.3179 L168,148.3179 C183,148.3179 183,225.1611 198,225.1611 L208,225.1611 " fill="none" style="stroke:#000000;stroke-width:1.0;"/><!--SRC=[xLXBRzj64BxpLso07X81iQYdRVMIogywjHiZVhGtOSWTKjiiTvdTfHAdoA_feQUUWbvorH_hB4L9bAoUsWGI71emn7djDz_CllZ2EZ0k4ufdaBEmFmh3KMxqR-ZqYECeqIQ36FG8ir6ibSFtNYvIuK06JpWcGY6xE3_xyMPuSNiIF14gbWN7maWsTYwtWsOp5TRjaSEuY0gBfeoYt5wiioPagMroxEtt-c7OQiC1z98Gk-rkc7GEsr5__m2wOTF0ksPy67RYVjHDMlse7qOznAJJxXuauM6dUxYV061d_o3fjPhMtKlSoujC1a5Zq6XSpN9X7DcfpsNwv_GFtMW4ZGPcxAZAY1tFCceqlYUl1Zj6YsfCJffjz2URneYiA7jH2hnQHsGe9jhEjEUSiXI9YA6oq2oVVewaYFLpa9Cgnebrfd250PPfNaWmtYukZAtqroXnCK99tVGprvOXomWLrrAd0geHhoGeX8o69MjWC04f5dXdEKsqd8Y5nNcMI_HlzQoEZ81D8ywABkmQxdbobcNJJvJ18droJCqo4X0rWWD7omIfZ7-V0pz3wqepOBa41sNJiNcNbIQNMWcdZVXGOzFerA0jcM8_vCRdvvRggd0LN0cHhg7XEYvA6ae4dZkZSqrJeGeyzwnOdN4nhme9NoFXd7uomXE3Ar1yqOfS6uUb2bQ0LUvrj7-JtKJOegAMj7VJlpXgprD9nAAdPZ1fM2S8ArDrjghQwQnGYuuheyhAyyJ6Mex1Gn8PfAXy3w5zMs06y-YlJ0fgGN5CtGZCP-2JfMe5Bv1MYTbA4GGl_iF2CHO40xFStVis7cjkwo9mpeYe8083_zWtGkK49MEM-WQrky_nQ0ZnczJeGl4ZcWE6jQ3VZzj1zInTeZMx94c2XrQnCB54VZIcjvW6ORy7Z1dWeh3iW7ucbC2r-82irQhUVgPvnkxGS50GV5o99S7QCW1xCFftmrU_3iz8HSt8qSo4050Q-x0pIHY6cuPPnx6autJXskbq7cYM7eo1CVfTVPHISFfmg8My7dSXd8Vqidcr7XZN5KiC2_4vjSLS_76b75G3RVw5Gjea-jXUex2g_bTXSQNOzD-9MEIWt5QMVBKpjPGOEw6LtNwmrqXBaufngDzlnegX_rl36fVFLuDRmrjkQWd4k1DzIuUlN2lSXQvLckFse-Iq4KTWTm0fJQjYQs7MSD9T8TvMGh_0JlfnRGEaqp8TXHvZyhPQ-QlaT_HO94M25tGv7jPAjDW35ihDUzeA7P5NWxdVaNr5EQFbJc3rrtEtpRHkM12E1MHQySUoBZ162QT4G7qMRRXT_3_N3hhGEdmyr9RtzxLknxNxz2f1_WjNx1xHfhHo37KxShINkk2Fyk1Wg3b1fN873k7MQGFfzXx3ltqv__Rb_DkNyo_qvTppuculBzW4ZHLQiTPUEsntzpfFRyO5EyM8jNgiTJZeXeEmntuvkM5U_InuUdPrCMapgmj3joCkxEn4Gn6U1I-fPzdhWkPDXWFsAaVrylYdkO2Tg8amMlcw1I_lBfS6_UxpeN0qLmnXONUN0SrCAAGZZrXpeT81kxqvVNuGND32Mb3o0peY14UqL3bpJxhhVm00]--></g></svg>