<?xml version="1.0" encoding="us-ascii" standalone="no"?><svg xmlns="http://www.w3.org/2000/svg" xmlns:xlink="http://www.w3.org/1999/xlink" contentStyleType="text/css" height="274px" preserveAspectRatio="none" style="width:1860px;height:274px;background:#FFFFFF;" version="1.1" viewBox="0 0 1860 274" width="1860px" zoomAndPan="magnify"><defs/><g><rect fill="#FFFFFF" height="46.7373" rx="12.5" ry="12.5" style="stroke:#AAAAAA;stroke-width:1.5;" width="256" x="896" y="112.7903"/><text fill="#000000" font-family="Verdana" font-size="11" font-weight="bold" lengthAdjust="spacing" textLength="236" x="906" y="133.8494">Apresenta&#231;&#227;o do Projeto de Forma&#231;&#227;o</text><text fill="#000000" font-family="Verdana" font-size="11" font-weight="bold" lengthAdjust="spacing" textLength="136" x="906" y="147.218">em Plataforma Digital</text><rect fill="#FFFFFF" height="33.3687" rx="12.5" ry="12.5" style="stroke:#AAAAAA;stroke-width:1.5;" width="134" x="1202" y="39.4216"/><text fill="#000000" font-family="Verdana" font-size="11" lengthAdjust="spacing" textLength="114" x="1212" y="60.4807">Comunica&#231;&#227;o Visual</text><text fill="#000000" font-family="Verdana" font-size="11" lengthAdjust="spacing" textLength="146" x="1389" y="37.4277">Imagens Representativas</text><text fill="#000000" font-family="Verdana" font-size="11" lengthAdjust="spacing" textLength="103" x="1588" y="22.0591">&#205;cones / S&#237;mbolos</text><path d="M1535,33.053 L1545,33.053 C1560,33.053 1560,17.6843 1575,17.6843 L1585,17.6843 " fill="none" style="stroke:#000000;stroke-width:1.0;"/><text fill="#000000" font-family="Verdana" font-size="11" lengthAdjust="spacing" textLength="121" x="1588" y="37.4277">Gr&#225;ficos / Diagramas</text><path d="M1535,33.053 L1545,33.053 C1560,33.053 1560,33.053 1575,33.053 L1585,33.053 " fill="none" style="stroke:#000000;stroke-width:1.0;"/><text fill="#000000" font-family="Verdana" font-size="11" lengthAdjust="spacing" textLength="103" x="1588" y="52.7964">Banda Desenhada</text><path d="M1535,33.053 L1545,33.053 C1560,33.053 1560,48.4216 1575,48.4216 L1585,48.4216 " fill="none" style="stroke:#000000;stroke-width:1.0;"/><path d="M1336,56.106 L1346,56.106 C1361,56.106 1361,33.053 1376,33.053 L1386,33.053 " fill="none" style="stroke:#000000;stroke-width:1.0;"/><text fill="#000000" font-family="Verdana" font-size="11" lengthAdjust="spacing" textLength="107" x="1389" y="83.5337">Composi&#231;&#227;o Visual</text><text fill="#000000" font-family="Verdana" font-size="11" lengthAdjust="spacing" textLength="90" x="1549" y="68.165">Enquadramento</text><path d="M1496,79.1589 L1506,79.1589 C1521,79.1589 1521,63.7903 1536,63.7903 L1546,63.7903 " fill="none" style="stroke:#000000;stroke-width:1.0;"/><text fill="#000000" font-family="Verdana" font-size="11" lengthAdjust="spacing" textLength="63" x="1549" y="83.5337">Ilumina&#231;&#227;o</text><path d="M1496,79.1589 L1506,79.1589 C1521,79.1589 1521,79.1589 1536,79.1589 L1546,79.1589 " fill="none" style="stroke:#000000;stroke-width:1.0;"/><text fill="#000000" font-family="Verdana" font-size="11" lengthAdjust="spacing" textLength="107" x="1549" y="98.9023">Cores e Destaques</text><path d="M1496,79.1589 L1506,79.1589 C1521,79.1589 1521,94.5276 1536,94.5276 L1546,94.5276 " fill="none" style="stroke:#000000;stroke-width:1.0;"/><path d="M1336,56.106 L1346,56.106 C1361,56.106 1361,79.1589 1376,79.1589 L1386,79.1589 " fill="none" style="stroke:#000000;stroke-width:1.0;"/><path d="M1152,136.1589 L1162,136.1589 C1177,136.1589 1177,56.106 1192,56.106 L1202,56.106 " fill="none" style="stroke:#000000;stroke-width:1.0;"/><rect fill="#FFFFFF" height="33.3687" rx="12.5" ry="12.5" style="stroke:#AAAAAA;stroke-width:1.5;" width="166" x="1202" y="165.5806"/><text fill="#000000" font-family="Verdana" font-size="11" lengthAdjust="spacing" textLength="146" x="1212" y="186.6396">Modelos de Apresenta&#231;&#227;o</text><text fill="#000000" font-family="Verdana" font-size="11" lengthAdjust="spacing" textLength="55" x="1421" y="186.6396">exemplos</text><rect fill="#FFFFFF" height="33.3687" rx="12.5" ry="12.5" style="stroke:#AAAAAA;stroke-width:1.5;" width="89" x="1526" y="112.2119"/><text fill="#000000" font-family="Verdana" font-size="11" lengthAdjust="spacing" textLength="69" x="1536" y="133.271">PechaKucha</text><text fill="#000000" font-family="Verdana" font-size="11" lengthAdjust="spacing" textLength="137" x="1668" y="125.5867">20 slides x 20 segundos</text><path d="M1615,128.8962 L1625,128.8962 C1640,128.8962 1640,121.2119 1655,121.2119 L1665,121.2119 " fill="none" style="stroke:#000000;stroke-width:1.0;"/><text fill="#000000" font-family="Verdana" font-size="11" lengthAdjust="spacing" textLength="90" x="1668" y="140.9553">Estrutura Visual</text><path d="M1615,128.8962 L1625,128.8962 C1640,128.8962 1640,136.5806 1655,136.5806 L1665,136.5806 " fill="none" style="stroke:#000000;stroke-width:1.0;"/><path d="M1476,182.2649 L1486,182.2649 C1501,182.2649 1501,128.8962 1516,128.8962 L1526,128.8962 " fill="none" style="stroke:#000000;stroke-width:1.0;"/><rect fill="#FFFFFF" height="33.3687" rx="12.5" ry="12.5" style="stroke:#AAAAAA;stroke-width:1.5;" width="70" x="1526" y="165.5806"/><text fill="#000000" font-family="Verdana" font-size="11" lengthAdjust="spacing" textLength="50" x="1536" y="186.6396">Sci Flash</text><text fill="#000000" font-family="Verdana" font-size="11" lengthAdjust="spacing" textLength="56" x="1649" y="178.9553">5 minutos</text><path d="M1596,182.2649 L1606,182.2649 C1621,182.2649 1621,174.5806 1636,174.5806 L1646,174.5806 " fill="none" style="stroke:#000000;stroke-width:1.0;"/><text fill="#000000" font-family="Verdana" font-size="11" lengthAdjust="spacing" textLength="199" x="1649" y="194.324">Narrativa c/ Problema e Conclus&#227;o</text><path d="M1596,182.2649 L1606,182.2649 C1621,182.2649 1621,189.9492 1636,189.9492 L1646,189.9492 " fill="none" style="stroke:#000000;stroke-width:1.0;"/><path d="M1476,182.2649 L1486,182.2649 C1501,182.2649 1501,182.2649 1516,182.2649 L1526,182.2649 " fill="none" style="stroke:#000000;stroke-width:1.0;"/><rect fill="#FFFFFF" height="33.3687" rx="12.5" ry="12.5" style="stroke:#AAAAAA;stroke-width:1.5;" width="47" x="1526" y="218.9492"/><text fill="#000000" font-family="Verdana" font-size="11" lengthAdjust="spacing" textLength="27" x="1536" y="240.0083">Pitch</text><text fill="#000000" font-family="Verdana" font-size="11" lengthAdjust="spacing" textLength="93" x="1626" y="232.324">Breve e Conciso</text><path d="M1573,235.6335 L1583,235.6335 C1598,235.6335 1598,227.9492 1613,227.9492 L1623,227.9492 " fill="none" style="stroke:#000000;stroke-width:1.0;"/><text fill="#000000" font-family="Verdana" font-size="11" lengthAdjust="spacing" textLength="187" x="1626" y="247.6926">Problema, Solu&#231;&#227;o e Justifica&#231;&#227;o</text><path d="M1573,235.6335 L1583,235.6335 C1598,235.6335 1598,243.3179 1613,243.3179 L1623,243.3179 " fill="none" style="stroke:#000000;stroke-width:1.0;"/><path d="M1476,182.2649 L1486,182.2649 C1501,182.2649 1501,235.6335 1516,235.6335 L1526,235.6335 " fill="none" style="stroke:#000000;stroke-width:1.0;"/><path d="M1368,182.2649 L1378,182.2649 C1393,182.2649 1393,182.2649 1408,182.2649 L1418,182.2649 " fill="none" style="stroke:#000000;stroke-width:1.0;"/><path d="M1152,136.1589 L1162,136.1589 C1177,136.1589 1177,182.2649 1192,182.2649 L1202,182.2649 " fill="none" style="stroke:#000000;stroke-width:1.0;"/><rect fill="#FFFFFF" height="33.3687" rx="12.5" ry="12.5" style="stroke:#AAAAAA;stroke-width:1.5;" width="173" x="673" y="119.4746"/><text fill="#000000" font-family="Verdana" font-size="11" lengthAdjust="spacing" textLength="153" x="683" y="140.5337">Formatos de Apresenta&#231;&#227;o</text><text fill="#000000" font-family="Verdana" font-size="11" lengthAdjust="spacing" textLength="108" x="512" y="140.5337">s&#227;o hip&#243;teses para</text><rect fill="#FFFFFF" height="33.3687" rx="12.5" ry="12.5" style="stroke:#AAAAAA;stroke-width:1.5;" width="138" x="324" y="39.4216"/><text fill="#000000" font-family="Verdana" font-size="11" lengthAdjust="spacing" textLength="118" x="334" y="60.4807">Documentos Escritos</text><text fill="#000000" font-family="Verdana" font-size="11" lengthAdjust="spacing" textLength="113" x="158" y="45.1121">Proposta do Projeto</text><path d="M324,56.106 L314,56.106 C299,56.106 299,40.7373 284,40.7373 L274,40.7373 " fill="none" style="stroke:#000000;stroke-width:1.0;"/><text fill="#000000" font-family="Verdana" font-size="11" lengthAdjust="spacing" textLength="86" x="185" y="60.4807">Plano de Curso</text><path d="M324,56.106 L314,56.106 C299,56.106 299,56.106 284,56.106 L274,56.106 " fill="none" style="stroke:#000000;stroke-width:1.0;"/><text fill="#000000" font-family="Verdana" font-size="11" lengthAdjust="spacing" textLength="136" x="135" y="75.8494">Relat&#243;rios de Progresso</text><path d="M324,56.106 L314,56.106 C299,56.106 299,71.4746 284,71.4746 L274,71.4746 " fill="none" style="stroke:#000000;stroke-width:1.0;"/><path d="M512,136.1589 L502,136.1589 C487,136.1589 487,56.106 472,56.106 L462,56.106 " fill="none" style="stroke:#000000;stroke-width:1.0;"/><rect fill="#FFFFFF" height="33.3687" rx="12.5" ry="12.5" style="stroke:#AAAAAA;stroke-width:1.5;" width="54" x="408" y="92.7903"/><text fill="#000000" font-family="Verdana" font-size="11" lengthAdjust="spacing" textLength="34" x="418" y="113.8494">Slides</text><text fill="#000000" font-family="Verdana" font-size="11" lengthAdjust="spacing" textLength="100" x="255" y="113.8494">caracter&#237;sticos de</text><text fill="#000000" font-family="Verdana" font-size="11" lengthAdjust="spacing" textLength="47" x="155" y="98.4807">Gr&#225;ficos</text><path d="M255,109.4746 L245,109.4746 C230,109.4746 230,94.106 215,94.106 L205,94.106 " fill="none" style="stroke:#000000;stroke-width:1.0;"/><text fill="#000000" font-family="Verdana" font-size="11" lengthAdjust="spacing" textLength="50" x="152" y="113.8494">Imagens</text><path d="M255,109.4746 L245,109.4746 C230,109.4746 230,109.4746 215,109.4746 L205,109.4746 " fill="none" style="stroke:#000000;stroke-width:1.0;"/><text fill="#000000" font-family="Verdana" font-size="11" lengthAdjust="spacing" textLength="62" x="140" y="129.218">Infografias</text><path d="M255,109.4746 L245,109.4746 C230,109.4746 230,124.8433 215,124.8433 L205,124.8433 " fill="none" style="stroke:#000000;stroke-width:1.0;"/><path d="M408,109.4746 L398,109.4746 C383,109.4746 383,109.4746 368,109.4746 L358,109.4746 " fill="none" style="stroke:#000000;stroke-width:1.0;"/><path d="M512,136.1589 L502,136.1589 C487,136.1589 487,109.4746 472,109.4746 L462,109.4746 " fill="none" style="stroke:#000000;stroke-width:1.0;"/><rect fill="#FFFFFF" height="33.3687" rx="12.5" ry="12.5" style="stroke:#AAAAAA;stroke-width:1.5;" width="58" x="404" y="146.1589"/><text fill="#000000" font-family="Verdana" font-size="11" lengthAdjust="spacing" textLength="38" x="414" y="167.218">V&#237;deos</text><text fill="#000000" font-family="Verdana" font-size="11" lengthAdjust="spacing" textLength="100" x="251" y="167.218">caracter&#237;sticos de</text><text fill="#000000" font-family="Verdana" font-size="11" lengthAdjust="spacing" textLength="43" x="155" y="159.5337">Clareza</text><path d="M251,162.8433 L241,162.8433 C226,162.8433 226,155.1589 211,155.1589 L201,155.1589 " fill="none" style="stroke:#000000;stroke-width:1.0;"/><text fill="#000000" font-family="Verdana" font-size="11" lengthAdjust="spacing" textLength="63" x="135" y="174.9023">Dinamismo</text><path d="M251,162.8433 L241,162.8433 C226,162.8433 226,170.5276 211,170.5276 L201,170.5276 " fill="none" style="stroke:#000000;stroke-width:1.0;"/><path d="M404,162.8433 L394,162.8433 C379,162.8433 379,162.8433 364,162.8433 L354,162.8433 " fill="none" style="stroke:#000000;stroke-width:1.0;"/><path d="M512,136.1589 L502,136.1589 C487,136.1589 487,162.8433 472,162.8433 L462,162.8433 " fill="none" style="stroke:#000000;stroke-width:1.0;"/><rect fill="#FFFFFF" height="33.3687" rx="12.5" ry="12.5" style="stroke:#AAAAAA;stroke-width:1.5;" width="123" x="339" y="199.5276"/><text fill="#000000" font-family="Verdana" font-size="11" lengthAdjust="spacing" textLength="103" x="349" y="220.5867">Plataforma Virtual</text><text fill="#000000" font-family="Verdana" font-size="11" lengthAdjust="spacing" textLength="97" x="189" y="220.5867">s&#227;o exemplos de</text><text fill="#000000" font-family="Verdana" font-size="11" lengthAdjust="spacing" textLength="79" x="57" y="205.218">Prot&#243;tipo AVA</text><path d="M189,216.2119 L179,216.2119 C164,216.2119 164,200.8433 149,200.8433 L139,200.8433 " fill="none" style="stroke:#000000;stroke-width:1.0;"/><text fill="#000000" font-family="Verdana" font-size="11" lengthAdjust="spacing" textLength="95" x="41" y="220.5867">Moodle / Canvas</text><path d="M189,216.2119 L179,216.2119 C164,216.2119 164,216.2119 149,216.2119 L139,216.2119 " fill="none" style="stroke:#000000;stroke-width:1.0;"/><text fill="#000000" font-family="Verdana" font-size="11" lengthAdjust="spacing" textLength="126" x="10" y="235.9553">Conte&#250;dos Interativos</text><path d="M189,216.2119 L179,216.2119 C164,216.2119 164,231.5806 149,231.5806 L139,231.5806 " fill="none" style="stroke:#000000;stroke-width:1.0;"/><path d="M339,216.2119 L329,216.2119 C314,216.2119 314,216.2119 299,216.2119 L289,216.2119 " fill="none" style="stroke:#000000;stroke-width:1.0;"/><path d="M512,136.1589 L502,136.1589 C487,136.1589 487,216.2119 472,216.2119 L462,216.2119 " fill="none" style="stroke:#000000;stroke-width:1.0;"/><path d="M673,136.1589 L663,136.1589 C648,136.1589 648,136.1589 633,136.1589 L623,136.1589 " fill="none" style="stroke:#000000;stroke-width:1.0;"/><path d="M896,136.1589 L886,136.1589 C871,136.1589 871,136.1589 856,136.1589 L846,136.1589 " fill="none" style="stroke:#000000;stroke-width:1.0;"/><!--SRC=[xLdDRjj64BxpAIP03udGMDIlRVMIIFwf7Jin8aVjJLWjXzAcv2wpFqgS8e_GXoXww2cdt7hLYtL8aHGbEq0FQI31bW61cjcP_NRcsvbTyvcnJDjOo21c2VZTiTyQiqIZGMaPPseSg76YrLkqz8ZZKEau4sCyJY9cMIOO1s8gB8kyHm66GY9Sd9t-VDs_U7FiFHAIHov0foEOMPkONhq-5SRkaS7CJPn1pPMqDDiULt6TnLDJ3x2pt-dwVgF93bWdzB7TRFjXwx0vwUuViBPVr-nzdH_wBTwTjCD6TzBr9nt4iDLi7uJ-OQjzk1yoXgtzWx3Jg1jx4-5UukB8ysgzMkrviRh5tuk_50GAhfRhWm3X95rEfgZLl5eDOxWgLmb7orNMQZzvNeIX1IC29AUrfPbL9dMnxf-qjJ6OTAQPI1PVBEaC94opL5E38yLTJAF9zjXmBUWXKv0HmKeKfQS2iLH5J6Pu1qwRKleQ2UlYYnPB86Gp9IYv7eOHeIsTSqB0BUh5PsC5pmoMAjATwiMVOIei9MSncwAi_9OX-MQXO4iPZ1QV0rJ_oViWOXe_ilBtaP0i5YREOLRYFHBQEc9LFZ0B8dx0E8dMFT92QTbM90gUZvwNuakbWWYX3WCcvsm5Vf3oRV5FG4xEw4apA-O4tTDYEglaTA1Y9mNFQJ8I9eTIHeFYNQIQFEGJZ67n1n6QSbo7uU9pF56HAZHbN4bt91W5C2wj-am6nB3KtOm5pCkHniG0iOc0DCVodMC1EKYfaylE8aVxU4Mxp04114pzMlREPUcdk0GOVPshHOJpT22ViHUEleeqD7qm6PNWG_QCKoU3LUgFZTNEEisgW6781Pn4pCoAOHqWhAx2zfTCPvbWmEjfHYSH4WKmpHOL45Ei2Qw4vQMNliOvveF4QYCKvZ_2K4Lk6Jw4SqTa38kCUi-GQjwoxddUiszQ1cSK7g0esXk8qSvKOAeYPgqM4qULm4i_vZSXqteGWo4oeh8t2GxwZFysrOeYEo02QMYmRfStlVopCfbiZ0l3qBizYWlD8mm6itnRmkyUW6Q1S0OEw36a7J4K7n4QZVpNIs8MZ507J3BlqvelogB97C2jsN_el_grVqggYT81wgMGCPODJjqk9RxltpND9evLE4vAqrQhTKkpiW0W4gdtrLaomSdjgKfvrMyfB5ociY9RjmPN5IiCfVYCoa0X_hIM3ig1qby98RMyBZOtGfXd_xj4SItPz4trMoHCsgrC-JepLHGXjq99i_rWXqZbM7BigmztOqK__Tl0ohFFTuDRmIlIJXaoZZl1MvusJecxm5f9tNZxKGRKuoRCx01IsbPkQs5MSDBDXszhGF-7Jlffem6AkQ2Zq7rSlCahVxxu7JqMHIB42xhgzoifAdj0gRoxfws5OvAgcRxPaRuYhLRHJc2bxlVrBRODKEye27GhZfKCxajTWEBV0DLTTCVjujjSE-YAQ_7-X3QxqM-m7JVkq-i1KfEtT7-uHqrfxHXgT-He7oaNtCk3WoPoCZcDTk0GRgpIRBgzn_27zm0Fxm4UtWCyl0UuzHuWtL3spUK5p54ReIGqzff-ixtNUdmzSt224sXqe77OQ_izlmE_75z3gdxYFJwzkfWtmIYdwMON2BCyZP679zuveyMyTdGSZx47hnAKvqSl2W5bS2wqaca2lVFHvMf0j_sqBomCKHCM65rwHnWo5rcou2eGSjg3DzSdJm-y2seAZfZOe-EDDw0oQ_KDwOR_0W00]--></g></svg>