<?xml version="1.0" encoding="us-ascii" standalone="no"?><svg xmlns="http://www.w3.org/2000/svg" xmlns:xlink="http://www.w3.org/1999/xlink" contentStyleType="text/css" height="314px" preserveAspectRatio="none" style="width:1344px;height:314px;background:#FFFFFF;" version="1.1" viewBox="0 0 1344 314" width="1344px" zoomAndPan="magnify"><defs/><g><rect fill="#FFFFFF" height="33.3687" rx="12.5" ry="12.5" style="stroke:#AAAAAA;stroke-width:1.5;" width="226" x="595" y="139.3179"/><text fill="#000000" font-family="Verdana" font-size="11" font-weight="bold" lengthAdjust="spacing" textLength="206" x="605" y="160.377">Desenho do Projeto de Forma&#231;&#227;o</text><rect fill="#FFFFFF" height="33.3687" rx="12.5" ry="12.5" style="stroke:#AAAAAA;stroke-width:1.5;" width="100" x="871" y="139.3179"/><text fill="#000000" font-family="Verdana" font-size="11" lengthAdjust="spacing" textLength="80" x="881" y="160.377">Modelo ADDIE</text><text fill="#000000" font-family="Verdana" font-size="11" lengthAdjust="spacing" textLength="41" x="1024" y="37.4277">An&#225;lise</text><text fill="#808080" font-family="Verdana" font-size="11" lengthAdjust="spacing" textLength="157" x="1118" y="22.0591">Problema de aprendizagem</text><path d="M1065,33.053 L1075,33.053 C1090,33.053 1090,17.6843 1105,17.6843 L1115,17.6843 " fill="none" style="stroke:#000000;stroke-width:1.0;"/><text fill="#808080" font-family="Verdana" font-size="11" lengthAdjust="spacing" textLength="91" x="1118" y="37.4277">Perfil do p&#250;blico</text><path d="M1065,33.053 L1075,33.053 C1090,33.053 1090,33.053 1105,33.053 L1115,33.053 " fill="none" style="stroke:#000000;stroke-width:1.0;"/><text fill="#808080" font-family="Verdana" font-size="11" lengthAdjust="spacing" textLength="98" x="1118" y="52.7964">T&#243;picos e tarefas</text><path d="M1065,33.053 L1075,33.053 C1090,33.053 1090,48.4216 1105,48.4216 L1115,48.4216 " fill="none" style="stroke:#000000;stroke-width:1.0;"/><path d="M971,156.0022 L981,156.0022 C996,156.0022 996,33.053 1011,33.053 L1021,33.053 " fill="none" style="stroke:#000000;stroke-width:1.0;"/><text fill="#000000" font-family="Verdana" font-size="11" lengthAdjust="spacing" textLength="38" x="1024" y="91.218">Design</text><text fill="#808080" font-family="Verdana" font-size="11" lengthAdjust="spacing" textLength="105" x="1115" y="68.165">Estrutura do curso</text><path d="M1062,86.8433 L1072,86.8433 C1087,86.8433 1087,63.7903 1102,63.7903 L1112,63.7903 " fill="none" style="stroke:#000000;stroke-width:1.0;"/><text fill="#808080" font-family="Verdana" font-size="11" lengthAdjust="spacing" textLength="138" x="1115" y="83.5337">Estrat&#233;gias pedag&#243;gicas</text><path d="M1062,86.8433 L1072,86.8433 C1087,86.8433 1087,79.1589 1102,79.1589 L1112,79.1589 " fill="none" style="stroke:#000000;stroke-width:1.0;"/><text fill="#808080" font-family="Verdana" font-size="11" lengthAdjust="spacing" textLength="107" x="1115" y="98.9023">Plano de avalia&#231;&#227;o</text><path d="M1062,86.8433 L1072,86.8433 C1087,86.8433 1087,94.5276 1102,94.5276 L1112,94.5276 " fill="none" style="stroke:#000000;stroke-width:1.0;"/><text fill="#808080" font-family="Verdana" font-size="11" lengthAdjust="spacing" textLength="217" x="1115" y="114.271">Envolvimento das partes interessadas</text><path d="M1062,86.8433 L1072,86.8433 C1087,86.8433 1087,109.8962 1102,109.8962 L1112,109.8962 " fill="none" style="stroke:#000000;stroke-width:1.0;"/><path d="M971,156.0022 L981,156.0022 C996,156.0022 996,86.8433 1011,86.8433 L1021,86.8433 " fill="none" style="stroke:#000000;stroke-width:1.0;"/><text fill="#000000" font-family="Verdana" font-size="11" lengthAdjust="spacing" textLength="98" x="1024" y="152.6926">Desenvolvimento</text><text fill="#808080" font-family="Verdana" font-size="11" lengthAdjust="spacing" textLength="133" x="1175" y="129.6396">Produ&#231;&#227;o de conte&#250;dos</text><path d="M1122,148.3179 L1132,148.3179 C1147,148.3179 1147,125.2649 1162,125.2649 L1172,125.2649 " fill="none" style="stroke:#000000;stroke-width:1.0;"/><text fill="#808080" font-family="Verdana" font-size="11" lengthAdjust="spacing" textLength="97" x="1175" y="145.0083">M&#233;todos e media</text><path d="M1122,148.3179 L1132,148.3179 C1147,148.3179 1147,140.6335 1162,140.6335 L1172,140.6335 " fill="none" style="stroke:#000000;stroke-width:1.0;"/><text fill="#808080" font-family="Verdana" font-size="11" lengthAdjust="spacing" textLength="73" x="1175" y="160.377">Testes-piloto</text><path d="M1122,148.3179 L1132,148.3179 C1147,148.3179 1147,156.0022 1162,156.0022 L1172,156.0022 " fill="none" style="stroke:#000000;stroke-width:1.0;"/><text fill="#808080" font-family="Verdana" font-size="11" lengthAdjust="spacing" textLength="145" x="1175" y="175.7456">Ferramentas e tecnologia</text><path d="M1122,148.3179 L1132,148.3179 C1147,148.3179 1147,171.3708 1162,171.3708 L1172,171.3708 " fill="none" style="stroke:#000000;stroke-width:1.0;"/><path d="M971,156.0022 L981,156.0022 C996,156.0022 996,148.3179 1011,148.3179 L1021,148.3179 " fill="none" style="stroke:#000000;stroke-width:1.0;"/><text fill="#000000" font-family="Verdana" font-size="11" lengthAdjust="spacing" textLength="89" x="1024" y="214.1672">Implementa&#231;&#227;o</text><text fill="#808080" font-family="Verdana" font-size="11" lengthAdjust="spacing" textLength="120" x="1166" y="191.1143">Entrega da forma&#231;&#227;o</text><path d="M1113,209.7925 L1123,209.7925 C1138,209.7925 1138,186.7395 1153,186.7395 L1163,186.7395 " fill="none" style="stroke:#000000;stroke-width:1.0;"/><text fill="#808080" font-family="Verdana" font-size="11" lengthAdjust="spacing" textLength="76" x="1166" y="206.4829">Apoio t&#233;cnico</text><path d="M1113,209.7925 L1123,209.7925 C1138,209.7925 1138,202.1082 1153,202.1082 L1163,202.1082 " fill="none" style="stroke:#000000;stroke-width:1.0;"/><text fill="#808080" font-family="Verdana" font-size="11" lengthAdjust="spacing" textLength="76" x="1166" y="221.8516">Comunica&#231;&#227;o</text><path d="M1113,209.7925 L1123,209.7925 C1138,209.7925 1138,217.4768 1153,217.4768 L1163,217.4768 " fill="none" style="stroke:#000000;stroke-width:1.0;"/><text fill="#808080" font-family="Verdana" font-size="11" lengthAdjust="spacing" textLength="161" x="1166" y="237.2202">Programas complementares</text><path d="M1113,209.7925 L1123,209.7925 C1138,209.7925 1138,232.8455 1153,232.8455 L1163,232.8455 " fill="none" style="stroke:#000000;stroke-width:1.0;"/><path d="M971,156.0022 L981,156.0022 C996,156.0022 996,209.7925 1011,209.7925 L1021,209.7925 " fill="none" style="stroke:#000000;stroke-width:1.0;"/><text fill="#000000" font-family="Verdana" font-size="11" lengthAdjust="spacing" textLength="55" x="1024" y="275.6418">Avalia&#231;&#227;o</text><text fill="#808080" font-family="Verdana" font-size="11" lengthAdjust="spacing" textLength="57" x="1132" y="252.5889">Formativa</text><path d="M1079,271.2671 L1089,271.2671 C1104,271.2671 1104,248.2141 1119,248.2141 L1129,248.2141 " fill="none" style="stroke:#000000;stroke-width:1.0;"/><text fill="#808080" font-family="Verdana" font-size="11" lengthAdjust="spacing" textLength="54" x="1132" y="267.9575">Sumativa</text><path d="M1079,271.2671 L1089,271.2671 C1104,271.2671 1104,263.5828 1119,263.5828 L1129,263.5828 " fill="none" style="stroke:#000000;stroke-width:1.0;"/><text fill="#808080" font-family="Verdana" font-size="11" lengthAdjust="spacing" textLength="138" x="1132" y="283.3262">Feedback de estudantes</text><path d="M1079,271.2671 L1089,271.2671 C1104,271.2671 1104,278.9514 1119,278.9514 L1129,278.9514 " fill="none" style="stroke:#000000;stroke-width:1.0;"/><text fill="#808080" font-family="Verdana" font-size="11" lengthAdjust="spacing" textLength="118" x="1132" y="298.6948">Impacto institucional</text><path d="M1079,271.2671 L1089,271.2671 C1104,271.2671 1104,294.3201 1119,294.3201 L1129,294.3201 " fill="none" style="stroke:#000000;stroke-width:1.0;"/><path d="M971,156.0022 L981,156.0022 C996,156.0022 996,271.2671 1011,271.2671 L1021,271.2671 " fill="none" style="stroke:#000000;stroke-width:1.0;"/><path d="M821,156.0022 L831,156.0022 C846,156.0022 846,156.0022 861,156.0022 L871,156.0022 " fill="none" style="stroke:#000000;stroke-width:1.0;"/><rect fill="#FFFFFF" height="33.3687" rx="12.5" ry="12.5" style="stroke:#AAAAAA;stroke-width:1.5;" width="85" x="460" y="54.7903"/><text fill="#000000" font-family="Verdana" font-size="11" lengthAdjust="spacing" textLength="65" x="470" y="75.8494">Diagn&#243;stico</text><text fill="#000000" font-family="Verdana" font-size="11" lengthAdjust="spacing" textLength="155" x="252" y="33.7964">Identifica&#231;&#227;o de problemas</text><path d="M460,71.4746 L450,71.4746 C435,71.4746 435,29.4216 420,29.4216 L410,29.4216 " fill="none" style="stroke:#000000;stroke-width:1.0;"/><text fill="#000000" font-family="Verdana" font-size="11" lengthAdjust="spacing" textLength="153" x="254" y="49.165">Necessidades de forma&#231;&#227;o</text><path d="M460,71.4746 L450,71.4746 C435,71.4746 435,44.7903 420,44.7903 L410,44.7903 " fill="none" style="stroke:#000000;stroke-width:1.0;"/><text fill="#000000" font-family="Verdana" font-size="11" lengthAdjust="spacing" textLength="179" x="228" y="64.5337">determinados pelo p&#250;blico-alvo</text><text fill="#000000" font-family="Verdana" font-size="11" lengthAdjust="spacing" textLength="165" x="10" y="56.8494">Caracter&#237;sticas socioculturais</text><path d="M228,60.1589 L218,60.1589 C203,60.1589 203,52.4746 188,52.4746 L178,52.4746 " fill="none" style="stroke:#000000;stroke-width:1.0;"/><text fill="#000000" font-family="Verdana" font-size="11" lengthAdjust="spacing" textLength="133" x="42" y="72.218">Conhecimentos pr&#233;vios</text><path d="M228,60.1589 L218,60.1589 C203,60.1589 203,67.8433 188,67.8433 L178,67.8433 " fill="none" style="stroke:#000000;stroke-width:1.0;"/><path d="M460,71.4746 L450,71.4746 C435,71.4746 435,60.1589 420,60.1589 L410,60.1589 " fill="none" style="stroke:#000000;stroke-width:1.0;"/><rect fill="#FFFFFF" height="33.3687" rx="12.5" ry="12.5" style="stroke:#AAAAAA;stroke-width:1.5;" width="109" x="301" y="77.8433"/><text fill="#000000" font-family="Verdana" font-size="11" lengthAdjust="spacing" textLength="89" x="311" y="98.9023">Contexto digital</text><text fill="#000000" font-family="Verdana" font-size="11" lengthAdjust="spacing" textLength="153" x="95" y="98.9023">Plataformas e ferramentas</text><path d="M301,94.5276 L291,94.5276 C276,94.5276 276,94.5276 261,94.5276 L251,94.5276 " fill="none" style="stroke:#000000;stroke-width:1.0;"/><path d="M460,71.4746 L450,71.4746 C435,71.4746 435,94.5276 420,94.5276 L410,94.5276 " fill="none" style="stroke:#000000;stroke-width:1.0;"/><path d="M595,156.0022 L585,156.0022 C570,156.0022 570,71.4746 555,71.4746 L545,71.4746 " fill="none" style="stroke:#000000;stroke-width:1.0;"/><rect fill="#FFFFFF" height="33.3687" rx="12.5" ry="12.5" style="stroke:#AAAAAA;stroke-width:1.5;" width="94" x="451" y="189.0552"/><text fill="#000000" font-family="Verdana" font-size="11" lengthAdjust="spacing" textLength="74" x="461" y="210.1143">Planeamento</text><text fill="#000000" font-family="Verdana" font-size="11" lengthAdjust="spacing" textLength="76" x="322" y="171.6926">atividades de</text><text fill="#000000" font-family="Verdana" font-size="11" lengthAdjust="spacing" textLength="126" x="143" y="133.271">Defini&#231;&#227;o de objetivos</text><path d="M322,167.3179 L312,167.3179 C297,167.3179 297,128.8962 282,128.8962 L272,128.8962 " fill="none" style="stroke:#000000;stroke-width:1.0;"/><text fill="#000000" font-family="Verdana" font-size="11" lengthAdjust="spacing" textLength="125" x="144" y="148.6396">Sele&#231;&#227;o de conte&#250;dos</text><path d="M322,167.3179 L312,167.3179 C297,167.3179 297,144.2649 282,144.2649 L272,144.2649 " fill="none" style="stroke:#000000;stroke-width:1.0;"/><text fill="#000000" font-family="Verdana" font-size="11" lengthAdjust="spacing" textLength="141" x="128" y="164.0083">Escolha de metodologias</text><path d="M322,167.3179 L312,167.3179 C297,167.3179 297,159.6335 282,159.6335 L272,159.6335 " fill="none" style="stroke:#000000;stroke-width:1.0;"/><text fill="#000000" font-family="Verdana" font-size="11" lengthAdjust="spacing" textLength="71" x="198" y="179.377">Cronograma</text><path d="M322,167.3179 L312,167.3179 C297,167.3179 297,175.0022 282,175.0022 L272,175.0022 " fill="none" style="stroke:#000000;stroke-width:1.0;"/><text fill="#000000" font-family="Verdana" font-size="11" lengthAdjust="spacing" textLength="137" x="132" y="194.7456">Recursos e ferramentas</text><path d="M322,167.3179 L312,167.3179 C297,167.3179 297,190.3708 282,190.3708 L272,190.3708 " fill="none" style="stroke:#000000;stroke-width:1.0;"/><text fill="#000000" font-family="Verdana" font-size="11" lengthAdjust="spacing" textLength="105" x="164" y="210.1143">Avalia&#231;&#227;o prevista</text><path d="M322,167.3179 L312,167.3179 C297,167.3179 297,205.7395 282,205.7395 L272,205.7395 " fill="none" style="stroke:#000000;stroke-width:1.0;"/><path d="M451,205.7395 L441,205.7395 C426,205.7395 426,167.3179 411,167.3179 L401,167.3179 " fill="none" style="stroke:#000000;stroke-width:1.0;"/><text fill="#000000" font-family="Verdana" font-size="11" lengthAdjust="spacing" textLength="75" x="323" y="256.2202">artefactos de</text><text fill="#000000" font-family="Verdana" font-size="11" lengthAdjust="spacing" textLength="95" x="175" y="225.4829">Guia pedag&#243;gico</text><path d="M323,251.8455 L313,251.8455 C298,251.8455 298,221.1082 283,221.1082 L273,221.1082 " fill="none" style="stroke:#000000;stroke-width:1.0;"/><text fill="#000000" font-family="Verdana" font-size="11" lengthAdjust="spacing" textLength="121" x="149" y="240.8516">Espa&#231;os de intera&#231;&#227;o</text><path d="M323,251.8455 L313,251.8455 C298,251.8455 298,236.4768 283,236.4768 L273,236.4768 " fill="none" style="stroke:#000000;stroke-width:1.0;"/><text fill="#000000" font-family="Verdana" font-size="11" lengthAdjust="spacing" textLength="123" x="147" y="256.2202">Atividades interativas</text><path d="M323,251.8455 L313,251.8455 C298,251.8455 298,251.8455 283,251.8455 L273,251.8455 " fill="none" style="stroke:#000000;stroke-width:1.0;"/><text fill="#000000" font-family="Verdana" font-size="11" lengthAdjust="spacing" textLength="63" x="207" y="271.5889">Workshops</text><path d="M323,251.8455 L313,251.8455 C298,251.8455 298,267.2141 283,267.2141 L273,267.2141 " fill="none" style="stroke:#000000;stroke-width:1.0;"/><text fill="#000000" font-family="Verdana" font-size="11" lengthAdjust="spacing" textLength="95" x="175" y="286.9575">F&#243;runs e quizzes</text><path d="M323,251.8455 L313,251.8455 C298,251.8455 298,282.5828 283,282.5828 L273,282.5828 " fill="none" style="stroke:#000000;stroke-width:1.0;"/><path d="M451,205.7395 L441,205.7395 C426,205.7395 426,251.8455 411,251.8455 L401,251.8455 " fill="none" style="stroke:#000000;stroke-width:1.0;"/><path d="M595,156.0022 L585,156.0022 C570,156.0022 570,205.7395 555,205.7395 L545,205.7395 " fill="none" style="stroke:#000000;stroke-width:1.0;"/><!--SRC=[xLbBRnit4Bxlhs207X81jbOFomyKHMpBSfpQYH4xIMy6bvnTiU6I6vAhn2xoOueUYXnwyYrN_R4ELwlLm-j3WJQGQaiNBMSu_FZDno6fVMuTDIuLYgSq8s7lAcnTSR2WXlgAwwlCw5_1uK-uYhL9AQCwUC8X5Wh8wSdnYyk3qxT7mHEXcCmvv4QIeNEPtMis4s7TPYBSC8zo2uPfvK2vJQRJ9aqJs-ImjRtL2yDMc-xGhJY4RhiRnftTTjJRtg7Ti6defoRR3Jki5tNZLY_gXT4MGDnfTtVYSBVJtTsEAONEzawyrMfQTorXCyjJ6GGDqcZq9rCWN9FpoHG81pBmKnZ_EVv3Dnf1825sn0eEsAL1-e8cQdnhdM0QdnjNv8GZO14BDkdY0o0TaOIKsed7As1WCG95nhmvhk9Fx1mS6EIMScr91bAJRFmjaZZ21fMZmWcz3gcX31t7V_d1gILMCw5PBbrkgB1JBws6m4IAc7mmC_uw4hemUfE3ptwA0WcdiknnBgcZ1IHB41iOGttl0hmtAYYUIwpKYL4rap92toTQLBFN4H8fHdeAwG8aLCOYmUDllB8UMQRba7fRYlnpBNKYQ3KTevLE414j6zu0outLTw5wu_w8Ib6c8JCmGctH4hPn42DzUWxsSIueqirfChvDodGMW38CKJWIWM3DB5L-YDdy9qPyhiP_hyq7EzJPz7amlZMvybW_vkBc1cmG694Cv-HqfhdFztw_Vt8qGRglnhzBOQSWVqHsjDbB35p_T5xAoYEZE3_5nGrD8Arp1HCBwNKzbLADq-NuDaEBnuUh6_afzOghGYIgfiEHTIRtSlE1YppSuqJT-AlFuXoz5KaBC55UXIpeB7Dr8TL8oz54r8Jxi3wVPGPmQL4-1ntcdEj9vFdzSfntFHj_zOBq_AJ01QsZ42m2sSY4rBMZ3MOQzIm3KnDzbwKZpJ2Vtdh_p9s11FccIrLZoMy_qq8JP9sf-bmVwZHNqnfLJqknp2nIKg52ReFbXLKtIO_ChuCQsqL-hsa0m2FAFlWy88qvfvYBkZmWJNxfOhgnyhaSgvx2wXKynmLGxaZuyCytgA7m0wUPk_QLPwYvdM-YpXaHvHwH_zWFGg7gQ4girvnsrnaS7Y3wnEXSyKEFbhHehyVQGVcPTOcM_E8u3kvwCM6O17uuB0iz-IqWn50kSajsy6UCMhqGDq1QhVBf5KgBl0E3pD7Woq8iIQqj0f0xe_zmyFgNWsCqHTfmC9D6IcdXxCDEMi8mh1jc6SUCZa7LjTFftB7CUX2inaP_cX-bQ1ZS7QfgduzRDKv3-hPfjkuupnjc6Ahc4wm0q-Ol2-dmaZFtK8Y7aHwqboWii_zTM5n8jg-6WeaCryzAfdnHcLfAO0xNi5rzi1VmCGV5u41_hiSAeVykOMN5vxl1dSDRR8Xupe6rqAtVQRI2TL2jmdFQwgFaU9AFg5q3fBYiyfM5EOSJxwHiLGdz3tRIBqiR8Dvry2Zq42TloyfVJdvDZqLIn70g5EvVinHLUq1bhD_J5kY8l9cQwpNPL_3MfELQOFN_7RbLfhMc8FG5JRNY3wKkaE9FFoHWVXNLt2x-dMi7tcCTF1ngYslxajfXwJwzI93_Uv6v1xGfBHn3tPeSxQNE-OCyE1WK9rM9N8D3k7NQq6HrZ-6FRsWUtz0ylg5vV4Fp-8Rc__26nYl9lJqx9ICm5Xr8QxCTjhkRdQUNmvmC82AjBTBQtUk6U-4MUNzqIRpvMV3q-FnqrCPQcXkyZdEi6CKH6YCy2rwYAicR7Ajx2dlaTGRgPV_dQGD1KGgiJfweuEMxivb3hxjn81oMFODOoBkp0EiZnJADFPZcGYLxvEtbO6CdECMTFCS5l8Tdqk0GzqPdhj5syJS0]--></g></svg>