<?xml version="1.0" encoding="us-ascii" standalone="no"?><svg xmlns="http://www.w3.org/2000/svg" xmlns:xlink="http://www.w3.org/1999/xlink" contentStyleType="text/css" height="472px" preserveAspectRatio="none" style="width:1918px;height:472px;background:#FFFFFF;" version="1.1" viewBox="0 0 1918 472" width="1918px" zoomAndPan="magnify"><defs/><g><rect fill="#FFFFFF" height="46.7373" rx="12.5" ry="12.5" style="stroke:#AAAAAA;stroke-width:1.5;" width="166" x="875" y="238.5806"/><text fill="#000000" font-family="Verdana" font-size="11" font-weight="bold" lengthAdjust="spacing" textLength="146" x="885" y="259.6396">Tecnologias e Recursos</text><text fill="#000000" font-family="Verdana" font-size="11" font-weight="bold" lengthAdjust="spacing" textLength="81" x="885" y="273.0083">Audiovisuais</text><rect fill="#FFFFFF" height="33.3687" rx="12.5" ry="12.5" style="stroke:#AAAAAA;stroke-width:1.5;" width="392" x="762" y="310.3179"/><text fill="#000000" font-family="Verdana" font-size="11" lengthAdjust="spacing" textLength="372" x="772" y="331.377">Tecnologias para a Cria&#231;&#227;o e Produ&#231;&#227;o de Recursos Audiovisuais</text><rect fill="#FFFFFF" height="33.3687" rx="12.5" ry="12.5" style="stroke:#AAAAAA;stroke-width:1.5;" width="136" x="513.75" y="368.6865"/><text fill="#000000" font-family="Verdana" font-size="11" lengthAdjust="spacing" textLength="116" x="523.75" y="389.7456">Ferramentas digitais</text><rect fill="#FFFFFF" height="33.3687" rx="12.5" ry="12.5" style="stroke:#AAAAAA;stroke-width:1.5;" width="250" x="456.75" y="427.0552"/><text fill="#000000" font-family="Verdana" font-size="11" lengthAdjust="spacing" textLength="230" x="466.75" y="448.1143">WeVideo, Animaker, Canva, OBS Studio</text><path d="M581.75,402.0552 L581.75,405.0552 C581.75,412.0552 581.75,417.0552 581.75,424.0552 L581.75,427.0552 " fill="none" style="stroke:#000000;stroke-width:1.0;"/><path d="M958,343.6865 L958,346.6865 C958,353.6865 581.75,358.6865 581.75,365.6865 L581.75,368.6865 " fill="none" style="stroke:#000000;stroke-width:1.0;"/><rect fill="#FFFFFF" height="33.3687" rx="12.5" ry="12.5" style="stroke:#AAAAAA;stroke-width:1.5;" width="228" x="705.25" y="368.6865"/><text fill="#000000" font-family="Verdana" font-size="11" lengthAdjust="spacing" textLength="208" x="715.25" y="389.7456">Produ&#231;&#227;o de conte&#250;dos pelos alunos</text><rect fill="#FFFFFF" height="33.3687" rx="12.5" ry="12.5" style="stroke:#AAAAAA;stroke-width:1.5;" width="185" x="726.75" y="427.0552"/><text fill="#000000" font-family="Verdana" font-size="11" lengthAdjust="spacing" textLength="165" x="736.75" y="448.1143">V&#237;deos, podcasts, anima&#231;&#245;es</text><path d="M819.25,402.0552 L819.25,405.0552 C819.25,412.0552 819.25,417.0552 819.25,424.0552 L819.25,427.0552 " fill="none" style="stroke:#000000;stroke-width:1.0;"/><path d="M958,343.6865 L958,346.6865 C958,353.6865 819.25,358.6865 819.25,365.6865 L819.25,368.6865 " fill="none" style="stroke:#000000;stroke-width:1.0;"/><rect fill="#FFFFFF" height="33.3687" rx="12.5" ry="12.5" style="stroke:#AAAAAA;stroke-width:1.5;" width="278" x="953.25" y="368.6865"/><text fill="#000000" font-family="Verdana" font-size="11" lengthAdjust="spacing" textLength="258" x="963.25" y="389.7456">Avalia&#231;&#227;o atrav&#233;s de portef&#243;lios audiovisuais</text><path d="M958,343.6865 L958,346.6865 C958,353.6865 1092.25,358.6865 1092.25,365.6865 L1092.25,368.6865 " fill="none" style="stroke:#000000;stroke-width:1.0;"/><rect fill="#FFFFFF" height="46.7373" rx="12.5" ry="12.5" style="stroke:#AAAAAA;stroke-width:1.5;" width="208" x="1251.25" y="368.6865"/><text fill="#000000" font-family="Verdana" font-size="11" lengthAdjust="spacing" textLength="140" x="1261.25" y="389.7456">Est&#237;mulo &#224; criatividade e</text><text fill="#000000" font-family="Verdana" font-size="11" lengthAdjust="spacing" textLength="188" x="1261.25" y="403.1143">personaliza&#231;&#227;o da aprendizagem</text><path d="M958,343.6865 L958,346.6865 C958,353.6865 1355.25,358.6865 1355.25,365.6865 L1355.25,368.6865 " fill="none" style="stroke:#000000;stroke-width:1.0;"/><path d="M958,285.3179 L958,288.3179 C958,295.3179 958,300.3179 958,307.3179 L958,310.3179 " fill="none" style="stroke:#000000;stroke-width:1.0;"/><rect fill="#FFFFFF" height="33.3687" rx="12.5" ry="12.5" style="stroke:#AAAAAA;stroke-width:1.5;" width="264" x="200" y="180.2119"/><text fill="#000000" font-family="Verdana" font-size="11" lengthAdjust="spacing" textLength="244" x="210" y="201.271">Linguagem e Recursos Audiovisuais Online</text><rect fill="#FFFFFF" height="46.7373" rx="12.5" ry="12.5" style="stroke:#AAAAAA;stroke-width:1.5;" width="152" x="20" y="108.4746"/><text fill="#000000" font-family="Verdana" font-size="11" lengthAdjust="spacing" textLength="112" x="30" y="129.5337">Plataformas digitais</text><text fill="#000000" font-family="Verdana" font-size="11" lengthAdjust="spacing" textLength="132" x="30" y="142.9023">(YouTube, Vimeo, etc.)</text><path d="M332,180.2119 L332,177.2119 C332,170.2119 96,165.2119 96,158.2119 L96,155.2119 " fill="none" style="stroke:#000000;stroke-width:1.0;"/><rect fill="#FFFFFF" height="46.7373" rx="12.5" ry="12.5" style="stroke:#AAAAAA;stroke-width:1.5;" width="156" x="192" y="108.4746"/><text fill="#000000" font-family="Verdana" font-size="11" lengthAdjust="spacing" textLength="126" x="202" y="129.5337">Formatos multimodais</text><text fill="#000000" font-family="Verdana" font-size="11" lengthAdjust="spacing" textLength="136" x="202" y="142.9023">(v&#237;deo, som, anima&#231;&#227;o)</text><path d="M332,180.2119 L332,177.2119 C332,170.2119 270,165.2119 270,158.2119 L270,155.2119 " fill="none" style="stroke:#000000;stroke-width:1.0;"/><rect fill="#FFFFFF" height="46.7373" rx="12.5" ry="12.5" style="stroke:#AAAAAA;stroke-width:1.5;" width="118" x="368" y="108.4746"/><text fill="#000000" font-family="Verdana" font-size="11" lengthAdjust="spacing" textLength="98" x="378" y="129.5337">Acesso e partilha</text><text fill="#000000" font-family="Verdana" font-size="11" lengthAdjust="spacing" textLength="76" x="378" y="142.9023">de conte&#250;dos</text><path d="M332,180.2119 L332,177.2119 C332,170.2119 427,165.2119 427,158.2119 L427,155.2119 " fill="none" style="stroke:#000000;stroke-width:1.0;"/><rect fill="#FFFFFF" height="46.7373" rx="12.5" ry="12.5" style="stroke:#AAAAAA;stroke-width:1.5;" width="138" x="506" y="108.4746"/><text fill="#000000" font-family="Verdana" font-size="11" lengthAdjust="spacing" textLength="118" x="516" y="129.5337">Literacia medi&#225;tica e</text><text fill="#000000" font-family="Verdana" font-size="11" lengthAdjust="spacing" textLength="114" x="516" y="142.9023">interpreta&#231;&#227;o cr&#237;tica</text><path d="M332,180.2119 L332,177.2119 C332,170.2119 575,165.2119 575,158.2119 L575,155.2119 " fill="none" style="stroke:#000000;stroke-width:1.0;"/><path d="M958,238.5806 L958,235.5806 C958,228.5806 332,223.5806 332,216.5806 L332,213.5806 " fill="none" style="stroke:#000000;stroke-width:1.0;"/><rect fill="#FFFFFF" height="60.106" rx="12.5" ry="12.5" style="stroke:#AAAAAA;stroke-width:1.5;" width="228" x="1166" y="153.4746"/><text fill="#000000" font-family="Verdana" font-size="11" lengthAdjust="spacing" textLength="208" x="1176" y="174.5337">Atividades de Aprendizagem Digitais</text><text fill="#000000" font-family="Verdana" font-size="11" lengthAdjust="spacing" textLength="181" x="1176" y="187.9023">Centradas na Desconstru&#231;&#227;o de</text><text fill="#000000" font-family="Verdana" font-size="11" lengthAdjust="spacing" textLength="138" x="1176" y="201.271">Imagens em Movimento</text><rect fill="#FFFFFF" height="33.3687" rx="12.5" ry="12.5" style="stroke:#AAAAAA;stroke-width:1.5;" width="132" x="1023.5" y="95.106"/><text fill="#000000" font-family="Verdana" font-size="11" lengthAdjust="spacing" textLength="112" x="1033.5" y="116.165">Etapas da atividade</text><rect fill="#FFFFFF" height="46.7373" rx="12.5" ry="12.5" style="stroke:#AAAAAA;stroke-width:1.5;" width="206" x="664" y="23.3687"/><text fill="#000000" font-family="Verdana" font-size="11" lengthAdjust="spacing" textLength="67" x="674" y="44.4277">Planifica&#231;&#227;o</text><text fill="#000000" font-family="Verdana" font-size="11" lengthAdjust="spacing" textLength="186" x="674" y="57.7964">(sele&#231;&#227;o e prepara&#231;&#227;o do v&#237;deo)</text><path d="M1089.5,95.106 L1089.5,92.106 C1089.5,85.106 767,80.106 767,73.106 L767,70.106 " fill="none" style="stroke:#000000;stroke-width:1.0;"/><rect fill="#FFFFFF" height="46.7373" rx="12.5" ry="12.5" style="stroke:#AAAAAA;stroke-width:1.5;" width="187" x="890" y="23.3687"/><text fill="#000000" font-family="Verdana" font-size="11" lengthAdjust="spacing" textLength="70" x="900" y="44.4277">Visualiza&#231;&#227;o</text><text fill="#000000" font-family="Verdana" font-size="11" lengthAdjust="spacing" textLength="167" x="900" y="57.7964">(observa&#231;&#227;o guiada e cr&#237;tica)</text><path d="M1089.5,95.106 L1089.5,92.106 C1089.5,85.106 983.5,80.106 983.5,73.106 L983.5,70.106 " fill="none" style="stroke:#000000;stroke-width:1.0;"/><rect fill="#FFFFFF" height="46.7373" rx="12.5" ry="12.5" style="stroke:#AAAAAA;stroke-width:1.5;" width="246" x="1097" y="23.3687"/><text fill="#000000" font-family="Verdana" font-size="11" lengthAdjust="spacing" textLength="102" x="1107" y="44.4277">Debate e reflex&#227;o</text><text fill="#000000" font-family="Verdana" font-size="11" lengthAdjust="spacing" textLength="226" x="1107" y="57.7964">(interpreta&#231;&#227;o e constru&#231;&#227;o de sentido)</text><path d="M1089.5,95.106 L1089.5,92.106 C1089.5,85.106 1220,80.106 1220,73.106 L1220,70.106 " fill="none" style="stroke:#000000;stroke-width:1.0;"/><rect fill="#FFFFFF" height="46.7373" rx="12.5" ry="12.5" style="stroke:#AAAAAA;stroke-width:1.5;" width="152" x="1363" y="23.3687"/><text fill="#000000" font-family="Verdana" font-size="11" lengthAdjust="spacing" textLength="55" x="1373" y="44.4277">Avalia&#231;&#227;o</text><text fill="#000000" font-family="Verdana" font-size="11" lengthAdjust="spacing" textLength="132" x="1373" y="57.7964">(sumativa e formativa)</text><path d="M1089.5,95.106 L1089.5,92.106 C1089.5,85.106 1439,80.106 1439,73.106 L1439,70.106 " fill="none" style="stroke:#000000;stroke-width:1.0;"/><path d="M1280,153.4746 L1280,150.4746 C1280,143.4746 1089.5,138.4746 1089.5,131.4746 L1089.5,128.4746 " fill="none" style="stroke:#000000;stroke-width:1.0;"/><rect fill="#FFFFFF" height="46.7373" rx="12.5" ry="12.5" style="stroke:#AAAAAA;stroke-width:1.5;" width="136" x="1647.5" y="81.7373"/><text fill="#000000" font-family="Verdana" font-size="11" lengthAdjust="spacing" textLength="116" x="1657.5" y="102.7964">Desenvolvimento de</text><text fill="#000000" font-family="Verdana" font-size="11" lengthAdjust="spacing" textLength="78" x="1657.5" y="116.165">compet&#234;ncias</text><rect fill="#FFFFFF" height="33.3687" rx="12.5" ry="12.5" style="stroke:#AAAAAA;stroke-width:1.5;" width="128" x="1535" y="23.3687"/><text fill="#000000" font-family="Verdana" font-size="11" lengthAdjust="spacing" textLength="108" x="1545" y="44.4277">Pensamento cr&#237;tico</text><path d="M1715.5,81.7373 L1715.5,78.7373 C1715.5,71.7373 1599,66.7373 1599,59.7373 L1599,56.7373 " fill="none" style="stroke:#000000;stroke-width:1.0;"/><rect fill="#FFFFFF" height="33.3687" rx="12.5" ry="12.5" style="stroke:#AAAAAA;stroke-width:1.5;" width="91" x="1683" y="23.3687"/><text fill="#000000" font-family="Verdana" font-size="11" lengthAdjust="spacing" textLength="71" x="1693" y="44.4277">Colabora&#231;&#227;o</text><path d="M1715.5,81.7373 L1715.5,78.7373 C1715.5,71.7373 1728.5,66.7373 1728.5,59.7373 L1728.5,56.7373 " fill="none" style="stroke:#000000;stroke-width:1.0;"/><rect fill="#FFFFFF" height="46.7373" rx="12.5" ry="12.5" style="stroke:#AAAAAA;stroke-width:1.5;" width="102" x="1794" y="10"/><text fill="#000000" font-family="Verdana" font-size="11" lengthAdjust="spacing" textLength="70" x="1804" y="31.0591">Express&#227;o e</text><text fill="#000000" font-family="Verdana" font-size="11" lengthAdjust="spacing" textLength="82" x="1804" y="44.4277">argumenta&#231;&#227;o</text><path d="M1715.5,81.7373 L1715.5,78.7373 C1715.5,71.7373 1845,66.7373 1845,59.7373 L1845,56.7373 " fill="none" style="stroke:#000000;stroke-width:1.0;"/><path d="M1280,153.4746 L1280,150.4746 C1280,143.4746 1715.5,138.4746 1715.5,131.4746 L1715.5,128.4746 " fill="none" style="stroke:#000000;stroke-width:1.0;"/><path d="M958,238.5806 L958,235.5806 C958,228.5806 1280,223.5806 1280,216.5806 L1280,213.5806 " fill="none" style="stroke:#000000;stroke-width:1.0;"/><!--SRC=[xLbBRnit4BxpLqo17Xp1iLOFoxPyYINRQLAxDc97QKy6TpahiTabjoHNYLFalxJeeMY1d8fUUjKVwt1tzRHxATf0WYq3negSvpSVoQ7scNNSk5GgaV8CWlPD4DmuZ9HEz51oUuCt1gFSM6rlU2wa7akRSsdP5m9ZgH3ENZp_whftzlg4VI5LbEG2SvF0oBdCTklreRHkPoZTA0zpYoRIog5oEv5EwpmTshh0tRtTJX0qcdoVxyO1jflj86uTDCFEtZvl1tN3tzMZWw0LTS9stEY4dI3SHOnRpVP-71oqsWTxCUVOsjkFTnjrwsuJtCdoD67CwGoSXb0xfrCGah9mKYl6QjrQxNgU822ygXAirLYjThIGPArso5Y2iGCh1P9g3Swa6kPyYEc27Ypgm8LA21UIhNKl4-vuh4rAReGa63nmMz_f_3eFSHi6CaMz3UYYdIU7XSAfbtLaCSqJ9rCj2eNnv9FmWbQdsy2LJFdaryalkj8vYj1QJU5aL4UPZ3WJ20NGax-4jgNGcNHeU2Gvf2Zav6Sd8qugJ9AOoGowqYH4PlB9pntwPBj7Jewbu08fV8GZabD2VYYoFwxI0TQdWXekA4N5uHWjkRREvAKzKcClKj9G17GAvuHIIlAwY0fE7CyyD1pur9CVBu1JCgOu2YjiosA2fK5Aqo1bMiKhD9Jeb63KkWDVXOI2h3HrIBGRLzB3N5AWP6EQvbJh64Fka2OCnWc-BpHNeIb0NShCKYPIp5mVZSdnBE8yzJbvPmK1_7DLCC88rLWd5HHaYT5woD1DVbTKeR9YDRWap7WfKOMhouc-JdYeAmHAroVlAL1hop0PDyFSAvOIL4eZXwC53Y-otqC97Ff6pjAyD5hCaxoNv4NrJj6O8i15TXSHli61B1XxvCdw5iqszBaQyssuw5t1bVEM2XFBhkQaXGmJ-i-JNEdAvg0eizs6J8k8MsVdI-5FB0DQA00Hol3nvBU2k9as3kF97udqDbVIw9vOD_b4wqt3v2T2MiwewA7Ca79NSq8LN5rO1uVi6JrNkoTZp_xbPZgItbsQkLjQdswanT8GTyx8C7UKfl_OjrBvigLWYQ6etMs6_HwFtWwDpfKWUcW33TxfH4rMVUOguOfS7CVihbGaJPIWw8_eMqHEu4S6G8jSvXRswJ6cIbt93mYDHlNj6s823D08hZZxk6GhuTOM1k2Ezozx5z_sdjCKyLcWAGSvvuMmDrkE145mdvlLEEPmdCvKMwtMdPcv1W0tHhzRz58CdDvrDHjVj3iRd9hqOzDgtH5Ud9Z7C1j-GVoV3dzSAWVLG9j_W90EpWusLo2iglzPK5mgTd46HJBZogrboPUPgPEax0hi-WTxXJ_ag2BiwVVtnug1_rk9DIe-dotSXNYBupFc4Mu4R_q1h1Lk0ckL5hZ-KGhgV4DkDo1IMbRvseQv42VTdw9r1VH_E4a_hXo0r9HHA_GGaxVLpbyblw5jKI9ZfCipdL_p4itEWDda_MVQ4XoXd-RcTaFE5ReSwsGZOlMtMRVEiDwp8HnBdceb7ig-04093mc0nLLqp-tYlxbsq6NMuSE1jhYxhx0TL-xJom3fy7kwFpoWGscf3NKRqjedEXSFid7mFtbpDKmse0ctJXi-NDys_F5jmkFRXCUt2Ozl4pxhsmJFM_Vw_0p6f4Ux3JHsca6plTFQkXxb15W8ZLre77JRGJVOXJSdr-2ddx2jvvTduoOjyDpGhL58MtPwPE49Uyc9HQzoebgANRZ8KBqy_dew02TgB8rMlWpivU1yBj1fF-r91rV4VZGmE6V767FQLKWZqe9siIwylZvzki_EUBcZTQbrOdtQmfsvfRchlm40]--></g></svg>