<?xml version="1.0" encoding="us-ascii" standalone="no"?><svg xmlns="http://www.w3.org/2000/svg" xmlns:xlink="http://www.w3.org/1999/xlink" contentStyleType="text/css" height="358px" preserveAspectRatio="none" style="width:2068px;height:358px;background:#FFFFFF;" version="1.1" viewBox="0 0 2068 358" width="2068px" zoomAndPan="magnify"><defs/><g><rect fill="#FFFFFF" height="46.7373" rx="12.5" ry="12.5" style="stroke:#AAAAAA;stroke-width:1.5;" width="237" x="978" y="155.0541"/><text fill="#000000" font-family="Verdana" font-size="11" font-weight="bold" lengthAdjust="spacing" textLength="174" x="988" y="176.1132">Tecnologias para a cria&#231;&#227;o e</text><text fill="#000000" font-family="Verdana" font-size="11" font-weight="bold" lengthAdjust="spacing" textLength="217" x="988" y="189.4818">produ&#231;&#227;o de recursos audiovisuais</text><rect fill="#FFFFFF" height="33.3687" rx="12.5" ry="12.5" style="stroke:#AAAAAA;stroke-width:1.5;" width="156" x="1265" y="104.106"/><text fill="#000000" font-family="Verdana" font-size="11" lengthAdjust="spacing" textLength="136" x="1275" y="125.165">Etapas das e-atividades</text><rect fill="#FFFFFF" height="33.3687" rx="12.5" ry="12.5" style="stroke:#AAAAAA;stroke-width:1.5;" width="178" x="1471" y="20"/><text fill="#000000" font-family="Verdana" font-size="11" lengthAdjust="spacing" textLength="158" x="1481" y="41.0591">1&#186; Planifica&#231;&#227;o da atividade</text><text fill="#000000" font-family="Verdana" font-size="11" lengthAdjust="spacing" textLength="120" x="1702" y="25.6904">Clareza e adequa&#231;&#227;o</text><path d="M1649,36.6843 L1659,36.6843 C1674,36.6843 1674,21.3157 1689,21.3157 L1699,21.3157 " fill="none" style="stroke:#000000;stroke-width:1.0;"/><text fill="#000000" font-family="Verdana" font-size="11" lengthAdjust="spacing" textLength="181" x="1702" y="41.0591">Qualidade t&#233;cnica e pedag&#243;gica</text><path d="M1649,36.6843 L1659,36.6843 C1674,36.6843 1674,36.6843 1689,36.6843 L1699,36.6843 " fill="none" style="stroke:#000000;stroke-width:1.0;"/><text fill="#000000" font-family="Verdana" font-size="11" lengthAdjust="spacing" textLength="174" x="1702" y="56.4277">Pr&#233;-visualiza&#231;&#227;o dos materiais</text><path d="M1649,36.6843 L1659,36.6843 C1674,36.6843 1674,52.053 1689,52.053 L1699,52.053 " fill="none" style="stroke:#000000;stroke-width:1.0;"/><path d="M1421,120.7903 L1431,120.7903 C1446,120.7903 1446,36.6843 1461,36.6843 L1471,36.6843 " fill="none" style="stroke:#000000;stroke-width:1.0;"/><rect fill="#FFFFFF" height="33.3687" rx="12.5" ry="12.5" style="stroke:#AAAAAA;stroke-width:1.5;" width="160" x="1471" y="73.3687"/><text fill="#000000" font-family="Verdana" font-size="11" lengthAdjust="spacing" textLength="140" x="1481" y="94.4277">2&#186; Visualiza&#231;&#227;o do v&#237;deo</text><text fill="#000000" font-family="Verdana" font-size="11" lengthAdjust="spacing" textLength="94" x="1684" y="86.7434">Estrutura guiada</text><path d="M1631,90.053 L1641,90.053 C1656,90.053 1656,82.3687 1671,82.3687 L1681,82.3687 " fill="none" style="stroke:#000000;stroke-width:1.0;"/><text fill="#000000" font-family="Verdana" font-size="11" lengthAdjust="spacing" textLength="97" x="1684" y="102.1121">Contextualiza&#231;&#227;o</text><path d="M1631,90.053 L1641,90.053 C1656,90.053 1656,97.7373 1671,97.7373 L1681,97.7373 " fill="none" style="stroke:#000000;stroke-width:1.0;"/><path d="M1421,120.7903 L1431,120.7903 C1446,120.7903 1446,90.053 1461,90.053 L1471,90.053 " fill="none" style="stroke:#000000;stroke-width:1.0;"/><rect fill="#FFFFFF" height="33.3687" rx="12.5" ry="12.5" style="stroke:#AAAAAA;stroke-width:1.5;" width="139" x="1471" y="130.7903"/><text fill="#000000" font-family="Verdana" font-size="11" lengthAdjust="spacing" textLength="119" x="1481" y="151.8494">3&#186; Debate e reflex&#227;o</text><text fill="#000000" font-family="Verdana" font-size="11" lengthAdjust="spacing" textLength="106" x="1663" y="128.7964">Grelhas de an&#225;lise</text><path d="M1610,147.4746 L1620,147.4746 C1635,147.4746 1635,124.4216 1650,124.4216 L1660,124.4216 " fill="none" style="stroke:#000000;stroke-width:1.0;"/><text fill="#000000" font-family="Verdana" font-size="11" lengthAdjust="spacing" textLength="113" x="1663" y="144.165">Discuss&#245;es e f&#243;runs</text><path d="M1610,147.4746 L1620,147.4746 C1635,147.4746 1635,139.7903 1650,139.7903 L1660,139.7903 " fill="none" style="stroke:#000000;stroke-width:1.0;"/><text fill="#000000" font-family="Verdana" font-size="11" lengthAdjust="spacing" textLength="171" x="1663" y="159.5337">Participa&#231;&#227;o livre e moderada</text><path d="M1610,147.4746 L1620,147.4746 C1635,147.4746 1635,155.1589 1650,155.1589 L1660,155.1589 " fill="none" style="stroke:#000000;stroke-width:1.0;"/><text fill="#000000" font-family="Verdana" font-size="11" lengthAdjust="spacing" textLength="250" x="1663" y="174.9023">Papel do professor: facilitador e moderador</text><path d="M1610,147.4746 L1620,147.4746 C1635,147.4746 1635,170.5276 1650,170.5276 L1660,170.5276 " fill="none" style="stroke:#000000;stroke-width:1.0;"/><path d="M1421,120.7903 L1431,120.7903 C1446,120.7903 1446,147.4746 1461,147.4746 L1471,147.4746 " fill="none" style="stroke:#000000;stroke-width:1.0;"/><rect fill="#FFFFFF" height="33.3687" rx="12.5" ry="12.5" style="stroke:#AAAAAA;stroke-width:1.5;" width="283" x="1471" y="188.2119"/><text fill="#000000" font-family="Verdana" font-size="11" lengthAdjust="spacing" textLength="263" x="1481" y="209.271">4&#186; Conclus&#227;o e verifica&#231;&#227;o das aprendizagens</text><text fill="#000000" font-family="Verdana" font-size="11" lengthAdjust="spacing" textLength="249" x="1807" y="193.9023">Avalia&#231;&#227;o: trabalhos, question&#225;rios, tarefas</text><path d="M1754,204.8962 L1764,204.8962 C1779,204.8962 1779,189.5276 1794,189.5276 L1804,189.5276 " fill="none" style="stroke:#000000;stroke-width:1.0;"/><text fill="#000000" font-family="Verdana" font-size="11" lengthAdjust="spacing" textLength="173" x="1807" y="209.271">Reflex&#227;o sobre aprendizagens</text><path d="M1754,204.8962 L1764,204.8962 C1779,204.8962 1779,204.8962 1794,204.8962 L1804,204.8962 " fill="none" style="stroke:#000000;stroke-width:1.0;"/><text fill="#000000" font-family="Verdana" font-size="11" lengthAdjust="spacing" textLength="169" x="1807" y="224.6396">Incentivo ao aprofundamento</text><path d="M1754,204.8962 L1764,204.8962 C1779,204.8962 1779,220.2649 1794,220.2649 L1804,220.2649 " fill="none" style="stroke:#000000;stroke-width:1.0;"/><path d="M1421,120.7903 L1431,120.7903 C1446,120.7903 1446,204.8962 1461,204.8962 L1471,204.8962 " fill="none" style="stroke:#000000;stroke-width:1.0;"/><path d="M1215,178.4227 L1225,178.4227 C1240,178.4227 1240,120.7903 1255,120.7903 L1265,120.7903 " fill="none" style="stroke:#000000;stroke-width:1.0;"/><rect fill="#FFFFFF" height="33.3687" rx="12.5" ry="12.5" style="stroke:#AAAAAA;stroke-width:1.5;" width="130" x="1265" y="272.5287"/><text fill="#000000" font-family="Verdana" font-size="11" lengthAdjust="spacing" textLength="110" x="1275" y="293.5878">Potencial educativo</text><text fill="#000000" font-family="Verdana" font-size="11" lengthAdjust="spacing" textLength="188" x="1448" y="243.6396">Personaliza&#231;&#227;o da aprendizagem</text><path d="M1395,289.213 L1405,289.213 C1420,289.213 1420,239.2649 1435,239.2649 L1445,239.2649 " fill="none" style="stroke:#000000;stroke-width:1.0;"/><text fill="#000000" font-family="Verdana" font-size="11" lengthAdjust="spacing" textLength="157" x="1448" y="259.0083">Interatividade e dinamismo</text><path d="M1395,289.213 L1405,289.213 C1420,289.213 1420,254.6335 1435,254.6335 L1445,254.6335 " fill="none" style="stroke:#000000;stroke-width:1.0;"/><text fill="#000000" font-family="Verdana" font-size="11" lengthAdjust="spacing" textLength="190" x="1448" y="274.377">Cria&#231;&#227;o de conte&#250;dos multim&#233;dia</text><text fill="#000000" font-family="Verdana" font-size="11" lengthAdjust="spacing" textLength="122" x="1691" y="266.6926">Portef&#243;lio audiovisual</text><path d="M1638,270.0022 L1648,270.0022 C1663,270.0022 1663,262.3179 1678,262.3179 L1688,262.3179 " fill="none" style="stroke:#000000;stroke-width:1.0;"/><text fill="#000000" font-family="Verdana" font-size="11" lengthAdjust="spacing" textLength="165" x="1691" y="282.0613">Evid&#234;ncia das aprendizagens</text><path d="M1638,270.0022 L1648,270.0022 C1663,270.0022 1663,277.6865 1678,277.6865 L1688,277.6865 " fill="none" style="stroke:#000000;stroke-width:1.0;"/><path d="M1395,289.213 L1405,289.213 C1420,289.213 1420,270.0022 1435,270.0022 L1445,270.0022 " fill="none" style="stroke:#000000;stroke-width:1.0;"/><rect fill="#FFFFFF" height="33.3687" rx="12.5" ry="12.5" style="stroke:#AAAAAA;stroke-width:1.5;" width="218" x="1445" y="299.4238"/><text fill="#000000" font-family="Verdana" font-size="11" lengthAdjust="spacing" textLength="198" x="1455" y="320.4829">Desenvolvimento de compet&#234;ncias</text><text fill="#000000" font-family="Verdana" font-size="11" lengthAdjust="spacing" textLength="108" x="1716" y="297.4299">Pensamento cr&#237;tico</text><path d="M1663,316.1082 L1673,316.1082 C1688,316.1082 1688,293.0552 1703,293.0552 L1713,293.0552 " fill="none" style="stroke:#000000;stroke-width:1.0;"/><text fill="#000000" font-family="Verdana" font-size="11" lengthAdjust="spacing" textLength="68" x="1716" y="312.7986">Criatividade</text><path d="M1663,316.1082 L1673,316.1082 C1688,316.1082 1688,308.4238 1703,308.4238 L1713,308.4238 " fill="none" style="stroke:#000000;stroke-width:1.0;"/><text fill="#000000" font-family="Verdana" font-size="11" lengthAdjust="spacing" textLength="192" x="1716" y="328.1672">Empatia e respeito pela diferen&#231;a</text><path d="M1663,316.1082 L1673,316.1082 C1688,316.1082 1688,323.7925 1703,323.7925 L1713,323.7925 " fill="none" style="stroke:#000000;stroke-width:1.0;"/><text fill="#000000" font-family="Verdana" font-size="11" lengthAdjust="spacing" textLength="178" x="1716" y="343.5359">Integra&#231;&#227;o social e profissional</text><path d="M1663,316.1082 L1673,316.1082 C1688,316.1082 1688,339.1611 1703,339.1611 L1713,339.1611 " fill="none" style="stroke:#000000;stroke-width:1.0;"/><path d="M1395,289.213 L1405,289.213 C1420,289.213 1420,316.1082 1435,316.1082 L1445,316.1082 " fill="none" style="stroke:#000000;stroke-width:1.0;"/><path d="M1215,178.4227 L1225,178.4227 C1240,178.4227 1240,289.213 1255,289.213 L1265,289.213 " fill="none" style="stroke:#000000;stroke-width:1.0;"/><text fill="#000000" font-family="Verdana" font-size="11" lengthAdjust="spacing" textLength="62" x="863" y="129.4288">constituem</text><rect fill="#FFFFFF" height="33.3687" rx="12.5" ry="12.5" style="stroke:#AAAAAA;stroke-width:1.5;" width="134" x="679" y="108.3698"/><text fill="#000000" font-family="Verdana" font-size="11" lengthAdjust="spacing" textLength="114" x="689" y="129.4288">E-atividades digitais</text><text fill="#000000" font-family="Verdana" font-size="11" lengthAdjust="spacing" textLength="195" x="431" y="75.6385">Contexto e conte&#250;dos curriculares</text><path d="M679,125.0541 L669,125.0541 C654,125.0541 654,71.2638 639,71.2638 L629,71.2638 " fill="none" style="stroke:#000000;stroke-width:1.0;"/><text fill="#000000" font-family="Verdana" font-size="11" lengthAdjust="spacing" textLength="157" x="469" y="91.0072">Objetivos de aprendizagem</text><path d="M679,125.0541 L669,125.0541 C654,125.0541 654,86.6324 639,86.6324 L629,86.6324 " fill="none" style="stroke:#000000;stroke-width:1.0;"/><text fill="#000000" font-family="Verdana" font-size="11" lengthAdjust="spacing" textLength="132" x="494" y="121.7445">Promo&#231;&#227;o da intera&#231;&#227;o</text><text fill="#000000" font-family="Verdana" font-size="11" lengthAdjust="spacing" textLength="105" x="336" y="106.3759">Tipo de intera&#231;&#245;es</text><path d="M494,117.3698 L484,117.3698 C469,117.3698 469,102.0011 454,102.0011 L444,102.0011 " fill="none" style="stroke:#000000;stroke-width:1.0;"/><text fill="#000000" font-family="Verdana" font-size="11" lengthAdjust="spacing" textLength="119" x="322" y="121.7445">Recursos dispon&#237;veis</text><path d="M494,117.3698 L484,117.3698 C469,117.3698 469,117.3698 454,117.3698 L444,117.3698 " fill="none" style="stroke:#000000;stroke-width:1.0;"/><text fill="#000000" font-family="Verdana" font-size="11" lengthAdjust="spacing" textLength="138" x="303" y="137.1132">Estrat&#233;gias pedag&#243;gicas</text><path d="M494,117.3698 L484,117.3698 C469,117.3698 469,132.7384 454,132.7384 L444,132.7384 " fill="none" style="stroke:#000000;stroke-width:1.0;"/><path d="M679,125.0541 L669,125.0541 C654,125.0541 654,117.3698 639,117.3698 L629,117.3698 " fill="none" style="stroke:#000000;stroke-width:1.0;"/><text fill="#000000" font-family="Verdana" font-size="11" lengthAdjust="spacing" textLength="55" x="571" y="167.8505">Avalia&#231;&#227;o</text><text fill="#000000" font-family="Verdana" font-size="11" lengthAdjust="spacing" textLength="114" x="404" y="152.4818">Avalia&#231;&#227;o formativa</text><path d="M571,163.4757 L561,163.4757 C546,163.4757 546,148.1071 531,148.1071 L521,148.1071 " fill="none" style="stroke:#000000;stroke-width:1.0;"/><text fill="#000000" font-family="Verdana" font-size="11" lengthAdjust="spacing" textLength="113" x="405" y="167.8505">Feedback constante</text><path d="M571,163.4757 L561,163.4757 C546,163.4757 546,163.4757 531,163.4757 L521,163.4757 " fill="none" style="stroke:#000000;stroke-width:1.0;"/><text fill="#000000" font-family="Verdana" font-size="11" lengthAdjust="spacing" textLength="111" x="407" y="183.2191">Avalia&#231;&#227;o sumativa</text><path d="M571,163.4757 L561,163.4757 C546,163.4757 546,178.8444 531,178.8444 L521,178.8444 " fill="none" style="stroke:#000000;stroke-width:1.0;"/><path d="M679,125.0541 L669,125.0541 C654,125.0541 654,163.4757 639,163.4757 L629,163.4757 " fill="none" style="stroke:#000000;stroke-width:1.0;"/><path d="M863,125.0541 L853,125.0541 C838,125.0541 838,125.0541 823,125.0541 L813,125.0541 " fill="none" style="stroke:#000000;stroke-width:1.0;"/><path d="M978,178.4227 L968,178.4227 C953,178.4227 953,125.0541 938,125.0541 L928,125.0541 " fill="none" style="stroke:#000000;stroke-width:1.0;"/><text fill="#000000" font-family="Verdana" font-size="11" lengthAdjust="spacing" textLength="73" x="852" y="244.2721">representam</text><rect fill="#FFFFFF" height="33.3687" rx="12.5" ry="12.5" style="stroke:#AAAAAA;stroke-width:1.5;" width="266" x="536" y="223.213"/><text fill="#000000" font-family="Verdana" font-size="11" lengthAdjust="spacing" textLength="246" x="546" y="244.2721">Ferramentas pedag&#243;gicas complementares</text><rect fill="#FFFFFF" height="33.3687" rx="12.5" ry="12.5" style="stroke:#AAAAAA;stroke-width:1.5;" width="112" x="374" y="196.5287"/><text fill="#000000" font-family="Verdana" font-size="11" lengthAdjust="spacing" textLength="92" x="384" y="217.5878">Portef&#243;lio digital</text><text fill="#000000" font-family="Verdana" font-size="11" lengthAdjust="spacing" textLength="175" x="146" y="202.2191">Registo reflexivo e sistem&#225;tico</text><path d="M374,213.213 L364,213.213 C349,213.213 349,197.8444 334,197.8444 L324,197.8444 " fill="none" style="stroke:#000000;stroke-width:1.0;"/><text fill="#000000" font-family="Verdana" font-size="11" lengthAdjust="spacing" textLength="163" x="158" y="217.5878">Documenta&#231;&#227;o do progresso</text><path d="M374,213.213 L364,213.213 C349,213.213 349,213.213 334,213.213 L324,213.213 " fill="none" style="stroke:#000000;stroke-width:1.0;"/><text fill="#000000" font-family="Verdana" font-size="11" lengthAdjust="spacing" textLength="106" x="215" y="232.9564">Feedback cont&#237;nuo</text><path d="M374,213.213 L364,213.213 C349,213.213 349,228.5817 334,228.5817 L324,228.5817 " fill="none" style="stroke:#000000;stroke-width:1.0;"/><path d="M536,239.8973 L526,239.8973 C511,239.8973 511,213.213 496,213.213 L486,213.213 " fill="none" style="stroke:#000000;stroke-width:1.0;"/><rect fill="#FFFFFF" height="33.3687" rx="12.5" ry="12.5" style="stroke:#AAAAAA;stroke-width:1.5;" width="206" x="280" y="249.8973"/><text fill="#000000" font-family="Verdana" font-size="11" lengthAdjust="spacing" textLength="186" x="290" y="270.9564">Di&#225;rio gr&#225;fico (ensino do design)</text><text fill="#000000" font-family="Verdana" font-size="11" lengthAdjust="spacing" textLength="217" x="10" y="263.2721">Investiga&#231;&#227;o e experimenta&#231;&#227;o visual</text><path d="M280,266.5817 L270,266.5817 C255,266.5817 255,258.8973 240,258.8973 L230,258.8973 " fill="none" style="stroke:#000000;stroke-width:1.0;"/><text fill="#000000" font-family="Verdana" font-size="11" lengthAdjust="spacing" textLength="174" x="53" y="278.6407">Avalia&#231;&#227;o cont&#237;nua e sumativa</text><path d="M280,266.5817 L270,266.5817 C255,266.5817 255,274.266 240,274.266 L230,274.266 " fill="none" style="stroke:#000000;stroke-width:1.0;"/><path d="M536,239.8973 L526,239.8973 C511,239.8973 511,266.5817 496,266.5817 L486,266.5817 " fill="none" style="stroke:#000000;stroke-width:1.0;"/><path d="M852,239.8973 L842,239.8973 C827,239.8973 827,239.8973 812,239.8973 L802,239.8973 " fill="none" style="stroke:#000000;stroke-width:1.0;"/><path d="M978,178.4227 L968,178.4227 C953,178.4227 953,239.8973 938,239.8973 L928,239.8973 " fill="none" style="stroke:#000000;stroke-width:1.0;"/><!--SRC=[xLbBRzms4BxhLp103ycYjhKFh-tj9VMpJft6ZHstjyL86ccPIAH2KXixHNwCqKEG0Zu5lUHO_R4EzLhjUdjB0ozi6GPM778Uttmp9A6dse0o2HT10Ybp1sEtFpRe2ndBY8CUfw1W36DVSV11Zd6SAXbazcU0OuL-fhJKOyW2BgTSPy2ryoZ0a0ja9yT7FvtldhmwS1vnuSTPW9cAsSIOL8ysDYAkpNh4pIJpCetAbyAWCEk-J3OWYVH6W9jRcqFNxVPW6pP35mUzWHlsTthUS6iR1kw6WdSR_exRzuVU8EmElQ7hRIA6_TvWEtHt-eEThH00-rlRuMPtGvkh6DVJB8aTfpFgTCvd8J8R8WDcGym_vdzAXfsEq-aKWPO30R8wLDOEjTFvmN5Y30tJF43It1ap2aGRRZ9CwBN33jR0y2aF843D0au1MuX8GbFtRCoNXWoo8lpyIq06o8xYVXQ3mdhY2-yraXOIaYUGAXG1VmzHQOBafqecid8L62TLgWobaDE4SvuMKJIYlolT97jPHnPmdKgHtqoHDy83RHIO_5C950OGvPyZxaFjsOzJYFcyhTOG2wLARFnG2myH0m_yDoLCGEuiMwQpQbM1g4AAM1Cve8Jq49M2nBxFkqGwapJ6Gb9ZnqwbCXZcdsCkA_ZZMU2MWvBqXp5U4hoK1qqZcEJNXljDGFlIpmgb5SAI4JKYig3bih1CVYEoKiBsUNwjo7AaykkGLBB7A3GNXH8Y18_4arh5iPWY4IUgESZmCaN5MuOBqiNByAgjWesWmKxnQ39Z9Zima1980VrZYvG5fDr_lh3J60Gd9w4XKZEfvglbv7jhXCRUPgsqZzclv5enbn5RV45gQ5ehEmrJyqzhPI34u1fGpSXd2hOg3TOZTouM9x5fVXDWRSyICpCPLMwKSGXWlgHQAmk5VLAuZnuPOLZbU-RwaS9u0cLjYVmwvheEU9zhFzFQLWkj8nQfJDJCFwMsoNsULlx5VAgiyaG6L66DFwUGObnH9hICKICMWizZ8c8WrMo1L8MZ0tAKOg1kgKiMJ0cMTb9qk_x5aZ8SCQfO3-A9rD-pjvdb51MrPI6zsy88c-9zMGF1jFGKBjLyB7nYe2qEa7Q233CH5DKddO9MfvBwjiyXPcZt1JlLAKD7wYgYdKAurRkiVjkHQg9Hm04Na72TL5hscguSp7N998iDJ_9F0M-WRbNwh4d7DL_8GFwNTNGvY4GFQZ5J6K-BaglC9IcQSbMJTffVXayRHdxJz8dIquM2EKXI6eA2Spf5Jek83kG13v7ivn-XGTbWfEhk9qiu2yvmhRb5qNbA_bRRjECy_VgxzeHR-9FKNB44pKG6SqDWZE9UPgXVs4U_uSBQI1YrIuNINAMujqiDC5AI-B57VYZMXU7GxpdLCrlYBSmBmz2vFSldoeyns9lGcqz6s1yEOrGeFDDictw6n8Kp_XvPjrkz_K9vOHUe0X3WV9ZJ5OFMXG9so_ftkoz-tpqYaISLLM8v2035PAks775TTvcPHJzcS1msI_lz_Yt9R0LZe9HyrxPI31pUDjMCj_KsWxLAErPdwzRajc3cGpDyJ1LM3t-OImVbGAh_W91EQ4FiBK1OPV-Re3YNxBHkpCBSoPJFCrF6CVgsHUkxx-mPRVhKwt5NNYxt5Ltxj-2hNppVpDsMlyLfbtPRN0dUsjr62bm5rWewiznzBmCmT13IA-0fbLLsPzri-KaNTV-k0le_xAGV5ZP0EjpHKUW-1g-hpby5lwB7efYEtITSqFurIr6p1pJ2vNlQ71oU5OEwMf5zHHWbuvNmrLurpLs6TKb3sEUGI17Sbxx060LCTzMaNKLBRXTVvzf1zro3zmVQubg_m7PSk4_F0oIzrtH_k4URqjmnrAp8qJwMMN0l3mwAo0aYYbVW4AwDL13TtMFumsUhXyzM3v-j7ZvRFNosUlXijQAVhMojcbVFJomzh9nrrtjkRx3UVtm-oQWRUQoxoRexeu4xSZVPRmVdp8gVE8-FJa-cFRAGATz2hSjx0sbuuZo3AR2N6IKxmH5xaQ9ujlzpFS0En9GhAMpaphEBvxC9my7QBZVi31NvmYwUE_l4C4eEhV0b9JCQiLVdXslRpWaTNpB2UqG7SMUF3WH6NP7ix5y0]--></g></svg>