<?xml version="1.0" encoding="us-ascii" standalone="no"?><svg xmlns="http://www.w3.org/2000/svg" xmlns:xlink="http://www.w3.org/1999/xlink" contentStyleType="text/css" height="460px" preserveAspectRatio="none" style="width:1740px;height:460px;background:#FFFFFF;" version="1.1" viewBox="0 0 1740 460" width="1740px" zoomAndPan="magnify"><defs/><g><rect fill="#FFFFFF" height="46.7373" rx="12.5" ry="12.5" style="stroke:#AAAAAA;stroke-width:1.5;" width="367" x="571" y="205.6346"/><text fill="#000000" font-family="Verdana" font-size="11" font-weight="bold" lengthAdjust="spacing" textLength="228" x="581" y="226.6937">Atividades de aprendizagem digitais</text><text fill="#000000" font-family="Verdana" font-size="11" font-weight="bold" lengthAdjust="spacing" textLength="347" x="581" y="240.0624">centradas na desconstru&#231;&#227;o de imagens em movimento</text><text fill="#000000" font-family="Verdana" font-size="11" lengthAdjust="spacing" textLength="95" x="991" y="233.3781">estruturadas por</text><rect fill="#FFFFFF" height="33.3687" rx="12.5" ry="12.5" style="stroke:#AAAAAA;stroke-width:1.5;" width="87" x="1136" y="35.5795"/><text fill="#000000" font-family="Verdana" font-size="11" lengthAdjust="spacing" textLength="67" x="1146" y="56.6385">Planifica&#231;&#227;o</text><text fill="#000000" font-family="Verdana" font-size="11" lengthAdjust="spacing" textLength="96" x="1276" y="37.4277">Escolha do v&#237;deo</text><text fill="#000000" font-family="Verdana" font-size="11" lengthAdjust="spacing" textLength="101" x="1425" y="22.0591">Qualidade t&#233;cnica</text><path d="M1372,33.053 L1382,33.053 C1397,33.053 1397,17.6843 1412,17.6843 L1422,17.6843 " fill="none" style="stroke:#000000;stroke-width:1.0;"/><text fill="#000000" font-family="Verdana" font-size="11" lengthAdjust="spacing" textLength="132" x="1425" y="37.4277">Pertin&#234;ncia pedag&#243;gica</text><path d="M1372,33.053 L1382,33.053 C1397,33.053 1397,33.053 1412,33.053 L1422,33.053 " fill="none" style="stroke:#000000;stroke-width:1.0;"/><text fill="#000000" font-family="Verdana" font-size="11" lengthAdjust="spacing" textLength="154" x="1425" y="52.7964">Adequa&#231;&#227;o ao p&#250;blico-alvo</text><path d="M1372,33.053 L1382,33.053 C1397,33.053 1397,48.4216 1412,48.4216 L1422,48.4216 " fill="none" style="stroke:#000000;stroke-width:1.0;"/><path d="M1223,52.2638 L1233,52.2638 C1248,52.2638 1248,33.053 1263,33.053 L1273,33.053 " fill="none" style="stroke:#000000;stroke-width:1.0;"/><text fill="#000000" font-family="Verdana" font-size="11" lengthAdjust="spacing" textLength="193" x="1276" y="75.8494">Prepara&#231;&#227;o de materiais de apoio</text><text fill="#000000" font-family="Verdana" font-size="11" lengthAdjust="spacing" textLength="106" x="1522" y="68.165">Grelhas de an&#225;lise</text><path d="M1469,71.4746 L1479,71.4746 C1494,71.4746 1494,63.7903 1509,63.7903 L1519,63.7903 " fill="none" style="stroke:#000000;stroke-width:1.0;"/><text fill="#000000" font-family="Verdana" font-size="11" lengthAdjust="spacing" textLength="151" x="1522" y="83.5337">Recursos complementares</text><path d="M1469,71.4746 L1479,71.4746 C1494,71.4746 1494,79.1589 1509,79.1589 L1519,79.1589 " fill="none" style="stroke:#000000;stroke-width:1.0;"/><path d="M1223,52.2638 L1233,52.2638 C1248,52.2638 1248,71.4746 1263,71.4746 L1273,71.4746 " fill="none" style="stroke:#000000;stroke-width:1.0;"/><text fill="#000000" font-family="Verdana" font-size="11" lengthAdjust="spacing" textLength="134" x="1276" y="91.218">Licenciamento do v&#237;deo</text><path d="M1223,52.2638 L1233,52.2638 C1248,52.2638 1248,86.8433 1263,86.8433 L1273,86.8433 " fill="none" style="stroke:#000000;stroke-width:1.0;"/><path d="M1086,229.0033 L1096,229.0033 C1111,229.0033 1111,52.2638 1126,52.2638 L1136,52.2638 " fill="none" style="stroke:#000000;stroke-width:1.0;"/><rect fill="#FFFFFF" height="33.3687" rx="12.5" ry="12.5" style="stroke:#AAAAAA;stroke-width:1.5;" width="146" x="1136" y="108.5806"/><text fill="#000000" font-family="Verdana" font-size="11" lengthAdjust="spacing" textLength="126" x="1146" y="129.6396">Visualiza&#231;&#227;o e An&#225;lise</text><text fill="#000000" font-family="Verdana" font-size="11" lengthAdjust="spacing" textLength="122" x="1335" y="106.5867">Observa&#231;&#245;es guiadas</text><path d="M1282,125.2649 L1292,125.2649 C1307,125.2649 1307,102.2119 1322,102.2119 L1332,102.2119 " fill="none" style="stroke:#000000;stroke-width:1.0;"/><text fill="#000000" font-family="Verdana" font-size="11" lengthAdjust="spacing" textLength="79" x="1335" y="121.9553">An&#225;lise cr&#237;tica</text><path d="M1282,125.2649 L1292,125.2649 C1307,125.2649 1307,117.5806 1322,117.5806 L1332,117.5806 " fill="none" style="stroke:#000000;stroke-width:1.0;"/><text fill="#000000" font-family="Verdana" font-size="11" lengthAdjust="spacing" textLength="185" x="1335" y="137.324">Visualiza&#231;&#227;o cont&#237;nua e pausada</text><path d="M1282,125.2649 L1292,125.2649 C1307,125.2649 1307,132.9492 1322,132.9492 L1332,132.9492 " fill="none" style="stroke:#000000;stroke-width:1.0;"/><text fill="#000000" font-family="Verdana" font-size="11" lengthAdjust="spacing" textLength="104" x="1335" y="152.6926">Registo e reflex&#227;o</text><path d="M1282,125.2649 L1292,125.2649 C1307,125.2649 1307,148.3179 1322,148.3179 L1332,148.3179 " fill="none" style="stroke:#000000;stroke-width:1.0;"/><path d="M1086,229.0033 L1096,229.0033 C1111,229.0033 1111,125.2649 1126,125.2649 L1136,125.2649 " fill="none" style="stroke:#000000;stroke-width:1.0;"/><rect fill="#FFFFFF" height="33.3687" rx="12.5" ry="12.5" style="stroke:#AAAAAA;stroke-width:1.5;" width="125" x="1136" y="208.4768"/><text fill="#000000" font-family="Verdana" font-size="11" lengthAdjust="spacing" textLength="105" x="1146" y="229.5359">Debate e Reflex&#227;o</text><text fill="#000000" font-family="Verdana" font-size="11" lengthAdjust="spacing" textLength="289" x="1314" y="168.0613">Constru&#231;&#227;o de sentido e partilha de interpreta&#231;&#245;es</text><path d="M1261,225.1611 L1271,225.1611 C1286,225.1611 1286,163.6865 1301,163.6865 L1311,163.6865 " fill="none" style="stroke:#000000;stroke-width:1.0;"/><text fill="#000000" font-family="Verdana" font-size="11" lengthAdjust="spacing" textLength="160" x="1314" y="183.4299">An&#225;lise de aspetos do v&#237;deo</text><path d="M1261,225.1611 L1271,225.1611 C1286,225.1611 1286,179.0552 1301,179.0552 L1311,179.0552 " fill="none" style="stroke:#000000;stroke-width:1.0;"/><text fill="#000000" font-family="Verdana" font-size="11" lengthAdjust="spacing" textLength="203" x="1314" y="198.7986">Liga&#231;&#227;o aos conte&#250;dos da disciplina</text><path d="M1261,225.1611 L1271,225.1611 C1286,225.1611 1286,194.4238 1301,194.4238 L1311,194.4238 " fill="none" style="stroke:#000000;stroke-width:1.0;"/><text fill="#000000" font-family="Verdana" font-size="11" lengthAdjust="spacing" textLength="153" x="1314" y="214.1672">Presencial e f&#243;runs digitais</text><path d="M1261,225.1611 L1271,225.1611 C1286,225.1611 1286,209.7925 1301,209.7925 L1311,209.7925 " fill="none" style="stroke:#000000;stroke-width:1.0;"/><text fill="#000000" font-family="Verdana" font-size="11" lengthAdjust="spacing" textLength="149" x="1314" y="229.5359">Condi&#231;&#245;es de participa&#231;&#227;o</text><text fill="#000000" font-family="Verdana" font-size="11" lengthAdjust="spacing" textLength="113" x="1516" y="229.5359">Equidade e respeito</text><path d="M1463,225.1611 L1473,225.1611 C1488,225.1611 1488,225.1611 1503,225.1611 L1513,225.1611 " fill="none" style="stroke:#000000;stroke-width:1.0;"/><path d="M1261,225.1611 L1271,225.1611 C1286,225.1611 1286,225.1611 1301,225.1611 L1311,225.1611 " fill="none" style="stroke:#000000;stroke-width:1.0;"/><text fill="#000000" font-family="Verdana" font-size="11" lengthAdjust="spacing" textLength="107" x="1314" y="252.5889">Papel do professor</text><text fill="#000000" font-family="Verdana" font-size="11" lengthAdjust="spacing" textLength="61" x="1474" y="244.9045">Moderador</text><path d="M1421,248.2141 L1431,248.2141 C1446,248.2141 1446,240.5298 1461,240.5298 L1471,240.5298 " fill="none" style="stroke:#000000;stroke-width:1.0;"/><text fill="#000000" font-family="Verdana" font-size="11" lengthAdjust="spacing" textLength="106" x="1474" y="260.2732">Feedback cont&#237;nuo</text><path d="M1421,248.2141 L1431,248.2141 C1446,248.2141 1446,255.8984 1461,255.8984 L1471,255.8984 " fill="none" style="stroke:#000000;stroke-width:1.0;"/><path d="M1261,225.1611 L1271,225.1611 C1286,225.1611 1286,248.2141 1301,248.2141 L1311,248.2141 " fill="none" style="stroke:#000000;stroke-width:1.0;"/><text fill="#000000" font-family="Verdana" font-size="11" lengthAdjust="spacing" textLength="228" x="1314" y="275.6418">Desenvolvimento do pensamento cr&#237;tico</text><path d="M1261,225.1611 L1271,225.1611 C1286,225.1611 1286,271.2671 1301,271.2671 L1311,271.2671 " fill="none" style="stroke:#000000;stroke-width:1.0;"/><text fill="#000000" font-family="Verdana" font-size="11" lengthAdjust="spacing" textLength="213" x="1314" y="291.0105">Constru&#231;&#227;o coletiva do conhecimento</text><path d="M1261,225.1611 L1271,225.1611 C1286,225.1611 1286,286.6357 1301,286.6357 L1311,286.6357 " fill="none" style="stroke:#000000;stroke-width:1.0;"/><path d="M1086,229.0033 L1096,229.0033 C1111,229.0033 1111,225.1611 1126,225.1611 L1136,225.1611 " fill="none" style="stroke:#000000;stroke-width:1.0;"/><rect fill="#FFFFFF" height="33.3687" rx="12.5" ry="12.5" style="stroke:#AAAAAA;stroke-width:1.5;" width="148" x="1136" y="354.479"/><text fill="#000000" font-family="Verdana" font-size="11" lengthAdjust="spacing" textLength="128" x="1146" y="375.5381">Conclus&#227;o e Avalia&#231;&#227;o</text><text fill="#000000" font-family="Verdana" font-size="11" lengthAdjust="spacing" textLength="138" x="1337" y="321.7478">Tarefas de consolida&#231;&#227;o</text><text fill="#000000" font-family="Verdana" font-size="11" lengthAdjust="spacing" textLength="167" x="1528" y="306.3792">Cria&#231;&#227;o de narrativas digitais</text><path d="M1475,317.373 L1485,317.373 C1500,317.373 1500,302.0044 1515,302.0044 L1525,302.0044 " fill="none" style="stroke:#000000;stroke-width:1.0;"/><text fill="#000000" font-family="Verdana" font-size="11" lengthAdjust="spacing" textLength="181" x="1528" y="321.7478">Elabora&#231;&#227;o de jogos educativos</text><path d="M1475,317.373 L1485,317.373 C1500,317.373 1500,317.373 1515,317.373 L1525,317.373 " fill="none" style="stroke:#000000;stroke-width:1.0;"/><text fill="#000000" font-family="Verdana" font-size="11" lengthAdjust="spacing" textLength="127" x="1528" y="337.1165">Projetos colaborativos</text><path d="M1475,317.373 L1485,317.373 C1500,317.373 1500,332.7417 1515,332.7417 L1525,332.7417 " fill="none" style="stroke:#000000;stroke-width:1.0;"/><path d="M1284,371.1633 L1294,371.1633 C1309,371.1633 1309,317.373 1324,317.373 L1334,317.373 " fill="none" style="stroke:#000000;stroke-width:1.0;"/><text fill="#000000" font-family="Verdana" font-size="11" lengthAdjust="spacing" textLength="198" x="1337" y="375.5381">Desenvolvimento de compet&#234;ncias</text><text fill="#000000" font-family="Verdana" font-size="11" lengthAdjust="spacing" textLength="61" x="1588" y="352.4851">Autonomia</text><path d="M1535,371.1633 L1545,371.1633 C1560,371.1633 1560,348.1104 1575,348.1104 L1585,348.1104 " fill="none" style="stroke:#000000;stroke-width:1.0;"/><text fill="#000000" font-family="Verdana" font-size="11" lengthAdjust="spacing" textLength="140" x="1588" y="367.8538">Resolu&#231;&#227;o de problemas</text><path d="M1535,371.1633 L1545,371.1633 C1560,371.1633 1560,363.479 1575,363.479 L1585,363.479 " fill="none" style="stroke:#000000;stroke-width:1.0;"/><text fill="#000000" font-family="Verdana" font-size="11" lengthAdjust="spacing" textLength="125" x="1588" y="383.2224">Flexibilidade cognitiva</text><path d="M1535,371.1633 L1545,371.1633 C1560,371.1633 1560,378.8477 1575,378.8477 L1585,378.8477 " fill="none" style="stroke:#000000;stroke-width:1.0;"/><text fill="#000000" font-family="Verdana" font-size="11" lengthAdjust="spacing" textLength="114" x="1588" y="398.5911">Trabalho em equipa</text><path d="M1535,371.1633 L1545,371.1633 C1560,371.1633 1560,394.2163 1575,394.2163 L1585,394.2163 " fill="none" style="stroke:#000000;stroke-width:1.0;"/><path d="M1284,371.1633 L1294,371.1633 C1309,371.1633 1309,371.1633 1324,371.1633 L1334,371.1633 " fill="none" style="stroke:#000000;stroke-width:1.0;"/><text fill="#000000" font-family="Verdana" font-size="11" lengthAdjust="spacing" textLength="116" x="1337" y="421.644">Ferramentas digitais</text><text fill="#000000" font-family="Verdana" font-size="11" lengthAdjust="spacing" textLength="55" x="1506" y="421.644">exemplos</text><text fill="#000000" font-family="Verdana" font-size="11" lengthAdjust="spacing" textLength="55" x="1614" y="413.9597">Animaker</text><path d="M1561,417.2693 L1571,417.2693 C1586,417.2693 1586,409.585 1601,409.585 L1611,409.585 " fill="none" style="stroke:#000000;stroke-width:1.0;"/><text fill="#000000" font-family="Verdana" font-size="11" lengthAdjust="spacing" textLength="50" x="1614" y="429.3284">WeVideo</text><path d="M1561,417.2693 L1571,417.2693 C1586,417.2693 1586,424.9536 1601,424.9536 L1611,424.9536 " fill="none" style="stroke:#000000;stroke-width:1.0;"/><path d="M1453,417.2693 L1463,417.2693 C1478,417.2693 1478,417.2693 1493,417.2693 L1503,417.2693 " fill="none" style="stroke:#000000;stroke-width:1.0;"/><path d="M1284,371.1633 L1294,371.1633 C1309,371.1633 1309,417.2693 1324,417.2693 L1334,417.2693 " fill="none" style="stroke:#000000;stroke-width:1.0;"/><text fill="#000000" font-family="Verdana" font-size="11" lengthAdjust="spacing" textLength="222" x="1337" y="444.697">Integra&#231;&#227;o pedag&#243;gica cr&#237;tica do v&#237;deo</text><path d="M1284,371.1633 L1294,371.1633 C1309,371.1633 1309,440.3223 1324,440.3223 L1334,440.3223 " fill="none" style="stroke:#000000;stroke-width:1.0;"/><path d="M1086,229.0033 L1096,229.0033 C1111,229.0033 1111,371.1633 1126,371.1633 L1136,371.1633 " fill="none" style="stroke:#000000;stroke-width:1.0;"/><path d="M938,229.0033 L948,229.0033 C963,229.0033 963,229.0033 978,229.0033 L988,229.0033 " fill="none" style="stroke:#000000;stroke-width:1.0;"/><text fill="#000000" font-family="Verdana" font-size="11" lengthAdjust="spacing" textLength="95" x="419" y="233.3781">permitem inovar</text><rect fill="#FFFFFF" height="33.3687" rx="12.5" ry="12.5" style="stroke:#AAAAAA;stroke-width:1.5;" width="111" x="258" y="78.8973"/><text fill="#000000" font-family="Verdana" font-size="11" lengthAdjust="spacing" textLength="91" x="268" y="99.9564">V&#237;deo educativo</text><path d="M419,229.0033 L409,229.0033 C394,229.0033 394,95.5817 379,95.5817 L369,95.5817 " fill="none" style="stroke:#000000;stroke-width:1.0;"/><rect fill="#FFFFFF" height="33.3687" rx="12.5" ry="12.5" style="stroke:#AAAAAA;stroke-width:1.5;" width="270" x="99" y="132.266"/><text fill="#000000" font-family="Verdana" font-size="11" lengthAdjust="spacing" textLength="250" x="109" y="153.3251">Metodologias ativas centradas no estudante</text><path d="M419,229.0033 L409,229.0033 C394,229.0033 394,148.9503 379,148.9503 L369,148.9503 " fill="none" style="stroke:#000000;stroke-width:1.0;"/><rect fill="#FFFFFF" height="33.3687" rx="12.5" ry="12.5" style="stroke:#AAAAAA;stroke-width:1.5;" width="149" x="220" y="185.6346"/><text fill="#000000" font-family="Verdana" font-size="11" lengthAdjust="spacing" textLength="129" x="230" y="206.6937">Alinhamento curricular</text><text fill="#000000" font-family="Verdana" font-size="11" lengthAdjust="spacing" textLength="131" x="36" y="191.3251">Conte&#250;dos curriculares</text><path d="M220,202.319 L210,202.319 C195,202.319 195,186.9503 180,186.9503 L170,186.9503 " fill="none" style="stroke:#000000;stroke-width:1.0;"/><text fill="#000000" font-family="Verdana" font-size="11" lengthAdjust="spacing" textLength="157" x="10" y="206.6937">Objetivos de aprendizagem</text><path d="M220,202.319 L210,202.319 C195,202.319 195,202.319 180,202.319 L170,202.319 " fill="none" style="stroke:#000000;stroke-width:1.0;"/><text fill="#000000" font-family="Verdana" font-size="11" lengthAdjust="spacing" textLength="110" x="57" y="222.0624">Contexto educativo</text><path d="M220,202.319 L210,202.319 C195,202.319 195,217.6876 180,217.6876 L170,217.6876 " fill="none" style="stroke:#000000;stroke-width:1.0;"/><path d="M419,229.0033 L409,229.0033 C394,229.0033 394,202.319 379,202.319 L369,202.319 " fill="none" style="stroke:#000000;stroke-width:1.0;"/><rect fill="#FFFFFF" height="33.3687" rx="12.5" ry="12.5" style="stroke:#AAAAAA;stroke-width:1.5;" width="146" x="223" y="239.0033"/><text fill="#000000" font-family="Verdana" font-size="11" lengthAdjust="spacing" textLength="126" x="233" y="260.0624">Intera&#231;&#227;o significativa</text><text fill="#000000" font-family="Verdana" font-size="11" lengthAdjust="spacing" textLength="38" x="132" y="252.3781">Alunos</text><path d="M223,255.6876 L213,255.6876 C198,255.6876 198,248.0033 183,248.0033 L173,248.0033 " fill="none" style="stroke:#000000;stroke-width:1.0;"/><text fill="#000000" font-family="Verdana" font-size="11" lengthAdjust="spacing" textLength="54" x="116" y="267.7467">Professor</text><path d="M223,255.6876 L213,255.6876 C198,255.6876 198,263.3719 183,263.3719 L173,263.3719 " fill="none" style="stroke:#000000;stroke-width:1.0;"/><path d="M419,229.0033 L409,229.0033 C394,229.0033 394,255.6876 379,255.6876 L369,255.6876 " fill="none" style="stroke:#000000;stroke-width:1.0;"/><rect fill="#FFFFFF" height="33.3687" rx="12.5" ry="12.5" style="stroke:#AAAAAA;stroke-width:1.5;" width="170" x="199" y="292.3719"/><text fill="#000000" font-family="Verdana" font-size="11" lengthAdjust="spacing" textLength="150" x="209" y="313.431">Metodologias de avalia&#231;&#227;o</text><text fill="#000000" font-family="Verdana" font-size="11" lengthAdjust="spacing" textLength="57" x="89" y="298.0624">Formativa</text><path d="M199,309.0563 L189,309.0563 C174,309.0563 174,293.6876 159,293.6876 L149,293.6876 " fill="none" style="stroke:#000000;stroke-width:1.0;"/><text fill="#000000" font-family="Verdana" font-size="11" lengthAdjust="spacing" textLength="54" x="92" y="313.431">Sumativa</text><path d="M199,309.0563 L189,309.0563 C174,309.0563 174,309.0563 159,309.0563 L149,309.0563 " fill="none" style="stroke:#000000;stroke-width:1.0;"/><text fill="#000000" font-family="Verdana" font-size="11" lengthAdjust="spacing" textLength="119" x="27" y="328.7997">Progresso e reflex&#227;o</text><path d="M199,309.0563 L189,309.0563 C174,309.0563 174,324.4249 159,324.4249 L149,324.4249 " fill="none" style="stroke:#000000;stroke-width:1.0;"/><path d="M419,229.0033 L409,229.0033 C394,229.0033 394,309.0563 379,309.0563 L369,309.0563 " fill="none" style="stroke:#000000;stroke-width:1.0;"/><rect fill="#FFFFFF" height="33.3687" rx="12.5" ry="12.5" style="stroke:#AAAAAA;stroke-width:1.5;" width="142" x="227" y="345.7406"/><text fill="#000000" font-family="Verdana" font-size="11" lengthAdjust="spacing" textLength="122" x="237" y="366.7997">Media&#231;&#227;o pedag&#243;gica</text><text fill="#000000" font-family="Verdana" font-size="11" lengthAdjust="spacing" textLength="126" x="48" y="359.1154">Recursos audiovisuais</text><path d="M227,362.4249 L217,362.4249 C202,362.4249 202,354.7406 187,354.7406 L177,354.7406 " fill="none" style="stroke:#000000;stroke-width:1.0;"/><text fill="#000000" font-family="Verdana" font-size="11" lengthAdjust="spacing" textLength="157" x="17" y="374.484">Conce&#231;&#227;o e implementa&#231;&#227;o</text><path d="M227,362.4249 L217,362.4249 C202,362.4249 202,370.1093 187,370.1093 L177,370.1093 " fill="none" style="stroke:#000000;stroke-width:1.0;"/><path d="M419,229.0033 L409,229.0033 C394,229.0033 394,362.4249 379,362.4249 L369,362.4249 " fill="none" style="stroke:#000000;stroke-width:1.0;"/><path d="M571,229.0033 L561,229.0033 C546,229.0033 546,229.0033 531,229.0033 L521,229.0033 " fill="none" style="stroke:#000000;stroke-width:1.0;"/><!--SRC=[xLbBRnit4Bxlhs217X81iLTFFtg9tqrgDsdiEBq9tENiYWwNLFXGx1JvCKKFHGla5FIIg_vOX_kMvDxIm88j7smDoU7CDz_CaEPJOwcs6PSierCI3iPXRqmjdt566PWnWp6TQf2CVw0fP6F6KsufD-COfDMKKJEM56UPM4bZjOkfycjuXhEb6UEAJCruXfDLy1s3X4iWfyzEVhpOFtrz57p7PImS0wS5cLWxDRkRcoatTWCtcRZ86T2er-BgZLXbcpHBpIQ3uTPm58RT7jscmoI4GMyG9lsTNZJQsgQ3S5FJzvlnJjYFHz4WwOwYKHWD0P9-Rx2TX3lzmSvMGYdqjxQJONVJs1i16rENYI3ex7OwUxNhX05fkqugrpkTeDEftIUIaiRz-P_pFvHVMG90S5qDGAVpGn08I2mnd07krncJAUYCMvp5fPfHJL3O8PVpJmmK0OPmeZqg5vw1LKm9bNBSr8lnLyiAd6wiOnJHogVl2IudDD-Nn4vh7Zj1jH_2NGyygFClJ9dM69Xoz4Lq1NxR5GZQgw_jie7FKAffWO3XgUG9pqTfkMnFEAcgFLvgbO0nIg_wvZUTKS4BLUNyOwMpjh9pj_0LrQNQwoD0D2G2hikbg9gLcX1hHjFvvnJDAfUz0dJVeAFKCOvXCWxZstWPGx7GXtCgm8DP6XLedaxQSGGVVUkAO4nBjruAMg3GzkG8kI8cI1f5PdcSSpaE_EBGQKyzOkT_nRAoqdi7sd8v_rl6dAvuuP5byCwLJbBqS_ub4ZnMJwYOgHeWcD8gEhW5eWUQexT5Z1MlpJZHWEOLSZd_NN03rL0D5oPZXKT3crEET4GB2yujk4SkFRG2MLG1kjTMxIc7gJxpe_zWvgMEUnmhtfHJIQpddsmJl2MTlb3CFqb7KVkKEeCQwYZxch9AZKE840KKlsgBYz0l9BD1ZpXJkMACH1uzv8JdEsQ7BSrUDjS3QAR8RBCKQmzLMeVBv9QNsSXGCpSndsBsDjm6amChq81a_baxh2jLCMeiPhn4ZvLcefOMyJppthc2Nnu8j8pRcXrq2i9REMsdfHyvKmoJcZM2Om0MqVXjZNUbuz1RELEYB7QvDgo0LGagOdShmfWFljxaAO5Q9n2N3SC7oQUXSAPapKfTk4029WLRVGbMFeCMd3xGl66zf5gNfNC1G0-Ee95g9SYLIZ4UTOMhvs6bkSfZYbRdAvhHMp20F5N05hbRAzbpLacLSTfa5fhU40x3465-DGkEaPyyucLzY1LMrxhwUHGqZQYOADzki1HWuAko2UXmdgUh7iCrO1PNdkNCnQxr5dGjU0ENl26jh- -fNgsbTLwsQ1uynQPH7YhmoxSxOqouvtSsjJSa0pjHpBH5r5hD8sSnMVt7lENILyMC64nbKFPc2WVxIEvKAoVP0NOaJRfqD8fxGVbfbaHByv8a2LPdnLp70jZ11B_5k0dvBI04VUBEa6tyCy4iEkSVW7IxvRUVCLxa4ZIsSXfyND0bg36v0hAo-_VxBtxTFy4Xf2HcR26abEQJlTf24eRXRTiisz70SLmlxVVxAoFD2a8mjTJxzYwvu7XrgrhUrbiBAvLULaLhPN9xeB6X5Zz3ebJYZmlXm1We_HyGudbo1Bqb2CleVnCK5u9Tbt1fxsJ85vcfX83OSipFks_iELP8xAUmhwvljnL2_xDaQvn_lfcvBNlpSqP2OrWBtlf-foIi0sibdctklfMCMcpkPWqinRHoTzRCbftEG7nN0VqVEkd7fGQ8vouy2jr7vqrP-Kldr_HO97W2frnY_sf2LFU0Ul3sdhO0H-I7gRvPaxw2Tm4bri9M_-y2UvTXlQKW77AQASdkIrqW11t6sspMpg9RRXTVvzg1zryBzmVQ_Bg_n7POkayl0gIYAxm_tAEcj70CjMjoj1VAiNjvSD18JYfJiGQ7S6ELfkdTFOO_FB8zFB8zFB8zFB8zFB8zFB8zFB9znKSsNmVjwxDJCWDjk9Aakz4BUuED_gEBYKCR8z8TakxExY3S3OVapT45ySEFWqSdBqzdFMAKqp7un2XkCwZXSV0SUmHvvJ0nCzWbBv1gpmz_gWJaICwuLj9x7Zo_F6icZ0PFzhabvrXjG9FBi-0GwUE4nHMnObock-JrnV6JxU0K3rKEczukNW-20pocM7s3O-V_0W00]--></g></svg>