<?xml version="1.0" encoding="us-ascii" standalone="no"?><svg xmlns="http://www.w3.org/2000/svg" xmlns:xlink="http://www.w3.org/1999/xlink" contentStyleType="text/css" height="424px" preserveAspectRatio="none" style="width:1629px;height:424px;background:#FFFFFF;" version="1.1" viewBox="0 0 1629 424" width="1629px" zoomAndPan="magnify"><defs/><g><rect fill="#FFFFFF" height="46.7373" rx="12.5" ry="12.5" style="stroke:#AAAAAA;stroke-width:1.5;" width="246" x="697" y="188.1082"/><text fill="#000000" font-family="Verdana" font-size="11" font-weight="bold" lengthAdjust="spacing" textLength="226" x="707" y="209.1672">Linguagem e Recursos Audiovisuais</text><text fill="#000000" font-family="Verdana" font-size="11" font-weight="bold" lengthAdjust="spacing" textLength="40" x="707" y="222.5359">Online</text><rect fill="#FFFFFF" height="33.3687" rx="12.5" ry="12.5" style="stroke:#AAAAAA;stroke-width:1.5;" width="133" x="993" y="101.7649"/><text fill="#000000" font-family="Verdana" font-size="11" lengthAdjust="spacing" textLength="113" x="1003" y="122.824">Liga&#231;&#227;o &#224; Avalia&#231;&#227;o</text><text fill="#000000" font-family="Verdana" font-size="11" lengthAdjust="spacing" textLength="248" x="1179" y="107.4553">Utiliza&#231;&#227;o de v&#237;deo como suporte avaliativo</text><path d="M1126,118.4492 L1136,118.4492 C1151,118.4492 1151,103.0806 1166,103.0806 L1176,103.0806 " fill="none" style="stroke:#000000;stroke-width:1.0;"/><text fill="#000000" font-family="Verdana" font-size="11" lengthAdjust="spacing" textLength="180" x="1179" y="122.824">Est&#237;mulo &#224; reflex&#227;o e discuss&#227;o</text><path d="M1126,118.4492 L1136,118.4492 C1151,118.4492 1151,118.4492 1166,118.4492 L1176,118.4492 " fill="none" style="stroke:#000000;stroke-width:1.0;"/><text fill="#000000" font-family="Verdana" font-size="11" lengthAdjust="spacing" textLength="233" x="1179" y="138.1926">Verifica&#231;&#227;o de conhecimentos adquiridos</text><path d="M1126,118.4492 L1136,118.4492 C1151,118.4492 1151,133.8179 1166,133.8179 L1176,133.8179 " fill="none" style="stroke:#000000;stroke-width:1.0;"/><path d="M943,211.4768 L953,211.4768 C968,211.4768 968,118.4492 983,118.4492 L993,118.4492 " fill="none" style="stroke:#000000;stroke-width:1.0;"/><rect fill="#FFFFFF" height="33.3687" rx="12.5" ry="12.5" style="stroke:#AAAAAA;stroke-width:1.5;" width="235" x="993" y="219.6611"/><text fill="#000000" font-family="Verdana" font-size="11" lengthAdjust="spacing" textLength="215" x="1003" y="240.7202">Elabora&#231;&#227;o de Quest&#245;es de Avalia&#231;&#227;o</text><rect fill="#FFFFFF" height="33.3687" rx="12.5" ry="12.5" style="stroke:#AAAAAA;stroke-width:1.5;" width="123" x="1278" y="151.5022"/><text fill="#000000" font-family="Verdana" font-size="11" lengthAdjust="spacing" textLength="103" x="1288" y="172.5613">Tipos de quest&#245;es</text><text fill="#000000" font-family="Verdana" font-size="11" lengthAdjust="spacing" textLength="90" x="1454" y="157.1926">M&#250;ltipla escolha</text><path d="M1401,168.1865 L1411,168.1865 C1426,168.1865 1426,152.8179 1441,152.8179 L1451,152.8179 " fill="none" style="stroke:#000000;stroke-width:1.0;"/><text fill="#000000" font-family="Verdana" font-size="11" lengthAdjust="spacing" textLength="112" x="1454" y="172.5613">Verdadeiro ou falso</text><path d="M1401,168.1865 L1411,168.1865 C1426,168.1865 1426,168.1865 1441,168.1865 L1451,168.1865 " fill="none" style="stroke:#000000;stroke-width:1.0;"/><text fill="#000000" font-family="Verdana" font-size="11" lengthAdjust="spacing" textLength="73" x="1454" y="187.9299">Dissertativas</text><path d="M1401,168.1865 L1411,168.1865 C1426,168.1865 1426,183.5552 1441,183.5552 L1451,183.5552 " fill="none" style="stroke:#000000;stroke-width:1.0;"/><path d="M1228,236.3455 L1238,236.3455 C1253,236.3455 1253,168.1865 1268,168.1865 L1278,168.1865 " fill="none" style="stroke:#000000;stroke-width:1.0;"/><rect fill="#FFFFFF" height="33.3687" rx="12.5" ry="12.5" style="stroke:#AAAAAA;stroke-width:1.5;" width="97" x="1278" y="246.3455"/><text fill="#000000" font-family="Verdana" font-size="11" lengthAdjust="spacing" textLength="77" x="1288" y="267.4045">Boas pr&#225;ticas</text><text fill="#000000" font-family="Verdana" font-size="11" lengthAdjust="spacing" textLength="123" x="1428" y="206.9299">Clareza no enunciado</text><path d="M1375,263.0298 L1385,263.0298 C1400,263.0298 1400,202.5552 1415,202.5552 L1425,202.5552 " fill="none" style="stroke:#000000;stroke-width:1.0;"/><text fill="#000000" font-family="Verdana" font-size="11" lengthAdjust="spacing" textLength="189" x="1428" y="222.2986">Alternativas aparentes plaus&#237;veis</text><path d="M1375,263.0298 L1385,263.0298 C1400,263.0298 1400,217.9238 1415,217.9238 L1425,217.9238 " fill="none" style="stroke:#000000;stroke-width:1.0;"/><text fill="#000000" font-family="Verdana" font-size="11" lengthAdjust="spacing" textLength="129" x="1428" y="237.6672">&#218;nica resposta correta</text><path d="M1375,263.0298 L1385,263.0298 C1400,263.0298 1400,233.2925 1415,233.2925 L1425,233.2925 " fill="none" style="stroke:#000000;stroke-width:1.0;"/><text fill="#000000" font-family="Verdana" font-size="11" lengthAdjust="spacing" textLength="146" x="1428" y="253.0359">Evitar negativas confusas</text><path d="M1375,263.0298 L1385,263.0298 C1400,263.0298 1400,248.6611 1415,248.6611 L1425,248.6611 " fill="none" style="stroke:#000000;stroke-width:1.0;"/><text fill="#000000" font-family="Verdana" font-size="11" lengthAdjust="spacing" textLength="145" x="1428" y="268.4045">Alternativas homog&#233;neas</text><path d="M1375,263.0298 L1385,263.0298 C1400,263.0298 1400,264.0298 1415,264.0298 L1425,264.0298 " fill="none" style="stroke:#000000;stroke-width:1.0;"/><text fill="#000000" font-family="Verdana" font-size="11" lengthAdjust="spacing" textLength="78" x="1428" y="283.7732">Evitar "todas"</text><text fill="#000000" font-family="Verdana" font-size="11" lengthAdjust="spacing" textLength="167" x="1428" y="297.1418">ou "nenhuma das anteriores"</text><path d="M1375,263.0298 L1385,263.0298 C1400,263.0298 1400,286.0828 1415,286.0828 L1425,286.0828 " fill="none" style="stroke:#000000;stroke-width:1.0;"/><text fill="#000000" font-family="Verdana" font-size="11" lengthAdjust="spacing" textLength="189" x="1428" y="312.5105">Inclus&#227;o de contexto ou cen&#225;rios</text><path d="M1375,263.0298 L1385,263.0298 C1400,263.0298 1400,308.1357 1415,308.1357 L1425,308.1357 " fill="none" style="stroke:#000000;stroke-width:1.0;"/><text fill="#000000" font-family="Verdana" font-size="11" lengthAdjust="spacing" textLength="128" x="1428" y="327.8792">Revis&#227;o e teste pr&#233;vio</text><path d="M1375,263.0298 L1385,263.0298 C1400,263.0298 1400,323.5044 1415,323.5044 L1425,323.5044 " fill="none" style="stroke:#000000;stroke-width:1.0;"/><path d="M1228,236.3455 L1238,236.3455 C1253,236.3455 1253,263.0298 1268,263.0298 L1278,263.0298 " fill="none" style="stroke:#000000;stroke-width:1.0;"/><path d="M943,211.4768 L953,211.4768 C968,211.4768 968,236.3455 983,236.3455 L993,236.3455 " fill="none" style="stroke:#000000;stroke-width:1.0;"/><rect fill="#FFFFFF" height="33.3687" rx="12.5" ry="12.5" style="stroke:#AAAAAA;stroke-width:1.5;" width="175" x="472" y="24.053"/><text fill="#000000" font-family="Verdana" font-size="11" lengthAdjust="spacing" textLength="155" x="482" y="45.1121">Fun&#231;&#227;o na Educa&#231;&#227;o Digital</text><text fill="#000000" font-family="Verdana" font-size="11" lengthAdjust="spacing" textLength="189" x="230" y="22.0591">Est&#237;mulo &#224; emo&#231;&#227;o e criatividade</text><path d="M472,40.7373 L462,40.7373 C447,40.7373 447,17.6843 432,17.6843 L422,17.6843 " fill="none" style="stroke:#000000;stroke-width:1.0;"/><text fill="#000000" font-family="Verdana" font-size="11" lengthAdjust="spacing" textLength="191" x="228" y="37.4277">Participa&#231;&#227;o ativa dos estudantes</text><path d="M472,40.7373 L462,40.7373 C447,40.7373 447,33.053 432,33.053 L422,33.053 " fill="none" style="stroke:#000000;stroke-width:1.0;"/><text fill="#000000" font-family="Verdana" font-size="11" lengthAdjust="spacing" textLength="210" x="209" y="52.7964">Liga&#231;&#227;o com narrativas significativas</text><path d="M472,40.7373 L462,40.7373 C447,40.7373 447,48.4216 432,48.4216 L422,48.4216 " fill="none" style="stroke:#000000;stroke-width:1.0;"/><text fill="#000000" font-family="Verdana" font-size="11" lengthAdjust="spacing" textLength="208" x="211" y="68.165">Media&#231;&#227;o pedag&#243;gica pelo professor</text><path d="M472,40.7373 L462,40.7373 C447,40.7373 447,63.7903 432,63.7903 L422,63.7903 " fill="none" style="stroke:#000000;stroke-width:1.0;"/><path d="M697,211.4768 L687,211.4768 C672,211.4768 672,40.7373 657,40.7373 L647,40.7373 " fill="none" style="stroke:#000000;stroke-width:1.0;"/><rect fill="#FFFFFF" height="33.3687" rx="12.5" ry="12.5" style="stroke:#AAAAAA;stroke-width:1.5;" width="235" x="412" y="85.5276"/><text fill="#000000" font-family="Verdana" font-size="11" lengthAdjust="spacing" textLength="215" x="422" y="106.5867">Caracter&#237;sticas dos V&#237;deos Educativos</text><text fill="#000000" font-family="Verdana" font-size="11" lengthAdjust="spacing" textLength="138" x="221" y="83.5337">Curtos, claros e focados</text><path d="M412,102.2119 L402,102.2119 C387,102.2119 387,79.1589 372,79.1589 L362,79.1589 " fill="none" style="stroke:#000000;stroke-width:1.0;"/><text fill="#000000" font-family="Verdana" font-size="11" lengthAdjust="spacing" textLength="189" x="170" y="98.9023">Integra&#231;&#227;o em estrat&#233;gias ativas</text><path d="M412,102.2119 L402,102.2119 C387,102.2119 387,94.5276 372,94.5276 L362,94.5276 " fill="none" style="stroke:#000000;stroke-width:1.0;"/><text fill="#000000" font-family="Verdana" font-size="11" lengthAdjust="spacing" textLength="107" x="252" y="114.271">Evitar redund&#226;ncia</text><path d="M412,102.2119 L402,102.2119 C387,102.2119 387,109.8962 372,109.8962 L362,109.8962 " fill="none" style="stroke:#000000;stroke-width:1.0;"/><text fill="#000000" font-family="Verdana" font-size="11" lengthAdjust="spacing" textLength="175" x="184" y="129.6396">Relev&#226;ncia para os estudantes</text><path d="M412,102.2119 L402,102.2119 C387,102.2119 387,125.2649 372,125.2649 L362,125.2649 " fill="none" style="stroke:#000000;stroke-width:1.0;"/><path d="M697,211.4768 L687,211.4768 C672,211.4768 672,102.2119 657,102.2119 L647,102.2119 " fill="none" style="stroke:#000000;stroke-width:1.0;"/><rect fill="#FFFFFF" height="33.3687" rx="12.5" ry="12.5" style="stroke:#AAAAAA;stroke-width:1.5;" width="195" x="452" y="188.1082"/><text fill="#000000" font-family="Verdana" font-size="11" lengthAdjust="spacing" textLength="175" x="462" y="209.1672">Fun&#231;&#245;es Pedag&#243;gicas do V&#237;deo</text><text fill="#000000" font-family="Verdana" font-size="11" lengthAdjust="spacing" textLength="67" x="301" y="145.0083">Informativa</text><text fill="#000000" font-family="Verdana" font-size="11" lengthAdjust="spacing" textLength="98" x="301" y="158.377">(factos e teorias)</text><path d="M452,204.7925 L442,204.7925 C427,204.7925 427,147.3179 412,147.3179 L402,147.3179 " fill="none" style="stroke:#000000;stroke-width:1.0;"/><text fill="#000000" font-family="Verdana" font-size="11" lengthAdjust="spacing" textLength="63" x="278" y="173.7456">Motivadora</text><text fill="#000000" font-family="Verdana" font-size="11" lengthAdjust="spacing" textLength="121" x="278" y="187.1143">(despertar interesse)</text><path d="M452,204.7925 L442,204.7925 C427,204.7925 427,176.0552 412,176.0552 L402,176.0552 " fill="none" style="stroke:#000000;stroke-width:1.0;"/><text fill="#000000" font-family="Verdana" font-size="11" lengthAdjust="spacing" textLength="58" x="271" y="202.4829">Ilustrativa</text><text fill="#000000" font-family="Verdana" font-size="11" lengthAdjust="spacing" textLength="128" x="271" y="215.8516">(conceitos complexos)</text><path d="M452,204.7925 L442,204.7925 C427,204.7925 427,204.7925 412,204.7925 L402,204.7925 " fill="none" style="stroke:#000000;stroke-width:1.0;"/><text fill="#000000" font-family="Verdana" font-size="11" lengthAdjust="spacing" textLength="77" x="268" y="231.2202">Comunicativa</text><text fill="#000000" font-family="Verdana" font-size="11" lengthAdjust="spacing" textLength="131" x="268" y="244.5889">(narrativas e hist&#243;rias)</text><path d="M452,204.7925 L442,204.7925 C427,204.7925 427,233.5298 412,233.5298 L402,233.5298 " fill="none" style="stroke:#000000;stroke-width:1.0;"/><text fill="#000000" font-family="Verdana" font-size="11" lengthAdjust="spacing" textLength="107" x="292" y="259.9575">Autoaprendizagem</text><text fill="#000000" font-family="Verdana" font-size="11" lengthAdjust="spacing" textLength="70" x="292" y="273.3262">(autonomia)</text><path d="M452,204.7925 L442,204.7925 C427,204.7925 427,262.2671 412,262.2671 L402,262.2671 " fill="none" style="stroke:#000000;stroke-width:1.0;"/><path d="M697,211.4768 L687,211.4768 C672,211.4768 672,204.7925 657,204.7925 L647,204.7925 " fill="none" style="stroke:#000000;stroke-width:1.0;"/><rect fill="#FFFFFF" height="33.3687" rx="12.5" ry="12.5" style="stroke:#AAAAAA;stroke-width:1.5;" width="154" x="493" y="328.1104"/><text fill="#000000" font-family="Verdana" font-size="11" lengthAdjust="spacing" textLength="134" x="503" y="349.1694">Avalia&#231;&#227;o da Qualidade</text><text fill="#000000" font-family="Verdana" font-size="11" lengthAdjust="spacing" textLength="76" x="364" y="349.1694">influenciam a</text><text fill="#000000" font-family="Verdana" font-size="11" lengthAdjust="spacing" textLength="122" x="189" y="304.0635">Crit&#233;rios de conte&#250;do</text><text fill="#000000" font-family="Verdana" font-size="11" lengthAdjust="spacing" textLength="43" x="93" y="288.6948">Clareza</text><path d="M189,299.6887 L179,299.6887 C164,299.6887 164,284.3201 149,284.3201 L139,284.3201 " fill="none" style="stroke:#000000;stroke-width:1.0;"/><text fill="#000000" font-family="Verdana" font-size="11" lengthAdjust="spacing" textLength="30" x="106" y="304.0635">Rigor</text><path d="M189,299.6887 L179,299.6887 C164,299.6887 164,299.6887 149,299.6887 L139,299.6887 " fill="none" style="stroke:#000000;stroke-width:1.0;"/><text fill="#000000" font-family="Verdana" font-size="11" lengthAdjust="spacing" textLength="60" x="76" y="319.4321">Atualidade</text><path d="M189,299.6887 L179,299.6887 C164,299.6887 164,315.0574 149,315.0574 L139,315.0574 " fill="none" style="stroke:#000000;stroke-width:1.0;"/><path d="M364,344.7947 L354,344.7947 C339,344.7947 339,299.6887 324,299.6887 L314,299.6887 " fill="none" style="stroke:#000000;stroke-width:1.0;"/><text fill="#000000" font-family="Verdana" font-size="11" lengthAdjust="spacing" textLength="95" x="216" y="357.8538">Aspetos t&#233;cnicos</text><text fill="#000000" font-family="Verdana" font-size="11" lengthAdjust="spacing" textLength="26" x="137" y="334.8008">Som</text><path d="M216,353.479 L206,353.479 C191,353.479 191,330.426 176,330.426 L166,330.426 " fill="none" style="stroke:#000000;stroke-width:1.0;"/><text fill="#000000" font-family="Verdana" font-size="11" lengthAdjust="spacing" textLength="48" x="115" y="350.1694">Imagem</text><path d="M216,353.479 L206,353.479 C191,353.479 191,345.7947 176,345.7947 L166,345.7947 " fill="none" style="stroke:#000000;stroke-width:1.0;"/><text fill="#000000" font-family="Verdana" font-size="11" lengthAdjust="spacing" textLength="32" x="131" y="365.5381">Texto</text><path d="M216,353.479 L206,353.479 C191,353.479 191,361.1633 176,361.1633 L166,361.1633 " fill="none" style="stroke:#000000;stroke-width:1.0;"/><text fill="#000000" font-family="Verdana" font-size="11" lengthAdjust="spacing" textLength="63" x="100" y="380.9067">Articula&#231;&#227;o</text><path d="M216,353.479 L206,353.479 C191,353.479 191,376.532 176,376.532 L166,376.532 " fill="none" style="stroke:#000000;stroke-width:1.0;"/><path d="M364,344.7947 L354,344.7947 C339,344.7947 339,353.479 324,353.479 L314,353.479 " fill="none" style="stroke:#000000;stroke-width:1.0;"/><text fill="#000000" font-family="Verdana" font-size="11" lengthAdjust="spacing" textLength="132" x="179" y="402.9597">Adequa&#231;&#227;o pedag&#243;gica</text><text fill="#000000" font-family="Verdana" font-size="11" lengthAdjust="spacing" textLength="99" x="10" y="396.2754">Alinhamento com</text><text fill="#000000" font-family="Verdana" font-size="11" lengthAdjust="spacing" textLength="116" x="10" y="409.644">objetivos e curr&#237;culo</text><path d="M179,398.585 L169,398.585 C154,398.585 154,398.585 139,398.585 L129,398.585 " fill="none" style="stroke:#000000;stroke-width:1.0;"/><path d="M364,344.7947 L354,344.7947 C339,344.7947 339,398.585 324,398.585 L314,398.585 " fill="none" style="stroke:#000000;stroke-width:1.0;"/><path d="M493,344.7947 L483,344.7947 C468,344.7947 468,344.7947 453,344.7947 L443,344.7947 " fill="none" style="stroke:#000000;stroke-width:1.0;"/><path d="M697,211.4768 L687,211.4768 C672,211.4768 672,344.7947 657,344.7947 L647,344.7947 " fill="none" style="stroke:#000000;stroke-width:1.0;"/><!--SRC=[xLd9SXit4BtFLy2g76HMB0qNKH9ziQZ5aKF5iXOdDnKuw1aYnW1ZBBJbb7yafpWvf7pGoPMBh_DZQSp2JV8XbSGbbaGTo04QZTUlNsFHF36MQfjooLAQaR1p4JOl19U9emca5t2X8NBQA7D17UDgp8sZt5meYJOGF60GupSP73xzxgm_EDyF7d0P2SV0QK56rcQcjxwUS6FN4cv7RkWCw4X92zAkHIfTfsbYrXbiR6vqmx3Pebjq8mwXq-g4SNkxDUnkRj5EkAxfc_LeEsn7tM4dRdQ7tN2u0H2tMvsjEDnkTxOtOqgXlRaLRpJNZRqKi9QvL0H1ezTe3EfW292JAXYoCnDCen4q6i-BW1gDnq4W8BR4S0Oula4EdCp_pFzGH5Aoprn4owSzZW5HWHQD2x9lR7wLEg58_Xk1L9KcG2BDgULZpYWwAooFaMiUyQpoudifOGW8Z7MC8Z6cD1pmfB91cd1khGjRWy0IoMCUbO-byH4mNbbdm6YIVqhG07yZeaoh68nHsWUpIpMDBEZyoY0CzEQdVfbVCS3l8ZhqgYglkqvRPRubaQ3Q8oInYYYhUmyHQwAhMJsvnYB4_6F2qUqikFqn4gM91kOaot-N4QTbnma869SD94DWP966Ylk_m93ZQLWUT8MvyDCxbB7IQJ5bi1fZV0LO2mhPDmyVbqP7olSpfT66WSb0Ur0SPzB83jHcXy8LSHI-KAWHSEyESv09UAicxdPLwcILX61r9Zr0HgZs_DFit3lEAfffa8o_yq8CLYcsI9LoMfYGdJ4LTG8P9IySFaurmsKi77YQKb9GvtEZENAjEM9Zg3DVKVbdLX1IT6FAu1sj7qzuKkI_UDYni-vz0xBXWqI74SPK9jXtdAgq_dcO5i2hfpDuQoTpxNX5Er72hrqoUEskAx8Qqjl1MXlH51U1Gjw16luCXV1ypJYDyaI72ajHysGqKulJei0wco6jvEdSSe44LpG26HSQyHCeObocj0L2Yq5-hXigLqECIIvBbt4JEMCcpb-2BgfkuXqv7q74Yo1GyEoruvgNrK7s1HqgFRLzuL3NXOxnOG4tEUDPcSNNjLL5ub7-MLYU2OfL4IangdEFK7psk5P4EH9JOMhQzpXA6OKzgJxILwZ9JESVYd8FvjH190OgdHSMcoHEO478IiiKgn9yBH84uKn-DGPU-yX_zV97oWoYjnJfq1fi3R6gUGb9vGhPYfsP89YRPeG9IlAF4khkNZLynIf6pGe9CCmL2NBaKbmiFJ1VjbpXv2kFAu-7VjinqznOBr7FJmGo_-0BfJ8y0LpsonnZP2W9PEVZcAlW2TPdjGq6mPD_iokEKA-u96RsagHWHugPsIPghUP3vvSu_p6lkFIhNqgCNukKlSnWjq-ZLubMk63kAg4qQT9kDse5rMSwPBXW5yTnSDqguZeIm7P7rUfFVWa8qPHnPyWM_eoHhbF-3aYpMJtzWCLPwapIuFsSBq6DAHoGQxD_qt_-K_yfTg7u6UYoaL9Q67ktPKiOXZTDiuXZIiV1P6YxtRxMCnr12Ax3witiB4N3mVMf9kspVYUDjKlVLcVhcl5innJ3fFaGHLWtlvzBXz-Xz1Sen1DG5reB55RP_oeipYKxgqyhqjxAbCyhKma1aULAcjiFzXJtHzpIeQ_UtemLGl-tW3KgFbyDxWpUug24PojO2jtwuvh23MC9L2iLWzkFab5BXzGi0L8iAtThOSxWn8jmT5i9_HzsqlSB6o1UYl4eT1U3DzNANmM_fCSYmMCOu5ctFvEYoHumwRnvJvkZO-YxgRvSadr5Mgt4Kc35tU_B9NOReDwm8EnncYh9xigwGF32JXCaOBQARhXT_3VN3hpHMhWxr1ON-0Mrmy9zUfuW_r-eoDwXJMdk66gNv6Wlb6Dtyk2WKPnK9c893k76AasJstiCltyjTFzQwFwrqFrheVlNGlUlXVxHQw5ZWNES7mt86BJXIfBcMYjiTTRQgsSZHmvWI9eRfBdTwuIzS8Fyk7z6VFV3OFNfyM3S8aOv7HKYAa_hwE5Xy0p5HquSNjTIw97d6SXdUz_N3MHVZZ6ZqkifUFRoQ6hGxJpgSqjEGICMyl8es8EOEc5nHAGORcuzSdvsy6Wh6D1oe-jXLeDTt8QjliI-qxy1]--></g></svg>