<?xml version="1.0" encoding="us-ascii" standalone="no"?><svg xmlns="http://www.w3.org/2000/svg" xmlns:xlink="http://www.w3.org/1999/xlink" contentStyleType="text/css" height="350px" preserveAspectRatio="none" style="width:1736px;height:350px;background:#FFFFFF;" version="1.1" viewBox="0 0 1736 350" width="1736px" zoomAndPan="magnify"><defs/><g><rect fill="#FFFFFF" height="86.8433" rx="12.5" ry="12.5" style="stroke:#AAAAAA;stroke-width:1.5;" width="333" x="708" y="130.7373"/><text fill="#000000" font-family="Verdana" font-size="11" font-weight="bold" lengthAdjust="spacing" textLength="204" x="718" y="151.7964">Ecossistema de Educa&#231;&#227;o Digital</text><text fill="#000000" font-family="Verdana" font-size="11" lengthAdjust="spacing" textLength="265" x="718" y="165.165">- Ambiente integrado com tecnologias digitais,</text><text fill="#000000" font-family="Verdana" font-size="11" lengthAdjust="spacing" textLength="313" x="718" y="178.5337">pr&#225;ticas pedag&#243;gicas inovadoras e redes de intera&#231;&#227;o.</text><text fill="#000000" font-family="Verdana" font-size="11" lengthAdjust="spacing" textLength="302" x="718" y="191.9023">- Modelos biol&#243;gicos de adapta&#231;&#227;o, interdepend&#234;ncia</text><text fill="#000000" font-family="Verdana" font-size="11" lengthAdjust="spacing" textLength="66" x="718" y="205.271">e evolu&#231;&#227;o.</text><text fill="#000000" font-family="Verdana" font-size="11" lengthAdjust="spacing" textLength="84" x="1094" y="147.7964">compostos por</text><rect fill="#FFFFFF" height="33.3687" rx="12.5" ry="12.5" style="stroke:#AAAAAA;stroke-width:1.5;" width="189" x="1228" y="20"/><text fill="#000000" font-family="Verdana" font-size="11" lengthAdjust="spacing" textLength="169" x="1238" y="41.0591">Plataformas e Infraestruturas</text><text fill="#000000" font-family="Verdana" font-size="11" lengthAdjust="spacing" textLength="174" x="1470" y="33.3748">Disponibiliza&#231;&#227;o de conte&#250;dos.</text><path d="M1417,36.6843 L1427,36.6843 C1442,36.6843 1442,29 1457,29 L1467,29 " fill="none" style="stroke:#000000;stroke-width:1.0;"/><text fill="#000000" font-family="Verdana" font-size="11" lengthAdjust="spacing" textLength="187" x="1470" y="48.7434">Intera&#231;&#227;o s&#237;ncrona e ass&#237;ncrona.</text><path d="M1417,36.6843 L1427,36.6843 C1442,36.6843 1442,44.3687 1457,44.3687 L1467,44.3687 " fill="none" style="stroke:#000000;stroke-width:1.0;"/><path d="M1178,143.4216 L1188,143.4216 C1203,143.4216 1203,36.6843 1218,36.6843 L1228,36.6843 " fill="none" style="stroke:#000000;stroke-width:1.0;"/><rect fill="#FFFFFF" height="33.3687" rx="12.5" ry="12.5" style="stroke:#AAAAAA;stroke-width:1.5;" width="182" x="1228" y="73.3687"/><text fill="#000000" font-family="Verdana" font-size="11" lengthAdjust="spacing" textLength="162" x="1238" y="94.4277">Recursos Educativos Digitais</text><text fill="#000000" font-family="Verdana" font-size="11" lengthAdjust="spacing" textLength="257" x="1463" y="94.4277">Democratiza&#231;&#227;o do acesso ao conhecimento.</text><path d="M1410,90.053 L1420,90.053 C1435,90.053 1435,90.053 1450,90.053 L1460,90.053 " fill="none" style="stroke:#000000;stroke-width:1.0;"/><path d="M1178,143.4216 L1188,143.4216 C1203,143.4216 1203,90.053 1218,90.053 L1228,90.053 " fill="none" style="stroke:#000000;stroke-width:1.0;"/><rect fill="#FFFFFF" height="33.3687" rx="12.5" ry="12.5" style="stroke:#AAAAAA;stroke-width:1.5;" width="157" x="1228" y="126.7373"/><text fill="#000000" font-family="Verdana" font-size="11" lengthAdjust="spacing" textLength="137" x="1238" y="147.7964">Aprendizagem em Rede</text><text fill="#000000" font-family="Verdana" font-size="11" lengthAdjust="spacing" textLength="217" x="1438" y="133.4277">Redes sociais e comunidades virtuais.</text><path d="M1385,143.4216 L1395,143.4216 C1410,143.4216 1410,129.053 1425,129.053 L1435,129.053 " fill="none" style="stroke:#000000;stroke-width:1.0;"/><text fill="#000000" font-family="Verdana" font-size="11" lengthAdjust="spacing" textLength="201" x="1438" y="148.7964">Colabora&#231;&#227;o e desenvolvimento de</text><text fill="#000000" font-family="Verdana" font-size="11" lengthAdjust="spacing" textLength="124" x="1438" y="162.165">compet&#234;ncias sociais.</text><path d="M1385,143.4216 L1395,143.4216 C1410,143.4216 1410,151.106 1425,151.106 L1435,151.106 " fill="none" style="stroke:#000000;stroke-width:1.0;"/><path d="M1178,143.4216 L1188,143.4216 C1203,143.4216 1203,143.4216 1218,143.4216 L1228,143.4216 " fill="none" style="stroke:#000000;stroke-width:1.0;"/><rect fill="#FFFFFF" height="33.3687" rx="12.5" ry="12.5" style="stroke:#AAAAAA;stroke-width:1.5;" width="209" x="1228" y="180.106"/><text fill="#000000" font-family="Verdana" font-size="11" lengthAdjust="spacing" textLength="189" x="1238" y="201.165">Pr&#225;ticas Pedag&#243;gicas Inovadoras</text><text fill="#000000" font-family="Verdana" font-size="11" lengthAdjust="spacing" textLength="54" x="1490" y="186.7964">Exemplo:</text><text fill="#000000" font-family="Verdana" font-size="11" font-style="italic" lengthAdjust="spacing" textLength="104" x="1548" y="186.7964">Flipped Classroom</text><text fill="#000000" font-family="Verdana" font-size="11" lengthAdjust="spacing" textLength="4" x="1652" y="186.7964">.</text><path d="M1437,196.7903 L1447,196.7903 C1462,196.7903 1462,182.4216 1477,182.4216 L1487,182.4216 " fill="none" style="stroke:#000000;stroke-width:1.0;"/><text fill="#000000" font-family="Verdana" font-size="11" lengthAdjust="spacing" textLength="234" x="1490" y="202.165">Aumento da motiva&#231;&#227;o e intera&#231;&#227;o entre</text><text fill="#000000" font-family="Verdana" font-size="11" lengthAdjust="spacing" textLength="132" x="1490" y="215.5337">docentes e estudantes.</text><path d="M1437,196.7903 L1447,196.7903 C1462,196.7903 1462,204.4746 1477,204.4746 L1487,204.4746 " fill="none" style="stroke:#000000;stroke-width:1.0;"/><path d="M1178,143.4216 L1188,143.4216 C1203,143.4216 1203,196.7903 1218,196.7903 L1228,196.7903 " fill="none" style="stroke:#000000;stroke-width:1.0;"/><rect fill="#FFFFFF" height="33.3687" rx="12.5" ry="12.5" style="stroke:#AAAAAA;stroke-width:1.5;" width="168" x="1228" y="233.4746"/><text fill="#000000" font-family="Verdana" font-size="11" lengthAdjust="spacing" textLength="148" x="1238" y="254.5337">Monitoriza&#231;&#227;o e Avalia&#231;&#227;o</text><text fill="#000000" font-family="Verdana" font-size="11" lengthAdjust="spacing" textLength="255" x="1449" y="246.8494">Personaliza&#231;&#227;o das estrat&#233;gias pedag&#243;gicas.</text><path d="M1396,250.1589 L1406,250.1589 C1421,250.1589 1421,242.4746 1436,242.4746 L1446,242.4746 " fill="none" style="stroke:#000000;stroke-width:1.0;"/><text fill="#000000" font-family="Verdana" font-size="11" lengthAdjust="spacing" textLength="176" x="1449" y="262.218">Melhoria da efic&#225;cia educativa.</text><path d="M1396,250.1589 L1406,250.1589 C1421,250.1589 1421,257.8433 1436,257.8433 L1446,257.8433 " fill="none" style="stroke:#000000;stroke-width:1.0;"/><path d="M1178,143.4216 L1188,143.4216 C1203,143.4216 1203,250.1589 1218,250.1589 L1228,250.1589 " fill="none" style="stroke:#000000;stroke-width:1.0;"/><path d="M1041,174.1589 L1051,174.1589 C1066,174.1589 1066,143.4216 1081,143.4216 L1091,143.4216 " fill="none" style="stroke:#000000;stroke-width:1.0;"/><text fill="#000000" font-family="Verdana" font-size="11" lengthAdjust="spacing" textLength="88" x="1094" y="311.9553">amea&#231;ados por</text><text fill="#000000" font-family="Verdana" font-size="11" lengthAdjust="spacing" textLength="213" x="1235" y="288.9023">Infraestruturas tecnol&#243;gicas robustas</text><path d="M1182,307.5806 L1192,307.5806 C1207,307.5806 1207,284.5276 1222,284.5276 L1232,284.5276 " fill="none" style="stroke:#000000;stroke-width:1.0;"/><text fill="#000000" font-family="Verdana" font-size="11" lengthAdjust="spacing" textLength="181" x="1235" y="304.271">Forma&#231;&#227;o cont&#237;nua de docentes</text><path d="M1182,307.5806 L1192,307.5806 C1207,307.5806 1207,299.8962 1222,299.8962 L1232,299.8962 " fill="none" style="stroke:#000000;stroke-width:1.0;"/><text fill="#000000" font-family="Verdana" font-size="11" lengthAdjust="spacing" textLength="248" x="1235" y="319.6396">Equidade no acesso &#224;s ferramentas digitais</text><path d="M1182,307.5806 L1192,307.5806 C1207,307.5806 1207,315.2649 1222,315.2649 L1232,315.2649 " fill="none" style="stroke:#000000;stroke-width:1.0;"/><text fill="#000000" font-family="Verdana" font-size="11" lengthAdjust="spacing" textLength="258" x="1235" y="335.0083">Adapta&#231;&#227;o &#224;s r&#225;pidas evolu&#231;&#245;es tecnol&#243;gicas</text><path d="M1182,307.5806 L1192,307.5806 C1207,307.5806 1207,330.6335 1222,330.6335 L1232,330.6335 " fill="none" style="stroke:#000000;stroke-width:1.0;"/><path d="M1041,174.1589 L1051,174.1589 C1066,174.1589 1066,307.5806 1081,307.5806 L1091,307.5806 " fill="none" style="stroke:#000000;stroke-width:1.0;"/><text fill="#000000" font-family="Verdana" font-size="11" lengthAdjust="spacing" textLength="63" x="592" y="178.5337">caracteriza</text><rect fill="#FFFFFF" height="33.3687" rx="12.5" ry="12.5" style="stroke:#AAAAAA;stroke-width:1.5;" width="126" x="416" y="77.4216"/><text fill="#000000" font-family="Verdana" font-size="11" lengthAdjust="spacing" textLength="106" x="426" y="98.4807">Interconectividade</text><text fill="#000000" font-family="Verdana" font-size="11" lengthAdjust="spacing" textLength="227" x="136" y="83.1121">Dispositivos, plataformas e utilizadores.</text><path d="M416,94.106 L406,94.106 C391,94.106 391,78.7373 376,78.7373 L366,78.7373 " fill="none" style="stroke:#000000;stroke-width:1.0;"/><text fill="#000000" font-family="Verdana" font-size="11" lengthAdjust="spacing" textLength="219" x="144" y="98.4807">Sistemas de gest&#227;o de aprendizagem.</text><path d="M416,94.106 L406,94.106 C391,94.106 391,94.106 376,94.106 L366,94.106 " fill="none" style="stroke:#000000;stroke-width:1.0;"/><text fill="#000000" font-family="Verdana" font-size="11" lengthAdjust="spacing" textLength="353" x="10" y="113.8494">Ferramentas colaborativas e plataformas de avalia&#231;&#227;o digital.</text><path d="M416,94.106 L406,94.106 C391,94.106 391,109.4746 376,109.4746 L366,109.4746 " fill="none" style="stroke:#000000;stroke-width:1.0;"/><path d="M592,174.1589 L582,174.1589 C567,174.1589 567,94.106 552,94.106 L542,94.106 " fill="none" style="stroke:#000000;stroke-width:1.0;"/><rect fill="#FFFFFF" height="33.3687" rx="12.5" ry="12.5" style="stroke:#AAAAAA;stroke-width:1.5;" width="146" x="396" y="130.7903"/><text fill="#000000" font-family="Verdana" font-size="11" lengthAdjust="spacing" textLength="126" x="406" y="151.8494">Adapta&#231;&#227;o e Evolu&#231;&#227;o</text><text fill="#000000" font-family="Verdana" font-size="11" lengthAdjust="spacing" textLength="169" x="174" y="144.165">Personaliza&#231;&#227;o de conte&#250;dos.</text><path d="M396,147.4746 L386,147.4746 C371,147.4746 371,139.7903 356,139.7903 L346,139.7903 " fill="none" style="stroke:#000000;stroke-width:1.0;"/><text fill="#000000" font-family="Verdana" font-size="11" lengthAdjust="spacing" textLength="282" x="61" y="159.5337">Ajuste cont&#237;nuo &#224;s necessidades dos utilizadores.</text><path d="M396,147.4746 L386,147.4746 C371,147.4746 371,155.1589 356,155.1589 L346,155.1589 " fill="none" style="stroke:#000000;stroke-width:1.0;"/><path d="M592,174.1589 L582,174.1589 C567,174.1589 567,147.4746 552,147.4746 L542,147.4746 " fill="none" style="stroke:#000000;stroke-width:1.0;"/><rect fill="#FFFFFF" height="33.3687" rx="12.5" ry="12.5" style="stroke:#AAAAAA;stroke-width:1.5;" width="149" x="393" y="184.1589"/><text fill="#000000" font-family="Verdana" font-size="11" lengthAdjust="spacing" textLength="129" x="403" y="205.218">Partilha e Colabora&#231;&#227;o</text><text fill="#000000" font-family="Verdana" font-size="11" lengthAdjust="spacing" textLength="196" x="144" y="197.5337">Cria&#231;&#227;o de conhecimento coletivo.</text><path d="M393,200.8433 L383,200.8433 C368,200.8433 368,193.1589 353,193.1589 L343,193.1589 " fill="none" style="stroke:#000000;stroke-width:1.0;"/><text fill="#000000" font-family="Verdana" font-size="11" lengthAdjust="spacing" textLength="195" x="145" y="212.9023">Participa&#231;&#227;o ativa dos estudantes.</text><path d="M393,200.8433 L383,200.8433 C368,200.8433 368,208.5276 353,208.5276 L343,208.5276 " fill="none" style="stroke:#000000;stroke-width:1.0;"/><path d="M592,174.1589 L582,174.1589 C567,174.1589 567,200.8433 552,200.8433 L542,200.8433 " fill="none" style="stroke:#000000;stroke-width:1.0;"/><rect fill="#FFFFFF" height="33.3687" rx="12.5" ry="12.5" style="stroke:#AAAAAA;stroke-width:1.5;" width="87" x="455" y="237.5276"/><text fill="#000000" font-family="Verdana" font-size="11" lengthAdjust="spacing" textLength="67" x="465" y="258.5867">Competi&#231;&#227;o</text><text fill="#000000" font-family="Verdana" font-size="11" lengthAdjust="spacing" textLength="193" x="209" y="244.218">Diversidade de atores e recursos.</text><path d="M455,254.2119 L445,254.2119 C430,254.2119 430,239.8433 415,239.8433 L405,239.8433 " fill="none" style="stroke:#000000;stroke-width:1.0;"/><text fill="#000000" font-family="Verdana" font-size="11" lengthAdjust="spacing" textLength="265" x="137" y="259.5867">Est&#237;mulo &#224; inova&#231;&#227;o e melhoria dos conte&#250;dos</text><text fill="#000000" font-family="Verdana" font-size="11" lengthAdjust="spacing" textLength="109" x="137" y="272.9553">educativos digitais.</text><path d="M455,254.2119 L445,254.2119 C430,254.2119 430,261.8962 415,261.8962 L405,261.8962 " fill="none" style="stroke:#000000;stroke-width:1.0;"/><path d="M592,174.1589 L582,174.1589 C567,174.1589 567,254.2119 552,254.2119 L542,254.2119 " fill="none" style="stroke:#000000;stroke-width:1.0;"/><path d="M708,174.1589 L698,174.1589 C683,174.1589 683,174.1589 668,174.1589 L658,174.1589 " fill="none" style="stroke:#000000;stroke-width:1.0;"/><!--SRC=[xLbBRnit4Bxlhs207X8ZiLOFoxPwYHzowjHk33j9UnEutDaLarromuSIfyX_QT13qG8v5RtqgZ_M8VUXbUoWAD2c5cmbI2JkaFFDDzyCIUnZRQWoEHTnJWiITYVXO48dNCWPPLHE89z0R9d_7lEK6ve5zs98k01oSlpac-Vx9o_6mJqkM6PZi2eZKsCAFUfqKgxD9awOsiXgK4mA0y9iCfbtQ9xgJWnRsrl3CEpsw0xTIa8Oz0PXqj_jHSFj7Je8Eug-xR3TiC-6qI3f3gDX66q19FtUO2S9T_k3tUs4KkXlxoHRtOusbnbi5ZRFWc1ZjB4nPb9hH00v9J6GiOjX_ilyPqaEooWsDe97P2-FE882ml6VLD5O4iH7330XCvbogaaPDDSFWqBDFnhESAo0cARptrF_mrCLIuLVWIY8GJk7Ra5LUjn4HwSoXang4d6P-OdIMz6O5gQqUbXEYQ404Sz_4upJ00ZCP6RBLRuEWWmIGpIF0MFSc1165MKuXx-d-7k37Bi5a6TWXizuJD4EXz7maEj2QewZKZyaHKODJQJAFM9hU8OBO02WDolxYv8u3p45RHnj3csX41iQfv3NfaUW5CsHGxHcCgCH4e5-_D9jHsxwZ6QyIa8b9RyAsLkmWBF6JSYLYpDGMWhgK5QJWNWrpV-CPODvxvL5qFx1_9Emain_qWIf09I1em8X8ETNeYLdg7wUJIbwFgZmjvqVABxaTGgCkt2TK39mZDO0_4AC5vMvPy7xH09jJ15lvV50vWNER7ivv3CCqkFqJ1c7pyk9MGo-3d8qnbnyoctceYk5LxEMGpQLYDLxNB0J-EBrYM-Kx9IaU3fTaX9YajgWLI5LoSkIIev5eYW6egongFIshWIF-D_avdXH34HZTfZ2VEAgL3U_IchEgtZBUYrX7rQmQv-GI-OqrdX4hbsMyJ-vbA5AN2tH4lnx3arPdFjYrH9BZRiWaGGhAh7Ck3BMaLKnlwGDuhAaGQ1IPvKQS57cyrgMRhCiaktPR7h7MRjt73Uzeu8qVWTvaSaHwNIECbvWeo476TAa9BRDJWrcprPEAScbqrcDgjLr25ee26B9N8DpuRLqM88wnToXqXecWUmjIlIpnKUzeZ43yrzzWsmtmphXfuqQCSq9P_EFI0QfjOZ9zgB3le6BqdYXkicgqAfMNFEb9EubfcGBUuzJPucgBdlVxEkOIwln6riMbcY4ubf3qcfSSKjYawLsv2mnTGNtOLUTwGzOmHKyHebLMsWGFFxdE-eK2n75MPXBB6GpbR5k3r5Z58-iYyXzz6ik2cpzES66fq2Qom8EzYbxdIffHOnAbOfqwN38Ua7rMKo9LkoI90ckMZ6kM0RnmRJQOSYF0I6uFNAhoGv-JP3k2_uUIBTR_VeEkIGlSV-YWWOVbjPo-lKBa2lUlzf_ziF-4to4fHM3AWSffTxOBLkEX65udPjL70iwZfgf_Nx_ofF534AeKl9jsuiVEBhggXblhziCrakwiJfRLupR3nOOck5Z574z_64f7PW3gJv38PwUXj1ReR3A_XTXSIdPHRq92dCZKxwiJ9bbxgmaXRxvO2_WZGN1O5- -knuhXExF2bRcFryCRWkltueIRBXheLj__X6m3geLU9Mu-IXZF3r6LAy1KYmhUsDXjd3Y9PhTL4B_Wvtqmye6Y3TQF0hTnk1rrVchuDVqM9Jn14wumFrhaQ9c3sWUNh-dBT4HkSTKNQx9leAtC9cj1LRS_JvVOZS1wZKDuP3JN8hujlG5GZ3W50beLz4rjuj_vzg1zrW3juTQVsrVKJkitAUN2PBHAxm_tA9DQUaOQjRaQ9z96z_AWuD2SLAHPcjm2DT6AfhUt6FutIkbkrTATw-KxbuftRrIkdkbz3-yKiBA4UR5wGdnDIq5wMxsmjvWit__-THYmun8TujqTqU3S1HkaU_7pubx_22u_-JiPDP3uLZ5C0ZimVxCZoiy29vYyoJd5YzzEOp8CzmZdXv-Mm-GiK2vIk6Y2Pw-F5qO30UFzhaX5w0G2tbv6Xn2GcrcS0QJCHVfYBnuVlHe9pZ1euV54XcXR883tCoDkiHd5ty1]--></g></svg>