<?xml version="1.0" encoding="us-ascii" standalone="no"?><svg xmlns="http://www.w3.org/2000/svg" xmlns:xlink="http://www.w3.org/1999/xlink" contentStyleType="text/css" height="400px" preserveAspectRatio="none" style="width:1575px;height:400px;background:#FFFFFF;" version="1.1" viewBox="0 0 1575 400" width="1575px" zoomAndPan="magnify"><defs/><g><rect fill="#FFFFFF" height="33.3687" rx="12.5" ry="12.5" style="stroke:#AAAAAA;stroke-width:1.5;" width="141" x="610" y="182.6335"/><text fill="#000000" font-family="Verdana" font-size="11" font-weight="bold" lengthAdjust="spacing" textLength="121" x="620" y="203.6926">Sociedade em Rede</text><text fill="#000000" font-family="Verdana" font-size="11" lengthAdjust="spacing" textLength="40" x="804" y="203.6926">implica</text><rect fill="#FFFFFF" height="46.7373" rx="12.5" ry="12.5" style="stroke:#AAAAAA;stroke-width:1.5;" width="142" x="894" y="53.3687"/><text fill="#000000" font-family="Verdana" font-size="11" lengthAdjust="spacing" textLength="122" x="904" y="74.4277">Transforma&#231;&#227;o social</text><text fill="#000000" font-family="Verdana" font-size="11" lengthAdjust="spacing" textLength="51" x="904" y="87.7964">profunda</text><text fill="#000000" font-family="Verdana" font-size="11" lengthAdjust="spacing" textLength="40" x="1089" y="81.1121">implica</text><rect fill="#FFFFFF" height="46.7373" rx="12.5" ry="12.5" style="stroke:#AAAAAA;stroke-width:1.5;" width="129" x="1179" y="20"/><text fill="#000000" font-family="Verdana" font-size="11" lengthAdjust="spacing" textLength="81" x="1189" y="41.0591">Dinamismo na</text><text fill="#000000" font-family="Verdana" font-size="11" lengthAdjust="spacing" textLength="109" x="1189" y="54.4277">configura&#231;&#227;o social</text><text fill="#000000" font-family="Verdana" font-size="11" lengthAdjust="spacing" textLength="112" x="1361" y="26.6904">Irreversibilidade da</text><text fill="#000000" font-family="Verdana" font-size="11" lengthAdjust="spacing" textLength="135" x="1361" y="40.0591">globaliza&#231;&#227;o econ&#243;mica</text><path d="M1308,43.3687 L1318,43.3687 C1333,43.3687 1333,29 1348,29 L1358,29 " fill="none" style="stroke:#000000;stroke-width:1.0;"/><text fill="#000000" font-family="Verdana" font-size="11" lengthAdjust="spacing" textLength="153" x="1361" y="55.4277">Reformula&#231;&#227;o e dissolu&#231;&#227;o</text><text fill="#000000" font-family="Verdana" font-size="11" lengthAdjust="spacing" textLength="50" x="1361" y="68.7964">de redes</text><path d="M1308,43.3687 L1318,43.3687 C1333,43.3687 1333,57.7373 1348,57.7373 L1358,57.7373 " fill="none" style="stroke:#000000;stroke-width:1.0;"/><path d="M1129,76.7373 L1139,76.7373 C1154,76.7373 1154,43.3687 1169,43.3687 L1179,43.3687 " fill="none" style="stroke:#000000;stroke-width:1.0;"/><rect fill="#FFFFFF" height="46.7373" rx="12.5" ry="12.5" style="stroke:#AAAAAA;stroke-width:1.5;" width="127" x="1179" y="86.7373"/><text fill="#000000" font-family="Verdana" font-size="11" lengthAdjust="spacing" textLength="77" x="1189" y="107.7964">Nova cultura:</text><text fill="#000000" font-family="Verdana" font-size="11" font-style="italic" lengthAdjust="spacing" textLength="107" x="1189" y="121.165">"Virtualidade Real"</text><text fill="#000000" font-family="Verdana" font-size="11" lengthAdjust="spacing" textLength="111" x="1359" y="99.1121">Esquemas mentais.</text><path d="M1306,110.106 L1316,110.106 C1331,110.106 1331,94.7373 1346,94.7373 L1356,94.7373 " fill="none" style="stroke:#000000;stroke-width:1.0;"/><text fill="#000000" font-family="Verdana" font-size="11" lengthAdjust="spacing" textLength="166" x="1359" y="114.4807">Modos de apropria&#231;&#227;o social.</text><path d="M1306,110.106 L1316,110.106 C1331,110.106 1331,110.106 1346,110.106 L1356,110.106 " fill="none" style="stroke:#000000;stroke-width:1.0;"/><text fill="#000000" font-family="Verdana" font-size="11" lengthAdjust="spacing" textLength="91" x="1359" y="129.8494">Pr&#225;ticas sociais.</text><path d="M1306,110.106 L1316,110.106 C1331,110.106 1331,125.4746 1346,125.4746 L1356,125.4746 " fill="none" style="stroke:#000000;stroke-width:1.0;"/><path d="M1129,76.7373 L1139,76.7373 C1154,76.7373 1154,110.106 1169,110.106 L1179,110.106 " fill="none" style="stroke:#000000;stroke-width:1.0;"/><path d="M1036,76.7373 L1046,76.7373 C1061,76.7373 1061,76.7373 1076,76.7373 L1086,76.7373 " fill="none" style="stroke:#000000;stroke-width:1.0;"/><path d="M844,199.3179 L854,199.3179 C869,199.3179 869,76.7373 884,76.7373 L894,76.7373 " fill="none" style="stroke:#000000;stroke-width:1.0;"/><rect fill="#FFFFFF" height="46.7373" rx="12.5" ry="12.5" style="stroke:#AAAAAA;stroke-width:1.5;" width="199" x="894" y="242.6865"/><text fill="#000000" font-family="Verdana" font-size="11" lengthAdjust="spacing" textLength="103" x="904" y="263.7456">Novas ecologias e</text><text fill="#000000" font-family="Verdana" font-size="11" lengthAdjust="spacing" textLength="179" x="904" y="277.1143">ecossistemas de aprendizagem</text><text fill="#000000" font-family="Verdana" font-size="11" lengthAdjust="spacing" textLength="40" x="1146" y="193.9553">implica</text><text fill="#000000" font-family="Verdana" font-size="11" lengthAdjust="spacing" textLength="104" x="1239" y="155.5337">Habilita&#231;&#227;o digital.</text><path d="M1186,189.5806 L1196,189.5806 C1211,189.5806 1211,151.1589 1226,151.1589 L1236,151.1589 " fill="none" style="stroke:#000000;stroke-width:1.0;"/><text fill="#000000" font-family="Verdana" font-size="11" lengthAdjust="spacing" textLength="191" x="1239" y="170.9023">Capacidade de trabalho em rede.</text><path d="M1186,189.5806 L1196,189.5806 C1211,189.5806 1211,166.5276 1226,166.5276 L1236,166.5276 " fill="none" style="stroke:#000000;stroke-width:1.0;"/><text fill="#000000" font-family="Verdana" font-size="11" lengthAdjust="spacing" textLength="209" x="1239" y="186.271">Resolu&#231;&#227;o de problemas complexos.</text><path d="M1186,189.5806 L1196,189.5806 C1211,189.5806 1211,181.8962 1226,181.8962 L1236,181.8962 " fill="none" style="stroke:#000000;stroke-width:1.0;"/><text fill="#000000" font-family="Verdana" font-size="11" lengthAdjust="spacing" textLength="124" x="1239" y="201.6396">Compet&#234;ncia criativa.</text><path d="M1186,189.5806 L1196,189.5806 C1211,189.5806 1211,197.2649 1226,197.2649 L1236,197.2649 " fill="none" style="stroke:#000000;stroke-width:1.0;"/><text fill="#000000" font-family="Verdana" font-size="11" lengthAdjust="spacing" textLength="143" x="1239" y="217.0083">Capacidade de inova&#231;&#227;o.</text><path d="M1186,189.5806 L1196,189.5806 C1211,189.5806 1211,212.6335 1226,212.6335 L1236,212.6335 " fill="none" style="stroke:#000000;stroke-width:1.0;"/><text fill="#000000" font-family="Verdana" font-size="11" lengthAdjust="spacing" textLength="185" x="1239" y="232.377">Aprendizagem ao longo da vida.</text><path d="M1186,189.5806 L1196,189.5806 C1211,189.5806 1211,228.0022 1226,228.0022 L1236,228.0022 " fill="none" style="stroke:#000000;stroke-width:1.0;"/><path d="M1093,266.0552 L1103,266.0552 C1118,266.0552 1118,189.5806 1133,189.5806 L1143,189.5806 " fill="none" style="stroke:#000000;stroke-width:1.0;"/><text fill="#000000" font-family="Verdana" font-size="11" lengthAdjust="spacing" textLength="45" x="1146" y="316.5359">envolve</text><rect fill="#FFFFFF" height="46.7373" rx="12.5" ry="12.5" style="stroke:#AAAAAA;stroke-width:1.5;" width="160" x="1241" y="245.6865"/><text fill="#000000" font-family="Verdana" font-size="11" lengthAdjust="spacing" textLength="140" x="1251" y="266.7456">Novas formas de educar</text><text fill="#000000" font-family="Verdana" font-size="11" lengthAdjust="spacing" textLength="81" x="1251" y="280.1143">e ser educado</text><text fill="#000000" font-family="Verdana" font-size="11" lengthAdjust="spacing" textLength="107" x="1454" y="252.377">Aplica&#231;&#227;o imediata</text><text fill="#000000" font-family="Verdana" font-size="11" lengthAdjust="spacing" textLength="97" x="1454" y="265.7456">de conhecimento</text><path d="M1401,269.0552 L1411,269.0552 C1426,269.0552 1426,254.6865 1441,254.6865 L1451,254.6865 " fill="none" style="stroke:#000000;stroke-width:1.0;"/><text fill="#000000" font-family="Verdana" font-size="11" lengthAdjust="spacing" textLength="109" x="1454" y="281.1143">Ensinar e aprender</text><text fill="#000000" font-family="Verdana" font-size="11" lengthAdjust="spacing" textLength="84" x="1454" y="294.4829">em mobilidade</text><path d="M1401,269.0552 L1411,269.0552 C1426,269.0552 1426,283.4238 1441,283.4238 L1451,283.4238 " fill="none" style="stroke:#000000;stroke-width:1.0;"/><path d="M1191,312.1611 L1201,312.1611 C1216,312.1611 1216,269.0552 1231,269.0552 L1241,269.0552 " fill="none" style="stroke:#000000;stroke-width:1.0;"/><rect fill="#FFFFFF" height="46.7373" rx="12.5" ry="12.5" style="stroke:#AAAAAA;stroke-width:1.5;" width="95" x="1241" y="322.1611"/><text fill="#000000" font-family="Verdana" font-size="11" lengthAdjust="spacing" textLength="75" x="1251" y="343.2202">Flexibiliza&#231;&#227;o</text><text fill="#000000" font-family="Verdana" font-size="11" lengthAdjust="spacing" textLength="54" x="1251" y="356.5889">da escola</text><text fill="#000000" font-family="Verdana" font-size="11" lengthAdjust="spacing" textLength="85" x="1389" y="314.4829">Planeamento e</text><text fill="#000000" font-family="Verdana" font-size="11" lengthAdjust="spacing" textLength="103" x="1389" y="327.8516">gest&#227;o acad&#233;mica</text><path d="M1336,345.5298 L1346,345.5298 C1361,345.5298 1361,316.7925 1376,316.7925 L1386,316.7925 " fill="none" style="stroke:#000000;stroke-width:1.0;"/><text fill="#000000" font-family="Verdana" font-size="11" lengthAdjust="spacing" textLength="87" x="1389" y="343.2202">Capacita&#231;&#227;o do</text><text fill="#000000" font-family="Verdana" font-size="11" lengthAdjust="spacing" textLength="81" x="1389" y="356.5889">corpo docente</text><path d="M1336,345.5298 L1346,345.5298 C1361,345.5298 1361,345.5298 1376,345.5298 L1386,345.5298 " fill="none" style="stroke:#000000;stroke-width:1.0;"/><text fill="#000000" font-family="Verdana" font-size="11" lengthAdjust="spacing" textLength="80" x="1389" y="371.9575">Integra&#231;&#227;o de</text><text fill="#000000" font-family="Verdana" font-size="11" lengthAdjust="spacing" textLength="90" x="1389" y="385.3262">espa&#231;os digitais</text><path d="M1336,345.5298 L1346,345.5298 C1361,345.5298 1361,374.2671 1376,374.2671 L1386,374.2671 " fill="none" style="stroke:#000000;stroke-width:1.0;"/><path d="M1191,312.1611 L1201,312.1611 C1216,312.1611 1216,345.5298 1231,345.5298 L1241,345.5298 " fill="none" style="stroke:#000000;stroke-width:1.0;"/><path d="M1093,266.0552 L1103,266.0552 C1118,266.0552 1118,312.1611 1133,312.1611 L1143,312.1611 " fill="none" style="stroke:#000000;stroke-width:1.0;"/><path d="M844,199.3179 L854,199.3179 C869,199.3179 869,266.0552 884,266.0552 L894,266.0552 " fill="none" style="stroke:#000000;stroke-width:1.0;"/><path d="M751,199.3179 L761,199.3179 C776,199.3179 776,199.3179 791,199.3179 L801,199.3179 " fill="none" style="stroke:#000000;stroke-width:1.0;"/><text fill="#000000" font-family="Verdana" font-size="11" lengthAdjust="spacing" textLength="48" x="509" y="142.218">equivale</text><rect fill="#FFFFFF" height="33.3687" rx="12.5" ry="12.5" style="stroke:#AAAAAA;stroke-width:1.5;" width="132" x="327" y="121.1589"/><text fill="#000000" font-family="Verdana" font-size="11" lengthAdjust="spacing" textLength="112" x="337" y="142.218">Sociedade Moderna</text><text fill="#000000" font-family="Verdana" font-size="11" lengthAdjust="spacing" textLength="76" x="198" y="111.4807">Globaliza&#231;&#227;o.</text><path d="M327,137.8433 L317,137.8433 C302,137.8433 302,107.106 287,107.106 L277,107.106 " fill="none" style="stroke:#000000;stroke-width:1.0;"/><text fill="#000000" font-family="Verdana" font-size="11" lengthAdjust="spacing" textLength="123" x="151" y="126.8494">Acesso &#224; informa&#231;&#227;o.</text><path d="M327,137.8433 L317,137.8433 C302,137.8433 302,122.4746 287,122.4746 L277,122.4746 " fill="none" style="stroke:#000000;stroke-width:1.0;"/><text fill="#000000" font-family="Verdana" font-size="11" lengthAdjust="spacing" textLength="57" x="217" y="142.218">Consumo.</text><path d="M327,137.8433 L317,137.8433 C302,137.8433 302,137.8433 287,137.8433 L277,137.8433 " fill="none" style="stroke:#000000;stroke-width:1.0;"/><text fill="#000000" font-family="Verdana" font-size="11" lengthAdjust="spacing" textLength="157" x="117" y="157.5867">Tecnologias de informa&#231;&#227;o.</text><path d="M327,137.8433 L317,137.8433 C302,137.8433 302,153.2119 287,153.2119 L277,153.2119 " fill="none" style="stroke:#000000;stroke-width:1.0;"/><text fill="#000000" font-family="Verdana" font-size="11" lengthAdjust="spacing" textLength="81" x="193" y="172.9553">Redes sociais.</text><path d="M327,137.8433 L317,137.8433 C302,137.8433 302,168.5806 287,168.5806 L277,168.5806 " fill="none" style="stroke:#000000;stroke-width:1.0;"/><path d="M509,137.8433 L499,137.8433 C484,137.8433 484,137.8433 469,137.8433 L459,137.8433 " fill="none" style="stroke:#000000;stroke-width:1.0;"/><path d="M610,199.3179 L600,199.3179 C585,199.3179 585,137.8433 570,137.8433 L560,137.8433 " fill="none" style="stroke:#000000;stroke-width:1.0;"/><text fill="#000000" font-family="Verdana" font-size="11" lengthAdjust="spacing" textLength="51" x="506" y="242.1143">conduz &#224;</text><rect fill="#FFFFFF" height="46.7373" rx="12.5" ry="12.5" style="stroke:#AAAAAA;stroke-width:1.5;" width="113" x="343" y="214.3708"/><text fill="#000000" font-family="Verdana" font-size="11" lengthAdjust="spacing" textLength="93" x="353" y="235.4299">Economia global</text><text fill="#000000" font-family="Verdana" font-size="11" lengthAdjust="spacing" textLength="52" x="353" y="248.7986">e flex&#237;vel</text><text fill="#000000" font-family="Verdana" font-size="11" lengthAdjust="spacing" textLength="103" x="187" y="188.324">Foco na inova&#231;&#227;o.</text><path d="M343,237.7395 L333,237.7395 C318,237.7395 318,183.9492 303,183.9492 L293,183.9492 " fill="none" style="stroke:#000000;stroke-width:1.0;"/><text fill="#000000" font-family="Verdana" font-size="11" lengthAdjust="spacing" textLength="178" x="112" y="203.6926">Trabalho por projeto ou tarefa.</text><path d="M343,237.7395 L333,237.7395 C318,237.7395 318,199.3179 303,199.3179 L293,199.3179 " fill="none" style="stroke:#000000;stroke-width:1.0;"/><text fill="#000000" font-family="Verdana" font-size="11" lengthAdjust="spacing" textLength="116" x="174" y="219.0613">Hiperespecializa&#231;&#227;o.</text><path d="M343,237.7395 L333,237.7395 C318,237.7395 318,214.6865 303,214.6865 L293,214.6865 " fill="none" style="stroke:#000000;stroke-width:1.0;"/><text fill="#000000" font-family="Verdana" font-size="11" lengthAdjust="spacing" textLength="138" x="152" y="234.4299">Aprendizagem cont&#237;nua.</text><path d="M343,237.7395 L333,237.7395 C318,237.7395 318,230.0552 303,230.0552 L293,230.0552 " fill="none" style="stroke:#000000;stroke-width:1.0;"/><text fill="#000000" font-family="Verdana" font-size="11" lengthAdjust="spacing" textLength="280" x="10" y="249.7986">Substitui&#231;&#227;o do espa&#231;o f&#237;sico pelo espa&#231;o virtual.</text><path d="M343,237.7395 L333,237.7395 C318,237.7395 318,245.4238 303,245.4238 L293,245.4238 " fill="none" style="stroke:#000000;stroke-width:1.0;"/><text fill="#000000" font-family="Verdana" font-size="11" lengthAdjust="spacing" textLength="100" x="190" y="265.1672">Descentraliza&#231;&#227;o.</text><path d="M343,237.7395 L333,237.7395 C318,237.7395 318,260.7925 303,260.7925 L293,260.7925 " fill="none" style="stroke:#000000;stroke-width:1.0;"/><text fill="#000000" font-family="Verdana" font-size="11" lengthAdjust="spacing" textLength="88" x="202" y="280.5359">Simulaneidade.</text><path d="M343,237.7395 L333,237.7395 C318,237.7395 318,276.1611 303,276.1611 L293,276.1611 " fill="none" style="stroke:#000000;stroke-width:1.0;"/><text fill="#000000" font-family="Verdana" font-size="11" lengthAdjust="spacing" textLength="94" x="196" y="295.9045">Atemporalidade.</text><path d="M343,237.7395 L333,237.7395 C318,237.7395 318,291.5298 303,291.5298 L293,291.5298 " fill="none" style="stroke:#000000;stroke-width:1.0;"/><path d="M506,237.7395 L496,237.7395 C481,237.7395 481,237.7395 466,237.7395 L456,237.7395 " fill="none" style="stroke:#000000;stroke-width:1.0;"/><path d="M610,199.3179 L600,199.3179 C585,199.3179 585,237.7395 570,237.7395 L560,237.7395 " fill="none" style="stroke:#000000;stroke-width:1.0;"/><!--SRC=[xLbBSzis4BxpLo2P7bBDnA8UbctralYPf7QIiHstDysIM598G801G2LE9_-bdHuwxKnE_GdwOrsG5FMmSaiprjYoHo8MmEwtkz_YCNnY7HYN2SKpo5dO6T6_rR503Xn7c8qC-j-HjYEb9_JDqK8Y_0ECa1SnnA231nmJeP2TFZzvThb_-kOeU21KB0kEXP5ix5nkX-rsAgpRIeKR5r5XqSHQELHkAzPP6xBKjZbkxsmFmh3JXLtOJaBiT_jXqjlhHeETNUY7RGCVsl5Us8i7KJ_f3A9166qZ9hrkVpS9zthzlPq407ixkybsfstTjSIjlCXaq6AjriNCAOOPEoUdMgqWa9WuPWN786YrHWpV5s824gdHOlC9PvgZKU2bDEX4wWYa-0JJlwP_wgrQ-ZH6QpMR_iw4IhJ9bdiFjB95rZGlCLPQwbI0PQH_tGoFq3AV2H1sgu970UF59xBXcwtX4RLr9e2b9Q80MIBnu_JB1ELFjPPZ7MkcW2peoRB-ImCqPwnPhWtBZNwBJZDTC6839Z0RzKpaQD3cI31kkfmRL9oaAKNK9tFwHHNDr8iYiawuGfHp6DUCz902pPBf5oi8LuvoBfm8umgGizc7Q6FYXhbfzK9aXGI5mgUcWU8m8qTeT2KDZ4Z7YvaLMIv535NWo7Tbvo6leYm3Ya9IA0wpuCtc-5PhU2WKPC9cFfu1UPk8j31B2gfvD7Fut1YSeB4Y4XKYnY58btZ3a7HC_yt8m7pUENfKv5uzX751f995sGn8ZIz6MuyVlgISihYGZd0CWtRxuLKLmyhYEO9ys6utojcHVLzWHepBAB0bgMOzn6zT4X4e1BaHIrxDXxqsqpySuLscPON3UdzgHcD0pzPIiPVcAhqDKzP6bvW6FbQkDiq5BHEDRQeVo26k8udCpRXBlFCHQOQTOnCjFuwyYMI9WPQOd6f3sxb6ag2R_gF84nQJpuug_olsLgjdbVkWcTGg9Pj0FEPD2Q2QQ3d1XNHPLjAk34gvU1ggMbeAgmRNSoeyBQDJkI8ov0GGF0E8DMEgHf_3XT57oX8zIKqTQYIz6SlqZ7ypoXnJ44fIrYmC235LcfOB97pjgmjA0vJA5Atp66YPvzE_b-bQHQd9cQQoCBb_yAMB2-L0hNHMArIHTStREis261qy8TJrBaIDRx8fZKMvsEVkcYZlnfhRHH4uPqHKEBI1_zXtGkLW86D4MuFQNUTui0_nkzHeMXGEYDo6TM0mYBj1_PbFYLR69KaIt1mL2nDBv0TZQiLaXFqMC6Q0YyAoNNfCQ0cz49-GTJfrwoMbWLsXuK1hpkSbNHAiBHMm6zP_s7_rw_u9TKNQ41Cg8G2KWxtQIXA6uJepgpZcuJXkflPwlHizyncCWJ7wmwALKd1yqrGZNzJR26SglMoMhHk35plc61hnSogOcVZpKZee1zfy9OHq01bWToM4TVQ_InINaatVjEwA79IxbIbVPgQM4cCdwCHp-y5Uq8aFLOpx-kDwh1ZwlnMiSVdvRd0Ny0fQIKq2CMu4R_skgnLk0ciL7V5lFqfEXu08x0OWfR8gRYtC1Pnq3urlQq3_Xvtqyye6A2Q2Za9tqNbRh_orynjwB98YmLEXQF-QfwZP0vhEzNlQKZWYtmtcUaFs5UMCbXk1bNQ_hvVORO2wPa4u591fnU_Aki0OEKptqsonYjRSBhxDjOEkjWxlJcZBc_mAst7bFhqS81szfVl37TgKbewXRaEEzb8N_4uU70oH4rGgD-0GRfqsaDvQeFTlPUxVojo_bRb_AtF_LcOptifu2ExDsIahYqWhrjdgXjt-Lk_HvRXWnnYnpZRhx0txuJ3SPhySNJBV_MFmwEJrwQHBz2nCN1PFTKOc3Jy6Bu2gvRoWIrA6G_OgH_NYyEUPW1qfMe2qybu7BwxEvWC6_SVxmh4BD8I5NPq5XxGyKitHZ5XpeT8XUtDv_7WtEAMjkY0w32djmG5jVivSKz_5Vm00]--></g></svg>