<?xml version="1.0" encoding="us-ascii" standalone="no"?><svg xmlns="http://www.w3.org/2000/svg" xmlns:xlink="http://www.w3.org/1999/xlink" contentStyleType="text/css" height="98px" preserveAspectRatio="none" style="width:1225px;height:98px;background:#FFFFFF;" version="1.1" viewBox="0 0 1225 98" width="1225px" zoomAndPan="magnify"><defs/><g><rect fill="#FFFFFF" height="33.3687" rx="12.5" ry="12.5" style="stroke:#AAAAAA;stroke-width:1.5;" width="173" x="546" y="31.7373"/><text fill="#000000" font-family="Verdana" font-size="11" font-weight="bold" lengthAdjust="spacing" textLength="153" x="556" y="52.7964">Conceitos Fundamentais</text><text fill="#000000" font-family="Verdana" font-size="11" lengthAdjust="spacing" textLength="117" x="772" y="22.0591">Web-based Learning</text><text fill="#808080" font-family="Verdana" font-size="11" lengthAdjust="spacing" textLength="202" x="942" y="22.0591">Aprendizagem suportada pela web.</text><path d="M889,17.6843 L899,17.6843 C914,17.6843 914,17.6843 929,17.6843 L939,17.6843 " fill="none" style="stroke:#000000;stroke-width:1.0;"/><path d="M719,48.4216 L729,48.4216 C744,48.4216 744,17.6843 759,17.6843 L769,17.6843 " fill="none" style="stroke:#000000;stroke-width:1.0;"/><text fill="#000000" font-family="Verdana" font-size="11" lengthAdjust="spacing" textLength="83" x="772" y="37.4277">Open Learning</text><text fill="#808080" font-family="Verdana" font-size="11" lengthAdjust="spacing" textLength="190" x="908" y="37.4277">Foco na autonomia do estudante.</text><path d="M855,33.053 L865,33.053 C880,33.053 880,33.053 895,33.053 L905,33.053 " fill="none" style="stroke:#000000;stroke-width:1.0;"/><path d="M719,48.4216 L729,48.4216 C744,48.4216 744,33.053 759,33.053 L769,33.053 " fill="none" style="stroke:#000000;stroke-width:1.0;"/><text fill="#000000" font-family="Verdana" font-size="11" lengthAdjust="spacing" textLength="99" x="772" y="52.7964">Blended Learning</text><text fill="#808080" font-family="Verdana" font-size="11" lengthAdjust="spacing" textLength="289" x="924" y="52.7964">Combina&#231;&#227;o de m&#233;todos presenciais e &#224; dist&#226;ncia.</text><path d="M871,48.4216 L881,48.4216 C896,48.4216 896,48.4216 911,48.4216 L921,48.4216 " fill="none" style="stroke:#000000;stroke-width:1.0;"/><path d="M719,48.4216 L729,48.4216 C744,48.4216 744,48.4216 759,48.4216 L769,48.4216 " fill="none" style="stroke:#000000;stroke-width:1.0;"/><text fill="#000000" font-family="Verdana" font-size="11" lengthAdjust="spacing" textLength="98" x="772" y="68.165">Educa&#231;&#227;o H&#237;brida</text><text fill="#808080" font-family="Verdana" font-size="11" lengthAdjust="spacing" textLength="252" x="923" y="68.165">Integra&#231;&#227;o de culturas anal&#243;gicas e digitais.</text><path d="M870,63.7903 L880,63.7903 C895,63.7903 895,63.7903 910,63.7903 L920,63.7903 " fill="none" style="stroke:#000000;stroke-width:1.0;"/><path d="M719,48.4216 L729,48.4216 C744,48.4216 744,63.7903 759,63.7903 L769,63.7903 " fill="none" style="stroke:#000000;stroke-width:1.0;"/><text fill="#000000" font-family="Verdana" font-size="11" lengthAdjust="spacing" textLength="91" x="772" y="83.5337">Educa&#231;&#227;o Onlife</text><text fill="#808080" font-family="Verdana" font-size="11" lengthAdjust="spacing" textLength="285" x="916" y="83.5337">Integra&#231;&#227;o das dimens&#245;es sociais online e offline.</text><path d="M863,79.1589 L873,79.1589 C888,79.1589 888,79.1589 903,79.1589 L913,79.1589 " fill="none" style="stroke:#000000;stroke-width:1.0;"/><path d="M719,48.4216 L729,48.4216 C744,48.4216 744,79.1589 759,79.1589 L769,79.1589 " fill="none" style="stroke:#000000;stroke-width:1.0;"/><text fill="#000000" font-family="Verdana" font-size="11" lengthAdjust="spacing" textLength="85" x="408" y="22.0591">Ensino Remoto</text><text fill="#808080" font-family="Verdana" font-size="11" lengthAdjust="spacing" textLength="331" x="24" y="22.0591">Aula em tempo real, mas com distanciamento geogr&#225;fico.</text><path d="M408,17.6843 L398,17.6843 C383,17.6843 383,17.6843 368,17.6843 L358,17.6843 " fill="none" style="stroke:#000000;stroke-width:1.0;"/><path d="M546,48.4216 L536,48.4216 C521,48.4216 521,17.6843 506,17.6843 L496,17.6843 " fill="none" style="stroke:#000000;stroke-width:1.0;"/><text fill="#000000" font-family="Verdana" font-size="11" lengthAdjust="spacing" textLength="103" x="390" y="37.4277">Ensino &#224; Dist&#226;ncia</text><text fill="#808080" font-family="Verdana" font-size="11" lengthAdjust="spacing" textLength="221" x="116" y="37.4277">Distanciamento geogr&#225;fico e temporal.</text><path d="M390,33.053 L380,33.053 C365,33.053 365,33.053 350,33.053 L340,33.053 " fill="none" style="stroke:#000000;stroke-width:1.0;"/><path d="M546,48.4216 L536,48.4216 C521,48.4216 521,33.053 506,33.053 L496,33.053 " fill="none" style="stroke:#000000;stroke-width:1.0;"/><text fill="#000000" font-family="Verdana" font-size="11" lengthAdjust="spacing" textLength="120" x="373" y="52.7964">Educa&#231;&#227;o &#224; Dist&#226;ncia</text><text fill="#808080" font-family="Verdana" font-size="11" lengthAdjust="spacing" textLength="310" x="10" y="52.7964">Enfase na constru&#231;&#227;o e socializa&#231;&#227;o do conhecimento.</text><path d="M373,48.4216 L363,48.4216 C348,48.4216 348,48.4216 333,48.4216 L323,48.4216 " fill="none" style="stroke:#000000;stroke-width:1.0;"/><path d="M546,48.4216 L536,48.4216 C521,48.4216 521,48.4216 506,48.4216 L496,48.4216 " fill="none" style="stroke:#000000;stroke-width:1.0;"/><text fill="#000000" font-family="Verdana" font-size="11" lengthAdjust="spacing" textLength="61" x="432" y="68.165">e-Learning</text><text fill="#808080" font-family="Verdana" font-size="11" lengthAdjust="spacing" textLength="229" x="150" y="68.165">Ensino mediado por tecnologias digitais.</text><path d="M432,63.7903 L422,63.7903 C407,63.7903 407,63.7903 392,63.7903 L382,63.7903 " fill="none" style="stroke:#000000;stroke-width:1.0;"/><path d="M546,48.4216 L536,48.4216 C521,48.4216 521,63.7903 506,63.7903 L496,63.7903 " fill="none" style="stroke:#000000;stroke-width:1.0;"/><text fill="#000000" font-family="Verdana" font-size="11" lengthAdjust="spacing" textLength="94" x="399" y="83.5337">Educa&#231;&#227;o Online</text><text fill="#808080" font-family="Verdana" font-size="11" lengthAdjust="spacing" textLength="217" x="129" y="83.5337">Processos completamente reticulares.</text><path d="M399,79.1589 L389,79.1589 C374,79.1589 374,79.1589 359,79.1589 L349,79.1589 " fill="none" style="stroke:#000000;stroke-width:1.0;"/><path d="M546,48.4216 L536,48.4216 C521,48.4216 521,79.1589 506,79.1589 L496,79.1589 " fill="none" style="stroke:#000000;stroke-width:1.0;"/><!--SRC=[xLXBR-Cs4BxhLt217dQ3nfQVSOoYsBNpsAHE4smUsvin8aSoknBfabHIRv7_qiUXwA6deh_0VwmZ-Vr8zj1sOIDHWC0Q3cS-pZSS3lNQEZ0kaKeaq6T-gUjNkhhR1mD2HWbq1NHHf5mdgP8SEEWkrugZTDfwBmI6KY7hd1o_lMfrhW-z5rBnE1MOcfZrdElRPh4OIUiAaNIzD4Wj6fhkKBa2cIn24jcYmDfUhUxxfJ8qe1RwM2rN_R2oNmxgUmse-aK3TqM-xrTuFQY6fNfGzuCQObWfLnkXlr-fxk-505ZPQuIrKj6wGOo5Vfh4dhV3TdRQ4xJiA5K24d8DqkxiU5wCeMDM2YJ5dIuxL5OgpTvXefqc2Oc-uZhMfXaP77pz9es1OS8S9dtD34By9Kl0Cbe64xH2K5pcrZMBK4Tc-4iekIxCcnx-p0v8S_XhfhhguU11Amn7RWt4OuF420n_7_xsIQE7AWIBJ041LTQPT3GBcTMa7ykFOpD2Pmezv3BtFdA3knq4ewIArXdErvIWa42J2HnXv8eK8abXeUIHMQ1Ny9whc59crTw5qHojrNb4-p6wF0n8aNQIK-mDaYqZezwOisp-Umns0rgUO0_ZVDCtg0IjCoBoR4eu7GXWVIGwxp0OuJlleth4nf4c3YY4a3gjT28X2nTQbmeWY2CJhPZSF8gahPD0gacyaIN3FvmMj612Q36ZJreYXWWLKq9NmlTs-6TWf5Z3z0b1YSpCF0NDfOQe00NnyA-8Tczc_b5YGloKtPnQOiOE_qOxIY92hNDIoReEm-nNmVDUKpZ6LOLU_aMHwH7RjF7wRa39vdfQB8Z0EIE3rA7riiT-a2epIrGxDAZTe8_j5l0FaT6q_TlPibW9wdLUziRFR4gmf1U6eRUgnQNXCOfsZzuuEM4_UOnb2qajQz3FaEhRfVo8h5GQltrBgSnkq52sW7U_O2i6QtC3RCNx5wtpxrh7D1He8z2CX02GAsTcHnBVzzUvMSOn2yVHT6gbKbaPcSrW38pHT_DUSi7HggkfVDxkL3WncSacRAqepm_CC4p59vGF4_7z0Xt4WJOFX90Eb3gMbq8uPl-pH761RFfFfKpsgMPi9EMBcQdZ6BcJT6XiFjXB_26b0eej_UDwhEXdVqjOUVvyDhXpU2MLL1C2nwt8s-myrWgt8MkL5hZvA0KuoDgMpKTAsohTM9XpEEbUmJSreF_3INg_T03AMqcjq5DSl1rN_l7YjxGjoXhl3hNDhJcAfcV0T73zcROGZY0R1ZFOadD5EQFZhS1Afz_3MsmJeAuf20SI4gt4KwaBZD62wQAQpE-YDRUB_-RQGHTQXqydjFdzVIdRSUa-lHWW7NnFzuSdT2WjjA5kIrhxMAVYIJOEXf8JL1HlGHDkdJOGRMuR_loL_Vah-_DNzWtuoduHKw2kpphi5esLMh5IeUoNguNAowjUoeumOAKQA-qtgtxJhx7tXrSi6txblJo-wDoMoKrgEEPXoRiVil3AEuLROEzIQdyJREOCdXvyCn7GbhkLHgiiXxpJcxEPGhswsvAENQ8XBEpcp3l042XKD8DhGSGrsVNLqMx3wr0HJYbhcjHEU6qgQyuCQEpo7m00]--></g></svg>