<?xml version="1.0" encoding="us-ascii" standalone="no"?><svg xmlns="http://www.w3.org/2000/svg" xmlns:xlink="http://www.w3.org/1999/xlink" contentStyleType="text/css" height="502px" preserveAspectRatio="none" style="width:1926px;height:502px;background:#FFFFFF;" version="1.1" viewBox="0 0 1926 502" width="1926px" zoomAndPan="magnify"><defs/><g><rect fill="#FFFFFF" height="60.106" rx="12.5" ry="12.5" style="stroke:#AAAAAA;stroke-width:1.5;" width="254" x="876" y="220.106"/><text fill="#000000" font-family="Verdana" font-size="11" font-weight="bold" lengthAdjust="spacing" textLength="37" x="886" y="241.165">Onlife</text><text fill="#000000" font-family="Verdana" font-size="11" lengthAdjust="spacing" textLength="234" x="886" y="254.5337">- Fus&#227;o entre os mundos online e offline.</text><text fill="#000000" font-family="Verdana" font-size="11" lengthAdjust="spacing" textLength="183" x="886" y="267.9023">- Nova realidade interconectada</text><text fill="#000000" font-family="Verdana" font-size="11" lengthAdjust="spacing" textLength="146" x="1183" y="121.1121">gera a oportunidade para</text><rect fill="#FFFFFF" height="33.3687" rx="12.5" ry="12.5" style="stroke:#AAAAAA;stroke-width:1.5;" width="107" x="1379" y="20"/><text fill="#000000" font-family="Verdana" font-size="11" lengthAdjust="spacing" textLength="87" x="1389" y="41.0591">Inclus&#227;o Digital</text><text fill="#000000" font-family="Verdana" font-size="11" lengthAdjust="spacing" textLength="289" x="1539" y="33.3748">Maior acesso &#224; informa&#231;&#227;o e conhecimento global.</text><path d="M1486,36.6843 L1496,36.6843 C1511,36.6843 1511,29 1526,29 L1536,29 " fill="none" style="stroke:#000000;stroke-width:1.0;"/><text fill="#000000" font-family="Verdana" font-size="11" lengthAdjust="spacing" textLength="286" x="1539" y="48.7434">Ferramentas para inclus&#227;o social e acessibilidade.</text><path d="M1486,36.6843 L1496,36.6843 C1511,36.6843 1511,44.3687 1526,44.3687 L1536,44.3687 " fill="none" style="stroke:#000000;stroke-width:1.0;"/><path d="M1329,116.7373 L1339,116.7373 C1354,116.7373 1354,36.6843 1369,36.6843 L1379,36.6843 " fill="none" style="stroke:#000000;stroke-width:1.0;"/><rect fill="#FFFFFF" height="33.3687" rx="12.5" ry="12.5" style="stroke:#AAAAAA;stroke-width:1.5;" width="144" x="1379" y="73.3687"/><text fill="#000000" font-family="Verdana" font-size="11" lengthAdjust="spacing" textLength="124" x="1389" y="94.4277">Inova&#231;&#227;o Tecnol&#243;gica</text><text fill="#000000" font-family="Verdana" font-size="11" lengthAdjust="spacing" textLength="338" x="1576" y="86.7434">Desenvolvimento de tecnologias centradas no ser humano.</text><path d="M1523,90.053 L1533,90.053 C1548,90.053 1548,82.3687 1563,82.3687 L1573,82.3687 " fill="none" style="stroke:#000000;stroke-width:1.0;"/><text fill="#000000" font-family="Verdana" font-size="11" lengthAdjust="spacing" textLength="303" x="1576" y="102.1121">Integra&#231;&#227;o de IA para melhorar a qualidade de vida.</text><path d="M1523,90.053 L1533,90.053 C1548,90.053 1548,97.7373 1563,97.7373 L1573,97.7373 " fill="none" style="stroke:#000000;stroke-width:1.0;"/><path d="M1329,116.7373 L1339,116.7373 C1354,116.7373 1354,90.053 1369,90.053 L1379,90.053 " fill="none" style="stroke:#000000;stroke-width:1.0;"/><rect fill="#FFFFFF" height="33.3687" rx="12.5" ry="12.5" style="stroke:#AAAAAA;stroke-width:1.5;" width="114" x="1379" y="126.7373"/><text fill="#000000" font-family="Verdana" font-size="11" lengthAdjust="spacing" textLength="94" x="1389" y="147.7964">Sustentabilidade</text><text fill="#000000" font-family="Verdana" font-size="11" lengthAdjust="spacing" textLength="362" x="1546" y="140.1121">Redu&#231;&#227;o de desloca&#231;&#245;es e impacto ambiental gra&#231;as ao digital.</text><path d="M1493,143.4216 L1503,143.4216 C1518,143.4216 1518,135.7373 1533,135.7373 L1543,135.7373 " fill="none" style="stroke:#000000;stroke-width:1.0;"/><text fill="#000000" font-family="Verdana" font-size="11" lengthAdjust="spacing" textLength="267" x="1546" y="155.4807">Solu&#231;&#245;es inteligentes para gest&#227;o de recursos.</text><path d="M1493,143.4216 L1503,143.4216 C1518,143.4216 1518,151.106 1533,151.106 L1543,151.106 " fill="none" style="stroke:#000000;stroke-width:1.0;"/><path d="M1329,116.7373 L1339,116.7373 C1354,116.7373 1354,143.4216 1369,143.4216 L1379,143.4216 " fill="none" style="stroke:#000000;stroke-width:1.0;"/><rect fill="#FFFFFF" height="33.3687" rx="12.5" ry="12.5" style="stroke:#AAAAAA;stroke-width:1.5;" width="131" x="1379" y="180.106"/><text fill="#000000" font-family="Verdana" font-size="11" lengthAdjust="spacing" textLength="111" x="1389" y="201.165">Colabora&#231;&#227;o Global</text><text fill="#000000" font-family="Verdana" font-size="11" lengthAdjust="spacing" textLength="267" x="1563" y="186.7964">Intera&#231;&#227;o instant&#226;nea entre culturas e na&#231;&#245;es.</text><path d="M1510,196.7903 L1520,196.7903 C1535,196.7903 1535,182.4216 1550,182.4216 L1560,182.4216 " fill="none" style="stroke:#000000;stroke-width:1.0;"/><text fill="#000000" font-family="Verdana" font-size="11" lengthAdjust="spacing" textLength="249" x="1563" y="202.165">Resolu&#231;&#227;o de problemas globais atrav&#233;s de</text><text fill="#000000" font-family="Verdana" font-size="11" lengthAdjust="spacing" textLength="130" x="1563" y="215.5337">redes interconectadas.</text><path d="M1510,196.7903 L1520,196.7903 C1535,196.7903 1535,204.4746 1550,204.4746 L1560,204.4746 " fill="none" style="stroke:#000000;stroke-width:1.0;"/><path d="M1329,116.7373 L1339,116.7373 C1354,116.7373 1354,196.7903 1369,196.7903 L1379,196.7903 " fill="none" style="stroke:#000000;stroke-width:1.0;"/><path d="M1130,250.1589 L1140,250.1589 C1155,250.1589 1155,116.7373 1170,116.7373 L1180,116.7373 " fill="none" style="stroke:#000000;stroke-width:1.0;"/><text fill="#000000" font-family="Verdana" font-size="11" lengthAdjust="spacing" textLength="147" x="1183" y="361.271">representa amea&#231;a sobre</text><rect fill="#FFFFFF" height="33.3687" rx="12.5" ry="12.5" style="stroke:#AAAAAA;stroke-width:1.5;" width="141" x="1380" y="233.4746"/><text fill="#000000" font-family="Verdana" font-size="11" lengthAdjust="spacing" textLength="121" x="1390" y="254.5337">Perda de Privacidade</text><text fill="#000000" font-family="Verdana" font-size="11" lengthAdjust="spacing" textLength="292" x="1574" y="246.8494">Monitoriza&#231;&#227;o constante por governos e empresas.</text><path d="M1521,250.1589 L1531,250.1589 C1546,250.1589 1546,242.4746 1561,242.4746 L1571,242.4746 " fill="none" style="stroke:#000000;stroke-width:1.0;"/><text fill="#000000" font-family="Verdana" font-size="11" lengthAdjust="spacing" textLength="282" x="1574" y="262.218">Explora&#231;&#227;o de dados pessoais para manipula&#231;&#227;o.</text><path d="M1521,250.1589 L1531,250.1589 C1546,250.1589 1546,257.8433 1561,257.8433 L1571,257.8433 " fill="none" style="stroke:#000000;stroke-width:1.0;"/><path d="M1330,356.8962 L1340,356.8962 C1355,356.8962 1355,250.1589 1370,250.1589 L1380,250.1589 " fill="none" style="stroke:#000000;stroke-width:1.0;"/><rect fill="#FFFFFF" height="33.3687" rx="12.5" ry="12.5" style="stroke:#AAAAAA;stroke-width:1.5;" width="190" x="1380" y="286.8433"/><text fill="#000000" font-family="Verdana" font-size="11" lengthAdjust="spacing" textLength="170" x="1390" y="307.9023">Desinforma&#231;&#227;o e Manipula&#231;&#227;o</text><text fill="#000000" font-family="Verdana" font-size="11" lengthAdjust="spacing" textLength="226" x="1623" y="300.218">Prolifera&#231;&#227;o de fake news e deepfakes.</text><path d="M1570,303.5276 L1580,303.5276 C1595,303.5276 1595,295.8433 1610,295.8433 L1620,295.8433 " fill="none" style="stroke:#000000;stroke-width:1.0;"/><text fill="#000000" font-family="Verdana" font-size="11" lengthAdjust="spacing" textLength="287" x="1623" y="315.5867">Influ&#234;ncia de algoritmos na forma&#231;&#227;o de opini&#245;es.</text><path d="M1570,303.5276 L1580,303.5276 C1595,303.5276 1595,311.2119 1610,311.2119 L1620,311.2119 " fill="none" style="stroke:#000000;stroke-width:1.0;"/><path d="M1330,356.8962 L1340,356.8962 C1355,356.8962 1355,303.5276 1370,303.5276 L1380,303.5276 " fill="none" style="stroke:#000000;stroke-width:1.0;"/><rect fill="#FFFFFF" height="33.3687" rx="12.5" ry="12.5" style="stroke:#AAAAAA;stroke-width:1.5;" width="135" x="1380" y="340.2119"/><text fill="#000000" font-family="Verdana" font-size="11" lengthAdjust="spacing" textLength="115" x="1390" y="361.271">Desigualdade Digital</text><text fill="#000000" font-family="Verdana" font-size="11" lengthAdjust="spacing" textLength="295" x="1568" y="353.5867">Exclus&#227;o de comunidades sem acesso &#224; tecnologia.</text><path d="M1515,356.8962 L1525,356.8962 C1540,356.8962 1540,349.2119 1555,349.2119 L1565,349.2119 " fill="none" style="stroke:#000000;stroke-width:1.0;"/><text fill="#000000" font-family="Verdana" font-size="11" lengthAdjust="spacing" textLength="290" x="1568" y="368.9553">Amplia&#231;&#227;o de desigualdades econ&#243;micas e sociais.</text><path d="M1515,356.8962 L1525,356.8962 C1540,356.8962 1540,364.5806 1555,364.5806 L1565,364.5806 " fill="none" style="stroke:#000000;stroke-width:1.0;"/><path d="M1330,356.8962 L1340,356.8962 C1355,356.8962 1355,356.8962 1370,356.8962 L1380,356.8962 " fill="none" style="stroke:#000000;stroke-width:1.0;"/><rect fill="#FFFFFF" height="33.3687" rx="12.5" ry="12.5" style="stroke:#AAAAAA;stroke-width:1.5;" width="218" x="1380" y="393.5806"/><text fill="#000000" font-family="Verdana" font-size="11" lengthAdjust="spacing" textLength="198" x="1390" y="414.6396">Impactos na Sa&#250;de Mental e F&#237;sica</text><text fill="#000000" font-family="Verdana" font-size="11" lengthAdjust="spacing" textLength="188" x="1651" y="400.271">Ansiedade e depend&#234;ncia digital.</text><path d="M1598,410.2649 L1608,410.2649 C1623,410.2649 1623,395.8962 1638,395.8962 L1648,395.8962 " fill="none" style="stroke:#000000;stroke-width:1.0;"/><text fill="#000000" font-family="Verdana" font-size="11" lengthAdjust="spacing" textLength="207" x="1651" y="415.6396">Problemas f&#237;sicos associados ao uso</text><text fill="#000000" font-family="Verdana" font-size="11" lengthAdjust="spacing" textLength="156" x="1651" y="429.0083">prolongado de dispositivos.</text><path d="M1598,410.2649 L1608,410.2649 C1623,410.2649 1623,417.9492 1638,417.9492 L1648,417.9492 " fill="none" style="stroke:#000000;stroke-width:1.0;"/><path d="M1330,356.8962 L1340,356.8962 C1355,356.8962 1355,410.2649 1370,410.2649 L1380,410.2649 " fill="none" style="stroke:#000000;stroke-width:1.0;"/><rect fill="#FFFFFF" height="33.3687" rx="12.5" ry="12.5" style="stroke:#AAAAAA;stroke-width:1.5;" width="170" x="1380" y="446.9492"/><text fill="#000000" font-family="Verdana" font-size="11" lengthAdjust="spacing" textLength="150" x="1390" y="468.0083">Automatiza&#231;&#227;o e Emprego</text><text fill="#000000" font-family="Verdana" font-size="11" lengthAdjust="spacing" textLength="291" x="1603" y="453.6396">Substitui&#231;&#227;o de trabalhos humanos por IA e rob&#244;s.</text><path d="M1550,463.6335 L1560,463.6335 C1575,463.6335 1575,449.2649 1590,449.2649 L1600,449.2649 " fill="none" style="stroke:#000000;stroke-width:1.0;"/><text fill="#000000" font-family="Verdana" font-size="11" lengthAdjust="spacing" textLength="231" x="1603" y="469.0083">Necessidade de requalifica&#231;&#227;o constante</text><text fill="#000000" font-family="Verdana" font-size="11" lengthAdjust="spacing" textLength="171" x="1603" y="482.377">para acompanhar a evolu&#231;&#227;o.</text><path d="M1550,463.6335 L1560,463.6335 C1575,463.6335 1575,471.3179 1590,471.3179 L1600,471.3179 " fill="none" style="stroke:#000000;stroke-width:1.0;"/><path d="M1330,356.8962 L1340,356.8962 C1355,356.8962 1355,463.6335 1370,463.6335 L1380,463.6335 " fill="none" style="stroke:#000000;stroke-width:1.0;"/><path d="M1130,250.1589 L1140,250.1589 C1155,250.1589 1155,356.8962 1170,356.8962 L1180,356.8962 " fill="none" style="stroke:#000000;stroke-width:1.0;"/><text fill="#000000" font-family="Verdana" font-size="11" lengthAdjust="spacing" textLength="58" x="765" y="121.1121">determina</text><rect fill="#FFFFFF" height="33.3687" rx="12.5" ry="12.5" style="stroke:#AAAAAA;stroke-width:1.5;" width="128" x="587" y="20"/><text fill="#000000" font-family="Verdana" font-size="11" lengthAdjust="spacing" textLength="108" x="597" y="41.0591">Hiperconectividade</text><text fill="#000000" font-family="Verdana" font-size="11" lengthAdjust="spacing" textLength="192" x="342" y="26.6904">Redes digitais na vida quotidiana.</text><path d="M587,36.6843 L577,36.6843 C562,36.6843 562,22.3157 547,22.3157 L537,22.3157 " fill="none" style="stroke:#000000;stroke-width:1.0;"/><text fill="#000000" font-family="Verdana" font-size="11" lengthAdjust="spacing" textLength="290" x="244" y="42.0591">Intera&#231;&#227;o em tempo real com pessoas e sistemas,</text><text fill="#000000" font-family="Verdana" font-size="11" lengthAdjust="spacing" textLength="201" x="244" y="55.4277">independentemente da localiza&#231;&#227;o.</text><path d="M587,36.6843 L577,36.6843 C562,36.6843 562,44.3687 547,44.3687 L537,44.3687 " fill="none" style="stroke:#000000;stroke-width:1.0;"/><path d="M765,116.7373 L755,116.7373 C740,116.7373 740,36.6843 725,36.6843 L715,36.6843 " fill="none" style="stroke:#000000;stroke-width:1.0;"/><rect fill="#FFFFFF" height="33.3687" rx="12.5" ry="12.5" style="stroke:#AAAAAA;stroke-width:1.5;" width="230" x="485" y="73.3687"/><text fill="#000000" font-family="Verdana" font-size="11" lengthAdjust="spacing" textLength="210" x="495" y="94.4277">Digitaliza&#231;&#227;o da Experi&#234;ncia Humana</text><text fill="#000000" font-family="Verdana" font-size="11" lengthAdjust="spacing" textLength="250" x="182" y="86.7434">Dados e intera&#231;&#245;es registados digitalmente.</text><path d="M485,90.053 L475,90.053 C460,90.053 460,82.3687 445,82.3687 L435,82.3687 " fill="none" style="stroke:#000000;stroke-width:1.0;"/><text fill="#000000" font-family="Verdana" font-size="11" lengthAdjust="spacing" textLength="272" x="160" y="102.1121">Converg&#234;ncia entre atividades f&#237;sicas e digitais.</text><path d="M485,90.053 L475,90.053 C460,90.053 460,97.7373 445,97.7373 L435,97.7373 " fill="none" style="stroke:#000000;stroke-width:1.0;"/><path d="M765,116.7373 L755,116.7373 C740,116.7373 740,90.053 725,90.053 L715,90.053 " fill="none" style="stroke:#000000;stroke-width:1.0;"/><rect fill="#FFFFFF" height="33.3687" rx="12.5" ry="12.5" style="stroke:#AAAAAA;stroke-width:1.5;" width="202" x="513" y="126.7373"/><text fill="#000000" font-family="Verdana" font-size="11" lengthAdjust="spacing" textLength="182" x="523" y="147.7964">Redes e Infraestruturas Globais</text><text fill="#000000" font-family="Verdana" font-size="11" lengthAdjust="spacing" textLength="200" x="260" y="140.1121">Redes de comunica&#231;&#227;o avan&#231;adas.</text><path d="M513,143.4216 L503,143.4216 C488,143.4216 488,135.7373 473,135.7373 L463,135.7373 " fill="none" style="stroke:#000000;stroke-width:1.0;"/><text fill="#000000" font-family="Verdana" font-size="11" lengthAdjust="spacing" textLength="401" x="59" y="155.4807">Depend&#234;ncia de plataformas digitais para trabalho, lazer, e educa&#231;&#227;o.</text><path d="M513,143.4216 L503,143.4216 C488,143.4216 488,151.106 473,151.106 L463,151.106 " fill="none" style="stroke:#000000;stroke-width:1.0;"/><path d="M765,116.7373 L755,116.7373 C740,116.7373 740,143.4216 725,143.4216 L715,143.4216 " fill="none" style="stroke:#000000;stroke-width:1.0;"/><rect fill="#FFFFFF" height="33.3687" rx="12.5" ry="12.5" style="stroke:#AAAAAA;stroke-width:1.5;" width="293" x="422" y="180.106"/><text fill="#000000" font-family="Verdana" font-size="11" lengthAdjust="spacing" textLength="273" x="432" y="201.165">Interdepend&#234;ncia Entre Humanos e Tecnologias</text><text fill="#000000" font-family="Verdana" font-size="11" lengthAdjust="spacing" textLength="308" x="61" y="193.4807">Uso de intelig&#234;ncia artificial para tomada de decis&#245;es.</text><path d="M422,196.7903 L412,196.7903 C397,196.7903 397,189.106 382,189.106 L372,189.106 " fill="none" style="stroke:#000000;stroke-width:1.0;"/><text fill="#000000" font-family="Verdana" font-size="11" lengthAdjust="spacing" textLength="359" x="10" y="208.8494">Coexist&#234;ncia e colabora&#231;&#227;o entre humanos e sistemas digitais.</text><path d="M422,196.7903 L412,196.7903 C397,196.7903 397,204.4746 382,204.4746 L372,204.4746 " fill="none" style="stroke:#000000;stroke-width:1.0;"/><path d="M765,116.7373 L755,116.7373 C740,116.7373 740,196.7903 725,196.7903 L715,196.7903 " fill="none" style="stroke:#000000;stroke-width:1.0;"/><path d="M876,250.1589 L866,250.1589 C851,250.1589 851,116.7373 836,116.7373 L826,116.7373 " fill="none" style="stroke:#000000;stroke-width:1.0;"/><text fill="#000000" font-family="Verdana" font-size="11" lengthAdjust="spacing" textLength="56" x="767" y="361.271">possibilita</text><rect fill="#FFFFFF" height="33.3687" rx="12.5" ry="12.5" style="stroke:#AAAAAA;stroke-width:1.5;" width="246" x="471" y="233.4746"/><text fill="#000000" font-family="Verdana" font-size="11" lengthAdjust="spacing" textLength="226" x="481" y="254.5337">Inova&#231;&#227;o na Educa&#231;&#227;o e Aprendizagem</text><text fill="#000000" font-family="Verdana" font-size="11" lengthAdjust="spacing" textLength="277" x="141" y="246.8494">Ensino nativo digital, e n&#227;o presencial adaptado.</text><path d="M471,250.1589 L461,250.1589 C446,250.1589 446,242.4746 431,242.4746 L421,242.4746 " fill="none" style="stroke:#000000;stroke-width:1.0;"/><text fill="#000000" font-family="Verdana" font-size="11" lengthAdjust="spacing" textLength="216" x="202" y="262.218">Educa&#231;&#227;o personalizada e adaptativa.</text><path d="M471,250.1589 L461,250.1589 C446,250.1589 446,257.8433 431,257.8433 L421,257.8433 " fill="none" style="stroke:#000000;stroke-width:1.0;"/><path d="M767,356.8962 L757,356.8962 C742,356.8962 742,250.1589 727,250.1589 L717,250.1589 " fill="none" style="stroke:#000000;stroke-width:1.0;"/><rect fill="#FFFFFF" height="33.3687" rx="12.5" ry="12.5" style="stroke:#AAAAAA;stroke-width:1.5;" width="242" x="475" y="286.8433"/><text fill="#000000" font-family="Verdana" font-size="11" lengthAdjust="spacing" textLength="222" x="485" y="307.9023">Transforma&#231;&#227;o das Rela&#231;&#245;es Humanas</text><text fill="#000000" font-family="Verdana" font-size="11" lengthAdjust="spacing" textLength="291" x="131" y="293.5337">Conex&#227;o cont&#237;nua entre indiv&#237;duos e comunidades.</text><path d="M475,303.5276 L465,303.5276 C450,303.5276 450,289.1589 435,289.1589 L425,289.1589 " fill="none" style="stroke:#000000;stroke-width:1.0;"/><text fill="#000000" font-family="Verdana" font-size="11" lengthAdjust="spacing" textLength="154" x="170" y="308.9023">Novas formas de intera&#231;&#227;o</text><text fill="#000000" font-family="Verdana" font-size="11" lengthAdjust="spacing" textLength="252" x="170" y="322.271">(e.g., realidade aumentada, ou metaverso).</text><path d="M475,303.5276 L465,303.5276 C450,303.5276 450,311.2119 435,311.2119 L425,311.2119 " fill="none" style="stroke:#000000;stroke-width:1.0;"/><path d="M767,356.8962 L757,356.8962 C742,356.8962 742,303.5276 727,303.5276 L717,303.5276 " fill="none" style="stroke:#000000;stroke-width:1.0;"/><rect fill="#FFFFFF" height="33.3687" rx="12.5" ry="12.5" style="stroke:#AAAAAA;stroke-width:1.5;" width="228" x="489" y="340.2119"/><text fill="#000000" font-family="Verdana" font-size="11" lengthAdjust="spacing" textLength="208" x="499" y="361.271">Redefini&#231;&#227;o do Trabalho e Economia</text><text fill="#000000" font-family="Verdana" font-size="11" lengthAdjust="spacing" textLength="227" x="209" y="353.5867">Expans&#227;o do trabalho remoto e h&#237;brido.</text><path d="M489,356.8962 L479,356.8962 C464,356.8962 464,349.2119 449,349.2119 L439,349.2119 " fill="none" style="stroke:#000000;stroke-width:1.0;"/><text fill="#000000" font-family="Verdana" font-size="11" lengthAdjust="spacing" textLength="382" x="54" y="368.9553">Automatiza&#231;&#227;o de processos e cria&#231;&#227;o de novas ind&#250;strias digitais.</text><path d="M489,356.8962 L479,356.8962 C464,356.8962 464,364.5806 449,364.5806 L439,364.5806 " fill="none" style="stroke:#000000;stroke-width:1.0;"/><path d="M767,356.8962 L757,356.8962 C742,356.8962 742,356.8962 727,356.8962 L717,356.8962 " fill="none" style="stroke:#000000;stroke-width:1.0;"/><rect fill="#FFFFFF" height="33.3687" rx="12.5" ry="12.5" style="stroke:#AAAAAA;stroke-width:1.5;" width="182" x="535" y="393.5806"/><text fill="#000000" font-family="Verdana" font-size="11" lengthAdjust="spacing" textLength="162" x="545" y="414.6396">Participa&#231;&#227;o C&#237;vica e Pol&#237;tica</text><text fill="#000000" font-family="Verdana" font-size="11" lengthAdjust="spacing" textLength="275" x="207" y="406.9553">Democracia digital e envolvimento c&#237;vico online.</text><path d="M535,410.2649 L525,410.2649 C510,410.2649 510,402.5806 495,402.5806 L485,402.5806 " fill="none" style="stroke:#000000;stroke-width:1.0;"/><text fill="#000000" font-family="Verdana" font-size="11" lengthAdjust="spacing" textLength="281" x="201" y="422.324">Crowdsourcing para iniciativas sociais e pol&#237;ticas.</text><path d="M535,410.2649 L525,410.2649 C510,410.2649 510,417.9492 495,417.9492 L485,417.9492 " fill="none" style="stroke:#000000;stroke-width:1.0;"/><path d="M767,356.8962 L757,356.8962 C742,356.8962 742,410.2649 727,410.2649 L717,410.2649 " fill="none" style="stroke:#000000;stroke-width:1.0;"/><rect fill="#FFFFFF" height="33.3687" rx="12.5" ry="12.5" style="stroke:#AAAAAA;stroke-width:1.5;" width="163" x="554" y="446.9492"/><text fill="#000000" font-family="Verdana" font-size="11" lengthAdjust="spacing" textLength="143" x="564" y="468.0083">Cultura e Entretenimento</text><text fill="#000000" font-family="Verdana" font-size="11" lengthAdjust="spacing" textLength="193" x="308" y="460.324">Novos formatos art&#237;sticos digitais.</text><path d="M554,463.6335 L544,463.6335 C529,463.6335 529,455.9492 514,455.9492 L504,455.9492 " fill="none" style="stroke:#000000;stroke-width:1.0;"/><text fill="#000000" font-family="Verdana" font-size="11" lengthAdjust="spacing" textLength="361" x="140" y="475.6926">Experi&#234;ncias culturais h&#237;bridas, como visitas virtuais a museus.</text><path d="M554,463.6335 L544,463.6335 C529,463.6335 529,471.3179 514,471.3179 L504,471.3179 " fill="none" style="stroke:#000000;stroke-width:1.0;"/><path d="M767,356.8962 L757,356.8962 C742,356.8962 742,463.6335 727,463.6335 L717,463.6335 " fill="none" style="stroke:#000000;stroke-width:1.0;"/><path d="M876,250.1589 L866,250.1589 C851,250.1589 851,356.8962 836,356.8962 L826,356.8962 " fill="none" style="stroke:#000000;stroke-width:1.0;"/><!--SRC=[xLbDSzou4RtpLs2hSh1LycXcz659kQprPSkHrYfBTd9JWIJ8GGm2342E9QVyNrBPmrPIfTCcbxtE7yjhaE1mHjfJaYsfFB9B6W4WyBhxzUk6-BshkAqAgTE2bsmukXwEh_cr5Lp9bAVYUY9BOHEZHLBnb5yBJ8gqJdZ2pRNHIceHVPUA33_PsUdhDrS7Pn-Ee- -aJbITYjegDgcgqkrlREJILODSLfCwhftViXAw6YIcsE15xZPIiVroUsSu78tvBj_EXc9hl3NCDlV6ySxBNRurtB3yyqQoDznCTkAjRBGJxmpZRI6opV7MRZRSszpQUvbnBZPVxcRRemrNtIenAEj2HT7Q_jhQEq3DnDfQz8ATr6xses4ut0fc72jgdU97Omp3K9RHfm6M_c2cd7M-O1AGvxxuVHGfaLNCIKn5QslNB1MOXoivVbjZR-QUarE_0GrZsNkH2iTI2MTmwPZcZARPNsfJoLHopGVDmlrJEe_FVl9m2rQ9eZGU3eFNM2cSCzm1iODhHS7TUeGmYbBW6vuiw1l3nieaiE1Biz40i0dTaJ- -6wPrnpS0B6V_r8dax4rTyCOG83xYvA7M0VJ0ls605HHIFzFOelo9BNXsQFHKsBpThl4s3vvmB9lTEPbu-C4JWmPPunx1JdLckN2LhQlQOk5hPMAiMdIY85VK6ZirPl0frxEV41qNS1nvXxGmiBvKlEAPiV3NF0ObjvnLbiTSJSmwK_oBiEl0uAdU-Aq1vqEIzhSyzfPvTtaVNOb46sLooGFK3ywmbZrA1eSWwMGcyKcrXvi2g6bTAXBfoCDpJueRU3fu4XOh7fkE6FxyINT-8CEYMwzPQPoJiLGOQoq1kPijmC3Zpb1iyQgqi0_Ko4NHOZZMJcfQYGYQ46_oaAP7iDu9xOs14IMH8e3lRGnsEQCzvrAoercA3Ndht2lBjVEX2PnqYBCAX6iewURy4ZUqYfHaTgVhG3BaW9pExjBQkwEXX-TSI2lAQX2mfK2FrJ-Qw9aOv8FrNixpcbWDgElCrAmG5P-I6Sz37X4FeNwoHMp82CyYd7qCQAQG8OkGNx2lNHR8XgCAKz7goUmkjdBkkLSrSQAQPoYuQqr2MUyDit8-eRr9i7ps2n96BaT_ZLqGtn9PjeySpkwco1biSs7Kx0vJNQe3JcAvJvOcofG6UchKL98du6__h6a5ioEfDPzJPsgRI9qtb8PNi0t5rp5dy54IxZ8S6A0TreeIdFn5yKDLQ0vgDqQqJ1kj2XzW1vG3pvk-ZPs3Em5pB6dsnQ6jPo6GH0S3kNLupk6dhMfQm544dAW9aPNv96YwpviStC02KneiRfZapMkJ27NEXxJLqnR9EPV6Ckw3nMP_Wojwj2PIwWcolF5dJhgcWWqdmbhkAUU25yCHteSK3h-lpsL2qobJby-D1Cr-pljXTGj1X17LNAXOGgb3gWacCLJdLay2A5AztCxfTlggmLO8CDXoM8hg5J86_qdaMrYNjQCwpmFQkNpNtNR8JQfHRPeZ8OkI9m39YrZIiuhvmu6ETzeJe5qQLRSFjW9BHQZrNOxoqPvXHL8ZRplIBMYeBosgPsoOa1eL3lBoTos2lBIq8fowXHo4vRrm3PekMsFbfJXlIXVgd-NJsJz8TIBh2zXYI-58LJphh6WqjGBt2a768_on5KqoemJvKd5XaLn9tw_dHilAs4uqiBMtWFBEijn0l9eoWLu21_1-xYZJ2t7g2tlJOuG22Kh8ibOB1H74MYBtUNzLk_k5DTH_zVRF-2SuK7ps3O0G9VtkvdpBuCUkP7ELmwIgCBvPwXS8T6ibYQyFGeSd1nSz5HUJylWcP5AwK1T0-AANg_Eyw9IuA5LFRDFU4O0F5yz-BjfUfjMva9CDaJtiIpxx1G-VDuGMxAHfWC8HgA_2OwRz-ntB0jttBpfEDGqKAQBpXrAua1wrCn68fupECUJXIeVQBwbmkr2rbciBj9Vua8TuNTOnDBQgPMTqg5UkQpM8K102f9Q9P_-QLrVXrIb8WHLU6RAkG-iO6NbESGG2PN7YHKHCG_uGqE_XXVPYWb_- -tlAX4GTlAzkgOvFJEhwGxn2uOnhQ4T4N-wJr0ImOD0lAqnrMuh30vvyogt1XG7w0VD7V6Sd6KVjr_oHU6bTbcNH_LM9j8aIwI5i1qiWkd-D68CAozgnNNpCqDXSoY-2ZKRjRpz02zX7odwqvbyNzbAWWT-0tJlzTmVl_dJm6bCGl5JOPf1pxXVJjit8S3Xyw9Xb77Dtd7IFRcvktfkPFy5GjD4Tz4_n0oVtZ-h6-_jsWs5B6WlHkhUuFp77q0sVWYDX-Ej2E2XJxQ-u47VI7J5USc4R_T_4Yml1BaCpfwj76V95PXgbw0gCj7_yO2-XLhZ8Y0Dpyp1MCQH_IrWJ__MRmUtXzUr3Xjhr97XBKW-5VWgirIOLZnzboj5OS_S4a2AjwaSBiuSJry3aiJhq_r19louLG3cLQ8M-HUDTg_ojyK-qBQ9BrXbwtODUYBeQq4q-NDCMt17JDBUtJwIku6Pkr9F0Ykhtwods6A0-80X7aXT6fz-ABZ06WtCue9z53zmk_ZVN3jnhA_7jkDPVuvVOBfRkquiECl6VSN_uXehIGXjQFP7MNfaw_IOR1qj_STAvUW9DkAkCvVdZRSDNB-fNB-fNB-fNB-fNB-fNB-fNB-fNB-fNB-fNB-fNB-gVs8lw2uLdFfoVCIg_qcWs6eo7uwt1vhEhIGtLZDbecutszhU6-yDjziVZAqRJpwDdho_EfcFcAvFtHVEN4-pmF7gBRf6zhtK5KTndx-3rjqT_20EeHgWFHfDUHcy_diyNx6ozE90LknGMMDZ7y-X8P1ogW2SIawByxRCFLoSlTgCpNE1gD57xa8xe45UYojvYxl8_]--></g></svg>