<?xml version="1.0" encoding="us-ascii" standalone="no"?><svg xmlns="http://www.w3.org/2000/svg" xmlns:xlink="http://www.w3.org/1999/xlink" contentStyleType="text/css" height="395px" preserveAspectRatio="none" style="width:1571px;height:395px;background:#FFFFFF;" version="1.1" viewBox="0 0 1571 395" width="1571px" zoomAndPan="magnify"><defs/><g><rect fill="#FFFFFF" height="100.2119" rx="12.5" ry="12.5" style="stroke:#AAAAAA;stroke-width:1.5;" width="242" x="713" y="146.6843"/><text fill="#000000" font-family="Verdana" font-size="11" font-weight="bold" lengthAdjust="spacing" textLength="125" x="723" y="167.7434">Sociedade em Rede:</text><text fill="#000000" font-family="Verdana" font-size="11" lengthAdjust="spacing" textLength="201" x="723" y="181.1121">- Transforma&#231;&#227;o social baseada na</text><text fill="#000000" font-family="Verdana" font-size="11" lengthAdjust="spacing" textLength="206" x="731" y="194.4807">integra&#231;&#227;o global das redes digitais.</text><text fill="#000000" font-family="Verdana" font-size="11" lengthAdjust="spacing" textLength="221" x="723" y="207.8494">- Redes como estrutura organizacional</text><text fill="#000000" font-family="Verdana" font-size="11" lengthAdjust="spacing" textLength="210" x="731" y="221.218">predominante na era da informa&#231;&#227;o.</text><text fill="#000000" font-family="Verdana" font-size="11" lengthAdjust="spacing" textLength="178" x="723" y="234.5867">- Proposto por Manuel Castells.</text><text fill="#000000" font-family="Verdana" font-size="11" lengthAdjust="spacing" textLength="63" x="1008" y="94.4277">transforma</text><rect fill="#FFFFFF" height="33.3687" rx="12.5" ry="12.5" style="stroke:#AAAAAA;stroke-width:1.5;" width="70" x="1121" y="20"/><text fill="#000000" font-family="Verdana" font-size="11" lengthAdjust="spacing" textLength="50" x="1131" y="41.0591">Trabalho</text><text fill="#000000" font-family="Verdana" font-size="11" lengthAdjust="spacing" textLength="212" x="1244" y="26.6904">Economia baseada no conhecimento.</text><path d="M1191,36.6843 L1201,36.6843 C1216,36.6843 1216,22.3157 1231,22.3157 L1241,22.3157 " fill="none" style="stroke:#000000;stroke-width:1.0;"/><text fill="#000000" font-family="Verdana" font-size="11" lengthAdjust="spacing" textLength="171" x="1244" y="42.0591">Predom&#237;nio dos trabalhadores</text><text fill="#000000" font-family="Verdana" font-size="11" lengthAdjust="spacing" textLength="86" x="1244" y="55.4277">da informa&#231;&#227;o.</text><path d="M1191,36.6843 L1201,36.6843 C1216,36.6843 1216,44.3687 1231,44.3687 L1241,44.3687 " fill="none" style="stroke:#000000;stroke-width:1.0;"/><path d="M1071,90.053 L1081,90.053 C1096,90.053 1096,36.6843 1111,36.6843 L1121,36.6843 " fill="none" style="stroke:#000000;stroke-width:1.0;"/><rect fill="#FFFFFF" height="33.3687" rx="12.5" ry="12.5" style="stroke:#AAAAAA;stroke-width:1.5;" width="152" x="1121" y="73.3687"/><text fill="#000000" font-family="Verdana" font-size="11" lengthAdjust="spacing" textLength="132" x="1131" y="94.4277">Rela&#231;&#245;es Interpessoais</text><text fill="#000000" font-family="Verdana" font-size="11" lengthAdjust="spacing" textLength="199" x="1326" y="73.3748">Redes sociais digitais transformam</text><text fill="#000000" font-family="Verdana" font-size="11" lengthAdjust="spacing" textLength="118" x="1326" y="86.7434">a intera&#231;&#227;o humana.</text><path d="M1273,90.053 L1283,90.053 C1298,90.053 1298,75.6843 1313,75.6843 L1323,75.6843 " fill="none" style="stroke:#000000;stroke-width:1.0;"/><text fill="#000000" font-family="Verdana" font-size="11" lengthAdjust="spacing" textLength="210" x="1326" y="102.1121">Hiperconectividade acompanhada de</text><text fill="#000000" font-family="Verdana" font-size="11" lengthAdjust="spacing" textLength="137" x="1326" y="115.4807">individualismo em rede.</text><path d="M1273,90.053 L1283,90.053 C1298,90.053 1298,104.4216 1313,104.4216 L1323,104.4216 " fill="none" style="stroke:#000000;stroke-width:1.0;"/><path d="M1071,90.053 L1081,90.053 C1096,90.053 1096,90.053 1111,90.053 L1121,90.053 " fill="none" style="stroke:#000000;stroke-width:1.0;"/><rect fill="#FFFFFF" height="33.3687" rx="12.5" ry="12.5" style="stroke:#AAAAAA;stroke-width:1.5;" width="92" x="1121" y="126.7373"/><text fill="#000000" font-family="Verdana" font-size="11" lengthAdjust="spacing" textLength="72" x="1131" y="147.7964">Globaliza&#231;&#227;o</text><text fill="#000000" font-family="Verdana" font-size="11" lengthAdjust="spacing" textLength="215" x="1266" y="140.1121">Interconex&#227;o entre o local e o global.</text><path d="M1213,143.4216 L1223,143.4216 C1238,143.4216 1238,135.7373 1253,135.7373 L1263,135.7373 " fill="none" style="stroke:#000000;stroke-width:1.0;"/><text fill="#000000" font-family="Verdana" font-size="11" lengthAdjust="spacing" textLength="241" x="1266" y="155.4807">Homogeneiza&#231;&#227;o e fragmenta&#231;&#227;o cultural.</text><path d="M1213,143.4216 L1223,143.4216 C1238,143.4216 1238,151.106 1253,151.106 L1263,151.106 " fill="none" style="stroke:#000000;stroke-width:1.0;"/><path d="M1071,90.053 L1081,90.053 C1096,90.053 1096,143.4216 1111,143.4216 L1121,143.4216 " fill="none" style="stroke:#000000;stroke-width:1.0;"/><path d="M955,196.7903 L965,196.7903 C980,196.7903 980,90.053 995,90.053 L1005,90.053 " fill="none" style="stroke:#000000;stroke-width:1.0;"/><text fill="#000000" font-family="Verdana" font-size="11" lengthAdjust="spacing" textLength="91" x="1008" y="274.5337">representa uma</text><text fill="#000000" font-family="Verdana" font-size="11" lengthAdjust="spacing" textLength="73" x="1008" y="287.9023">amea&#231;a pela</text><rect fill="#FFFFFF" height="33.3687" rx="12.5" ry="12.5" style="stroke:#AAAAAA;stroke-width:1.5;" width="109" x="1149" y="180.106"/><text fill="#000000" font-family="Verdana" font-size="11" lengthAdjust="spacing" textLength="89" x="1159" y="201.165">Exclus&#227;o Digital</text><text fill="#000000" font-family="Verdana" font-size="11" lengthAdjust="spacing" textLength="143" x="1311" y="194.4807">Divis&#227;o entre conectados</text><text fill="#000000" font-family="Verdana" font-size="11" lengthAdjust="spacing" textLength="99" x="1311" y="207.8494">e desconectados.</text><path d="M1258,196.7903 L1268,196.7903 C1283,196.7903 1283,196.7903 1298,196.7903 L1308,196.7903 " fill="none" style="stroke:#000000;stroke-width:1.0;"/><path d="M1099,276.8433 L1109,276.8433 C1124,276.8433 1124,196.7903 1139,196.7903 L1149,196.7903 " fill="none" style="stroke:#000000;stroke-width:1.0;"/><rect fill="#FFFFFF" height="33.3687" rx="12.5" ry="12.5" style="stroke:#AAAAAA;stroke-width:1.5;" width="137" x="1149" y="233.4746"/><text fill="#000000" font-family="Verdana" font-size="11" lengthAdjust="spacing" textLength="117" x="1159" y="254.5337">Vigil&#226;ncia e Controlo</text><text fill="#000000" font-family="Verdana" font-size="11" lengthAdjust="spacing" textLength="141" x="1339" y="247.8494">Monitoriza&#231;&#227;o em massa</text><text fill="#000000" font-family="Verdana" font-size="11" lengthAdjust="spacing" textLength="61" x="1339" y="261.218">e controlo.</text><path d="M1286,250.1589 L1296,250.1589 C1311,250.1589 1311,250.1589 1326,250.1589 L1336,250.1589 " fill="none" style="stroke:#000000;stroke-width:1.0;"/><path d="M1099,276.8433 L1109,276.8433 C1124,276.8433 1124,250.1589 1139,250.1589 L1149,250.1589 " fill="none" style="stroke:#000000;stroke-width:1.0;"/><rect fill="#FFFFFF" height="33.3687" rx="12.5" ry="12.5" style="stroke:#AAAAAA;stroke-width:1.5;" width="139" x="1149" y="286.8433"/><text fill="#000000" font-family="Verdana" font-size="11" lengthAdjust="spacing" textLength="119" x="1159" y="307.9023">Fragmenta&#231;&#227;o Social</text><text fill="#000000" font-family="Verdana" font-size="11" lengthAdjust="spacing" textLength="129" x="1341" y="293.5337">Isolamento atrav&#233;s de</text><text fill="#000000" font-family="Verdana" font-size="11" lengthAdjust="spacing" textLength="127" x="1341" y="306.9023">bolhas de informa&#231;&#227;o.</text><path d="M1288,303.5276 L1298,303.5276 C1313,303.5276 1313,295.8433 1328,295.8433 L1338,295.8433 " fill="none" style="stroke:#000000;stroke-width:1.0;"/><text fill="#000000" font-family="Verdana" font-size="11" lengthAdjust="spacing" textLength="151" x="1341" y="322.271">Refor&#231;o do individualismo.</text><path d="M1288,303.5276 L1298,303.5276 C1313,303.5276 1313,317.8962 1328,317.8962 L1338,317.8962 " fill="none" style="stroke:#000000;stroke-width:1.0;"/><path d="M1099,276.8433 L1109,276.8433 C1124,276.8433 1124,303.5276 1139,303.5276 L1149,303.5276 " fill="none" style="stroke:#000000;stroke-width:1.0;"/><rect fill="#FFFFFF" height="33.3687" rx="12.5" ry="12.5" style="stroke:#AAAAAA;stroke-width:1.5;" width="182" x="1149" y="340.2119"/><text fill="#000000" font-family="Verdana" font-size="11" lengthAdjust="spacing" textLength="162" x="1159" y="361.271">Exposi&#231;&#227;o da esfera privada</text><text fill="#000000" font-family="Verdana" font-size="11" lengthAdjust="spacing" textLength="170" x="1384" y="346.9023">Exposi&#231;&#227;o de dados pessoais.</text><path d="M1331,356.8962 L1341,356.8962 C1356,356.8962 1356,342.5276 1371,342.5276 L1381,342.5276 " fill="none" style="stroke:#000000;stroke-width:1.0;"/><text fill="#000000" font-family="Verdana" font-size="11" lengthAdjust="spacing" textLength="175" x="1384" y="362.271">Vulnerabilidade a ciberbullying</text><text fill="#000000" font-family="Verdana" font-size="11" lengthAdjust="spacing" textLength="75" x="1384" y="375.6396">e cibercrime.</text><path d="M1331,356.8962 L1341,356.8962 C1356,356.8962 1356,364.5806 1371,364.5806 L1381,364.5806 " fill="none" style="stroke:#000000;stroke-width:1.0;"/><path d="M1099,276.8433 L1109,276.8433 C1124,276.8433 1124,356.8962 1139,356.8962 L1149,356.8962 " fill="none" style="stroke:#000000;stroke-width:1.0;"/><path d="M955,196.7903 L965,196.7903 C980,196.7903 980,276.8433 995,276.8433 L1005,276.8433 " fill="none" style="stroke:#000000;stroke-width:1.0;"/><text fill="#000000" font-family="Verdana" font-size="11" lengthAdjust="spacing" textLength="67" x="593" y="94.4277">possibilitam</text><rect fill="#FFFFFF" height="33.3687" rx="12.5" ry="12.5" style="stroke:#AAAAAA;stroke-width:1.5;" width="179" x="364" y="20"/><text fill="#000000" font-family="Verdana" font-size="11" lengthAdjust="spacing" textLength="159" x="374" y="41.0591">Tecnologias da Informa&#231;&#227;o.</text><text fill="#000000" font-family="Verdana" font-size="11" lengthAdjust="spacing" textLength="274" x="37" y="26.6904">Infraestrutura central baseada em computa&#231;&#227;o.</text><path d="M364,36.6843 L354,36.6843 C339,36.6843 339,22.3157 324,22.3157 L314,22.3157 " fill="none" style="stroke:#000000;stroke-width:1.0;"/><text fill="#000000" font-family="Verdana" font-size="11" lengthAdjust="spacing" textLength="255" x="10" y="42.0591">Tecnologias de transmiss&#227;o de informa&#231;&#227;o e</text><text fill="#000000" font-family="Verdana" font-size="11" lengthAdjust="spacing" textLength="301" x="10" y="55.4277">comunica&#231;&#227;o como catalisador de mudan&#231;as sociais.</text><path d="M364,36.6843 L354,36.6843 C339,36.6843 339,44.3687 324,44.3687 L314,44.3687 " fill="none" style="stroke:#000000;stroke-width:1.0;"/><path d="M593,90.053 L583,90.053 C568,90.053 568,36.6843 553,36.6843 L543,36.6843 " fill="none" style="stroke:#000000;stroke-width:1.0;"/><rect fill="#FFFFFF" height="33.3687" rx="12.5" ry="12.5" style="stroke:#AAAAAA;stroke-width:1.5;" width="115" x="428" y="73.3687"/><text fill="#000000" font-family="Verdana" font-size="11" lengthAdjust="spacing" textLength="95" x="438" y="94.4277">Economia Global</text><text fill="#000000" font-family="Verdana" font-size="11" lengthAdjust="spacing" textLength="216" x="159" y="79.0591">Integra&#231;&#227;o dos mercados financeiros.</text><path d="M428,90.053 L418,90.053 C403,90.053 403,74.6843 388,74.6843 L378,74.6843 " fill="none" style="stroke:#000000;stroke-width:1.0;"/><text fill="#000000" font-family="Verdana" font-size="11" lengthAdjust="spacing" textLength="159" x="216" y="94.4277">Log&#237;stica com escala global.</text><path d="M428,90.053 L418,90.053 C403,90.053 403,90.053 388,90.053 L378,90.053 " fill="none" style="stroke:#000000;stroke-width:1.0;"/><text fill="#000000" font-family="Verdana" font-size="11" lengthAdjust="spacing" textLength="284" x="91" y="109.7964">Fluxos de capital, bens e servi&#231;os em tempo real.</text><path d="M428,90.053 L418,90.053 C403,90.053 403,105.4216 388,105.4216 L378,105.4216 " fill="none" style="stroke:#000000;stroke-width:1.0;"/><path d="M593,90.053 L583,90.053 C568,90.053 568,90.053 553,90.053 L543,90.053 " fill="none" style="stroke:#000000;stroke-width:1.0;"/><rect fill="#FFFFFF" height="33.3687" rx="12.5" ry="12.5" style="stroke:#AAAAAA;stroke-width:1.5;" width="180" x="363" y="126.7373"/><text fill="#000000" font-family="Verdana" font-size="11" lengthAdjust="spacing" textLength="160" x="373" y="147.7964">Cultura da Virtualidade Real</text><text fill="#000000" font-family="Verdana" font-size="11" lengthAdjust="spacing" textLength="146" x="164" y="132.4277">Novas realidades digitais.</text><path d="M363,143.4216 L353,143.4216 C338,143.4216 338,128.053 323,128.053 L313,128.053 " fill="none" style="stroke:#000000;stroke-width:1.0;"/><text fill="#000000" font-family="Verdana" font-size="11" lengthAdjust="spacing" textLength="269" x="41" y="147.7964">Perce&#231;&#227;o da realidade mediada por tecnologia.</text><path d="M363,143.4216 L353,143.4216 C338,143.4216 338,143.4216 323,143.4216 L313,143.4216 " fill="none" style="stroke:#000000;stroke-width:1.0;"/><text fill="#000000" font-family="Verdana" font-size="11" lengthAdjust="spacing" textLength="204" x="106" y="163.165">Valores moldados pelo mediatismo.</text><path d="M363,143.4216 L353,143.4216 C338,143.4216 338,158.7903 323,158.7903 L313,158.7903 " fill="none" style="stroke:#000000;stroke-width:1.0;"/><path d="M593,90.053 L583,90.053 C568,90.053 568,143.4216 553,143.4216 L543,143.4216 " fill="none" style="stroke:#000000;stroke-width:1.0;"/><path d="M713,196.7903 L703,196.7903 C688,196.7903 688,90.053 673,90.053 L663,90.053 " fill="none" style="stroke:#000000;stroke-width:1.0;"/><text fill="#000000" font-family="Verdana" font-size="11" lengthAdjust="spacing" textLength="46" x="614" y="227.8494">definem</text><rect fill="#FFFFFF" height="33.3687" rx="12.5" ry="12.5" style="stroke:#AAAAAA;stroke-width:1.5;" width="104" x="460" y="180.106"/><text fill="#000000" font-family="Verdana" font-size="11" lengthAdjust="spacing" textLength="84" x="470" y="201.165">Caracter&#237;sticas</text><text fill="#000000" font-family="Verdana" font-size="11" lengthAdjust="spacing" textLength="184" x="215" y="193.4807">Flexibilidade e descentraliza&#231;&#227;o.</text><path d="M460,196.7903 L450,196.7903 C435,196.7903 435,189.106 420,189.106 L410,189.106 " fill="none" style="stroke:#000000;stroke-width:1.0;"/><text fill="#000000" font-family="Verdana" font-size="11" lengthAdjust="spacing" textLength="184" x="223" y="208.8494">Fluxos cont&#237;nuos de informa&#231;&#227;o.</text><path d="M460,196.7903 L450,196.7903 C435,196.7903 435,204.4746 420,204.4746 L410,204.4746 " fill="none" style="stroke:#000000;stroke-width:1.0;"/><path d="M614,223.4746 L604,223.4746 C589,223.4746 589,196.7903 574,196.7903 L564,196.7903 " fill="none" style="stroke:#000000;stroke-width:1.0;"/><rect fill="#FFFFFF" height="33.3687" rx="12.5" ry="12.5" style="stroke:#AAAAAA;stroke-width:1.5;" width="73" x="491" y="233.4746"/><text fill="#000000" font-family="Verdana" font-size="11" lengthAdjust="spacing" textLength="53" x="501" y="254.5337">Impactos</text><text fill="#000000" font-family="Verdana" font-size="11" lengthAdjust="spacing" textLength="360" x="78" y="246.8494">Redes que conectam empresas, governos, ONGs, e indiv&#237;duos.</text><path d="M491,250.1589 L481,250.1589 C466,250.1589 466,242.4746 451,242.4746 L441,242.4746 " fill="none" style="stroke:#000000;stroke-width:1.0;"/><text fill="#000000" font-family="Verdana" font-size="11" lengthAdjust="spacing" textLength="312" x="126" y="262.218">Altera&#231;&#227;o das rela&#231;&#245;es sociais, econ&#243;micas e pol&#237;ticas.</text><path d="M491,250.1589 L481,250.1589 C466,250.1589 466,257.8433 451,257.8433 L441,257.8433 " fill="none" style="stroke:#000000;stroke-width:1.0;"/><path d="M614,223.4746 L604,223.4746 C589,223.4746 589,250.1589 574,250.1589 L564,250.1589 " fill="none" style="stroke:#000000;stroke-width:1.0;"/><path d="M713,196.7903 L703,196.7903 C688,196.7903 688,223.4746 673,223.4746 L663,223.4746 " fill="none" style="stroke:#000000;stroke-width:1.0;"/><text fill="#000000" font-family="Verdana" font-size="11" lengthAdjust="spacing" textLength="62" x="598" y="334.5867">dinamizam</text><rect fill="#FFFFFF" height="33.3687" rx="12.5" ry="12.5" style="stroke:#AAAAAA;stroke-width:1.5;" width="189" x="359" y="286.8433"/><text fill="#000000" font-family="Verdana" font-size="11" lengthAdjust="spacing" textLength="169" x="369" y="307.9023">Poder na Sociedade em Rede</text><text fill="#000000" font-family="Verdana" font-size="11" lengthAdjust="spacing" textLength="228" x="78" y="300.218">Concentra&#231;&#227;o em fluxos de informa&#231;&#227;o.</text><path d="M359,303.5276 L349,303.5276 C334,303.5276 334,295.8433 319,295.8433 L309,295.8433 " fill="none" style="stroke:#000000;stroke-width:1.0;"/><text fill="#000000" font-family="Verdana" font-size="11" lengthAdjust="spacing" textLength="175" x="131" y="315.5867">Conflito com poder tradicional.</text><path d="M359,303.5276 L349,303.5276 C334,303.5276 334,311.2119 319,311.2119 L309,311.2119 " fill="none" style="stroke:#000000;stroke-width:1.0;"/><path d="M598,330.2119 L588,330.2119 C573,330.2119 573,303.5276 558,303.5276 L548,303.5276 " fill="none" style="stroke:#000000;stroke-width:1.0;"/><rect fill="#FFFFFF" height="33.3687" rx="12.5" ry="12.5" style="stroke:#AAAAAA;stroke-width:1.5;" width="91" x="457" y="340.2119"/><text fill="#000000" font-family="Verdana" font-size="11" lengthAdjust="spacing" textLength="71" x="467" y="361.271">Contrapoder</text><text fill="#000000" font-family="Verdana" font-size="11" lengthAdjust="spacing" textLength="158" x="246" y="353.5867">Movimentos sociais digitais.</text><path d="M457,356.8962 L447,356.8962 C432,356.8962 432,349.2119 417,349.2119 L407,349.2119 " fill="none" style="stroke:#000000;stroke-width:1.0;"/><text fill="#000000" font-family="Verdana" font-size="11" lengthAdjust="spacing" textLength="325" x="79" y="368.9553">Exemplos: Primavera &#193;rabe, activismo ambiental online.</text><path d="M457,356.8962 L447,356.8962 C432,356.8962 432,364.5806 417,364.5806 L407,364.5806 " fill="none" style="stroke:#000000;stroke-width:1.0;"/><path d="M598,330.2119 L588,330.2119 C573,330.2119 573,356.8962 558,356.8962 L548,356.8962 " fill="none" style="stroke:#000000;stroke-width:1.0;"/><path d="M713,196.7903 L703,196.7903 C688,196.7903 688,330.2119 673,330.2119 L663,330.2119 " fill="none" style="stroke:#000000;stroke-width:1.0;"/><!--SRC=[xLdBRYIt5TtNLz105hOmqwfkjNgaziRHSpIHPWH98tidtAfYTJDcaMMIrPOSp2A_aYm6NipAo1VqZ-MGzUY7P2084aE2r0AaBZukx-FSSozLtrb7nXL2PGMLBExVnF6DrQdW6MNyXXStXlk_DpohKaf9tsHY8Xp9wAkCvq9nTdfo_FPgx_JZOVILKAciCbuPoQREbNQykJaHrlMmOLebbUKcrSfnvNgfBZQfcDZDZ6-_sHx5SNz0ExITntmu6CRvrkuW6RtPeM6yQUZdpNGttaf7oJ3lZv9Hd6npdcyDXZjvlBirt7sJ4_6jDplvTd_JkZl9UsLLo2ZQ66ziNBQ6C5wm2nY2iUWrkpAaRAvDGVFFytzgvkqboHAod39YYYB611ITc6R1HEe42pAopBl3ije9mlOOWxoBC0QRDEFMcSfLXfWs4rBY5qg5Ld0NOoMsQZYQ81bdC8v5E4seXIOz23itkjJMQLPgmyv8LLooVRAEIsbxtqQHvBbZLcGS9cxSO9Mr8X4IwXGOs61NF5LQwec0iX1_iY8U2x07OuOMcgQ8Y5co7xw2BMNbLdQDLmHpvhmJ2s6jTn2Ub-rWd4KGKIcHDWF1EIa1EC9I1ikmewWoKlFF41S28Bnvte93e0IE8dOStDuflHIGJ5jM04xal-JUfoaNHjlMmbCzcN-n3iVxan6Lb2GrOMpN7CdgLWTJKYezf5-nX2iBtG7KcPX_nYHSuNXHQeIzsSZsAncy1aTT2-CgM1GGTi4xLT_hMK1ACxK4bsR1ELJdZIMqM0YJCk4Zu4FlEdUtkwv9QWDfXPPPCBpaKjTxdB050XKGKUTb3OPzCfGwRXfdsCvqVXj0K-S6jjW6101i7NG0UyLDFdFdNrHLUqoieugT52LEqkq9TKhyL76_aQS09to93B1aNx69dd6ZDBvzU7-CtrvU9cRpBrcr2E6V9VHkmntSAVtJltW75so4yFblXRSCGaejvr-2cQqd08m25jM-EDSPDpxnxh52S-A-LhKN6WmNBEyW8Xv88wpFaNS1t3ZSIyVcJDGPtw15Uu5XijbrfcUYm36wi-CUF0vluIkfxHXa80gQUQQO_zrGmbynE5dCVBGP5Oc072IkLX8HXz56JARBvE0wegkf0I98JdLxJ9jd7V5vKzIKfxM2RUAV1-92y4MTUAuMuzEOssYTmkeSlbX4ooUkARcr6YOs8cjuhDk_f6yHKQ3WDXZJgY15jN3iVolAK4nuy4Q89NdE8ZNrXi3-W2YH-VJqpa8mFNCtsjN4qc9zYM22pDiGVSIDCysa1dKm_ssLFTw2q2PSyLO8be1K9zvnBUNLH25hC8uDz_3tqmosH5Hmh2EVmzJGtYsgPs3JWwR4rhOU-7WlL6ho2O68wiJjdXlZhh5Rpl-Xu5ie5G087cc4dMa5n9g5rWKho5gAWk2miX5pj6hDPQYHZPGJgoK5Z312p6RpNtsIH8a6AkwdoxST9s0Gj0eGiTNmz1e7e9Y9ZXQvpJtmIoDcY6cN6ajhO7_3WpMuMi1ULr9XQqTmA08YuIQffBmJQk9jzSyfaiiZ8eg-usX_wXO83_zjHpGLWL9ATmTITbETsUKXSiw8f7986V-nFmfLWfqBXj9kk7Pt9T_Ve_J7YT6LolOH2CFwD1gbWwZvBBOaQ-loF8_khqg5IINFzgTD4M1_GnVY2QgoR0TVSmJyKlp2MR_VFBr7KDarDwZB57rQaIM1aY20tJlzJtiVVjWxnbIY3NYk7YIYiDYBhKVYE7xec7Kz5kuuwhPkRMtTcrdiO8oCqJyldn86ZkuVrOqlo-q6Mv5-h8tMlSNB4miTkk4Jf54x_6ab7Buycjzn8RhV4H-ikR29_X_YnPLWupVAg02RkaSPybLaQYbz6T3AFdvbBpbQ8dGPU_hsOLrvx7_MT4t3vmzJTqdVK89pIlcJmAtl050Ddm9g5Jh2nwzbXWkRRmuVlwP8g-hHghcaPsLv-bWT-d-ef9_M2Y1wFhH2pz5usp1_O_mJROkaoFafxffxIo7gQa0t-N1DMt57ugV9t3sHkX9kHaz2LrI_tq-nnw3g0uHm8AZGAdiklC1mmQS97B2SHG_SBlutrmxSPXr_FguDb_SrjFEr-_IgWtJoLzmVdb5HMcb3tHDfxQMkicVPE1Z_tpqraK-W2RTE6veytZRyvPNWool1brU2Bwy4Nru9lhmIV7ab-F9Ay3z-9NWkKQ4_dfqov9r5AhD-Rn0FXhsjhw-c5JlY2Ujli_xkU1YFusts_U4LyzFVH5yVdv_E1W1r1N87fcrzMuE4Rw9tD2DsKU6wNl0n-r1ozUxWB-q0ErGp52_b7HgzkpvRB1WDN-y9novHZq0krsVH0Sy9iCAEL8FT9cFsyUhezKvqYgQnGZSs1aYYVRHXpjnXxlBV]--></g></svg>