<?xml version="1.0" encoding="us-ascii" standalone="no"?><svg xmlns="http://www.w3.org/2000/svg" xmlns:xlink="http://www.w3.org/1999/xlink" contentStyleType="text/css" height="502px" preserveAspectRatio="none" style="width:1736px;height:502px;background:#FFFFFF;" version="1.1" viewBox="0 0 1736 502" width="1736px" zoomAndPan="magnify"><defs/><g><rect fill="#FFFFFF" height="86.8433" rx="12.5" ry="12.5" style="stroke:#AAAAAA;stroke-width:1.5;" width="333" x="708" y="206.7373"/><text fill="#000000" font-family="Verdana" font-size="11" font-weight="bold" lengthAdjust="spacing" textLength="204" x="718" y="227.7964">Ecossistema de Educa&#231;&#227;o Digital</text><text fill="#000000" font-family="Verdana" font-size="11" lengthAdjust="spacing" textLength="265" x="718" y="241.165">- Ambiente integrado com tecnologias digitais,</text><text fill="#000000" font-family="Verdana" font-size="11" lengthAdjust="spacing" textLength="313" x="718" y="254.5337">pr&#225;ticas pedag&#243;gicas inovadoras e redes de intera&#231;&#227;o.</text><text fill="#000000" font-family="Verdana" font-size="11" lengthAdjust="spacing" textLength="302" x="718" y="267.9023">- Modelos biol&#243;gicos de adapta&#231;&#227;o, interdepend&#234;ncia</text><text fill="#000000" font-family="Verdana" font-size="11" lengthAdjust="spacing" textLength="66" x="718" y="281.271">e evolu&#231;&#227;o.</text><text fill="#000000" font-family="Verdana" font-size="11" lengthAdjust="spacing" textLength="84" x="1094" y="147.7964">compostos por</text><rect fill="#FFFFFF" height="33.3687" rx="12.5" ry="12.5" style="stroke:#AAAAAA;stroke-width:1.5;" width="189" x="1228" y="20"/><text fill="#000000" font-family="Verdana" font-size="11" lengthAdjust="spacing" textLength="169" x="1238" y="41.0591">Plataformas e Infraestruturas</text><text fill="#000000" font-family="Verdana" font-size="11" lengthAdjust="spacing" textLength="174" x="1470" y="33.3748">Disponibiliza&#231;&#227;o de conte&#250;dos.</text><path d="M1417,36.6843 L1427,36.6843 C1442,36.6843 1442,29 1457,29 L1467,29 " fill="none" style="stroke:#000000;stroke-width:1.0;"/><text fill="#000000" font-family="Verdana" font-size="11" lengthAdjust="spacing" textLength="187" x="1470" y="48.7434">Intera&#231;&#227;o s&#237;ncrona e ass&#237;ncrona.</text><path d="M1417,36.6843 L1427,36.6843 C1442,36.6843 1442,44.3687 1457,44.3687 L1467,44.3687 " fill="none" style="stroke:#000000;stroke-width:1.0;"/><path d="M1178,143.4216 L1188,143.4216 C1203,143.4216 1203,36.6843 1218,36.6843 L1228,36.6843 " fill="none" style="stroke:#000000;stroke-width:1.0;"/><rect fill="#FFFFFF" height="33.3687" rx="12.5" ry="12.5" style="stroke:#AAAAAA;stroke-width:1.5;" width="182" x="1228" y="73.3687"/><text fill="#000000" font-family="Verdana" font-size="11" lengthAdjust="spacing" textLength="162" x="1238" y="94.4277">Recursos Educativos Digitais</text><text fill="#000000" font-family="Verdana" font-size="11" lengthAdjust="spacing" textLength="257" x="1463" y="94.4277">Democratiza&#231;&#227;o do acesso ao conhecimento.</text><path d="M1410,90.053 L1420,90.053 C1435,90.053 1435,90.053 1450,90.053 L1460,90.053 " fill="none" style="stroke:#000000;stroke-width:1.0;"/><path d="M1178,143.4216 L1188,143.4216 C1203,143.4216 1203,90.053 1218,90.053 L1228,90.053 " fill="none" style="stroke:#000000;stroke-width:1.0;"/><rect fill="#FFFFFF" height="33.3687" rx="12.5" ry="12.5" style="stroke:#AAAAAA;stroke-width:1.5;" width="157" x="1228" y="126.7373"/><text fill="#000000" font-family="Verdana" font-size="11" lengthAdjust="spacing" textLength="137" x="1238" y="147.7964">Aprendizagem em Rede</text><text fill="#000000" font-family="Verdana" font-size="11" lengthAdjust="spacing" textLength="217" x="1438" y="133.4277">Redes sociais e comunidades virtuais.</text><path d="M1385,143.4216 L1395,143.4216 C1410,143.4216 1410,129.053 1425,129.053 L1435,129.053 " fill="none" style="stroke:#000000;stroke-width:1.0;"/><text fill="#000000" font-family="Verdana" font-size="11" lengthAdjust="spacing" textLength="201" x="1438" y="148.7964">Colabora&#231;&#227;o e desenvolvimento de</text><text fill="#000000" font-family="Verdana" font-size="11" lengthAdjust="spacing" textLength="124" x="1438" y="162.165">compet&#234;ncias sociais.</text><path d="M1385,143.4216 L1395,143.4216 C1410,143.4216 1410,151.106 1425,151.106 L1435,151.106 " fill="none" style="stroke:#000000;stroke-width:1.0;"/><path d="M1178,143.4216 L1188,143.4216 C1203,143.4216 1203,143.4216 1218,143.4216 L1228,143.4216 " fill="none" style="stroke:#000000;stroke-width:1.0;"/><rect fill="#FFFFFF" height="33.3687" rx="12.5" ry="12.5" style="stroke:#AAAAAA;stroke-width:1.5;" width="209" x="1228" y="180.106"/><text fill="#000000" font-family="Verdana" font-size="11" lengthAdjust="spacing" textLength="189" x="1238" y="201.165">Pr&#225;ticas Pedag&#243;gicas Inovadoras</text><text fill="#000000" font-family="Verdana" font-size="11" lengthAdjust="spacing" textLength="54" x="1490" y="186.7964">Exemplo:</text><text fill="#000000" font-family="Verdana" font-size="11" font-style="italic" lengthAdjust="spacing" textLength="104" x="1548" y="186.7964">Flipped Classroom</text><text fill="#000000" font-family="Verdana" font-size="11" lengthAdjust="spacing" textLength="4" x="1652" y="186.7964">.</text><path d="M1437,196.7903 L1447,196.7903 C1462,196.7903 1462,182.4216 1477,182.4216 L1487,182.4216 " fill="none" style="stroke:#000000;stroke-width:1.0;"/><text fill="#000000" font-family="Verdana" font-size="11" lengthAdjust="spacing" textLength="234" x="1490" y="202.165">Aumento da motiva&#231;&#227;o e intera&#231;&#227;o entre</text><text fill="#000000" font-family="Verdana" font-size="11" lengthAdjust="spacing" textLength="132" x="1490" y="215.5337">docentes e estudantes.</text><path d="M1437,196.7903 L1447,196.7903 C1462,196.7903 1462,204.4746 1477,204.4746 L1487,204.4746 " fill="none" style="stroke:#000000;stroke-width:1.0;"/><path d="M1178,143.4216 L1188,143.4216 C1203,143.4216 1203,196.7903 1218,196.7903 L1228,196.7903 " fill="none" style="stroke:#000000;stroke-width:1.0;"/><rect fill="#FFFFFF" height="33.3687" rx="12.5" ry="12.5" style="stroke:#AAAAAA;stroke-width:1.5;" width="168" x="1228" y="233.4746"/><text fill="#000000" font-family="Verdana" font-size="11" lengthAdjust="spacing" textLength="148" x="1238" y="254.5337">Monitoriza&#231;&#227;o e Avalia&#231;&#227;o</text><text fill="#000000" font-family="Verdana" font-size="11" lengthAdjust="spacing" textLength="255" x="1449" y="246.8494">Personaliza&#231;&#227;o das estrat&#233;gias pedag&#243;gicas.</text><path d="M1396,250.1589 L1406,250.1589 C1421,250.1589 1421,242.4746 1436,242.4746 L1446,242.4746 " fill="none" style="stroke:#000000;stroke-width:1.0;"/><text fill="#000000" font-family="Verdana" font-size="11" lengthAdjust="spacing" textLength="176" x="1449" y="262.218">Melhoria da efic&#225;cia educativa.</text><path d="M1396,250.1589 L1406,250.1589 C1421,250.1589 1421,257.8433 1436,257.8433 L1446,257.8433 " fill="none" style="stroke:#000000;stroke-width:1.0;"/><path d="M1178,143.4216 L1188,143.4216 C1203,143.4216 1203,250.1589 1218,250.1589 L1228,250.1589 " fill="none" style="stroke:#000000;stroke-width:1.0;"/><path d="M1041,250.1589 L1051,250.1589 C1066,250.1589 1066,143.4216 1081,143.4216 L1091,143.4216 " fill="none" style="stroke:#000000;stroke-width:1.0;"/><text fill="#000000" font-family="Verdana" font-size="11" lengthAdjust="spacing" textLength="88" x="1094" y="387.9553">amea&#231;ados por</text><rect fill="#FFFFFF" height="33.3687" rx="12.5" ry="12.5" style="stroke:#AAAAAA;stroke-width:1.5;" width="233" x="1232" y="286.8433"/><text fill="#000000" font-family="Verdana" font-size="11" lengthAdjust="spacing" textLength="213" x="1242" y="307.9023">Infraestruturas tecnol&#243;gicas robustas</text><path d="M1182,383.5806 L1192,383.5806 C1207,383.5806 1207,303.5276 1222,303.5276 L1232,303.5276 " fill="none" style="stroke:#000000;stroke-width:1.0;"/><rect fill="#FFFFFF" height="33.3687" rx="12.5" ry="12.5" style="stroke:#AAAAAA;stroke-width:1.5;" width="201" x="1232" y="340.2119"/><text fill="#000000" font-family="Verdana" font-size="11" lengthAdjust="spacing" textLength="181" x="1242" y="361.271">Forma&#231;&#227;o cont&#237;nua de docentes</text><path d="M1182,383.5806 L1192,383.5806 C1207,383.5806 1207,356.8962 1222,356.8962 L1232,356.8962 " fill="none" style="stroke:#000000;stroke-width:1.0;"/><rect fill="#FFFFFF" height="33.3687" rx="12.5" ry="12.5" style="stroke:#AAAAAA;stroke-width:1.5;" width="268" x="1232" y="393.5806"/><text fill="#000000" font-family="Verdana" font-size="11" lengthAdjust="spacing" textLength="248" x="1242" y="414.6396">Equidade no acesso &#224;s ferramentas digitais</text><path d="M1182,383.5806 L1192,383.5806 C1207,383.5806 1207,410.2649 1222,410.2649 L1232,410.2649 " fill="none" style="stroke:#000000;stroke-width:1.0;"/><rect fill="#FFFFFF" height="33.3687" rx="12.5" ry="12.5" style="stroke:#AAAAAA;stroke-width:1.5;" width="278" x="1232" y="446.9492"/><text fill="#000000" font-family="Verdana" font-size="11" lengthAdjust="spacing" textLength="258" x="1242" y="468.0083">Adapta&#231;&#227;o &#224;s r&#225;pidas evolu&#231;&#245;es tecnol&#243;gicas</text><path d="M1182,383.5806 L1192,383.5806 C1207,383.5806 1207,463.6335 1222,463.6335 L1232,463.6335 " fill="none" style="stroke:#000000;stroke-width:1.0;"/><path d="M1041,250.1589 L1051,250.1589 C1066,250.1589 1066,383.5806 1081,383.5806 L1091,383.5806 " fill="none" style="stroke:#000000;stroke-width:1.0;"/><text fill="#000000" font-family="Verdana" font-size="11" lengthAdjust="spacing" textLength="63" x="592" y="254.5337">caracteriza</text><rect fill="#FFFFFF" height="33.3687" rx="12.5" ry="12.5" style="stroke:#AAAAAA;stroke-width:1.5;" width="126" x="416" y="153.4216"/><text fill="#000000" font-family="Verdana" font-size="11" lengthAdjust="spacing" textLength="106" x="426" y="174.4807">Interconectividade</text><text fill="#000000" font-family="Verdana" font-size="11" lengthAdjust="spacing" textLength="227" x="136" y="159.1121">Dispositivos, plataformas e utilizadores.</text><path d="M416,170.106 L406,170.106 C391,170.106 391,154.7373 376,154.7373 L366,154.7373 " fill="none" style="stroke:#000000;stroke-width:1.0;"/><text fill="#000000" font-family="Verdana" font-size="11" lengthAdjust="spacing" textLength="219" x="144" y="174.4807">Sistemas de gest&#227;o de aprendizagem.</text><path d="M416,170.106 L406,170.106 C391,170.106 391,170.106 376,170.106 L366,170.106 " fill="none" style="stroke:#000000;stroke-width:1.0;"/><text fill="#000000" font-family="Verdana" font-size="11" lengthAdjust="spacing" textLength="353" x="10" y="189.8494">Ferramentas colaborativas e plataformas de avalia&#231;&#227;o digital.</text><path d="M416,170.106 L406,170.106 C391,170.106 391,185.4746 376,185.4746 L366,185.4746 " fill="none" style="stroke:#000000;stroke-width:1.0;"/><path d="M592,250.1589 L582,250.1589 C567,250.1589 567,170.106 552,170.106 L542,170.106 " fill="none" style="stroke:#000000;stroke-width:1.0;"/><rect fill="#FFFFFF" height="33.3687" rx="12.5" ry="12.5" style="stroke:#AAAAAA;stroke-width:1.5;" width="146" x="396" y="206.7903"/><text fill="#000000" font-family="Verdana" font-size="11" lengthAdjust="spacing" textLength="126" x="406" y="227.8494">Adapta&#231;&#227;o e Evolu&#231;&#227;o</text><text fill="#000000" font-family="Verdana" font-size="11" lengthAdjust="spacing" textLength="169" x="174" y="220.165">Personaliza&#231;&#227;o de conte&#250;dos.</text><path d="M396,223.4746 L386,223.4746 C371,223.4746 371,215.7903 356,215.7903 L346,215.7903 " fill="none" style="stroke:#000000;stroke-width:1.0;"/><text fill="#000000" font-family="Verdana" font-size="11" lengthAdjust="spacing" textLength="282" x="61" y="235.5337">Ajuste cont&#237;nuo &#224;s necessidades dos utilizadores.</text><path d="M396,223.4746 L386,223.4746 C371,223.4746 371,231.1589 356,231.1589 L346,231.1589 " fill="none" style="stroke:#000000;stroke-width:1.0;"/><path d="M592,250.1589 L582,250.1589 C567,250.1589 567,223.4746 552,223.4746 L542,223.4746 " fill="none" style="stroke:#000000;stroke-width:1.0;"/><rect fill="#FFFFFF" height="33.3687" rx="12.5" ry="12.5" style="stroke:#AAAAAA;stroke-width:1.5;" width="149" x="393" y="260.1589"/><text fill="#000000" font-family="Verdana" font-size="11" lengthAdjust="spacing" textLength="129" x="403" y="281.218">Partilha e Colabora&#231;&#227;o</text><text fill="#000000" font-family="Verdana" font-size="11" lengthAdjust="spacing" textLength="196" x="144" y="273.5337">Cria&#231;&#227;o de conhecimento coletivo.</text><path d="M393,276.8433 L383,276.8433 C368,276.8433 368,269.1589 353,269.1589 L343,269.1589 " fill="none" style="stroke:#000000;stroke-width:1.0;"/><text fill="#000000" font-family="Verdana" font-size="11" lengthAdjust="spacing" textLength="195" x="145" y="288.9023">Participa&#231;&#227;o ativa dos estudantes.</text><path d="M393,276.8433 L383,276.8433 C368,276.8433 368,284.5276 353,284.5276 L343,284.5276 " fill="none" style="stroke:#000000;stroke-width:1.0;"/><path d="M592,250.1589 L582,250.1589 C567,250.1589 567,276.8433 552,276.8433 L542,276.8433 " fill="none" style="stroke:#000000;stroke-width:1.0;"/><rect fill="#FFFFFF" height="33.3687" rx="12.5" ry="12.5" style="stroke:#AAAAAA;stroke-width:1.5;" width="87" x="455" y="313.5276"/><text fill="#000000" font-family="Verdana" font-size="11" lengthAdjust="spacing" textLength="67" x="465" y="334.5867">Competi&#231;&#227;o</text><text fill="#000000" font-family="Verdana" font-size="11" lengthAdjust="spacing" textLength="193" x="209" y="320.218">Diversidade de atores e recursos.</text><path d="M455,330.2119 L445,330.2119 C430,330.2119 430,315.8433 415,315.8433 L405,315.8433 " fill="none" style="stroke:#000000;stroke-width:1.0;"/><text fill="#000000" font-family="Verdana" font-size="11" lengthAdjust="spacing" textLength="265" x="137" y="335.5867">Est&#237;mulo &#224; inova&#231;&#227;o e melhoria dos conte&#250;dos</text><text fill="#000000" font-family="Verdana" font-size="11" lengthAdjust="spacing" textLength="109" x="137" y="348.9553">educativos digitais.</text><path d="M455,330.2119 L445,330.2119 C430,330.2119 430,337.8962 415,337.8962 L405,337.8962 " fill="none" style="stroke:#000000;stroke-width:1.0;"/><path d="M592,250.1589 L582,250.1589 C567,250.1589 567,330.2119 552,330.2119 L542,330.2119 " fill="none" style="stroke:#000000;stroke-width:1.0;"/><path d="M708,250.1589 L698,250.1589 C683,250.1589 683,250.1589 668,250.1589 L658,250.1589 " fill="none" style="stroke:#000000;stroke-width:1.0;"/><!--SRC=[xLbBRnit4Bxlhs207X8ZiLPFs-ebViYfKxinR2VjpU1oPrTCTyaD7qgS8l-bGGz52-HKzDAh_bY7t8TMieEYG1jOi9KWaRX3pZVVV3CaiK-reShaNCGvBKZOlGm7b_II2pcZZCfBo2yXjin_ZtdA3Ss21p4aN00vFdhspSNUySj9y80BbjaOhCh8r9X2ZpkTb6kpYHEcDh8Q59F2W32RJEOTcgUw4yDmQpWAmswFRjDX4iAWDmYJ_aul6crjqq7OKVHjX-s4VJQA1abt58t2Q0YGz7k3xIJSwGzsjX9AeR-rdGox7MskCjWiR9u5mSPuOsF2fDQ8079AOY0J5yFyr_alaXoKKMni14_8RXvn10M4up-feh4aY8yOO49cCkLKap9ehXy7XPf_D9pXM04nJUT_fFw7fogM2hy2KH23TWxTWghqk8cEJcGCcTGauZBp4wMteZ4jJ6drk9mIGm4Ydlyk6AS149Z9p9QhV1q46II6Q1u3nhXnIHXLbE4S_fxYxmrov1P0de4PFkCnHJiSHiC3hWkfEOvA_PWK6JKqaIhtYAtX6Iw00O3UhEpFI-8yn1IqSRGvj8L2R6YSGbwR7e9ID4SEqPh9Z4P81FhnIxSTkUapcl4g2PMK_2faTy42pfeq8LSkJa5fAQX3MKq6ujKq_okM3URTrnP1-mVpJy9AClzP4wG2K0QE2eI0d5-BbfoY-dasfUXvlyBVThwl-9BNAJ3kmdL2oS0nMWFm2p5ULEQU1UyJ2RGnHRoLntsP5pYpxUM0pp18ZzCpPHm-BoTcCVWwoF44S_4fjvcBhXHUpLeEsLGYLkznmKxWYzSdlb6oKvBYwNH9IeX9QeDMXLGbBqigEHA9eXY8iiQYqjkw4ZpY_v2ReqKn48tPOGhpYQjItVmggJchuYthjOHzKC6kVK8kcTDOun6vTbd6_-HIXYfnjKHByEyPD6LnvejLIomrxe944goen3BZobX7LiNyaZQ8ov86WKgTLMh0HPdFQrcwpR98jcUpwHsdxTvnrFIE2jBa7UH59iUaqpdCU86DXkndI9EIs3OxDPXTMpcb99TEPpMgLjSXQA4WY2Lp3Sw5rz9X2Ue4SuTAQvW4ihieqSyM7_MAnWpCV_CDijqCwuIVD6h4D2USpJyY6QJM8YRRYmxx1YvAuvRgLdHMTUAQBYLnAp4bMUJGQRF4L1UzR_LrnDveyiQMLIKQbRY-aBIwLjpIrr8hSeQOjeBxaAkkz2UiW0gUehogxJC8dlxxtNIAHOZ2BCmL5h6PobYtXwWnYaVMnUC- -aSk2cpxES5cfq2QgmBszoZxCLNIYXXLAXNfqj68zOBgivWIhTWbIH9Sjs9SiGpY_Mcrkv2V0a9mQ-HMastycY3Pv_mza6wt-lKTKabUuTv51Gq-BAtbjEiN8DUyVxNtueUzP_W8ooe6LGvIIhsnMxOS2SFm9ZUhE1Pq73PJ-_t-jIUB6OHGfUJRjXS_S7ZTLJFUNhSPh9TqOtMshXct7ommDCD7AE5w-CDIEZ07Kds6GZmvZQ2tGc6L_I_2ubAoYte35EPMfdnPcJBBt3b92dtxmPx36mk2mPvyTpDM2DsV5QpCVxuOt1PUlmqbs6_NGhV-x2DW7LGhy1fn-r76U7ACg5u3f5XMzjR2RE742pIxhOJ-3plfXvKD46-pU1IwYy7hglDNmQ_fiIZZ2HnpWVlN8aND7j0yl7bFMw8ZSe-fkbgJVGLlO39R2wou-ts-n6u3r1iQmW6dkHJnNUaBX630AHBGhg8RRXV_pRK3xx46xWwr_jg-edPOkKyl4oIZrtX_k4ERqj8nrAp9qJwJDhwJ1mU5ugGYpTRW4AwDL3IzlSVm-zT9zw-JxbydtRzEkd-TTFywwGk_JiAg4URboJ7nzIm5wMxsmjvWi__mOcgnMKQaEoJTdV4W78T3yltaWhZ7ZuA7pqwFPpqKZLKCGy3-wy_xkCAZu3asJd9cySANmvYymFtX-S6tzG2P29Ig52wOuFchauN1QF1aZnjo3Wgna5SdmG4ar6O6Pp0PSv6EoSkBmoVRmJ4UEooMnnWb4-pZHcxK5Jux_ni0]--></g></svg>