<?xml version="1.0" encoding="us-ascii" standalone="no"?><svg xmlns="http://www.w3.org/2000/svg" xmlns:xlink="http://www.w3.org/1999/xlink" contentStyleType="text/css" height="555px" preserveAspectRatio="none" style="width:1247px;height:555px;background:#FFFFFF;" version="1.1" viewBox="0 0 1247 555" width="1247px" zoomAndPan="magnify"><defs/><g><rect fill="#FFFFFF" height="33.3687" rx="12.5" ry="12.5" style="stroke:#AAAAAA;stroke-width:1.5;" width="115" x="517" y="260.1589"/><text fill="#000000" font-family="Verdana" font-size="11" lengthAdjust="spacing" textLength="95" x="527" y="281.218">Educomunica&#231;&#227;o</text><text fill="#000000" font-family="Verdana" font-size="11" lengthAdjust="spacing" textLength="94" x="685" y="227.8494">caraterizada por</text><text fill="#000000" font-family="Verdana" font-size="11" lengthAdjust="spacing" textLength="259" x="832" y="197.1121">Intera&#231;&#227;o e participa&#231;&#227;o ativa de estudantes.</text><path d="M779,223.4746 L789,223.4746 C804,223.4746 804,192.7373 819,192.7373 L829,192.7373 " fill="none" style="stroke:#000000;stroke-width:1.0;"/><text fill="#000000" font-family="Verdana" font-size="11" lengthAdjust="spacing" textLength="198" x="832" y="212.4807">Incentivo ao o pensamento cr&#237;tico.</text><path d="M779,223.4746 L789,223.4746 C804,223.4746 804,208.106 819,208.106 L829,208.106 " fill="none" style="stroke:#000000;stroke-width:1.0;"/><text fill="#000000" font-family="Verdana" font-size="11" lengthAdjust="spacing" textLength="156" x="832" y="227.8494">Foco na literacia medi&#225;tica.</text><path d="M779,223.4746 L789,223.4746 C804,223.4746 804,223.4746 819,223.4746 L829,223.4746 " fill="none" style="stroke:#000000;stroke-width:1.0;"/><text fill="#000000" font-family="Verdana" font-size="11" lengthAdjust="spacing" textLength="296" x="832" y="243.218">Promo&#231;&#227;o de compet&#234;ncias digitais e colaborativas.</text><path d="M779,223.4746 L789,223.4746 C804,223.4746 804,238.8433 819,238.8433 L829,238.8433 " fill="none" style="stroke:#000000;stroke-width:1.0;"/><text fill="#000000" font-family="Verdana" font-size="11" lengthAdjust="spacing" textLength="403" x="832" y="258.5867">Alinhamento com a transforma&#231;&#227;o social provocada pelas tecnologias.</text><path d="M779,223.4746 L789,223.4746 C804,223.4746 804,254.2119 819,254.2119 L829,254.2119 " fill="none" style="stroke:#000000;stroke-width:1.0;"/><path d="M632,276.8433 L642,276.8433 C657,276.8433 657,223.4746 672,223.4746 L682,223.4746 " fill="none" style="stroke:#000000;stroke-width:1.0;"/><text fill="#000000" font-family="Verdana" font-size="11" lengthAdjust="spacing" textLength="47" x="685" y="292.9553">capacita</text><rect fill="#FFFFFF" height="33.3687" rx="12.5" ry="12.5" style="stroke:#AAAAAA;stroke-width:1.5;" width="170" x="782" y="271.8962"/><text fill="#000000" font-family="Verdana" font-size="11" lengthAdjust="spacing" textLength="150" x="792" y="292.9553">Aprender em Comunidade</text><text fill="#000000" font-family="Verdana" font-size="11" lengthAdjust="spacing" textLength="229" x="1005" y="277.5867">Partilha de experi&#234;ncia e conhecimento.</text><path d="M952,288.5806 L962,288.5806 C977,288.5806 977,273.2119 992,273.2119 L1002,273.2119 " fill="none" style="stroke:#000000;stroke-width:1.0;"/><text fill="#000000" font-family="Verdana" font-size="11" lengthAdjust="spacing" textLength="196" x="1005" y="292.9553">Educa&#231;&#227;o como processo coletiva.</text><path d="M952,288.5806 L962,288.5806 C977,288.5806 977,288.5806 992,288.5806 L1002,288.5806 " fill="none" style="stroke:#000000;stroke-width:1.0;"/><text fill="#000000" font-family="Verdana" font-size="11" lengthAdjust="spacing" textLength="189" x="1005" y="308.324">Promove colabora&#231;&#227;o e inclus&#227;o.</text><path d="M952,288.5806 L962,288.5806 C977,288.5806 977,303.9492 992,303.9492 L1002,303.9492 " fill="none" style="stroke:#000000;stroke-width:1.0;"/><path d="M732,288.5806 L742,288.5806 C757,288.5806 757,288.5806 772,288.5806 L782,288.5806 " fill="none" style="stroke:#000000;stroke-width:1.0;"/><path d="M632,276.8433 L642,276.8433 C657,276.8433 657,288.5806 672,288.5806 L682,288.5806 " fill="none" style="stroke:#000000;stroke-width:1.0;"/><text fill="#000000" font-family="Verdana" font-size="11" lengthAdjust="spacing" textLength="86" x="685" y="346.324">adequada para</text><rect fill="#FFFFFF" height="33.3687" rx="12.5" ry="12.5" style="stroke:#AAAAAA;stroke-width:1.5;" width="152" x="821" y="325.2649"/><text fill="#000000" font-family="Verdana" font-size="11" lengthAdjust="spacing" textLength="132" x="831" y="346.324">Sociedades Reticulares</text><path d="M771,341.9492 L781,341.9492 C796,341.9492 796,341.9492 811,341.9492 L821,341.9492 " fill="none" style="stroke:#000000;stroke-width:1.0;"/><path d="M632,276.8433 L642,276.8433 C657,276.8433 657,341.9492 672,341.9492 L682,341.9492 " fill="none" style="stroke:#000000;stroke-width:1.0;"/><text fill="#000000" font-family="Verdana" font-size="11" lengthAdjust="spacing" textLength="38" x="426" y="281.218">requer</text><rect fill="#FFFFFF" height="33.3687" rx="12.5" ry="12.5" style="stroke:#AAAAAA;stroke-width:1.5;" width="105" x="271" y="20"/><text fill="#000000" font-family="Verdana" font-size="11" lengthAdjust="spacing" textLength="85" x="281" y="41.0591">Ensino Remoto</text><text fill="#000000" font-family="Verdana" font-size="11" lengthAdjust="spacing" textLength="145" x="36" y="34.3748">Aula em tempo real, mas</text><text fill="#000000" font-family="Verdana" font-size="11" lengthAdjust="spacing" textLength="182" x="36" y="47.7434">com distanciamento geogr&#225;fico.</text><path d="M271,36.6843 L261,36.6843 C246,36.6843 246,36.6843 231,36.6843 L221,36.6843 " fill="none" style="stroke:#000000;stroke-width:1.0;"/><path d="M426,276.8433 L416,276.8433 C401,276.8433 401,36.6843 386,36.6843 L376,36.6843 " fill="none" style="stroke:#000000;stroke-width:1.0;"/><rect fill="#FFFFFF" height="33.3687" rx="12.5" ry="12.5" style="stroke:#AAAAAA;stroke-width:1.5;" width="123" x="253" y="73.3687"/><text fill="#000000" font-family="Verdana" font-size="11" lengthAdjust="spacing" textLength="103" x="263" y="94.4277">Ensino &#224; Dist&#226;ncia</text><text fill="#000000" font-family="Verdana" font-size="11" lengthAdjust="spacing" textLength="151" x="49" y="87.7434">Distanciamento geogr&#225;fico</text><text fill="#000000" font-family="Verdana" font-size="11" lengthAdjust="spacing" textLength="66" x="49" y="101.1121">e temporal.</text><path d="M253,90.053 L243,90.053 C228,90.053 228,90.053 213,90.053 L203,90.053 " fill="none" style="stroke:#000000;stroke-width:1.0;"/><path d="M426,276.8433 L416,276.8433 C401,276.8433 401,90.053 386,90.053 L376,90.053 " fill="none" style="stroke:#000000;stroke-width:1.0;"/><rect fill="#FFFFFF" height="33.3687" rx="12.5" ry="12.5" style="stroke:#AAAAAA;stroke-width:1.5;" width="140" x="236" y="126.7373"/><text fill="#000000" font-family="Verdana" font-size="11" lengthAdjust="spacing" textLength="120" x="246" y="147.7964">Educa&#231;&#227;o &#224; Dist&#226;ncia</text><text fill="#000000" font-family="Verdana" font-size="11" lengthAdjust="spacing" textLength="133" x="10" y="141.1121">Enfase na constru&#231;&#227;o e</text><text fill="#000000" font-family="Verdana" font-size="11" lengthAdjust="spacing" textLength="173" x="10" y="154.4807">socializa&#231;&#227;o do conhecimento.</text><path d="M236,143.4216 L226,143.4216 C211,143.4216 211,143.4216 196,143.4216 L186,143.4216 " fill="none" style="stroke:#000000;stroke-width:1.0;"/><path d="M426,276.8433 L416,276.8433 C401,276.8433 401,143.4216 386,143.4216 L376,143.4216 " fill="none" style="stroke:#000000;stroke-width:1.0;"/><rect fill="#FFFFFF" height="33.3687" rx="12.5" ry="12.5" style="stroke:#AAAAAA;stroke-width:1.5;" width="81" x="295" y="180.106"/><text fill="#000000" font-family="Verdana" font-size="11" lengthAdjust="spacing" textLength="61" x="305" y="201.165">e-Learning</text><text fill="#000000" font-family="Verdana" font-size="11" lengthAdjust="spacing" textLength="113" x="129" y="194.4807">Ensino mediado por</text><text fill="#000000" font-family="Verdana" font-size="11" lengthAdjust="spacing" textLength="112" x="129" y="207.8494">tecnologias digitais.</text><path d="M295,196.7903 L285,196.7903 C270,196.7903 270,196.7903 255,196.7903 L245,196.7903 " fill="none" style="stroke:#000000;stroke-width:1.0;"/><path d="M426,276.8433 L416,276.8433 C401,276.8433 401,196.7903 386,196.7903 L376,196.7903 " fill="none" style="stroke:#000000;stroke-width:1.0;"/><rect fill="#FFFFFF" height="33.3687" rx="12.5" ry="12.5" style="stroke:#AAAAAA;stroke-width:1.5;" width="114" x="262" y="233.4746"/><text fill="#000000" font-family="Verdana" font-size="11" lengthAdjust="spacing" textLength="94" x="272" y="254.5337">Educa&#231;&#227;o Online</text><text fill="#000000" font-family="Verdana" font-size="11" lengthAdjust="spacing" textLength="149" x="60" y="247.8494">Processos completamente</text><text fill="#000000" font-family="Verdana" font-size="11" lengthAdjust="spacing" textLength="64" x="60" y="261.218">reticulares.</text><path d="M262,250.1589 L252,250.1589 C237,250.1589 237,250.1589 222,250.1589 L212,250.1589 " fill="none" style="stroke:#000000;stroke-width:1.0;"/><path d="M426,276.8433 L416,276.8433 C401,276.8433 401,250.1589 386,250.1589 L376,250.1589 " fill="none" style="stroke:#000000;stroke-width:1.0;"/><rect fill="#FFFFFF" height="33.3687" rx="12.5" ry="12.5" style="stroke:#AAAAAA;stroke-width:1.5;" width="137" x="239" y="286.8433"/><text fill="#000000" font-family="Verdana" font-size="11" lengthAdjust="spacing" textLength="117" x="249" y="307.9023">Web-based Learning</text><text fill="#000000" font-family="Verdana" font-size="11" lengthAdjust="spacing" textLength="143" x="43" y="301.218">Aprendizagem suportada</text><text fill="#000000" font-family="Verdana" font-size="11" lengthAdjust="spacing" textLength="55" x="43" y="314.5867">pela web.</text><path d="M239,303.5276 L229,303.5276 C214,303.5276 214,303.5276 199,303.5276 L189,303.5276 " fill="none" style="stroke:#000000;stroke-width:1.0;"/><path d="M426,276.8433 L416,276.8433 C401,276.8433 401,303.5276 386,303.5276 L376,303.5276 " fill="none" style="stroke:#000000;stroke-width:1.0;"/><rect fill="#FFFFFF" height="33.3687" rx="12.5" ry="12.5" style="stroke:#AAAAAA;stroke-width:1.5;" width="103" x="273" y="340.2119"/><text fill="#000000" font-family="Verdana" font-size="11" lengthAdjust="spacing" textLength="83" x="283" y="361.271">Open Learning</text><text fill="#000000" font-family="Verdana" font-size="11" lengthAdjust="spacing" textLength="126" x="94" y="354.5867">Foco na autonomia do</text><text fill="#000000" font-family="Verdana" font-size="11" lengthAdjust="spacing" textLength="60" x="94" y="367.9553">estudante.</text><path d="M273,356.8962 L263,356.8962 C248,356.8962 248,356.8962 233,356.8962 L223,356.8962 " fill="none" style="stroke:#000000;stroke-width:1.0;"/><path d="M426,276.8433 L416,276.8433 C401,276.8433 401,356.8962 386,356.8962 L376,356.8962 " fill="none" style="stroke:#000000;stroke-width:1.0;"/><rect fill="#FFFFFF" height="33.3687" rx="12.5" ry="12.5" style="stroke:#AAAAAA;stroke-width:1.5;" width="119" x="257" y="393.5806"/><text fill="#000000" font-family="Verdana" font-size="11" lengthAdjust="spacing" textLength="99" x="267" y="414.6396">Blended Learning</text><text fill="#000000" font-family="Verdana" font-size="11" lengthAdjust="spacing" textLength="141" x="60" y="407.9553">Combina&#231;&#227;o de m&#233;todos</text><text fill="#000000" font-family="Verdana" font-size="11" lengthAdjust="spacing" textLength="144" x="60" y="421.324">presenciais e &#224; dist&#226;ncia.</text><path d="M257,410.2649 L247,410.2649 C232,410.2649 232,410.2649 217,410.2649 L207,410.2649 " fill="none" style="stroke:#000000;stroke-width:1.0;"/><path d="M426,276.8433 L416,276.8433 C401,276.8433 401,410.2649 386,410.2649 L376,410.2649 " fill="none" style="stroke:#000000;stroke-width:1.0;"/><rect fill="#FFFFFF" height="33.3687" rx="12.5" ry="12.5" style="stroke:#AAAAAA;stroke-width:1.5;" width="118" x="258" y="446.9492"/><text fill="#000000" font-family="Verdana" font-size="11" lengthAdjust="spacing" textLength="98" x="268" y="468.0083">Educa&#231;&#227;o H&#237;brida</text><text fill="#000000" font-family="Verdana" font-size="11" lengthAdjust="spacing" textLength="129" x="76" y="461.324">Integra&#231;&#227;o de culturas</text><text fill="#000000" font-family="Verdana" font-size="11" lengthAdjust="spacing" textLength="119" x="76" y="474.6926">anal&#243;gicas e digitais.</text><path d="M258,463.6335 L248,463.6335 C233,463.6335 233,463.6335 218,463.6335 L208,463.6335 " fill="none" style="stroke:#000000;stroke-width:1.0;"/><path d="M426,276.8433 L416,276.8433 C401,276.8433 401,463.6335 386,463.6335 L376,463.6335 " fill="none" style="stroke:#000000;stroke-width:1.0;"/><rect fill="#FFFFFF" height="33.3687" rx="12.5" ry="12.5" style="stroke:#AAAAAA;stroke-width:1.5;" width="111" x="265" y="500.3179"/><text fill="#000000" font-family="Verdana" font-size="11" lengthAdjust="spacing" textLength="91" x="275" y="521.377">Educa&#231;&#227;o Onlife</text><text fill="#000000" font-family="Verdana" font-size="11" lengthAdjust="spacing" textLength="151" x="61" y="514.6926">Integra&#231;&#227;o das dimens&#245;es</text><text fill="#000000" font-family="Verdana" font-size="11" lengthAdjust="spacing" textLength="130" x="61" y="528.0613">sociais online e offline.</text><path d="M265,517.0022 L255,517.0022 C240,517.0022 240,517.0022 225,517.0022 L215,517.0022 " fill="none" style="stroke:#000000;stroke-width:1.0;"/><path d="M426,276.8433 L416,276.8433 C401,276.8433 401,517.0022 386,517.0022 L376,517.0022 " fill="none" style="stroke:#000000;stroke-width:1.0;"/><path d="M517,276.8433 L507,276.8433 C492,276.8433 492,276.8433 477,276.8433 L467,276.8433 " fill="none" style="stroke:#000000;stroke-width:1.0;"/><!--SRC=[xLdRRXit47tVhs20FYH1BQskjjMNHBxaKgKsOYVfcp5BpgxOx99Ragl4AVmlJVjGj42UYdw1Vgp3rUgk52ZG1XBizOkM70xFd3aSajv7re5ncLGYWvo5ZQkmTQMlSZ0WP9B1bO0h50NNMQ4a1muwk2SmbWhPuDcJfvVzmQkJu9vKF2q45YPbG-ToswlN4sbTBP5kM4I5HSErSgXSZHpL8KjiNM1dlzCDmqOJ3g0JXzXkjiEuTTYCkli7q0xh1jxL-M7Oujse7JUwKJUCEeXngza-YCF3LljmFmR0rlv1t6dKhRjEiPONMHe43zd97F3uj_6lEWYCJ8QEMIcG-XzUCKxnEJJo0mXWkJRKIAtF2AEP3678Y0CdkSoh1d1o14mWG-iA0MHgQzDXd4AJ8xBHJBCSbOMCMZJZPlo9VEZAy5HppHImLFfvk0IMeP3ZZsG2bScvqPcUJ4XJKHGvkl4VYcmjeuH81z8otv52f4s9QGhZSIhLS3gnpXWmPq3PM9ki2i5gyfEotEYHvcNac99VXrpfL2VIkwheoGcU0- -OFSuDAe66OSQEIbe548yF9tWzIUbmGipxd2YTe2qngY5oMGAgLUO-CnKOWgWz58xM-hSKVJ1JmvA7qJpGQL9AfLdwNI4b93yMPIYKqQ34Uq5HeeTesKlooOiK3DeWI35Ub82XWLWcdfqeAvKcwqmxFG7GUqp3VCGEiroJCQHVimniu9aLf6tmKKx8Jb0dPlmnzed-Pj7X-6TsJARZNxnjvVVuisC3d4nc89swcREroTM9Yi6Y5nHHRPqfAfA2IPv9t9MGz78k9ivnRu1Wb5J9p5q9saiIQ8XV5GlAcAbl7TkP8kLLWkYTLncrfNWfgMMW69XvAYeFRp3QYoW0mLQ0J0H7y1FYtnO4n5660ozMzWwZQlWPhRFLaTC51eNJIcSaGq6qJjThDR2VUZclpKhIZgI2sThBnhyxBRGD28r5JtkvyYWHOfQ8TIwUZZz5XXP8vTHNbCJCdH83hZ0a8r2GZlzCQE5xf__CROmRlPKv8NBj-2-ITvbpGgZBP91F7SV-5xaC7b70LOMdbtzTy8VIB-uiTzSa3ZVKmYusWND6HeNpIumU-rOgxumoHqKEjRlEyQWF_6rYTA744Sd9i0PqkxmPLCzyIBHY5yTni6x5fU4fYgCXlN6QXFqKCERX5vOTqC-OzfeB-G5Per6zVKSYPA_Ha0mWk5doHGNGbWxOsknVzS- -xp-XBYf0LFycZG1G6dktavOm33TDiufZJiVfR6YhrLhhcOzW38pHxnPdAHjErwUQjI_wdJLENVgsQRRMZ1SxvXXcpS-eX4oRRvRIGJdGvZCKqkRUnUOAXLNslmYBIycUxUZARMNAbvMfqnIvarJQjn_iXTzCwHZKr-ytOyNG_wrWvUNpnU0ku9N-f1S3nvtGhTz9jS9TKAtI0hSVfG07_kYn_KXfMHLR2tC19ztn-BOI-Z_if3Sh6w0SIJeAtSRWRLNvg-1tz5Za3za3EYtt5r8qsmDcdPltj2Kw8jyDvdf7zXNbZ4vt0gl_3ulRPbet58HZkkLh9MvBNM2C0gRxQRQuYZRSBlwRQmTTOntU7chBM_kAsd7bFhrCa8v-eFl3BTgKbewXRaUEzgaknAqyE1WI9wWatO53k7NQGBAzn_2xBnvtNppkldZSVV6u- -AnyOl7UKfSl7enO2CqLch56hLcs6pNMlSlXmKxnOWrEgnns6k7lR33tfnSCj_z8BZ_v7mmQb8DAGp7aeFoJ4eU7WJFWKhZouAAO8QzCZFFZx-TDj1g64cZbTT1yFprYxb1jxtNbuvTe24ixFMBu1XZ88Pe1DU2KjDZhovFzmw20MsD1ScXHuUyu8Ws6sUkgU_YRm00]--></g></svg>