<?xml version="1.0" encoding="us-ascii" standalone="no"?><svg xmlns="http://www.w3.org/2000/svg" xmlns:xlink="http://www.w3.org/1999/xlink" contentStyleType="text/css" height="288px" preserveAspectRatio="none" style="width:1161px;height:288px;background:#FFFFFF;" version="1.1" viewBox="0 0 1161 288" width="1161px" zoomAndPan="magnify"><defs/><g><rect fill="#FFFFFF" height="33.3687" rx="12.5" ry="12.5" style="stroke:#AAAAAA;stroke-width:1.5;" width="75" x="563" y="126.7373"/><text fill="#000000" font-family="Verdana" font-size="11" lengthAdjust="spacing" textLength="55" x="573" y="147.7964">Conceitos</text><rect fill="#FFFFFF" height="33.3687" rx="12.5" ry="12.5" style="stroke:#AAAAAA;stroke-width:1.5;" width="137" x="688" y="20"/><text fill="#000000" font-family="Verdana" font-size="11" lengthAdjust="spacing" textLength="117" x="698" y="41.0591">Web-based Learning</text><text fill="#000000" font-family="Verdana" font-size="11" lengthAdjust="spacing" textLength="202" x="878" y="41.0591">Aprendizagem suportada pela web.</text><path d="M825,36.6843 L835,36.6843 C850,36.6843 850,36.6843 865,36.6843 L875,36.6843 " fill="none" style="stroke:#000000;stroke-width:1.0;"/><path d="M638,143.4216 L648,143.4216 C663,143.4216 663,36.6843 678,36.6843 L688,36.6843 " fill="none" style="stroke:#000000;stroke-width:1.0;"/><rect fill="#FFFFFF" height="33.3687" rx="12.5" ry="12.5" style="stroke:#AAAAAA;stroke-width:1.5;" width="103" x="688" y="73.3687"/><text fill="#000000" font-family="Verdana" font-size="11" lengthAdjust="spacing" textLength="83" x="698" y="94.4277">Open Learning</text><text fill="#000000" font-family="Verdana" font-size="11" lengthAdjust="spacing" textLength="190" x="844" y="94.4277">Foco na autonomia do estudante.</text><path d="M791,90.053 L801,90.053 C816,90.053 816,90.053 831,90.053 L841,90.053 " fill="none" style="stroke:#000000;stroke-width:1.0;"/><path d="M638,143.4216 L648,143.4216 C663,143.4216 663,90.053 678,90.053 L688,90.053 " fill="none" style="stroke:#000000;stroke-width:1.0;"/><rect fill="#FFFFFF" height="33.3687" rx="12.5" ry="12.5" style="stroke:#AAAAAA;stroke-width:1.5;" width="119" x="688" y="126.7373"/><text fill="#000000" font-family="Verdana" font-size="11" lengthAdjust="spacing" textLength="99" x="698" y="147.7964">Blended Learning</text><text fill="#000000" font-family="Verdana" font-size="11" lengthAdjust="spacing" textLength="289" x="860" y="147.7964">Combina&#231;&#227;o de m&#233;todos presenciais e &#224; dist&#226;ncia.</text><path d="M807,143.4216 L817,143.4216 C832,143.4216 832,143.4216 847,143.4216 L857,143.4216 " fill="none" style="stroke:#000000;stroke-width:1.0;"/><path d="M638,143.4216 L648,143.4216 C663,143.4216 663,143.4216 678,143.4216 L688,143.4216 " fill="none" style="stroke:#000000;stroke-width:1.0;"/><rect fill="#FFFFFF" height="33.3687" rx="12.5" ry="12.5" style="stroke:#AAAAAA;stroke-width:1.5;" width="118" x="688" y="180.106"/><text fill="#000000" font-family="Verdana" font-size="11" lengthAdjust="spacing" textLength="98" x="698" y="201.165">Educa&#231;&#227;o H&#237;brida</text><text fill="#000000" font-family="Verdana" font-size="11" lengthAdjust="spacing" textLength="252" x="859" y="201.165">Integra&#231;&#227;o de culturas anal&#243;gicas e digitais.</text><path d="M806,196.7903 L816,196.7903 C831,196.7903 831,196.7903 846,196.7903 L856,196.7903 " fill="none" style="stroke:#000000;stroke-width:1.0;"/><path d="M638,143.4216 L648,143.4216 C663,143.4216 663,196.7903 678,196.7903 L688,196.7903 " fill="none" style="stroke:#000000;stroke-width:1.0;"/><rect fill="#FFFFFF" height="33.3687" rx="12.5" ry="12.5" style="stroke:#AAAAAA;stroke-width:1.5;" width="111" x="688" y="233.4746"/><text fill="#000000" font-family="Verdana" font-size="11" lengthAdjust="spacing" textLength="91" x="698" y="254.5337">Educa&#231;&#227;o Onlife</text><text fill="#000000" font-family="Verdana" font-size="11" lengthAdjust="spacing" textLength="285" x="852" y="254.5337">Integra&#231;&#227;o das dimens&#245;es sociais online e offline.</text><path d="M799,250.1589 L809,250.1589 C824,250.1589 824,250.1589 839,250.1589 L849,250.1589 " fill="none" style="stroke:#000000;stroke-width:1.0;"/><path d="M638,143.4216 L648,143.4216 C663,143.4216 663,250.1589 678,250.1589 L688,250.1589 " fill="none" style="stroke:#000000;stroke-width:1.0;"/><rect fill="#FFFFFF" height="33.3687" rx="12.5" ry="12.5" style="stroke:#AAAAAA;stroke-width:1.5;" width="105" x="408" y="20"/><text fill="#000000" font-family="Verdana" font-size="11" lengthAdjust="spacing" textLength="85" x="418" y="41.0591">Ensino Remoto</text><text fill="#000000" font-family="Verdana" font-size="11" lengthAdjust="spacing" textLength="331" x="24" y="41.0591">Aula em tempo real, mas com distanciamento geogr&#225;fico.</text><path d="M408,36.6843 L398,36.6843 C383,36.6843 383,36.6843 368,36.6843 L358,36.6843 " fill="none" style="stroke:#000000;stroke-width:1.0;"/><path d="M563,143.4216 L553,143.4216 C538,143.4216 538,36.6843 523,36.6843 L513,36.6843 " fill="none" style="stroke:#000000;stroke-width:1.0;"/><rect fill="#FFFFFF" height="33.3687" rx="12.5" ry="12.5" style="stroke:#AAAAAA;stroke-width:1.5;" width="123" x="390" y="73.3687"/><text fill="#000000" font-family="Verdana" font-size="11" lengthAdjust="spacing" textLength="103" x="400" y="94.4277">Ensino &#224; Dist&#226;ncia</text><text fill="#000000" font-family="Verdana" font-size="11" lengthAdjust="spacing" textLength="221" x="116" y="94.4277">Distanciamento geogr&#225;fico e temporal.</text><path d="M390,90.053 L380,90.053 C365,90.053 365,90.053 350,90.053 L340,90.053 " fill="none" style="stroke:#000000;stroke-width:1.0;"/><path d="M563,143.4216 L553,143.4216 C538,143.4216 538,90.053 523,90.053 L513,90.053 " fill="none" style="stroke:#000000;stroke-width:1.0;"/><rect fill="#FFFFFF" height="33.3687" rx="12.5" ry="12.5" style="stroke:#AAAAAA;stroke-width:1.5;" width="140" x="373" y="126.7373"/><text fill="#000000" font-family="Verdana" font-size="11" lengthAdjust="spacing" textLength="120" x="383" y="147.7964">Educa&#231;&#227;o &#224; Dist&#226;ncia</text><text fill="#000000" font-family="Verdana" font-size="11" lengthAdjust="spacing" textLength="310" x="10" y="147.7964">Enfase na constru&#231;&#227;o e socializa&#231;&#227;o do conhecimento.</text><path d="M373,143.4216 L363,143.4216 C348,143.4216 348,143.4216 333,143.4216 L323,143.4216 " fill="none" style="stroke:#000000;stroke-width:1.0;"/><path d="M563,143.4216 L553,143.4216 C538,143.4216 538,143.4216 523,143.4216 L513,143.4216 " fill="none" style="stroke:#000000;stroke-width:1.0;"/><rect fill="#FFFFFF" height="33.3687" rx="12.5" ry="12.5" style="stroke:#AAAAAA;stroke-width:1.5;" width="81" x="432" y="180.106"/><text fill="#000000" font-family="Verdana" font-size="11" lengthAdjust="spacing" textLength="61" x="442" y="201.165">e-Learning</text><text fill="#000000" font-family="Verdana" font-size="11" lengthAdjust="spacing" textLength="229" x="150" y="201.165">Ensino mediado por tecnologias digitais.</text><path d="M432,196.7903 L422,196.7903 C407,196.7903 407,196.7903 392,196.7903 L382,196.7903 " fill="none" style="stroke:#000000;stroke-width:1.0;"/><path d="M563,143.4216 L553,143.4216 C538,143.4216 538,196.7903 523,196.7903 L513,196.7903 " fill="none" style="stroke:#000000;stroke-width:1.0;"/><rect fill="#FFFFFF" height="33.3687" rx="12.5" ry="12.5" style="stroke:#AAAAAA;stroke-width:1.5;" width="114" x="399" y="233.4746"/><text fill="#000000" font-family="Verdana" font-size="11" lengthAdjust="spacing" textLength="94" x="409" y="254.5337">Educa&#231;&#227;o Online</text><text fill="#000000" font-family="Verdana" font-size="11" lengthAdjust="spacing" textLength="217" x="129" y="254.5337">Processos completamente reticulares.</text><path d="M399,250.1589 L389,250.1589 C374,250.1589 374,250.1589 359,250.1589 L349,250.1589 " fill="none" style="stroke:#000000;stroke-width:1.0;"/><path d="M563,143.4216 L553,143.4216 C538,143.4216 538,250.1589 523,250.1589 L513,250.1589 " fill="none" style="stroke:#000000;stroke-width:1.0;"/><!--SRC=[xLXBSzis4BxpLo0pFIIUMgAUbdLA93zYLwuzyIEzQPR0aa930Wm0sdKw_Yzz73ezzDJfBz0Vwv9wFznBsumq2ZtZ4HUBnRVVBXOBlhOEZ4ka4WcapA_q_LfVzrCm86IKG5z07qN6TP8foO63xdEjE4gdhVT2O2WLijxPwTkRJk_ss7iX5OypWPc9sS2vrBRBvKXQLuga6sH1Pj7GT8VAbSXa6PB8bWKs3XfDtwzKeGMDqCTwjUw7jSDgq3neGTql6tWeyqE_nfj1FQmqWwOVD133MhNU2lt3Mltm80J0sa4hR5JArZt6M4gp9FQyFTQTOlLY31spKY39zzYnib9fzWuJxJG9zlhiJHO3muGvJ5BD34ByDKl0CWBA1Fa0Yaj82Bfc4Uh837yE9TUbEMl3dzWHAGv_oJL7He-UdSXmj9A1U6I3M8RXRyDVrzevLY5OP0e8ZhBEP2DDP5QJJYm_ZQSAdIiCaCjYmS8oxlSGZ98gcjWgq2Oe990-GI0aNEbOHvByfRXB1z8kexfKCGLxPEBAQ8xMweATD4PN-8V4cfESU3H8qusC1cFAoT9x3FO3ya6mHJHlKeDAa0CHSMypGkD004kHel60GO7YCaMrDEr44uL41sHEAvr8o5r7wp811AIOrOd9yCfwNPq4KateGfOCVtTQa2U4msBEkBJ4AyL0J6EmJCNRuH-1aM8ScpDQC38pYqI0ommn2GhYuPyHxPlSuZ_n6k8wKqKmY5Wx_0ljADA4JHTn88Cw3FDV9SzxJOwEjp2z_8iTFQ1WqHv8tIEbXnjeiI02vumCCeUqdUYn7wJApLBO71hKxZ75RWVuXyZeJ8ak9PHX5MWsUTKRFxCfmP9U68RUgXQNXiSekWDwuxG8-z5ZB7Saiwn5FqCg9jVo4x9APVpsBMKYkqD3QG3UquAj6Amj3B2LrR_gN7xNEQMXG1k1PYG4W48vDpkI-Bw_Rfbb73CwJgPJQxNQoiXi1cDWZ7wONwKGdAmkDPNFsvqA9oPpsIHQAyhp0pCCK_4PvSD4_BGG3eg1DizGIDMxYTKb2iVH_omiBWIR_bCbaYaLWuqC-M9cwZX6xYHLziq7UuqVCogJsD4_hCUAVlwtX9KNpsU3EuTNKaar8N3SYhpDZrEjS1koLcc1cuzIW8EyxTXyfBIjies5EOUJcdY-gOJ-3oVfqz81AEybjKAxwBmTL_wnyrlQ5kNDTe_QvivSYAPdm7Hm_PcsG4UG3uDvt99pHJcZuwt0IgVVyrji4w2kAGX7TCFNIknANM2C7AQBQZA_YzRSBlwRQmTTQ1tk3hN5_Nqfst7fFhr8a0w-f_l33XrA2ssesvBMFjQPsCd6mL1oWehYBMZ2hTC6eirjmxzyqlxoINltFcbVnSJ0xKMFtQEnKYjMALNzQhrKUtapoDW91gpIO9N3Tjrl-mts_lY6vSEll9UdLxtxAYsJ6Ow5yqMhGHPUUUTm3-nTHhrcWkqY7ET7tqm4b53tqcYLfu1tVdSnKsZMzplIiMiqX8NTNNX760AnGpEu5XIIDhkzETblUJsgU1bbG9lERgzBDSIPHngx_Xi0]--></g></svg>