<?xml version="1.0" encoding="us-ascii" standalone="no"?><svg xmlns="http://www.w3.org/2000/svg" xmlns:xlink="http://www.w3.org/1999/xlink" contentStyleType="text/css" height="412px" preserveAspectRatio="none" style="width:1706px;height:412px;background:#FFFFFF;" version="1.1" viewBox="0 0 1706 412" width="1706px" zoomAndPan="magnify"><defs/><g><rect fill="#FFFFFF" height="100.2119" rx="12.5" ry="12.5" style="stroke:#AAAAAA;stroke-width:1.5;" width="242" x="790" y="154.8962"/><text fill="#000000" font-family="Verdana" font-size="11" font-weight="bold" lengthAdjust="spacing" textLength="125" x="800" y="175.9553">Sociedade em Rede:</text><text fill="#000000" font-family="Verdana" font-size="11" lengthAdjust="spacing" textLength="201" x="800" y="189.324">- Transforma&#231;&#227;o social baseada na</text><text fill="#000000" font-family="Verdana" font-size="11" lengthAdjust="spacing" textLength="206" x="808" y="202.6926">integra&#231;&#227;o global das redes digitais.</text><text fill="#000000" font-family="Verdana" font-size="11" lengthAdjust="spacing" textLength="221" x="800" y="216.0613">- Redes como estrutura organizacional</text><text fill="#000000" font-family="Verdana" font-size="11" lengthAdjust="spacing" textLength="210" x="808" y="229.4299">predominante na era da informa&#231;&#227;o.</text><text fill="#000000" font-family="Verdana" font-size="11" lengthAdjust="spacing" textLength="178" x="800" y="242.7986">- Proposto por Manuel Castells.</text><text fill="#000000" font-family="Verdana" font-size="11" lengthAdjust="spacing" textLength="63" x="1085" y="129.324">transforma</text><rect fill="#FFFFFF" height="33.3687" rx="12.5" ry="12.5" style="stroke:#AAAAAA;stroke-width:1.5;" width="70" x="1198" y="53.8698"/><text fill="#000000" font-family="Verdana" font-size="11" lengthAdjust="spacing" textLength="50" x="1208" y="74.9288">Trabalho</text><text fill="#000000" font-family="Verdana" font-size="11" lengthAdjust="spacing" textLength="229" x="1321" y="53.8759">Substitui&#231;&#227;o do trabalho tradicional pela</text><text fill="#000000" font-family="Verdana" font-size="11" lengthAdjust="spacing" textLength="212" x="1321" y="67.2445">economia baseada no conhecimento.</text><path d="M1268,70.5541 L1278,70.5541 C1293,70.5541 1293,56.1854 1308,56.1854 L1318,56.1854 " fill="none" style="stroke:#000000;stroke-width:1.0;"/><text fill="#000000" font-family="Verdana" font-size="11" lengthAdjust="spacing" textLength="171" x="1321" y="82.6132">Predom&#237;nio dos trabalhadores</text><text fill="#000000" font-family="Verdana" font-size="11" lengthAdjust="spacing" textLength="86" x="1321" y="95.9818">da informa&#231;&#227;o.</text><path d="M1268,70.5541 L1278,70.5541 C1293,70.5541 1293,84.9227 1308,84.9227 L1318,84.9227 " fill="none" style="stroke:#000000;stroke-width:1.0;"/><path d="M1148,124.9492 L1158,124.9492 C1173,124.9492 1173,70.5541 1188,70.5541 L1198,70.5541 " fill="none" style="stroke:#000000;stroke-width:1.0;"/><rect fill="#FFFFFF" height="33.3687" rx="12.5" ry="12.5" style="stroke:#AAAAAA;stroke-width:1.5;" width="152" x="1198" y="111.3444"/><text fill="#000000" font-family="Verdana" font-size="11" lengthAdjust="spacing" textLength="132" x="1208" y="132.4034">Rela&#231;&#245;es Interpessoais</text><text fill="#000000" font-family="Verdana" font-size="11" lengthAdjust="spacing" textLength="199" x="1403" y="111.3505">Redes sociais digitais transformam</text><text fill="#000000" font-family="Verdana" font-size="11" lengthAdjust="spacing" textLength="118" x="1403" y="124.7191">a intera&#231;&#227;o humana.</text><path d="M1350,128.0287 L1360,128.0287 C1375,128.0287 1375,113.66 1390,113.66 L1400,113.66 " fill="none" style="stroke:#000000;stroke-width:1.0;"/><text fill="#000000" font-family="Verdana" font-size="11" lengthAdjust="spacing" textLength="210" x="1403" y="140.0878">Hiperconectividade acompanhada de</text><text fill="#000000" font-family="Verdana" font-size="11" lengthAdjust="spacing" textLength="137" x="1403" y="153.4564">individualismo em rede.</text><path d="M1350,128.0287 L1360,128.0287 C1375,128.0287 1375,142.3973 1390,142.3973 L1400,142.3973 " fill="none" style="stroke:#000000;stroke-width:1.0;"/><path d="M1148,124.9492 L1158,124.9492 C1173,124.9492 1173,128.0287 1188,128.0287 L1198,128.0287 " fill="none" style="stroke:#000000;stroke-width:1.0;"/><rect fill="#FFFFFF" height="33.3687" rx="12.5" ry="12.5" style="stroke:#AAAAAA;stroke-width:1.5;" width="92" x="1198" y="164.713"/><text fill="#000000" font-family="Verdana" font-size="11" lengthAdjust="spacing" textLength="72" x="1208" y="185.7721">Globaliza&#231;&#227;o</text><text fill="#000000" font-family="Verdana" font-size="11" lengthAdjust="spacing" textLength="215" x="1343" y="178.0878">Interconex&#227;o entre o local e o global.</text><path d="M1290,181.3973 L1300,181.3973 C1315,181.3973 1315,173.713 1330,173.713 L1340,173.713 " fill="none" style="stroke:#000000;stroke-width:1.0;"/><text fill="#000000" font-family="Verdana" font-size="11" lengthAdjust="spacing" textLength="241" x="1343" y="193.4564">Homogeneiza&#231;&#227;o e fragmenta&#231;&#227;o cultural.</text><path d="M1290,181.3973 L1300,181.3973 C1315,181.3973 1315,189.0817 1330,189.0817 L1340,189.0817 " fill="none" style="stroke:#000000;stroke-width:1.0;"/><path d="M1148,124.9492 L1158,124.9492 C1173,124.9492 1173,181.3973 1188,181.3973 L1198,181.3973 " fill="none" style="stroke:#000000;stroke-width:1.0;"/><path d="M1032,205.0022 L1042,205.0022 C1057,205.0022 1057,124.9492 1072,124.9492 L1082,124.9492 " fill="none" style="stroke:#000000;stroke-width:1.0;"/><text fill="#000000" font-family="Verdana" font-size="11" lengthAdjust="spacing" textLength="110" x="1085" y="292.5094">amea&#231;a atrav&#233;s de</text><rect fill="#FFFFFF" height="33.3687" rx="12.5" ry="12.5" style="stroke:#AAAAAA;stroke-width:1.5;" width="109" x="1245" y="218.0817"/><text fill="#000000" font-family="Verdana" font-size="11" lengthAdjust="spacing" textLength="89" x="1255" y="239.1407">Exclus&#227;o Digital</text><text fill="#000000" font-family="Verdana" font-size="11" lengthAdjust="spacing" textLength="246" x="1407" y="232.4564">Divis&#227;o entre conectados e desconectados,</text><text fill="#000000" font-family="Verdana" font-size="11" lengthAdjust="spacing" textLength="178" x="1407" y="245.8251">gerando desigualdades sociais.</text><path d="M1354,234.766 L1364,234.766 C1379,234.766 1379,234.766 1394,234.766 L1404,234.766 " fill="none" style="stroke:#000000;stroke-width:1.0;"/><path d="M1195,288.1346 L1205,288.1346 C1220,288.1346 1220,234.766 1235,234.766 L1245,234.766 " fill="none" style="stroke:#000000;stroke-width:1.0;"/><rect fill="#FFFFFF" height="33.3687" rx="12.5" ry="12.5" style="stroke:#AAAAAA;stroke-width:1.5;" width="137" x="1245" y="271.4503"/><text fill="#000000" font-family="Verdana" font-size="11" lengthAdjust="spacing" textLength="117" x="1255" y="292.5094">Vigil&#226;ncia e Controlo</text><text fill="#000000" font-family="Verdana" font-size="11" lengthAdjust="spacing" textLength="206" x="1435" y="285.8251">Redes utilizadas para monitoriza&#231;&#227;o</text><text fill="#000000" font-family="Verdana" font-size="11" lengthAdjust="spacing" textLength="124" x="1435" y="299.1937">em massa e controlo.</text><path d="M1382,288.1346 L1392,288.1346 C1407,288.1346 1407,288.1346 1422,288.1346 L1432,288.1346 " fill="none" style="stroke:#000000;stroke-width:1.0;"/><path d="M1195,288.1346 L1205,288.1346 C1220,288.1346 1220,288.1346 1235,288.1346 L1245,288.1346 " fill="none" style="stroke:#000000;stroke-width:1.0;"/><rect fill="#FFFFFF" height="33.3687" rx="12.5" ry="12.5" style="stroke:#AAAAAA;stroke-width:1.5;" width="139" x="1245" y="324.819"/><text fill="#000000" font-family="Verdana" font-size="11" lengthAdjust="spacing" textLength="119" x="1255" y="345.8781">Fragmenta&#231;&#227;o Social</text><text fill="#000000" font-family="Verdana" font-size="11" lengthAdjust="spacing" textLength="257" x="1437" y="339.1937">Isolamento atrav&#233;s de bolhas informacionais</text><text fill="#000000" font-family="Verdana" font-size="11" lengthAdjust="spacing" textLength="159" x="1437" y="352.5624">e refor&#231;o do individualismo.</text><path d="M1384,341.5033 L1394,341.5033 C1409,341.5033 1409,341.5033 1424,341.5033 L1434,341.5033 " fill="none" style="stroke:#000000;stroke-width:1.0;"/><path d="M1195,288.1346 L1205,288.1346 C1220,288.1346 1220,341.5033 1235,341.5033 L1245,341.5033 " fill="none" style="stroke:#000000;stroke-width:1.0;"/><path d="M1032,205.0022 L1042,205.0022 C1057,205.0022 1057,288.1346 1072,288.1346 L1082,288.1346 " fill="none" style="stroke:#000000;stroke-width:1.0;"/><text fill="#000000" font-family="Verdana" font-size="11" lengthAdjust="spacing" textLength="67" x="670" y="100.5867">possibilitam</text><rect fill="#FFFFFF" height="33.3687" rx="12.5" ry="12.5" style="stroke:#AAAAAA;stroke-width:1.5;" width="300" x="320" y="22.053"/><text fill="#000000" font-family="Verdana" font-size="11" lengthAdjust="spacing" textLength="280" x="330" y="43.1121">Tecnologias da Informa&#231;&#227;o e Comunica&#231;&#227;o (TIC)</text><text fill="#000000" font-family="Verdana" font-size="11" lengthAdjust="spacing" textLength="162" x="101" y="22.0591">Revolu&#231;&#227;o tecnol&#243;gica como</text><text fill="#000000" font-family="Verdana" font-size="11" lengthAdjust="spacing" textLength="166" x="101" y="35.4277">motor das mudan&#231;as sociais.</text><path d="M320,38.7373 L310,38.7373 C295,38.7373 295,24.3687 280,24.3687 L270,24.3687 " fill="none" style="stroke:#000000;stroke-width:1.0;"/><text fill="#000000" font-family="Verdana" font-size="11" lengthAdjust="spacing" textLength="166" x="10" y="50.7964">Internet, telecomunica&#231;&#245;es e</text><text fill="#000000" font-family="Verdana" font-size="11" lengthAdjust="spacing" textLength="257" x="10" y="64.165">computadores como infraestruturas centrais.</text><path d="M320,38.7373 L310,38.7373 C295,38.7373 295,53.106 280,53.106 L270,53.106 " fill="none" style="stroke:#000000;stroke-width:1.0;"/><path d="M670,96.2119 L660,96.2119 C645,96.2119 645,38.7373 630,38.7373 L620,38.7373 " fill="none" style="stroke:#000000;stroke-width:1.0;"/><rect fill="#FFFFFF" height="33.3687" rx="12.5" ry="12.5" style="stroke:#AAAAAA;stroke-width:1.5;" width="115" x="505" y="79.5276"/><text fill="#000000" font-family="Verdana" font-size="11" lengthAdjust="spacing" textLength="95" x="515" y="100.5867">Economia Global</text><text fill="#000000" font-family="Verdana" font-size="11" lengthAdjust="spacing" textLength="212" x="240" y="79.5337">Integra&#231;&#227;o dos mercados financeiros</text><text fill="#000000" font-family="Verdana" font-size="11" lengthAdjust="spacing" textLength="175" x="240" y="92.9023">e produtivos em escala global.</text><path d="M505,96.2119 L495,96.2119 C480,96.2119 480,81.8433 465,81.8433 L455,81.8433 " fill="none" style="stroke:#000000;stroke-width:1.0;"/><text fill="#000000" font-family="Verdana" font-size="11" lengthAdjust="spacing" textLength="141" x="311" y="108.271">Fluxos de capital, bens e</text><text fill="#000000" font-family="Verdana" font-size="11" lengthAdjust="spacing" textLength="139" x="311" y="121.6396">servi&#231;os em tempo real.</text><path d="M505,96.2119 L495,96.2119 C480,96.2119 480,110.5806 465,110.5806 L455,110.5806 " fill="none" style="stroke:#000000;stroke-width:1.0;"/><path d="M670,96.2119 L660,96.2119 C645,96.2119 645,96.2119 630,96.2119 L620,96.2119 " fill="none" style="stroke:#000000;stroke-width:1.0;"/><rect fill="#FFFFFF" height="33.3687" rx="12.5" ry="12.5" style="stroke:#AAAAAA;stroke-width:1.5;" width="180" x="440" y="137.0022"/><text fill="#000000" font-family="Verdana" font-size="11" lengthAdjust="spacing" textLength="160" x="450" y="158.0613">Cultura da Virtualidade Real</text><text fill="#000000" font-family="Verdana" font-size="11" lengthAdjust="spacing" textLength="163" x="186" y="137.0083">Meios de comunica&#231;&#227;o como</text><text fill="#000000" font-family="Verdana" font-size="11" lengthAdjust="spacing" textLength="201" x="186" y="150.377">criadores de realidades simb&#243;licas.</text><path d="M440,153.6865 L430,153.6865 C415,153.6865 415,139.3179 400,139.3179 L390,139.3179 " fill="none" style="stroke:#000000;stroke-width:1.0;"/><text fill="#000000" font-family="Verdana" font-size="11" lengthAdjust="spacing" textLength="181" x="206" y="165.7456">Representa&#231;&#245;es medi&#225;ticas que</text><text fill="#000000" font-family="Verdana" font-size="11" lengthAdjust="spacing" textLength="176" x="206" y="179.1143">moldam valores e percep&#231;&#245;es.</text><path d="M440,153.6865 L430,153.6865 C415,153.6865 415,168.0552 400,168.0552 L390,168.0552 " fill="none" style="stroke:#000000;stroke-width:1.0;"/><path d="M670,96.2119 L660,96.2119 C645,96.2119 645,153.6865 630,153.6865 L620,153.6865 " fill="none" style="stroke:#000000;stroke-width:1.0;"/><path d="M790,205.0022 L780,205.0022 C765,205.0022 765,96.2119 750,96.2119 L740,96.2119 " fill="none" style="stroke:#000000;stroke-width:1.0;"/><text fill="#000000" font-family="Verdana" font-size="11" lengthAdjust="spacing" textLength="46" x="691" y="242.2202">definem</text><rect fill="#FFFFFF" height="33.3687" rx="12.5" ry="12.5" style="stroke:#AAAAAA;stroke-width:1.5;" width="104" x="537" y="192.4238"/><text fill="#000000" font-family="Verdana" font-size="11" lengthAdjust="spacing" textLength="84" x="547" y="213.4829">Caracter&#237;sticas</text><text fill="#000000" font-family="Verdana" font-size="11" lengthAdjust="spacing" textLength="184" x="292" y="205.7986">Flexibilidade e descentraliza&#231;&#227;o.</text><path d="M537,209.1082 L527,209.1082 C512,209.1082 512,201.4238 497,201.4238 L487,201.4238 " fill="none" style="stroke:#000000;stroke-width:1.0;"/><text fill="#000000" font-family="Verdana" font-size="11" lengthAdjust="spacing" textLength="273" x="211" y="221.1672">Fluxos cont&#237;nuos de informa&#231;&#227;o e comunica&#231;&#227;o.</text><path d="M537,209.1082 L527,209.1082 C512,209.1082 512,216.7925 497,216.7925 L487,216.7925 " fill="none" style="stroke:#000000;stroke-width:1.0;"/><path d="M691,237.8455 L681,237.8455 C666,237.8455 666,209.1082 651,209.1082 L641,209.1082 " fill="none" style="stroke:#000000;stroke-width:1.0;"/><rect fill="#FFFFFF" height="33.3687" rx="12.5" ry="12.5" style="stroke:#AAAAAA;stroke-width:1.5;" width="73" x="568" y="247.8455"/><text fill="#000000" font-family="Verdana" font-size="11" lengthAdjust="spacing" textLength="53" x="578" y="268.9045">Impactos</text><text fill="#000000" font-family="Verdana" font-size="11" lengthAdjust="spacing" textLength="244" x="196" y="247.8516">Redes que conectam empresas, governos,</text><text fill="#000000" font-family="Verdana" font-size="11" lengthAdjust="spacing" textLength="319" x="196" y="261.2202">organiza&#231;&#245;es n&#227;o-governamentais (ONGs) e indiv&#237;duos.</text><path d="M568,264.5298 L558,264.5298 C543,264.5298 543,250.1611 528,250.1611 L518,250.1611 " fill="none" style="stroke:#000000;stroke-width:1.0;"/><text fill="#000000" font-family="Verdana" font-size="11" lengthAdjust="spacing" textLength="176" x="339" y="276.5889">Altera&#231;&#227;o das rela&#231;&#245;es sociais,</text><text fill="#000000" font-family="Verdana" font-size="11" lengthAdjust="spacing" textLength="132" x="339" y="289.9575">econ&#243;micas e pol&#237;ticas.</text><path d="M568,264.5298 L558,264.5298 C543,264.5298 543,278.8984 528,278.8984 L518,278.8984 " fill="none" style="stroke:#000000;stroke-width:1.0;"/><path d="M691,237.8455 L681,237.8455 C666,237.8455 666,264.5298 651,264.5298 L641,264.5298 " fill="none" style="stroke:#000000;stroke-width:1.0;"/><path d="M790,205.0022 L780,205.0022 C765,205.0022 765,237.8455 750,237.8455 L740,237.8455 " fill="none" style="stroke:#000000;stroke-width:1.0;"/><text fill="#000000" font-family="Verdana" font-size="11" lengthAdjust="spacing" textLength="62" x="675" y="351.0105">dinamizam</text><rect fill="#FFFFFF" height="33.3687" rx="12.5" ry="12.5" style="stroke:#AAAAAA;stroke-width:1.5;" width="189" x="436" y="303.2671"/><text fill="#000000" font-family="Verdana" font-size="11" lengthAdjust="spacing" textLength="169" x="446" y="324.3262">Poder na Sociedade em Rede</text><text fill="#000000" font-family="Verdana" font-size="11" lengthAdjust="spacing" textLength="317" x="66" y="316.6418">Concentra&#231;&#227;o em fluxos de informa&#231;&#227;o e comunica&#231;&#227;o.</text><path d="M436,319.9514 L426,319.9514 C411,319.9514 411,312.2671 396,312.2671 L386,312.2671 " fill="none" style="stroke:#000000;stroke-width:1.0;"/><text fill="#000000" font-family="Verdana" font-size="11" lengthAdjust="spacing" textLength="175" x="208" y="332.0105">Conflito com poder tradicional.</text><path d="M436,319.9514 L426,319.9514 C411,319.9514 411,327.6357 396,327.6357 L386,327.6357 " fill="none" style="stroke:#000000;stroke-width:1.0;"/><path d="M675,346.6357 L665,346.6357 C650,346.6357 650,319.9514 635,319.9514 L625,319.9514 " fill="none" style="stroke:#000000;stroke-width:1.0;"/><rect fill="#FFFFFF" height="33.3687" rx="12.5" ry="12.5" style="stroke:#AAAAAA;stroke-width:1.5;" width="91" x="534" y="356.6357"/><text fill="#000000" font-family="Verdana" font-size="11" lengthAdjust="spacing" textLength="71" x="544" y="377.6948">Contrapoder</text><text fill="#000000" font-family="Verdana" font-size="11" lengthAdjust="spacing" textLength="392" x="89" y="370.0105">Movimentos sociais digitais como agentes de resist&#234;ncia e mudan&#231;a.</text><path d="M534,373.3201 L524,373.3201 C509,373.3201 509,365.6357 494,365.6357 L484,365.6357 " fill="none" style="stroke:#000000;stroke-width:1.0;"/><text fill="#000000" font-family="Verdana" font-size="11" lengthAdjust="spacing" textLength="325" x="156" y="385.3792">Exemplos: Primavera &#193;rabe, activismo ambiental online.</text><path d="M534,373.3201 L524,373.3201 C509,373.3201 509,381.0044 494,381.0044 L484,381.0044 " fill="none" style="stroke:#000000;stroke-width:1.0;"/><path d="M675,346.6357 L665,346.6357 C650,346.6357 650,373.3201 635,373.3201 L625,373.3201 " fill="none" style="stroke:#000000;stroke-width:1.0;"/><path d="M790,205.0022 L780,205.0022 C765,205.0022 765,346.6357 750,346.6357 L740,346.6357 " fill="none" style="stroke:#000000;stroke-width:1.0;"/><!--SRC=[xLdBRXl95TttLzG0MTY2JF4bMc8s4r4Fov76WYHxPYVSxgvkLgQwYgcgvaWJU95FcSd2c06yCl85_B6SgdwGb3G842GJ2H8Ds6GzRjrxxhddLhk_jewCAuHA2vgnRk-gsxsoEX4yfPHVyUBASF_l5K_BX1BILwd8XICPVPNoJ2ZEJewFtbpkdRm_YBuIAf5boaiZsTIvcHrlRUN2kWusJCkujDmaMZckN2VHnHOLkTrA-VRhxL6ts-lJ3crdNJxi3xlPOBSVZrxlqB2xPUY7hMItEqX6yJ3hZU9HDzxcF1lqXpjPTtSmt7sT4V71wvrikxTbtOtadLbPo2ZQ66ziN3I1C5wmSmI2iUWLkpIaRAPDGOjFYtzevkCboMAod59YYYB611pDJRqWbph6WfGiyt1OLe4WR8Sns3iFOuX9CswTALrfY6cJan8_KYAq0boCpR1L0sY2PPp1E1RXDA6MddHWxCpecRPEivasx9HKoIMRa7LSIjlvOnH9dZbcHSeHuiOLLbahOY7XJe613NR94wMbpWMSXVdZ5VECiuakIYMI-lUBo-F9IxzhusfypkTQbjMu2pOMNtAi3755XNPmnmDGb2cfnITy2x09xrHbuHY16SNT9lPBdYnF-YVGuH46PgMZL9i6B8Hkg4KCWw26QIso0x05W14x2l2ldD8c9jLm2BGY_oNps2PS66qZ3hXrMZennmIIpsr2akf4jXuVol8Qy-17GZFFwaqMS-MT1LVdOl6fsknuCTF8VBEJJKePSWnyFmZZIf8YiEoSjswUSb5RNaCyW9aOKSE0UMysx0QWeeWNNoGMBq4zv-2D1J0Da0LFnU8dvnUnlvOScP4f5MnECbX4uC23pwhLdZ2U9LMjLWIPaA44cLfyji5ATH0xbFmw4Acg5sonLJuaI5on4sHlrWRSV3KlFgko2bIiCsqjxauu-RYOuMHjsz1yq8Z16-8920omVRHaDrckvo2JjfjHKqXr_0hcNbMpL7XSX6KltdrpP5yoxqCgvelFALng4VoJHB0DNq85oyPMpU3D26nLYoz501K8WlkVNPs62ZzGgu0F5O9dEkN6b_0TVQdncMXLOLU3KR2iPTg_XQdQdw6Y0rtWZJyDnb9HQKa59jPWB4pMkqxrN7X4T1jOgrDLlL6EsOPr5igy-5LX7RneYhfnuE0QcP3QZY57eg2vrwh5tmt5V9CXXM8khBTNnC9dG3Aj9FZLYI8ZykcgFBbMQYjnWWcIKrsdvgACmK5NYgQQ_VgmO3LUC5fII55GWrQcFJngofCgw3RVPq5dmKjHwKDjigguwBRYLWLzlkH4KB4PjrO3jpMctW5r6LmHKUWOJSQdPK6AMfVUY5deVJn05mX3NWv9JNqa02iGLwHUIJooO8nlDBLtbVurPLYdAFZfRLu78e4Cd6acDNIE-M-rrDMhto3_o3vlZ609j3SlQc7nobHf6dQ4nA6sC46C4EHyyOidJINAr-Znrc_Ohoy2LOZxdXDBJ-gAzlXNKjB-tenomAIGQmoB717NuhVQJI2hkP2Bdsjw1gwZgQsb0-BkCV4bFOEaiK8hb8nfOGA61LbBeSYg_RNnm_N8BqBxRzgBrJBeYbuDdSKQ3B8DTG8lXUyoXcC0VS9pTps7NZg-vhXMLLSh_FXFRrfJ4GHcvcuW_cwgKxiwHCuP4PUewyX_xFT2UJWAXYk3uThTpFXaZvBlSwDBbKw0Wc4z6esIVbH_bblYM-koB8lkhag4IIHF9zEwaR2_uNRZoxMqR0TVCw1z8NxahDUhVtq3HDa7RY0o57rSioMHec20tJdz3tllljixmbIi3LIk6YIYiDYRhKQwtUvznzpsOmd7ORjrC1ZScLdkO8oCqJ-idX863kyUrOwlscq76vD-hCdMdSMh4qiVsk5ZSBWP_hYM3jzIpMz0Y5lrYFTlGLXd_tT1SItP-1jTLK3st8DC-JepjPHUhxMo3z_P2uvh5EuSU_hwVbzvr_-vvMiIFh-Rkol-XbwPKS8V1MzzgqR_UWoiLRWFFdmlKtBaht4FtrEKLVbWtLpnixGyUQY0_WywwSTR3H3tBbo5dcBmjbR-ElX7UYsI8kCdU8BSMqbHsmFQoVjxsXeSiPycS_D8-afuB7aKlgBx_NQ9FGHNxn64VK5uA4oVYYumF99J3W1Mg-YUful_pcC7dcOTVphGXeVtMspdjvwdrm7IyL_m_F24cjBQDTGzagkzr6Nw92yEnlz_dChb8xY4MwSDvG_t6lxygl7vLUFpgyRdLutFhngVNpK-lsfyVjNuVt_LU2RH-T-VdZ1KauK1rklqk_rXP_3YSbgoGnwptZRhxOw7tN5tctrxSCdyzClenT7PoRmFV4heEiXdgwT0M7WPlQKviVDIETJ0cBsRSVLs_y_D03jGSpH3vQE9tduuNIuO3L_j2SSkqEGWBHzEetsU4VAF7Oc6rkLZzlxoyDLET8BBQ0dP62EjqGJNEsTkC7VnBm00]--></g></svg>