<?xml version="1.0" encoding="us-ascii" standalone="no"?><svg xmlns="http://www.w3.org/2000/svg" xmlns:xlink="http://www.w3.org/1999/xlink" contentStyleType="text/css" height="1396px" preserveAspectRatio="none" style="width:1789px;height:1396px;background:#FFFFFF;" version="1.1" viewBox="0 0 1789 1396" width="1789px" zoomAndPan="magnify"><defs/><g><rect fill="#FFFFFF" height="33.3687" rx="12.5" ry="12.5" style="stroke:#AAAAAA;stroke-width:1.5;" width="143.3333" x="398" y="680.5828"/><path d="M412.6667,693.8681 L411.75,696.6181 L409,696.6181 L411.2917,698.4514 L410.375,701.2014 L412.6667,699.3681 L414.9583,701.2014 L414.0417,698.4514 L416.3333,696.6181 L413.5833,696.6181 L412.6667,693.8681 " fill="#000000" style="stroke:;stroke-width:0.0;stroke-dasharray:;"/><text fill="#000000" font-family="Verdana" font-size="11" lengthAdjust="spacing" textLength="114" x="417.3333" y="701.6418">Sociedade em Rede</text><text fill="#000000" font-family="Verdana" font-size="11" lengthAdjust="spacing" textLength="40" x="594.3333" y="701.6418">implica</text><rect fill="#FFFFFF" height="46.7373" rx="12.5" ry="12.5" style="stroke:#AAAAAA;stroke-width:1.5;" width="113" x="684.3333" y="200.1589"/><text fill="#000000" font-family="Verdana" font-size="11" lengthAdjust="spacing" textLength="93" x="694.3333" y="221.218">Economia global</text><text fill="#000000" font-family="Verdana" font-size="11" lengthAdjust="spacing" textLength="52" x="694.3333" y="234.5867">e flex&#237;vel</text><text fill="#000000" font-family="Verdana" font-size="11" lengthAdjust="spacing" textLength="94" x="850.3333" y="227.9023">caraterizada por</text><rect fill="#FFFFFF" height="33.3687" rx="12.5" ry="12.5" style="stroke:#AAAAAA;stroke-width:1.5;" width="119" x="994.3333" y="20"/><text fill="#000000" font-family="Verdana" font-size="11" lengthAdjust="spacing" textLength="99" x="1004.3333" y="41.0591">Foco na inova&#231;&#227;o</text><path d="M944.3333,223.5276 L954.3333,223.5276 C969.3333,223.5276 969.3333,36.6843 984.3333,36.6843 L994.3333,36.6843 " fill="none" style="stroke:#000000;stroke-width:1.0;"/><rect fill="#FFFFFF" height="46.7373" rx="12.5" ry="12.5" style="stroke:#AAAAAA;stroke-width:1.5;" width="104" x="994.3333" y="126.7373"/><text fill="#000000" font-family="Verdana" font-size="11" lengthAdjust="spacing" textLength="84" x="1004.3333" y="147.7964">Redefini&#231;&#227;o do</text><text fill="#000000" font-family="Verdana" font-size="11" lengthAdjust="spacing" textLength="47" x="1004.3333" y="161.165">trabalho</text><text fill="#000000" font-family="Verdana" font-size="11" lengthAdjust="spacing" textLength="55" x="1151.3333" y="154.4807">tais como</text><rect fill="#FFFFFF" height="46.7373" rx="12.5" ry="12.5" style="stroke:#AAAAAA;stroke-width:1.5;" width="138" x="1256.3333" y="73.3687"/><text fill="#000000" font-family="Verdana" font-size="11" lengthAdjust="spacing" textLength="118" x="1266.3333" y="94.4277">Trabalho por projeto</text><text fill="#000000" font-family="Verdana" font-size="11" lengthAdjust="spacing" textLength="52" x="1266.3333" y="107.7964">ou tarefa</text><path d="M1206.3333,150.106 L1216.3333,150.106 C1231.3333,150.106 1231.3333,96.7373 1246.3333,96.7373 L1256.3333,96.7373 " fill="none" style="stroke:#000000;stroke-width:1.0;"/><rect fill="#FFFFFF" height="33.3687" rx="12.5" ry="12.5" style="stroke:#AAAAAA;stroke-width:1.5;" width="132" x="1256.3333" y="140.106"/><text fill="#000000" font-family="Verdana" font-size="11" lengthAdjust="spacing" textLength="112" x="1266.3333" y="161.165">Hiperespecializa&#231;&#227;o</text><path d="M1206.3333,150.106 L1216.3333,150.106 C1231.3333,150.106 1231.3333,156.7903 1246.3333,156.7903 L1256.3333,156.7903 " fill="none" style="stroke:#000000;stroke-width:1.0;"/><rect fill="#FFFFFF" height="33.3687" rx="12.5" ry="12.5" style="stroke:#AAAAAA;stroke-width:1.5;" width="154" x="1256.3333" y="193.4746"/><text fill="#000000" font-family="Verdana" font-size="11" lengthAdjust="spacing" textLength="134" x="1266.3333" y="214.5337">Aprendizagem cont&#237;nua</text><path d="M1206.3333,150.106 L1216.3333,150.106 C1231.3333,150.106 1231.3333,210.1589 1246.3333,210.1589 L1256.3333,210.1589 " fill="none" style="stroke:#000000;stroke-width:1.0;"/><path d="M1098.3333,150.106 L1108.3333,150.106 C1123.3333,150.106 1123.3333,150.106 1138.3333,150.106 L1148.3333,150.106 " fill="none" style="stroke:#000000;stroke-width:1.0;"/><path d="M944.3333,223.5276 L954.3333,223.5276 C969.3333,223.5276 969.3333,150.106 984.3333,150.106 L994.3333,150.106 " fill="none" style="stroke:#000000;stroke-width:1.0;"/><rect fill="#FFFFFF" height="46.7373" rx="12.5" ry="12.5" style="stroke:#AAAAAA;stroke-width:1.5;" width="161" x="994.3333" y="246.8433"/><text fill="#000000" font-family="Verdana" font-size="11" lengthAdjust="spacing" textLength="131" x="1004.3333" y="267.9023">Substitui&#231;&#227;o do espa&#231;o</text><text fill="#000000" font-family="Verdana" font-size="11" lengthAdjust="spacing" textLength="141" x="1004.3333" y="281.271">f&#237;sico pelo espa&#231;o virtual</text><path d="M944.3333,223.5276 L954.3333,223.5276 C969.3333,223.5276 969.3333,270.2119 984.3333,270.2119 L994.3333,270.2119 " fill="none" style="stroke:#000000;stroke-width:1.0;"/><rect fill="#FFFFFF" height="33.3687" rx="12.5" ry="12.5" style="stroke:#AAAAAA;stroke-width:1.5;" width="116" x="994.3333" y="313.5806"/><text fill="#000000" font-family="Verdana" font-size="11" lengthAdjust="spacing" textLength="96" x="1004.3333" y="334.6396">Descentraliza&#231;&#227;o</text><path d="M944.3333,223.5276 L954.3333,223.5276 C969.3333,223.5276 969.3333,330.2649 984.3333,330.2649 L994.3333,330.2649 " fill="none" style="stroke:#000000;stroke-width:1.0;"/><rect fill="#FFFFFF" height="60.106" rx="12.5" ry="12.5" style="stroke:#AAAAAA;stroke-width:1.5;" width="169" x="994.3333" y="366.9492"/><text fill="#000000" font-family="Verdana" font-size="11" lengthAdjust="spacing" textLength="149" x="1004.3333" y="388.0083">Transforma&#231;&#227;o do tempo:</text><ellipse cx="1009.8333" cy="396.1865" fill="#000000" rx="2.5" ry="2.5" style="stroke:#000000;stroke-width:0.0;"/><text fill="#000000" font-family="Verdana" font-size="11" lengthAdjust="spacing" textLength="84" x="1016.3333" y="401.377">Simulaneidade</text><ellipse cx="1009.8333" cy="409.5552" fill="#000000" rx="2.5" ry="2.5" style="stroke:#000000;stroke-width:0.0;"/><text fill="#000000" font-family="Verdana" font-size="11" lengthAdjust="spacing" textLength="90" x="1016.3333" y="414.7456">Atemporalidade</text><path d="M944.3333,223.5276 L954.3333,223.5276 C969.3333,223.5276 969.3333,397.0022 984.3333,397.0022 L994.3333,397.0022 " fill="none" style="stroke:#000000;stroke-width:1.0;"/><path d="M797.3333,223.5276 L807.3333,223.5276 C822.3333,223.5276 822.3333,223.5276 837.3333,223.5276 L847.3333,223.5276 " fill="none" style="stroke:#000000;stroke-width:1.0;"/><path d="M634.3333,697.2671 L644.3333,697.2671 C659.3333,697.2671 659.3333,223.5276 674.3333,223.5276 L684.3333,223.5276 " fill="none" style="stroke:#000000;stroke-width:1.0;"/><rect fill="#FFFFFF" height="46.7373" rx="12.5" ry="12.5" style="stroke:#AAAAAA;stroke-width:1.5;" width="142" x="684.3333" y="560.4768"/><text fill="#000000" font-family="Verdana" font-size="11" lengthAdjust="spacing" textLength="122" x="694.3333" y="581.5359">Transforma&#231;&#227;o social</text><text fill="#000000" font-family="Verdana" font-size="11" lengthAdjust="spacing" textLength="51" x="694.3333" y="594.9045">profunda</text><text fill="#000000" font-family="Verdana" font-size="11" lengthAdjust="spacing" textLength="40" x="879.3333" y="588.2202">implica</text><rect fill="#FFFFFF" height="46.7373" rx="12.5" ry="12.5" style="stroke:#AAAAAA;stroke-width:1.5;" width="129" x="969.3333" y="480.4238"/><text fill="#000000" font-family="Verdana" font-size="11" lengthAdjust="spacing" textLength="81" x="979.3333" y="501.4829">Dinamismo na</text><text fill="#000000" font-family="Verdana" font-size="11" lengthAdjust="spacing" textLength="109" x="979.3333" y="514.8516">configura&#231;&#227;o social</text><text fill="#000000" font-family="Verdana" font-size="11" lengthAdjust="spacing" textLength="51" x="1151.3333" y="508.1672">promove</text><rect fill="#FFFFFF" height="46.7373" rx="12.5" ry="12.5" style="stroke:#AAAAAA;stroke-width:1.5;" width="155" x="1252.3333" y="447.0552"/><text fill="#000000" font-family="Verdana" font-size="11" lengthAdjust="spacing" textLength="112" x="1262.3333" y="468.1143">Irreversibilidade da</text><text fill="#000000" font-family="Verdana" font-size="11" lengthAdjust="spacing" textLength="135" x="1262.3333" y="481.4829">globaliza&#231;&#227;o econ&#243;mica</text><path d="M1202.3333,503.7925 L1212.3333,503.7925 C1227.3333,503.7925 1227.3333,470.4238 1242.3333,470.4238 L1252.3333,470.4238 " fill="none" style="stroke:#000000;stroke-width:1.0;"/><rect fill="#FFFFFF" height="46.7373" rx="12.5" ry="12.5" style="stroke:#AAAAAA;stroke-width:1.5;" width="173" x="1252.3333" y="513.7925"/><text fill="#000000" font-family="Verdana" font-size="11" lengthAdjust="spacing" textLength="153" x="1262.3333" y="534.8516">Reformula&#231;&#227;o e dissolu&#231;&#227;o</text><text fill="#000000" font-family="Verdana" font-size="11" lengthAdjust="spacing" textLength="50" x="1262.3333" y="548.2202">de redes</text><path d="M1202.3333,503.7925 L1212.3333,503.7925 C1227.3333,503.7925 1227.3333,537.1611 1242.3333,537.1611 L1252.3333,537.1611 " fill="none" style="stroke:#000000;stroke-width:1.0;"/><path d="M1098.3333,503.7925 L1108.3333,503.7925 C1123.3333,503.7925 1123.3333,503.7925 1138.3333,503.7925 L1148.3333,503.7925 " fill="none" style="stroke:#000000;stroke-width:1.0;"/><path d="M919.3333,583.8455 L929.3333,583.8455 C944.3333,583.8455 944.3333,503.7925 959.3333,503.7925 L969.3333,503.7925 " fill="none" style="stroke:#000000;stroke-width:1.0;"/><rect fill="#FFFFFF" height="46.7373" rx="12.5" ry="12.5" style="stroke:#AAAAAA;stroke-width:1.5;" width="127" x="969.3333" y="627.2141"/><text fill="#000000" font-family="Verdana" font-size="11" lengthAdjust="spacing" textLength="77" x="979.3333" y="648.2732">Nova cultura:</text><text fill="#000000" font-family="Verdana" font-size="11" font-style="italic" lengthAdjust="spacing" textLength="107" x="979.3333" y="661.6418">"Virtualidade Real"</text><text fill="#000000" font-family="Verdana" font-size="11" lengthAdjust="spacing" textLength="136" x="1149.3333" y="654.9575">caraterizada por nov@s</text><rect fill="#FFFFFF" height="33.3687" rx="12.5" ry="12.5" style="stroke:#AAAAAA;stroke-width:1.5;" width="127" x="1335.3333" y="580.5298"/><text fill="#000000" font-family="Verdana" font-size="11" lengthAdjust="spacing" textLength="107" x="1345.3333" y="601.5889">Esquemas mentais</text><path d="M1285.3333,650.5828 L1295.3333,650.5828 C1310.3333,650.5828 1310.3333,597.2141 1325.3333,597.2141 L1335.3333,597.2141 " fill="none" style="stroke:#000000;stroke-width:1.0;"/><rect fill="#FFFFFF" height="33.3687" rx="12.5" ry="12.5" style="stroke:#AAAAAA;stroke-width:1.5;" width="182" x="1335.3333" y="633.8984"/><text fill="#000000" font-family="Verdana" font-size="11" lengthAdjust="spacing" textLength="162" x="1345.3333" y="654.9575">Modos de apropria&#231;&#227;o social</text><path d="M1285.3333,650.5828 L1295.3333,650.5828 C1310.3333,650.5828 1310.3333,650.5828 1325.3333,650.5828 L1335.3333,650.5828 " fill="none" style="stroke:#000000;stroke-width:1.0;"/><rect fill="#FFFFFF" height="33.3687" rx="12.5" ry="12.5" style="stroke:#AAAAAA;stroke-width:1.5;" width="107" x="1335.3333" y="687.2671"/><text fill="#000000" font-family="Verdana" font-size="11" lengthAdjust="spacing" textLength="87" x="1345.3333" y="708.3262">Pr&#225;ticas sociais</text><path d="M1285.3333,650.5828 L1295.3333,650.5828 C1310.3333,650.5828 1310.3333,703.9514 1325.3333,703.9514 L1335.3333,703.9514 " fill="none" style="stroke:#000000;stroke-width:1.0;"/><path d="M1096.3333,650.5828 L1106.3333,650.5828 C1121.3333,650.5828 1121.3333,650.5828 1136.3333,650.5828 L1146.3333,650.5828 " fill="none" style="stroke:#000000;stroke-width:1.0;"/><path d="M919.3333,583.8455 L929.3333,583.8455 C944.3333,583.8455 944.3333,650.5828 959.3333,650.5828 L969.3333,650.5828 " fill="none" style="stroke:#000000;stroke-width:1.0;"/><path d="M826.3333,583.8455 L836.3333,583.8455 C851.3333,583.8455 851.3333,583.8455 866.3333,583.8455 L876.3333,583.8455 " fill="none" style="stroke:#000000;stroke-width:1.0;"/><path d="M634.3333,697.2671 L644.3333,697.2671 C659.3333,697.2671 659.3333,583.8455 674.3333,583.8455 L684.3333,583.8455 " fill="none" style="stroke:#000000;stroke-width:1.0;"/><rect fill="#FFFFFF" height="46.7373" rx="12.5" ry="12.5" style="stroke:#AAAAAA;stroke-width:1.5;" width="199" x="684.3333" y="1034.2163"/><text fill="#000000" font-family="Verdana" font-size="11" lengthAdjust="spacing" textLength="103" x="694.3333" y="1055.2754">Novas ecologias e</text><text fill="#000000" font-family="Verdana" font-size="11" lengthAdjust="spacing" textLength="179" x="694.3333" y="1068.644">ecossistemas de aprendizagem</text><text fill="#000000" font-family="Verdana" font-size="11" lengthAdjust="spacing" textLength="82" x="936.3333" y="888.4321">em resposta &#224;</text><text fill="#000000" font-family="Verdana" font-size="11" lengthAdjust="spacing" textLength="88" x="936.3333" y="901.8008">necessidade de</text><rect fill="#FFFFFF" height="33.3687" rx="12.5" ry="12.5" style="stroke:#AAAAAA;stroke-width:1.5;" width="120" x="1074.3333" y="740.6357"/><text fill="#000000" font-family="Verdana" font-size="11" lengthAdjust="spacing" textLength="100" x="1084.3333" y="761.6948">Habilita&#231;&#227;o digital</text><path d="M1024.3333,890.7417 L1034.3333,890.7417 C1049.3333,890.7417 1049.3333,757.3201 1064.3333,757.3201 L1074.3333,757.3201 " fill="none" style="stroke:#000000;stroke-width:1.0;"/><rect fill="#FFFFFF" height="33.3687" rx="12.5" ry="12.5" style="stroke:#AAAAAA;stroke-width:1.5;" width="207" x="1074.3333" y="794.0044"/><text fill="#000000" font-family="Verdana" font-size="11" lengthAdjust="spacing" textLength="187" x="1084.3333" y="815.0635">Capacidade de trabalho em rede</text><path d="M1024.3333,890.7417 L1034.3333,890.7417 C1049.3333,890.7417 1049.3333,810.6887 1064.3333,810.6887 L1074.3333,810.6887 " fill="none" style="stroke:#000000;stroke-width:1.0;"/><rect fill="#FFFFFF" height="33.3687" rx="12.5" ry="12.5" style="stroke:#AAAAAA;stroke-width:1.5;" width="225" x="1074.3333" y="847.373"/><text fill="#000000" font-family="Verdana" font-size="11" lengthAdjust="spacing" textLength="205" x="1084.3333" y="868.4321">Resolu&#231;&#227;o de problemas complexos</text><path d="M1024.3333,890.7417 L1034.3333,890.7417 C1049.3333,890.7417 1049.3333,864.0574 1064.3333,864.0574 L1074.3333,864.0574 " fill="none" style="stroke:#000000;stroke-width:1.0;"/><rect fill="#FFFFFF" height="33.3687" rx="12.5" ry="12.5" style="stroke:#AAAAAA;stroke-width:1.5;" width="140" x="1074.3333" y="900.7417"/><text fill="#000000" font-family="Verdana" font-size="11" lengthAdjust="spacing" textLength="120" x="1084.3333" y="921.8008">Compet&#234;ncia criativa</text><path d="M1024.3333,890.7417 L1034.3333,890.7417 C1049.3333,890.7417 1049.3333,917.426 1064.3333,917.426 L1074.3333,917.426 " fill="none" style="stroke:#000000;stroke-width:1.0;"/><rect fill="#FFFFFF" height="33.3687" rx="12.5" ry="12.5" style="stroke:#AAAAAA;stroke-width:1.5;" width="159" x="1074.3333" y="954.1104"/><text fill="#000000" font-family="Verdana" font-size="11" lengthAdjust="spacing" textLength="139" x="1084.3333" y="975.1694">Capacidade de inova&#231;&#227;o</text><path d="M1024.3333,890.7417 L1034.3333,890.7417 C1049.3333,890.7417 1049.3333,970.7947 1064.3333,970.7947 L1074.3333,970.7947 " fill="none" style="stroke:#000000;stroke-width:1.0;"/><rect fill="#FFFFFF" height="33.3687" rx="12.5" ry="12.5" style="stroke:#AAAAAA;stroke-width:1.5;" width="201" x="1074.3333" y="1007.479"/><text fill="#000000" font-family="Verdana" font-size="11" lengthAdjust="spacing" textLength="181" x="1084.3333" y="1028.5381">Aprendizagem ao longo da vida</text><path d="M1024.3333,890.7417 L1034.3333,890.7417 C1049.3333,890.7417 1049.3333,1024.1633 1064.3333,1024.1633 L1074.3333,1024.1633 " fill="none" style="stroke:#000000;stroke-width:1.0;"/><path d="M883.3333,1057.585 L893.3333,1057.585 C908.3333,1057.585 908.3333,890.7417 923.3333,890.7417 L933.3333,890.7417 " fill="none" style="stroke:#000000;stroke-width:1.0;"/><text fill="#000000" font-family="Verdana" font-size="11" lengthAdjust="spacing" textLength="45" x="936.3333" y="1222.0657">envolve</text><rect fill="#FFFFFF" height="46.7373" rx="12.5" ry="12.5" style="stroke:#AAAAAA;stroke-width:1.5;" width="206" x="1031.3333" y="1194.3223"/><text fill="#000000" font-family="Verdana" font-size="11" lengthAdjust="spacing" textLength="108" x="1041.3333" y="1215.3813">Defini&#231;&#227;o de novas</text><text fill="#000000" font-family="Verdana" font-size="11" lengthAdjust="spacing" textLength="186" x="1041.3333" y="1228.75">formas de educar e ser educado</text><text fill="#000000" font-family="Verdana" font-size="11" lengthAdjust="spacing" textLength="55" x="1290.3333" y="1222.0657">tais como</text><rect fill="#FFFFFF" height="46.7373" rx="12.5" ry="12.5" style="stroke:#AAAAAA;stroke-width:1.5;" width="127" x="1395.3333" y="1060.8477"/><text fill="#000000" font-family="Verdana" font-size="11" lengthAdjust="spacing" textLength="107" x="1405.3333" y="1081.9067">Aplica&#231;&#227;o imediata</text><text fill="#000000" font-family="Verdana" font-size="11" lengthAdjust="spacing" textLength="97" x="1405.3333" y="1095.2754">de conhecimento</text><path d="M1345.3333,1217.6909 L1355.3333,1217.6909 C1370.3333,1217.6909 1370.3333,1084.2163 1385.3333,1084.2163 L1395.3333,1084.2163 " fill="none" style="stroke:#000000;stroke-width:1.0;"/><rect fill="#FFFFFF" height="46.7373" rx="12.5" ry="12.5" style="stroke:#AAAAAA;stroke-width:1.5;" width="129" x="1395.3333" y="1127.585"/><text fill="#000000" font-family="Verdana" font-size="11" lengthAdjust="spacing" textLength="109" x="1405.3333" y="1148.644">Ensinar e aprender</text><text fill="#000000" font-family="Verdana" font-size="11" lengthAdjust="spacing" textLength="84" x="1405.3333" y="1162.0127">em mobilidade</text><path d="M1345.3333,1217.6909 L1355.3333,1217.6909 C1370.3333,1217.6909 1370.3333,1150.9536 1385.3333,1150.9536 L1395.3333,1150.9536 " fill="none" style="stroke:#000000;stroke-width:1.0;"/><rect fill="#FFFFFF" height="46.7373" rx="12.5" ry="12.5" style="stroke:#AAAAAA;stroke-width:1.5;" width="95" x="1395.3333" y="1261.0596"/><text fill="#000000" font-family="Verdana" font-size="11" lengthAdjust="spacing" textLength="75" x="1405.3333" y="1282.1187">Flexibiliza&#231;&#227;o</text><text fill="#000000" font-family="Verdana" font-size="11" lengthAdjust="spacing" textLength="54" x="1405.3333" y="1295.4873">da escola</text><text fill="#000000" font-family="Verdana" font-size="11" lengthAdjust="spacing" textLength="61" x="1543.3333" y="1288.803">atrav&#233;s de</text><rect fill="#FFFFFF" height="46.7373" rx="12.5" ry="12.5" style="stroke:#AAAAAA;stroke-width:1.5;" width="123" x="1654.3333" y="1194.3223"/><text fill="#000000" font-family="Verdana" font-size="11" lengthAdjust="spacing" textLength="85" x="1664.3333" y="1215.3813">Planeamento e</text><text fill="#000000" font-family="Verdana" font-size="11" lengthAdjust="spacing" textLength="103" x="1664.3333" y="1228.75">gest&#227;o acad&#233;mica</text><path d="M1604.3333,1284.4282 L1614.3333,1284.4282 C1629.3333,1284.4282 1629.3333,1217.6909 1644.3333,1217.6909 L1654.3333,1217.6909 " fill="none" style="stroke:#000000;stroke-width:1.0;"/><rect fill="#FFFFFF" height="46.7373" rx="12.5" ry="12.5" style="stroke:#AAAAAA;stroke-width:1.5;" width="107" x="1654.3333" y="1261.0596"/><text fill="#000000" font-family="Verdana" font-size="11" lengthAdjust="spacing" textLength="87" x="1664.3333" y="1282.1187">Capacita&#231;&#227;o do</text><text fill="#000000" font-family="Verdana" font-size="11" lengthAdjust="spacing" textLength="81" x="1664.3333" y="1295.4873">corpo docente</text><path d="M1604.3333,1284.4282 L1614.3333,1284.4282 C1629.3333,1284.4282 1629.3333,1284.4282 1644.3333,1284.4282 L1654.3333,1284.4282 " fill="none" style="stroke:#000000;stroke-width:1.0;"/><rect fill="#FFFFFF" height="46.7373" rx="12.5" ry="12.5" style="stroke:#AAAAAA;stroke-width:1.5;" width="110" x="1654.3333" y="1327.7969"/><text fill="#000000" font-family="Verdana" font-size="11" lengthAdjust="spacing" textLength="80" x="1664.3333" y="1348.856">Integra&#231;&#227;o de</text><text fill="#000000" font-family="Verdana" font-size="11" lengthAdjust="spacing" textLength="90" x="1664.3333" y="1362.2246">espa&#231;os digitais</text><path d="M1604.3333,1284.4282 L1614.3333,1284.4282 C1629.3333,1284.4282 1629.3333,1351.1655 1644.3333,1351.1655 L1654.3333,1351.1655 " fill="none" style="stroke:#000000;stroke-width:1.0;"/><path d="M1490.3333,1284.4282 L1500.3333,1284.4282 C1515.3333,1284.4282 1515.3333,1284.4282 1530.3333,1284.4282 L1540.3333,1284.4282 " fill="none" style="stroke:#000000;stroke-width:1.0;"/><path d="M1345.3333,1217.6909 L1355.3333,1217.6909 C1370.3333,1217.6909 1370.3333,1284.4282 1385.3333,1284.4282 L1395.3333,1284.4282 " fill="none" style="stroke:#000000;stroke-width:1.0;"/><path d="M1237.3333,1217.6909 L1247.3333,1217.6909 C1262.3333,1217.6909 1262.3333,1217.6909 1277.3333,1217.6909 L1287.3333,1217.6909 " fill="none" style="stroke:#000000;stroke-width:1.0;"/><path d="M981.3333,1217.6909 L991.3333,1217.6909 C1006.3333,1217.6909 1006.3333,1217.6909 1021.3333,1217.6909 L1031.3333,1217.6909 " fill="none" style="stroke:#000000;stroke-width:1.0;"/><path d="M883.3333,1057.585 L893.3333,1057.585 C908.3333,1057.585 908.3333,1217.6909 923.3333,1217.6909 L933.3333,1217.6909 " fill="none" style="stroke:#000000;stroke-width:1.0;"/><path d="M634.3333,697.2671 L644.3333,697.2671 C659.3333,697.2671 659.3333,1057.585 674.3333,1057.585 L684.3333,1057.585 " fill="none" style="stroke:#000000;stroke-width:1.0;"/><path d="M541.3333,697.2671 L551.3333,697.2671 C566.3333,697.2671 566.3333,697.2671 581.3333,697.2671 L591.3333,697.2671 " fill="none" style="stroke:#000000;stroke-width:1.0;"/><text fill="#000000" font-family="Verdana" font-size="11" lengthAdjust="spacing" textLength="108" x="233" y="701.6418">constitui e define a</text><rect fill="#FFFFFF" height="33.3687" rx="12.5" ry="12.5" style="stroke:#AAAAAA;stroke-width:1.5;" width="92" x="91" y="573.8455"/><text fill="#000000" font-family="Verdana" font-size="11" lengthAdjust="spacing" textLength="72" x="101" y="594.9045">Globaliza&#231;&#227;o</text><path d="M233,697.2671 L223,697.2671 C208,697.2671 208,590.5298 193,590.5298 L183,590.5298 " fill="none" style="stroke:#000000;stroke-width:1.0;"/><rect fill="#FFFFFF" height="33.3687" rx="12.5" ry="12.5" style="stroke:#AAAAAA;stroke-width:1.5;" width="139" x="44" y="627.2141"/><text fill="#000000" font-family="Verdana" font-size="11" lengthAdjust="spacing" textLength="119" x="54" y="648.2732">Acesso &#224; informa&#231;&#227;o</text><path d="M233,697.2671 L223,697.2671 C208,697.2671 208,643.8984 193,643.8984 L183,643.8984 " fill="none" style="stroke:#000000;stroke-width:1.0;"/><rect fill="#FFFFFF" height="33.3687" rx="12.5" ry="12.5" style="stroke:#AAAAAA;stroke-width:1.5;" width="73" x="110" y="680.5828"/><text fill="#000000" font-family="Verdana" font-size="11" lengthAdjust="spacing" textLength="53" x="120" y="701.6418">Consumo</text><path d="M233,697.2671 L223,697.2671 C208,697.2671 208,697.2671 193,697.2671 L183,697.2671 " fill="none" style="stroke:#000000;stroke-width:1.0;"/><rect fill="#FFFFFF" height="33.3687" rx="12.5" ry="12.5" style="stroke:#AAAAAA;stroke-width:1.5;" width="173" x="10" y="733.9514"/><text fill="#000000" font-family="Verdana" font-size="11" lengthAdjust="spacing" textLength="153" x="20" y="755.0105">Tecnologias de informa&#231;&#227;o</text><path d="M233,697.2671 L223,697.2671 C208,697.2671 208,750.6357 193,750.6357 L183,750.6357 " fill="none" style="stroke:#000000;stroke-width:1.0;"/><rect fill="#FFFFFF" height="33.3687" rx="12.5" ry="12.5" style="stroke:#AAAAAA;stroke-width:1.5;" width="97" x="86" y="787.3201"/><text fill="#000000" font-family="Verdana" font-size="11" lengthAdjust="spacing" textLength="77" x="96" y="808.3792">Redes sociais</text><path d="M233,697.2671 L223,697.2671 C208,697.2671 208,804.0044 193,804.0044 L183,804.0044 " fill="none" style="stroke:#000000;stroke-width:1.0;"/><path d="M398,697.2671 L388,697.2671 C373,697.2671 373,697.2671 358,697.2671 L348,697.2671 " fill="none" style="stroke:#000000;stroke-width:1.0;"/><!--SRC=[xLdRRjn637tNLp11KJGBnAkzU6rlYYA-nwcT1B7ZzisW94exYJIZpemsSOhyIui-52cGftx2_bWvkkpDJllI15xOQy2GE1poa3oS2_JOMDGs4pBAC0U_Ss5KA2Z2Y2uekz0KaNSlebX8WkEZmoTdEyUlzhrxGePf4L6XKnXPcvjXkvq8OzSIOKT5K1ZIePAMf5qBLTR6B37jYDOtrWU-t-dY9gx7FlMxVJ_kRNM3mSOczlssnhVjSCllXOEW7tS6mS0FredYNhU_6VjRlVxMHen8lOtDUBtJDlOofRMyo5Al1Tz_wuBuuRH13fJ1IuVSIocsO8HxRBKkW44PAsmXWA0E2i4DjU0mLG6cuZrE_fpyeKhHTaZ6A9Zy1aB6IcTpGxjigCYgvpCAfKfL8j2mqQkw3ea1brOKnlEqI4Rpc4IMfoB44iLmdn6gJ20a9HoF84xftUJJcD97Ji75W1ejQKOQ8UHAb-8M7AXGWKHshyOpvspIkUT8HIc3I7bM8viUgSgWCsaP6EScgwVmfBDQnpc0NAlNP9Md2jRK56CpimLFH4wQJ4uSt4Booj7jN9ECM9nmGHmX9fzaWJMkqoAeQj400xR31fGNJpuPmT7ab4w5C1RQ5bXdeGLxP4Acbrxswf1BCwk0isifozMGUN8giY95ISAHXD-ton5dmmaULILODb0MBlKu2N4X8spAq9Ijyhed96R2PAu47aSQYwJG2mPcsMPBcHhJDDT7MjEOj161g810X5woG4SWjZdvEsE7qznpOHrA3gXMWKWmNTEYoWQRSSrhQltXCwO5X4Lg6TVGQxVldrS9hJo-94pljzipaCii0wRLOpEjxBxvfQ2C2Pzn4Hojcu4J5Qco3P33pBLOJ6AZzK9FVhSSp5nRD1YDYxNk9lBusHXUM4fVbTKfe-fA39bRZeAArm3kLK-IQziwaTJmvGcwxDg6588NgWOFx6AEOJC1clQ0qcvKruapDCsjq-BeWhH4nNsJSuygqrZZTxAJloG71Y5dm8enNkjfkLKN-mKLf4ecx0sP_17Ml2CvLcd3dk7UV6kJAn8QhoHlcIwA2YuaKuCNvEeb-jUstouvNPaJ6KKC7XsJc7qZRd5NR3KZuBuqJ7jdlYeBQOznPwhXyKppW1DKqhlfLOw96rYbCpep7kJKZoSV7VAfj3LyuJeMIzTCY8ICTUYGGvbyN6W8rgtoEwsoubRKkNjmQmNDQnxnUz9qAFkhbnbJKqDmttYFEQPwO-IN_zudHwBSUd9xoMrXHoeoyoAqLekWiCHavvzv8sJEJPO1irkJifSvxUvW-2RHYjUPNUu13HqS3CAkL_zcKu8blJYElQjQeT1XIj7kYDz2TWA_UW0Q8r4OsEJ7c5VaK_6UeDEftvvndk6ST8IyZ7rOi9MYCQK1kEBzcvtdF-ySyb2WD9EW4Y9YgUpCLXBVzwzpiunZbew3wTHUhtTbP3O30BLMR-Uzb8A3gwwcydcxKs5ZqicQQbrHdX-OOPYAZxXN6l67XN9m3PJ-J0hvJ3IWxb8Aw-f_bImk59l_y-eiSfJsHfPyaPagJIcqWazaDn_iAV6-AKFQKU-knqg- -rl26fQ_hmPt3g_WPLB76D9AyDPjnKhIAh1MgeXkFig8z_y0pGeWvROgRYpCEPnyDGvlQaA_m4xwOMa356F1Hw7R6BofL_uw-1Kz5gKYfcCXUV-QbMYw1qm7hz_J5j8Hk67KbokohqYhLReIM7dt-toBtGIerom8Um8p9QFRiYu0SC1y-Spck-YQsyN_S-tWUwkbsvFQyfg-n7PQkayl9aW5h_d-S8isfOLZg5sHetsgYkXM7XmqanDbagx08TnOfJ6viK3lFXJTVIYw-r1qzw7exaFHtOUYB_UXoC6mhqwEeMnL9Q6prlMx_RNUTsUZ0WueWCuwTBQ6VN_ehyDF-sVWXXzutns-E1vtcUU53iiMhKxsRE61znIv9ryMVBNBQ0ZFSv9Fztvi1B0lUSrJqaNkFJq_cIaC-WztX8LJqem5payyPW5oP_ECK4L29aDuTNRmSDCxvWD6mMGQCckyNTwohRxaiTD_0000]--></g></svg>