<?xml version="1.0" encoding="us-ascii" standalone="no"?><svg xmlns="http://www.w3.org/2000/svg" xmlns:xlink="http://www.w3.org/1999/xlink" contentStyleType="text/css" height="262px" preserveAspectRatio="none" style="width:1243px;height:262px;background:#FFFFFF;" version="1.1" viewBox="0 0 1243 262" width="1243px" zoomAndPan="magnify"><defs/><g><rect fill="#FFFFFF" height="33.3687" rx="12.5" ry="12.5" style="stroke:#AAAAAA;stroke-width:1.5;" width="196" x="568" y="113.4216"/><text fill="#000000" font-family="Verdana" font-size="11" font-weight="bold" lengthAdjust="spacing" textLength="176" x="578" y="134.4807">Pr&#225;ticas de Avalia&#231;&#227;o Digital</text><rect fill="#FFFFFF" height="33.3687" rx="12.5" ry="12.5" style="stroke:#AAAAAA;stroke-width:1.5;" width="66" x="814" y="27.0784"/><text fill="#000000" font-family="Verdana" font-size="11" lengthAdjust="spacing" textLength="46" x="824" y="48.1375">Fun&#231;&#245;es</text><text fill="#000000" font-family="Verdana" font-size="11" lengthAdjust="spacing" textLength="166" x="933" y="25.0845">Diagnosticar a aprendizagem</text><path d="M880,43.7627 L890,43.7627 C905,43.7627 905,20.7097 920,20.7097 L930,20.7097 " fill="none" style="stroke:#000000;stroke-width:1.0;"/><text fill="#000000" font-family="Verdana" font-size="11" lengthAdjust="spacing" textLength="168" x="933" y="40.4531">Regular o percurso formativo</text><path d="M880,43.7627 L890,43.7627 C905,43.7627 905,36.0784 920,36.0784 L930,36.0784 " fill="none" style="stroke:#000000;stroke-width:1.0;"/><text fill="#000000" font-family="Verdana" font-size="11" lengthAdjust="spacing" textLength="134" x="933" y="55.8218">Certificar compet&#234;ncias</text><path d="M880,43.7627 L890,43.7627 C905,43.7627 905,51.447 920,51.447 L930,51.447 " fill="none" style="stroke:#000000;stroke-width:1.0;"/><text fill="#000000" font-family="Verdana" font-size="11" lengthAdjust="spacing" textLength="229" x="933" y="71.1904">Apoiar a tomada de decis&#227;o pedag&#243;gica</text><path d="M880,43.7627 L890,43.7627 C905,43.7627 905,66.8157 920,66.8157 L930,66.8157 " fill="none" style="stroke:#000000;stroke-width:1.0;"/><path d="M764,130.106 L774,130.106 C789,130.106 789,43.7627 804,43.7627 L814,43.7627 " fill="none" style="stroke:#000000;stroke-width:1.0;"/><rect fill="#FFFFFF" height="33.3687" rx="12.5" ry="12.5" style="stroke:#AAAAAA;stroke-width:1.5;" width="104" x="814" y="84.5"/><text fill="#000000" font-family="Verdana" font-size="11" lengthAdjust="spacing" textLength="84" x="824" y="105.5591">Caracter&#237;sticas</text><text fill="#000000" font-family="Verdana" font-size="11" lengthAdjust="spacing" textLength="123" x="971" y="90.1904">Interativa, e cont&#237;nua</text><path d="M918,101.1843 L928,101.1843 C943,101.1843 943,85.8157 958,85.8157 L968,85.8157 " fill="none" style="stroke:#000000;stroke-width:1.0;"/><text fill="#000000" font-family="Verdana" font-size="11" lengthAdjust="spacing" textLength="155" x="971" y="105.5591">Adapt&#225;vel, e personalizada</text><path d="M918,101.1843 L928,101.1843 C943,101.1843 943,101.1843 958,101.1843 L968,101.1843 " fill="none" style="stroke:#000000;stroke-width:1.0;"/><text fill="#000000" font-family="Verdana" font-size="11" lengthAdjust="spacing" textLength="61" x="971" y="120.9277">Multimodal</text><path d="M918,101.1843 L928,101.1843 C943,101.1843 943,116.553 958,116.553 L968,116.553 " fill="none" style="stroke:#000000;stroke-width:1.0;"/><path d="M764,130.106 L774,130.106 C789,130.106 789,101.1843 804,101.1843 L814,101.1843 " fill="none" style="stroke:#000000;stroke-width:1.0;"/><rect fill="#FFFFFF" height="33.3687" rx="12.5" ry="12.5" style="stroke:#AAAAAA;stroke-width:1.5;" width="117" x="814" y="138.2903"/><text fill="#000000" font-family="Verdana" font-size="11" lengthAdjust="spacing" textLength="97" x="824" y="159.3494">Recursos Digitais</text><text fill="#000000" font-family="Verdana" font-size="11" lengthAdjust="spacing" textLength="186" x="984" y="136.2964">Ferramentas de avalia&#231;&#227;o online</text><path d="M931,154.9746 L941,154.9746 C956,154.9746 956,131.9216 971,131.9216 L981,131.9216 " fill="none" style="stroke:#000000;stroke-width:1.0;"/><text fill="#000000" font-family="Verdana" font-size="11" lengthAdjust="spacing" textLength="209" x="984" y="151.665">Ambientes virtuais de aprendizagem</text><path d="M931,154.9746 L941,154.9746 C956,154.9746 956,147.2903 971,147.2903 L981,147.2903 " fill="none" style="stroke:#000000;stroke-width:1.0;"/><text fill="#000000" font-family="Verdana" font-size="11" lengthAdjust="spacing" textLength="148" x="984" y="167.0337">Plataformas colaborativas</text><path d="M931,154.9746 L941,154.9746 C956,154.9746 956,162.6589 971,162.6589 L981,162.6589 " fill="none" style="stroke:#000000;stroke-width:1.0;"/><text fill="#000000" font-family="Verdana" font-size="11" lengthAdjust="spacing" textLength="182" x="984" y="182.4023">Recolha automatizada de dados</text><path d="M931,154.9746 L941,154.9746 C956,154.9746 956,178.0276 971,178.0276 L981,178.0276 " fill="none" style="stroke:#000000;stroke-width:1.0;"/><path d="M764,130.106 L774,130.106 C789,130.106 789,154.9746 804,154.9746 L814,154.9746 " fill="none" style="stroke:#000000;stroke-width:1.0;"/><rect fill="#FFFFFF" height="33.3687" rx="12.5" ry="12.5" style="stroke:#AAAAAA;stroke-width:1.5;" width="141" x="814" y="199.7649"/><text fill="#000000" font-family="Verdana" font-size="11" lengthAdjust="spacing" textLength="121" x="824" y="220.824">Pr&#225;ticas de Feedback</text><text fill="#000000" font-family="Verdana" font-size="11" lengthAdjust="spacing" textLength="120" x="1008" y="197.771">Formativo e cont&#237;nuo</text><path d="M955,216.4492 L965,216.4492 C980,216.4492 980,193.3962 995,193.3962 L1005,193.3962 " fill="none" style="stroke:#000000;stroke-width:1.0;"/><text fill="#000000" font-family="Verdana" font-size="11" lengthAdjust="spacing" textLength="134" x="1008" y="213.1396">Espec&#237;fico e construtivo</text><path d="M955,216.4492 L965,216.4492 C980,216.4492 980,208.7649 995,208.7649 L1005,208.7649 " fill="none" style="stroke:#000000;stroke-width:1.0;"/><text fill="#000000" font-family="Verdana" font-size="11" lengthAdjust="spacing" textLength="217" x="1008" y="228.5083">Focado no processo, n&#227;o no resultado</text><path d="M955,216.4492 L965,216.4492 C980,216.4492 980,224.1335 995,224.1335 L1005,224.1335 " fill="none" style="stroke:#000000;stroke-width:1.0;"/><text fill="#000000" font-family="Verdana" font-size="11" lengthAdjust="spacing" textLength="223" x="1008" y="243.877">Estimula autorreflex&#227;o e autoavalia&#231;&#227;o</text><path d="M955,216.4492 L965,216.4492 C980,216.4492 980,239.5022 995,239.5022 L1005,239.5022 " fill="none" style="stroke:#000000;stroke-width:1.0;"/><path d="M764,130.106 L774,130.106 C789,130.106 789,216.4492 804,216.4492 L814,216.4492 " fill="none" style="stroke:#000000;stroke-width:1.0;"/><text fill="#000000" font-family="Verdana" font-size="11" lengthAdjust="spacing" textLength="152" x="359" y="134.4807">conceitos fundamentais de</text><rect fill="#FFFFFF" height="46.7373" rx="12.5" ry="12.5" style="stroke:#AAAAAA;stroke-width:1.5;" width="212" x="97" y="20"/><text fill="#000000" font-family="Verdana" font-size="11" lengthAdjust="spacing" textLength="192" x="107" y="41.0591">Integra&#231;&#227;o de tecnologias digitais</text><text fill="#000000" font-family="Verdana" font-size="11" lengthAdjust="spacing" textLength="128" x="107" y="54.4277">no processo avaliativo</text><path d="M359,130.106 L349,130.106 C334,130.106 334,43.3687 319,43.3687 L309,43.3687 " fill="none" style="stroke:#000000;stroke-width:1.0;"/><rect fill="#FFFFFF" height="33.3687" rx="12.5" ry="12.5" style="stroke:#AAAAAA;stroke-width:1.5;" width="299" x="10" y="86.7373"/><text fill="#000000" font-family="Verdana" font-size="11" lengthAdjust="spacing" textLength="279" x="20" y="107.7964">Envolvimento de avalia&#231;&#227;o formativa e sumativa</text><path d="M359,130.106 L349,130.106 C334,130.106 334,103.4216 319,103.4216 L309,103.4216 " fill="none" style="stroke:#000000;stroke-width:1.0;"/><rect fill="#FFFFFF" height="33.3687" rx="12.5" ry="12.5" style="stroke:#AAAAAA;stroke-width:1.5;" width="223" x="86" y="140.106"/><text fill="#000000" font-family="Verdana" font-size="11" lengthAdjust="spacing" textLength="203" x="96" y="161.165">Promo&#231;&#227;o aprendizagem aut&#243;noma</text><path d="M359,130.106 L349,130.106 C334,130.106 334,156.7903 319,156.7903 L309,156.7903 " fill="none" style="stroke:#000000;stroke-width:1.0;"/><rect fill="#FFFFFF" height="46.7373" rx="12.5" ry="12.5" style="stroke:#AAAAAA;stroke-width:1.5;" width="228" x="81" y="193.4746"/><text fill="#000000" font-family="Verdana" font-size="11" lengthAdjust="spacing" textLength="208" x="91" y="214.5337">Princ&#237;pios de flexibilidade, equidade,</text><text fill="#000000" font-family="Verdana" font-size="11" lengthAdjust="spacing" textLength="176" x="91" y="227.9023">acessibilidade, e transpar&#234;ncia</text><path d="M359,130.106 L349,130.106 C334,130.106 334,216.8433 319,216.8433 L309,216.8433 " fill="none" style="stroke:#000000;stroke-width:1.0;"/><path d="M568,130.106 L558,130.106 C543,130.106 543,130.106 528,130.106 L518,130.106 " fill="none" style="stroke:#000000;stroke-width:1.0;"/><!--SRC=[xLXVRzis47_Nf-20FRH66yj_axWlhTEuQvUiGPDsUpDEuadcIf4QIRbDXdwOOWy31lIfs2Vm5zjHacFPIHy6R8MDL042-NYy-ztlZZnIZwq3upAXU0Ov2mVJC9pc1fo8mKuvJc4EKa0CUif5AXp8u3kEYL38Jfu_- -5YVFBwEFXEg5WM70iZsSovt8xQxLHOjqSJPaLKM3InLWwLsujrreOijMsEW_t1C0mxNJY0GH9YlziFazvXDnhk7q0_R1juruuFmruyZFf9PnWDmsY0cFIw_OCaFEpr3_SJ0Epj7oI3JjkwIubxUP7986YnLklCB3wM8J2Ex4aPmkBFnH-QFQs2QBM2G6BYc1KSQKfhoWXXZC9fov92SSW8BOXoFWstHiy9VsfgAoHq62ijTIgyZz8eAGTAizpe6AtLh6BEYRb-v2smOpNNSYwyuT82D60bscHU5HWoMrIlvQGpepDTwK1kK75n1Ibc30gt-AnqLcgDpWnbOF4f5xe4d4XyBo8X1GUE3nZ-LbHl0NXapH7c32YRWrdyfM81ZuB0Y7IseeLD2aNU_qRh_Ko9FaYLjfvQms0DKgNm2jD2qXZnG4alZ5t5fYkD8pHE9AK1AeOSNUMwTl0arw8qxIWs3ZuQZh6mde0SEQIBpodDzT2Em43iq2m-bNXg0pvFfkJFX-VBRl595L1Rvv2xnSSvIZz82ArMb8GhybGfd1RIYKnpAdFoy0hB26nTDQ9sCK5ZglgmctdKIjBIg9rbaI0bj6mkZ2lgOhf9sPa41oL9bl1AY7I5touP9U4CVCQrv_5gIGjmxLNOMgrF47a4yTiQwPBw1XLr6evjZbGob8Xwq3fJhB8qqJ7PPurwVi2KZv0a1YtHHCDBIqGP9Rr4Q0pwwlEQM0eQx0IFAV9wfmc2n_zwuvbHKJBCSdV9CdGppMrJ1CuP4HN4T-0V-rOegcl8cAM2GEqkSpmQ4pEfqRI-ZsZj6jQ1uJ3k1lMpcX9jw2L94jpKYeM99VAZMLs8xFU0CGDS59OTq6j2Z9-BAsITJlth9oeRzWOD1mN1XpLR4gmj3R0RthyVl_nb_8o6g38ucae80AMoDrj9mZ2ypSqcZXKTa-kflLxlniXg1cDWZ7xNz58A9ZTTNSkRTg-5IvDUjipM3UNcm0h3jVWvbUfI_64j7PG3RRv08JMP8NOtAAop_rLON4is_QSo5paejvKfNwzCBIN6Jj0EiVrWpwdN8VNniNv_ErOC_Ty6rhXylXhS1bxXkrL2RNadwjRtQwrm5wfMQOxRZv9Jvu_0xW1IMbR5ri9iuAIxHhojXFuFdVJ3HWCKSq57eRiOlArt_Zhu7JqMIP7W2TqWneqKNVU0wy7RUzeQ7P4V1dEv8tr5EQFbJc2bxlVb9RODK6_P4EZMdcd5xyg-mChF54H0SnNTShluRwuTT8rrU7UeBM_j6zME6_VfTO9qz2lT7-vGKrexXheTETfBNV0xUN0mL9oWKha3Xt3hj85qUu_XtxwyV_lo_ktB-zP_UQUmbNjzUiBcb0QX5UliTSDkVwztxs9MK1mHwmnOvt3K3qVXWFryVC7yyFtWthEpatcNMLqOkcTnOQkp4Lcu7xmWR-nLGOVZ34ViPOxgnTCVbmA_08NHocSkUF7cTAKmx3yS2yVEqH0MzkOqU8e9K8Wq8zPSg7J4NbzC7Xu49xH55vIv4HqsWYFQz9ovfB7pVm00]--></g></svg>