<?xml version="1.0" encoding="us-ascii" standalone="no"?><svg xmlns="http://www.w3.org/2000/svg" xmlns:xlink="http://www.w3.org/1999/xlink" contentStyleType="text/css" height="220px" preserveAspectRatio="none" style="width:1553px;height:220px;background:#FFFFFF;" version="1.1" viewBox="0 0 1553 220" width="1553px" zoomAndPan="magnify"><defs/><g><rect fill="#FFFFFF" height="46.7373" rx="12.5" ry="12.5" style="stroke:#AAAAAA;stroke-width:1.5;" width="232" x="860" y="86.106"/><text fill="#000000" font-family="Verdana" font-size="11" font-weight="bold" lengthAdjust="spacing" textLength="199" x="870" y="107.165">Conceitos, princ&#237;pios, fun&#231;&#245;es e</text><text fill="#000000" font-family="Verdana" font-size="11" font-weight="bold" lengthAdjust="spacing" textLength="212" x="870" y="120.5337">caracter&#237;sticas da avalia&#231;&#227;o digital</text><text fill="#000000" font-family="Verdana" font-size="11" lengthAdjust="spacing" textLength="51" x="1145" y="83.1121">implicam</text><rect fill="#FFFFFF" height="33.3687" rx="12.5" ry="12.5" style="stroke:#AAAAAA;stroke-width:1.5;" width="81" x="1246" y="31.3157"/><text fill="#000000" font-family="Verdana" font-size="11" lengthAdjust="spacing" textLength="61" x="1256" y="52.3748">Tecnologia</text><text fill="#000000" font-family="Verdana" font-size="11" lengthAdjust="spacing" textLength="161" x="1380" y="29.3218">Personaliza&#231;&#227;o da avalia&#231;&#227;o</text><path d="M1327,48 L1337,48 C1352,48 1352,24.947 1367,24.947 L1377,24.947 " fill="none" style="stroke:#000000;stroke-width:1.0;"/><text fill="#000000" font-family="Verdana" font-size="11" lengthAdjust="spacing" textLength="106" x="1380" y="44.6904">Feedback cont&#237;nuo</text><path d="M1327,48 L1337,48 C1352,48 1352,40.3157 1367,40.3157 L1377,40.3157 " fill="none" style="stroke:#000000;stroke-width:1.0;"/><text fill="#000000" font-family="Verdana" font-size="11" lengthAdjust="spacing" textLength="156" x="1380" y="60.0591">Aprendizagem colaborativa</text><path d="M1327,48 L1337,48 C1352,48 1352,55.6843 1367,55.6843 L1377,55.6843 " fill="none" style="stroke:#000000;stroke-width:1.0;"/><text fill="#000000" font-family="Verdana" font-size="11" lengthAdjust="spacing" textLength="142" x="1380" y="75.4277">Inclus&#227;o e acessibilidade</text><path d="M1327,48 L1337,48 C1352,48 1352,71.053 1367,71.053 L1377,71.053 " fill="none" style="stroke:#000000;stroke-width:1.0;"/><path d="M1196,78.7373 L1206,78.7373 C1221,78.7373 1221,48 1236,48 L1246,48 " fill="none" style="stroke:#000000;stroke-width:1.0;"/><rect fill="#FFFFFF" height="33.3687" rx="12.5" ry="12.5" style="stroke:#AAAAAA;stroke-width:1.5;" width="47" x="1246" y="92.7903"/><text fill="#000000" font-family="Verdana" font-size="11" lengthAdjust="spacing" textLength="27" x="1256" y="113.8494">&#201;tica</text><text fill="#000000" font-family="Verdana" font-size="11" lengthAdjust="spacing" textLength="113" x="1346" y="90.7964">Equidade no acesso</text><path d="M1293,109.4746 L1303,109.4746 C1318,109.4746 1318,86.4216 1333,86.4216 L1343,86.4216 " fill="none" style="stroke:#000000;stroke-width:1.0;"/><text fill="#000000" font-family="Verdana" font-size="11" lengthAdjust="spacing" textLength="112" x="1346" y="106.165">Justi&#231;a nos crit&#233;rios</text><path d="M1293,109.4746 L1303,109.4746 C1318,109.4746 1318,101.7903 1333,101.7903 L1343,101.7903 " fill="none" style="stroke:#000000;stroke-width:1.0;"/><text fill="#000000" font-family="Verdana" font-size="11" lengthAdjust="spacing" textLength="187" x="1346" y="121.5337">Privacidade e prote&#231;&#227;o de dados</text><path d="M1293,109.4746 L1303,109.4746 C1318,109.4746 1318,117.1589 1333,117.1589 L1343,117.1589 " fill="none" style="stroke:#000000;stroke-width:1.0;"/><text fill="#000000" font-family="Verdana" font-size="11" lengthAdjust="spacing" textLength="130" x="1346" y="136.9023">Risco de discrimina&#231;&#227;o</text><path d="M1293,109.4746 L1303,109.4746 C1318,109.4746 1318,132.5276 1333,132.5276 L1343,132.5276 " fill="none" style="stroke:#000000;stroke-width:1.0;"/><path d="M1196,78.7373 L1206,78.7373 C1221,78.7373 1221,109.4746 1236,109.4746 L1246,109.4746 " fill="none" style="stroke:#000000;stroke-width:1.0;"/><path d="M1092,109.4746 L1102,109.4746 C1117,109.4746 1117,78.7373 1132,78.7373 L1142,78.7373 " fill="none" style="stroke:#000000;stroke-width:1.0;"/><text fill="#000000" font-family="Verdana" font-size="11" lengthAdjust="spacing" textLength="56" x="1145" y="175.324">requerem</text><rect fill="#FFFFFF" height="33.3687" rx="12.5" ry="12.5" style="stroke:#AAAAAA;stroke-width:1.5;" width="79" x="1251" y="154.2649"/><text fill="#000000" font-family="Verdana" font-size="11" lengthAdjust="spacing" textLength="59" x="1261" y="175.324">E-Portf&#243;lio</text><text fill="#000000" font-family="Verdana" font-size="11" lengthAdjust="spacing" textLength="120" x="1383" y="152.271">Avalia&#231;&#227;o processual</text><path d="M1330,170.9492 L1340,170.9492 C1355,170.9492 1355,147.8962 1370,147.8962 L1380,147.8962 " fill="none" style="stroke:#000000;stroke-width:1.0;"/><text fill="#000000" font-family="Verdana" font-size="11" lengthAdjust="spacing" textLength="88" x="1383" y="167.6396">Reflex&#227;o cr&#237;tica</text><path d="M1330,170.9492 L1340,170.9492 C1355,170.9492 1355,163.2649 1370,163.2649 L1380,163.2649 " fill="none" style="stroke:#000000;stroke-width:1.0;"/><text fill="#000000" font-family="Verdana" font-size="11" lengthAdjust="spacing" textLength="124" x="1383" y="183.0083">Feedback entre pares</text><path d="M1330,170.9492 L1340,170.9492 C1355,170.9492 1355,178.6335 1370,178.6335 L1380,178.6335 " fill="none" style="stroke:#000000;stroke-width:1.0;"/><text fill="#000000" font-family="Verdana" font-size="11" lengthAdjust="spacing" textLength="116" x="1383" y="198.377">Autonomia e autoria</text><path d="M1330,170.9492 L1340,170.9492 C1355,170.9492 1355,194.0022 1370,194.0022 L1380,194.0022 " fill="none" style="stroke:#000000;stroke-width:1.0;"/><path d="M1201,170.9492 L1211,170.9492 C1226,170.9492 1226,170.9492 1241,170.9492 L1251,170.9492 " fill="none" style="stroke:#000000;stroke-width:1.0;"/><path d="M1092,109.4746 L1102,109.4746 C1117,109.4746 1117,170.9492 1132,170.9492 L1142,170.9492 " fill="none" style="stroke:#000000;stroke-width:1.0;"/><text fill="#000000" font-family="Verdana" font-size="11" lengthAdjust="spacing" textLength="46" x="761" y="113.8494">definem</text><rect fill="#FFFFFF" height="33.3687" rx="12.5" ry="12.5" style="stroke:#AAAAAA;stroke-width:1.5;" width="60" x="651" y="35.3687"/><text fill="#000000" font-family="Verdana" font-size="11" lengthAdjust="spacing" textLength="40" x="661" y="56.4277">O qu&#234;?</text><text fill="#000000" font-family="Verdana" font-size="11" lengthAdjust="spacing" textLength="87" x="511" y="22.0591">Conhecimentos</text><path d="M651,52.053 L641,52.053 C626,52.053 626,17.6843 611,17.6843 L601,17.6843 " fill="none" style="stroke:#000000;stroke-width:1.0;"/><text fill="#000000" font-family="Verdana" font-size="11" lengthAdjust="spacing" textLength="80" x="518" y="37.4277">Compet&#234;ncias</text><path d="M651,52.053 L641,52.053 C626,52.053 626,33.053 611,33.053 L601,33.053 " fill="none" style="stroke:#000000;stroke-width:1.0;"/><text fill="#000000" font-family="Verdana" font-size="11" lengthAdjust="spacing" textLength="43" x="555" y="71.7964">Valores</text><rect fill="#FFFFFF" height="33.3687" rx="12.5" ry="12.5" style="stroke:#AAAAAA;stroke-width:1.5;" width="142" x="363" y="50.7373"/><text fill="#000000" font-family="Verdana" font-size="11" lengthAdjust="spacing" textLength="122" x="373" y="71.7964">Crit&#233;rios transversais</text><path d="M555,67.4216 L545,67.4216 C530,67.4216 530,67.4216 515,67.4216 L505,67.4216 " fill="none" style="stroke:#000000;stroke-width:1.0;"/><path d="M651,52.053 L641,52.053 C626,52.053 626,67.4216 611,67.4216 L601,67.4216 " fill="none" style="stroke:#000000;stroke-width:1.0;"/><path d="M761,109.4746 L751,109.4746 C736,109.4746 736,52.053 721,52.053 L711,52.053 " fill="none" style="stroke:#000000;stroke-width:1.0;"/><rect fill="#FFFFFF" height="33.3687" rx="12.5" ry="12.5" style="stroke:#AAAAAA;stroke-width:1.5;" width="70" x="641" y="104.106"/><text fill="#000000" font-family="Verdana" font-size="11" lengthAdjust="spacing" textLength="50" x="651" y="125.165">Quando?</text><text fill="#000000" font-family="Verdana" font-size="11" lengthAdjust="spacing" textLength="65" x="523" y="109.7964">Diagn&#243;stico</text><path d="M641,120.7903 L631,120.7903 C616,120.7903 616,105.4216 601,105.4216 L591,105.4216 " fill="none" style="stroke:#000000;stroke-width:1.0;"/><text fill="#000000" font-family="Verdana" font-size="11" lengthAdjust="spacing" textLength="115" x="473" y="125.165">Formativa (durante)</text><path d="M641,120.7903 L631,120.7903 C616,120.7903 616,120.7903 601,120.7903 L591,120.7903 " fill="none" style="stroke:#000000;stroke-width:1.0;"/><text fill="#000000" font-family="Verdana" font-size="11" lengthAdjust="spacing" textLength="110" x="478" y="140.5337">Sumativa (no final)</text><path d="M641,120.7903 L631,120.7903 C616,120.7903 616,136.1589 601,136.1589 L591,136.1589 " fill="none" style="stroke:#000000;stroke-width:1.0;"/><path d="M761,109.4746 L751,109.4746 C736,109.4746 736,120.7903 721,120.7903 L711,120.7903 " fill="none" style="stroke:#000000;stroke-width:1.0;"/><rect fill="#FFFFFF" height="33.3687" rx="12.5" ry="12.5" style="stroke:#AAAAAA;stroke-width:1.5;" width="59" x="652" y="161.5276"/><text fill="#000000" font-family="Verdana" font-size="11" lengthAdjust="spacing" textLength="39" x="662" y="182.5867">Como?</text><text fill="#000000" font-family="Verdana" font-size="11" lengthAdjust="spacing" textLength="196" x="403" y="182.5867">Instrumentos de recolha de dados</text><text fill="#000000" font-family="Verdana" font-size="11" lengthAdjust="spacing" textLength="97" x="253" y="182.5867">s&#227;o exemplos de</text><text fill="#000000" font-family="Verdana" font-size="11" lengthAdjust="spacing" textLength="78" x="122" y="159.5337">Question&#225;rios</text><path d="M253,178.2119 L243,178.2119 C228,178.2119 228,155.1589 213,155.1589 L203,155.1589 " fill="none" style="stroke:#000000;stroke-width:1.0;"/><text fill="#000000" font-family="Verdana" font-size="11" lengthAdjust="spacing" textLength="37" x="163" y="174.9023">Testes</text><path d="M253,178.2119 L243,178.2119 C228,178.2119 228,170.5276 213,170.5276 L203,170.5276 " fill="none" style="stroke:#000000;stroke-width:1.0;"/><text fill="#000000" font-family="Verdana" font-size="11" lengthAdjust="spacing" textLength="190" x="10" y="190.271">Trabalhos individuais e em grupo</text><path d="M253,178.2119 L243,178.2119 C228,178.2119 228,185.8962 213,185.8962 L203,185.8962 " fill="none" style="stroke:#000000;stroke-width:1.0;"/><text fill="#000000" font-family="Verdana" font-size="11" lengthAdjust="spacing" textLength="97" x="103" y="205.6396">Portf&#243;lios digitais</text><path d="M253,178.2119 L243,178.2119 C228,178.2119 228,201.2649 213,201.2649 L203,201.2649 " fill="none" style="stroke:#000000;stroke-width:1.0;"/><path d="M403,178.2119 L393,178.2119 C378,178.2119 378,178.2119 363,178.2119 L353,178.2119 " fill="none" style="stroke:#000000;stroke-width:1.0;"/><path d="M652,178.2119 L642,178.2119 C627,178.2119 627,178.2119 612,178.2119 L602,178.2119 " fill="none" style="stroke:#000000;stroke-width:1.0;"/><text fill="#000000" font-family="Verdana" font-size="11" lengthAdjust="spacing" textLength="202" x="397" y="197.9553">Depend&#234;ncia da inten&#231;&#227;o avaliativa</text><path d="M652,178.2119 L642,178.2119 C627,178.2119 627,193.5806 612,193.5806 L602,193.5806 " fill="none" style="stroke:#000000;stroke-width:1.0;"/><path d="M761,109.4746 L751,109.4746 C736,109.4746 736,178.2119 721,178.2119 L711,178.2119 " fill="none" style="stroke:#000000;stroke-width:1.0;"/><path d="M860,109.4746 L850,109.4746 C835,109.4746 835,109.4746 820,109.4746 L810,109.4746 " fill="none" style="stroke:#000000;stroke-width:1.0;"/><!--SRC=[xLZ9RXj74BtFLrI076p25eUh9EOGXreSAt8iMxAI6r7igI4xdfaUzo9R3lm1-OmW1oC6V3Bo1VonLCz2aPHyYmqoCWK8CrNTrQzUlTxcWR6eRIgpACKSmjueR8s4oWH9gymerp8JCfVy6BjCA38Z6WdKA2nfQQmKQ4OHZl024ua2rIYI4san2Rw9A9OPmV6ZXp-U3O-V7mJVSAZ4HUHq0bDhSpDeDYSSOuixJDtO6T8yiANCRWcLDZ6Tc6P4lUrUFmnRRTp1NXnIjzqDuyvkUzpVti5ksDJugYbsmuxeZxjngp_kX-CUKTnfTtVYSBVJtTsE4QcplHFtMarZBnFQobsQ145Zq6ZirNdUWoBHsGUVwJtWL6VlPl-G0MeqWaQZJdZseSmO8eGoOsxsbu8gvqRZko18ABPWP4GyH6C49GifFpVW2Rnqi_VV-sVsyE1J4ZBbV9MPszASxEmzSuwrxHmJfQbyQy2UbdRsjsQOO3LcveAqGLbuuQd3B59r_7s9aspsqIDMbUbGwHIjl42u4pdkRUbkvJbrjIDJm8WnAJmUq3pWeynOxKgyd1Te4YgPed-CCAfou7R6KqAlASsJec5fPyTJHun6PRC_FVwv-OojjF2gSOp9bBko9kM5Z1pd1mIKmaIxNCqRdYXjuzd7n7DHLa3MdErJJbbKykYB9RsiobgLTVEv1e6Ma-bYiIH3vlgMrJeZaQb4JIHMGK-OQiNCo3TrsPTKK7DC58rHl02lvTc7pDME7tBDcBZpX3DXvd2iT8cZffTdHyaTe21Zv5Wcafaj28JP7rvwLTk3bwxm05UhQ5iFSkIOuTaxP8S1CTTAdO7cuKJParZoobALoM89H_1C6b4Q-K5BNXpcAOwux2yTwKhI1_Ulgb3dkJ0nU0YFpl5wK4McEA7NtYLuDYraDAUDvQKP6zQIvu3EgaobN4acXfyrL-G1KrcjMK7mu3CjOLFfUKfpUmafsQcApA89hTLoxBnq_S-ya1cZnXHOpPgKlSnfRyWPJRHoMRJ7KjBGmdvVj8FgTzLblD8kZkFWUYiXjKWesfjMuE7t041Z99s17NwCMN6dyWr1grMz_OmfmJdf23CCtYx5Ij2O8W1S6_tRuPDVXm_PnGgDI9T6H2mQ-x2b9Gp3cuPPnN55n-6yQwVJkUQvwW60MgjNYwCKXiFhGytjYt7dnZgajzNLkjPuqN65OMv-n4ggpM-Noi4rKFeJ5F9srQVs2eLLzRy8Yql5vlyiSvdpYh-M9LzMfaeI4dwVCEiFzjGlXhpI3DNhcx5IwFzMi8hYzyNWBk3r6w6EUSlO2DtoCJ1N6Ms2QZCLqVgZZD3ouSfi05AULcvjOIxWv5kBM5T2FyDE-dPb0-JpEH-5RcFofbhvg-Gtz5YKo9YE-O8wN2ZHV0-OEs_UqvRe67itwiiDsLVuag6IZS3Akz-dfzWwGBrXGTYNcAeikYth0XJVMfY0nLbqm-tYlxbsy6NNqksXjhZRhwYTLkxJomIfyMzyVxX5czBICTHkoD4-KIwwbGS7pUB4R99im27SMALnihx7yA_VyBz-m__w3Vz_yGt_964fFtzy37uoiBwWjTKEszsjpfspgUF8OsZreBKxw8Q3i0U_79o1TzyDxZmyERveWr5EYoBNylp44Uu6HrnPUERu09tI09wmd8xsVweDS91TIAqoFnU2e_F7LmtwtVj3QU6KD6E1yyV1FiNe4iizX8faDXd0yxF3-pl1CI_ZZgKmu8I3FLuOhRvat-c_]--></g></svg>