<?xml version="1.0" encoding="us-ascii" standalone="no"?><svg xmlns="http://www.w3.org/2000/svg" xmlns:xlink="http://www.w3.org/1999/xlink" contentStyleType="text/css" height="258px" preserveAspectRatio="none" style="width:1771px;height:258px;background:#FFFFFF;" version="1.1" viewBox="0 0 1771 258" width="1771px" zoomAndPan="magnify"><defs/><g><rect fill="#FFFFFF" height="46.7373" rx="12.5" ry="12.5" style="stroke:#AAAAAA;stroke-width:1.5;" width="215" x="728" y="104.8168"/><text fill="#000000" font-family="Verdana" font-size="11" font-weight="bold" lengthAdjust="spacing" textLength="195" x="738" y="125.8759">Recursos de Avalia&#231;&#227;o Digital e</text><text fill="#000000" font-family="Verdana" font-size="11" font-weight="bold" lengthAdjust="spacing" textLength="129" x="738" y="139.2445">Pr&#225;ticas de Feedback</text><rect fill="#FFFFFF" height="33.3687" rx="12.5" ry="12.5" style="stroke:#AAAAAA;stroke-width:1.5;" width="186" x="993" y="111.5011"/><text fill="#000000" font-family="Verdana" font-size="11" lengthAdjust="spacing" textLength="166" x="1003" y="132.5602">Recursos de avalia&#231;&#227;o digital</text><rect fill="#FFFFFF" height="33.3687" rx="12.5" ry="12.5" style="stroke:#AAAAAA;stroke-width:1.5;" width="123" x="1229" y="20"/><text fill="#000000" font-family="Verdana" font-size="11" lengthAdjust="spacing" textLength="103" x="1239" y="41.0591">Murais Interativos</text><text fill="#000000" font-family="Verdana" font-size="11" lengthAdjust="spacing" textLength="132" x="1405" y="34.3748">Permitem a constru&#231;&#227;o</text><text fill="#000000" font-family="Verdana" font-size="11" lengthAdjust="spacing" textLength="90" x="1405" y="47.7434">de e-portef&#243;lios</text><text fill="#000000" font-family="Verdana" font-size="11" lengthAdjust="spacing" textLength="66" x="1590" y="41.0591">E.g.: Padlet</text><path d="M1537,36.6843 L1547,36.6843 C1562,36.6843 1562,36.6843 1577,36.6843 L1587,36.6843 " fill="none" style="stroke:#000000;stroke-width:1.0;"/><path d="M1352,36.6843 L1362,36.6843 C1377,36.6843 1377,36.6843 1392,36.6843 L1402,36.6843 " fill="none" style="stroke:#000000;stroke-width:1.0;"/><path d="M1179,128.1854 L1189,128.1854 C1204,128.1854 1204,36.6843 1219,36.6843 L1229,36.6843 " fill="none" style="stroke:#000000;stroke-width:1.0;"/><rect fill="#FFFFFF" height="33.3687" rx="12.5" ry="12.5" style="stroke:#AAAAAA;stroke-width:1.5;" width="129" x="1229" y="80.4746"/><text fill="#000000" font-family="Verdana" font-size="11" lengthAdjust="spacing" textLength="109" x="1239" y="101.5337">Mapas Conceptuais</text><text fill="#000000" font-family="Verdana" font-size="11" lengthAdjust="spacing" textLength="114" x="1411" y="63.1121">Sistematizam ideias</text><path d="M1358,97.1589 L1368,97.1589 C1383,97.1589 1383,58.7373 1398,58.7373 L1408,58.7373 " fill="none" style="stroke:#000000;stroke-width:1.0;"/><text fill="#000000" font-family="Verdana" font-size="11" lengthAdjust="spacing" textLength="124" x="1411" y="78.4807">Estabelecem rela&#231;&#245;es</text><path d="M1358,97.1589 L1368,97.1589 C1383,97.1589 1383,74.106 1398,74.106 L1408,74.106 " fill="none" style="stroke:#000000;stroke-width:1.0;"/><rect fill="#FFFFFF" height="33.3687" rx="12.5" ry="12.5" style="stroke:#AAAAAA;stroke-width:1.5;" width="58" x="1408" y="95.8433"/><text fill="#000000" font-family="Verdana" font-size="11" lengthAdjust="spacing" textLength="38" x="1418" y="116.9023">Etapas</text><text fill="#000000" font-family="Verdana" font-size="11" lengthAdjust="spacing" textLength="92" x="1519" y="93.8494">1&#170;: Definir tema</text><path d="M1466,112.5276 L1476,112.5276 C1491,112.5276 1491,89.4746 1506,89.4746 L1516,89.4746 " fill="none" style="stroke:#000000;stroke-width:1.0;"/><text fill="#000000" font-family="Verdana" font-size="11" lengthAdjust="spacing" textLength="131" x="1519" y="109.218">2&#170;: Adicionar conte&#250;do</text><path d="M1466,112.5276 L1476,112.5276 C1491,112.5276 1491,104.8433 1506,104.8433 L1516,104.8433 " fill="none" style="stroke:#000000;stroke-width:1.0;"/><text fill="#000000" font-family="Verdana" font-size="11" lengthAdjust="spacing" textLength="178" x="1519" y="124.5867">3&#170;: Registar t&#243;picos/subt&#243;picos</text><path d="M1466,112.5276 L1476,112.5276 C1491,112.5276 1491,120.2119 1506,120.2119 L1516,120.2119 " fill="none" style="stroke:#000000;stroke-width:1.0;"/><text fill="#000000" font-family="Verdana" font-size="11" lengthAdjust="spacing" textLength="100" x="1519" y="139.9553">4&#170;: Criar liga&#231;&#245;es</text><path d="M1466,112.5276 L1476,112.5276 C1491,112.5276 1491,135.5806 1506,135.5806 L1516,135.5806 " fill="none" style="stroke:#000000;stroke-width:1.0;"/><path d="M1358,97.1589 L1368,97.1589 C1383,97.1589 1383,112.5276 1398,112.5276 L1408,112.5276 " fill="none" style="stroke:#000000;stroke-width:1.0;"/><path d="M1179,128.1854 L1189,128.1854 C1204,128.1854 1204,97.1589 1219,97.1589 L1229,97.1589 " fill="none" style="stroke:#000000;stroke-width:1.0;"/><rect fill="#FFFFFF" height="33.3687" rx="12.5" ry="12.5" style="stroke:#AAAAAA;stroke-width:1.5;" width="64" x="1229" y="149.6335"/><text fill="#000000" font-family="Verdana" font-size="11" lengthAdjust="spacing" textLength="44" x="1239" y="170.6926">Quizzes</text><text fill="#000000" font-family="Verdana" font-size="11" lengthAdjust="spacing" textLength="111" x="1346" y="155.324">Avalia&#231;&#227;o sumativa</text><path d="M1293,166.3179 L1303,166.3179 C1318,166.3179 1318,150.9492 1333,150.9492 L1343,150.9492 " fill="none" style="stroke:#000000;stroke-width:1.0;"/><text fill="#000000" font-family="Verdana" font-size="11" lengthAdjust="spacing" textLength="111" x="1346" y="170.6926">Individual ou grupo</text><path d="M1293,166.3179 L1303,166.3179 C1318,166.3179 1318,166.3179 1333,166.3179 L1343,166.3179 " fill="none" style="stroke:#000000;stroke-width:1.0;"/><text fill="#000000" font-family="Verdana" font-size="11" lengthAdjust="spacing" textLength="133" x="1346" y="186.0613">Facilitam a gamifica&#231;&#227;o</text><text fill="#000000" font-family="Verdana" font-size="11" lengthAdjust="spacing" textLength="67" x="1532" y="186.0613">E.g: Kahoot</text><text fill="#000000" font-family="Verdana" font-size="11" lengthAdjust="spacing" textLength="107" x="1652" y="186.0613">Feedback imediato</text><path d="M1599,181.6865 L1609,181.6865 C1624,181.6865 1624,181.6865 1639,181.6865 L1649,181.6865 " fill="none" style="stroke:#000000;stroke-width:1.0;"/><path d="M1479,181.6865 L1489,181.6865 C1504,181.6865 1504,181.6865 1519,181.6865 L1529,181.6865 " fill="none" style="stroke:#000000;stroke-width:1.0;"/><path d="M1293,166.3179 L1303,166.3179 C1318,166.3179 1318,181.6865 1333,181.6865 L1343,181.6865 " fill="none" style="stroke:#000000;stroke-width:1.0;"/><path d="M1179,128.1854 L1189,128.1854 C1204,128.1854 1204,166.3179 1219,166.3179 L1229,166.3179 " fill="none" style="stroke:#000000;stroke-width:1.0;"/><rect fill="#FFFFFF" height="33.3687" rx="12.5" ry="12.5" style="stroke:#AAAAAA;stroke-width:1.5;" width="87" x="1229" y="203.0022"/><text fill="#000000" font-family="Verdana" font-size="11" lengthAdjust="spacing" textLength="67" x="1239" y="224.0613">Formul&#225;rios</text><text fill="#000000" font-family="Verdana" font-size="11" lengthAdjust="spacing" textLength="74" x="1369" y="216.377">Versatilidade</text><path d="M1316,219.6865 L1326,219.6865 C1341,219.6865 1341,212.0022 1356,212.0022 L1366,212.0022 " fill="none" style="stroke:#000000;stroke-width:1.0;"/><text fill="#000000" font-family="Verdana" font-size="11" lengthAdjust="spacing" textLength="143" x="1369" y="231.7456">V&#225;rios tipos de avalia&#231;&#227;o</text><text fill="#000000" font-family="Verdana" font-size="11" lengthAdjust="spacing" textLength="110" x="1565" y="231.7456">E.g.: Google Forms</text><path d="M1512,227.3708 L1522,227.3708 C1537,227.3708 1537,227.3708 1552,227.3708 L1562,227.3708 " fill="none" style="stroke:#000000;stroke-width:1.0;"/><path d="M1316,219.6865 L1326,219.6865 C1341,219.6865 1341,227.3708 1356,227.3708 L1366,227.3708 " fill="none" style="stroke:#000000;stroke-width:1.0;"/><path d="M1179,128.1854 L1189,128.1854 C1204,128.1854 1204,219.6865 1219,219.6865 L1229,219.6865 " fill="none" style="stroke:#000000;stroke-width:1.0;"/><path d="M943,128.1854 L953,128.1854 C968,128.1854 968,128.1854 983,128.1854 L993,128.1854 " fill="none" style="stroke:#000000;stroke-width:1.0;"/><rect fill="#FFFFFF" height="33.3687" rx="12.5" ry="12.5" style="stroke:#AAAAAA;stroke-width:1.5;" width="141" x="537" y="111.5011"/><text fill="#000000" font-family="Verdana" font-size="11" lengthAdjust="spacing" textLength="121" x="547" y="132.5602">Pr&#225;ticas de Feedback</text><rect fill="#FFFFFF" height="33.3687" rx="12.5" ry="12.5" style="stroke:#AAAAAA;stroke-width:1.5;" width="163" x="324" y="27.3951"/><text fill="#000000" font-family="Verdana" font-size="11" lengthAdjust="spacing" textLength="143" x="334" y="48.4542">Import&#226;ncia do feedback</text><text fill="#000000" font-family="Verdana" font-size="11" lengthAdjust="spacing" textLength="177" x="94" y="40.7699">Identificar pontos fortes/fracos</text><path d="M324,44.0795 L314,44.0795 C299,44.0795 299,36.3951 284,36.3951 L274,36.3951 " fill="none" style="stroke:#000000;stroke-width:1.0;"/><text fill="#000000" font-family="Verdana" font-size="11" lengthAdjust="spacing" textLength="107" x="164" y="56.1385">Promover reflex&#227;o</text><path d="M324,44.0795 L314,44.0795 C299,44.0795 299,51.7638 284,51.7638 L274,51.7638 " fill="none" style="stroke:#000000;stroke-width:1.0;"/><path d="M537,128.1854 L527,128.1854 C512,128.1854 512,44.0795 497,44.0795 L487,44.0795 " fill="none" style="stroke:#000000;stroke-width:1.0;"/><rect fill="#FFFFFF" height="33.3687" rx="12.5" ry="12.5" style="stroke:#AAAAAA;stroke-width:1.5;" width="50" x="437" y="107.4481"/><text fill="#000000" font-family="Verdana" font-size="11" lengthAdjust="spacing" textLength="30" x="447" y="128.5072">Tipos</text><rect fill="#FFFFFF" height="33.3687" rx="12.5" ry="12.5" style="stroke:#AAAAAA;stroke-width:1.5;" width="135" x="252" y="80.7638"/><text fill="#000000" font-family="Verdana" font-size="11" lengthAdjust="spacing" textLength="115" x="262" y="101.8229">Feedback Formativo</text><text fill="#000000" font-family="Verdana" font-size="11" lengthAdjust="spacing" textLength="141" x="58" y="94.1385">Durante a aprendizagem</text><path d="M252,97.4481 L242,97.4481 C227,97.4481 227,89.7638 212,89.7638 L202,89.7638 " fill="none" style="stroke:#000000;stroke-width:1.0;"/><text fill="#000000" font-family="Verdana" font-size="11" lengthAdjust="spacing" textLength="189" x="10" y="109.5072">Melhorar antes da avalia&#231;&#227;o final</text><path d="M252,97.4481 L242,97.4481 C227,97.4481 227,105.1324 212,105.1324 L202,105.1324 " fill="none" style="stroke:#000000;stroke-width:1.0;"/><path d="M437,124.1324 L427,124.1324 C412,124.1324 412,97.4481 397,97.4481 L387,97.4481 " fill="none" style="stroke:#000000;stroke-width:1.0;"/><rect fill="#FFFFFF" height="33.3687" rx="12.5" ry="12.5" style="stroke:#AAAAAA;stroke-width:1.5;" width="132" x="255" y="134.1324"/><text fill="#000000" font-family="Verdana" font-size="11" lengthAdjust="spacing" textLength="112" x="265" y="155.1915">Feedback Sumativo</text><text fill="#000000" font-family="Verdana" font-size="11" lengthAdjust="spacing" textLength="97" x="105" y="147.5072">Ap&#243;s a avalia&#231;&#227;o</text><path d="M255,150.8168 L245,150.8168 C230,150.8168 230,143.1324 215,143.1324 L205,143.1324 " fill="none" style="stroke:#000000;stroke-width:1.0;"/><text fill="#000000" font-family="Verdana" font-size="11" lengthAdjust="spacing" textLength="141" x="61" y="162.8759">Resumo do desempenho</text><path d="M255,150.8168 L245,150.8168 C230,150.8168 230,158.5011 215,158.5011 L205,158.5011 " fill="none" style="stroke:#000000;stroke-width:1.0;"/><path d="M437,124.1324 L427,124.1324 C412,124.1324 412,150.8168 397,150.8168 L387,150.8168 " fill="none" style="stroke:#000000;stroke-width:1.0;"/><path d="M537,128.1854 L527,128.1854 C512,128.1854 512,124.1324 497,124.1324 L487,124.1324 " fill="none" style="stroke:#000000;stroke-width:1.0;"/><rect fill="#FFFFFF" height="33.3687" rx="12.5" ry="12.5" style="stroke:#AAAAAA;stroke-width:1.5;" width="115" x="372" y="191.5541"/><text fill="#000000" font-family="Verdana" font-size="11" lengthAdjust="spacing" textLength="95" x="382" y="212.6132">Pr&#225;ticas Eficazes</text><text fill="#000000" font-family="Verdana" font-size="11" lengthAdjust="spacing" textLength="134" x="185" y="189.5602">Espec&#237;fico e construtivo</text><path d="M372,208.2384 L362,208.2384 C347,208.2384 347,185.1854 332,185.1854 L322,185.1854 " fill="none" style="stroke:#000000;stroke-width:1.0;"/><text fill="#000000" font-family="Verdana" font-size="11" lengthAdjust="spacing" textLength="138" x="181" y="204.9288">Foco no comportamento</text><path d="M372,208.2384 L362,208.2384 C347,208.2384 347,200.5541 332,200.5541 L322,200.5541 " fill="none" style="stroke:#000000;stroke-width:1.0;"/><text fill="#000000" font-family="Verdana" font-size="11" lengthAdjust="spacing" textLength="143" x="176" y="220.2975">Sugest&#245;es para melhoria</text><path d="M372,208.2384 L362,208.2384 C347,208.2384 347,215.9227 332,215.9227 L322,215.9227 " fill="none" style="stroke:#000000;stroke-width:1.0;"/><text fill="#000000" font-family="Verdana" font-size="11" lengthAdjust="spacing" textLength="142" x="177" y="235.6661">Autoavalia&#231;&#227;o e reflex&#227;o</text><path d="M372,208.2384 L362,208.2384 C347,208.2384 347,231.2914 332,231.2914 L322,231.2914 " fill="none" style="stroke:#000000;stroke-width:1.0;"/><path d="M537,128.1854 L527,128.1854 C512,128.1854 512,208.2384 497,208.2384 L487,208.2384 " fill="none" style="stroke:#000000;stroke-width:1.0;"/><path d="M728,128.1854 L718,128.1854 C703,128.1854 703,128.1854 688,128.1854 L678,128.1854 " fill="none" style="stroke:#000000;stroke-width:1.0;"/><!--SRC=[xLbBRzj64BxpLso07X81aQYdRUKIFsJNYTsujfFs9WovGseRailimubTvCUaFHGeq5EGIu_L7-iiHKgKxDxIG88j0uOuCpkFRsPsTiNdse0ogSXu2Zdp-sE_CrOOMgMb7dCSmnKa0aAGOovYOI0PupXNO4G81Jz2v064Rxr772EH8JivFlh-Sk_azSXx9B8miHojIjZ4c5mFMwrOQDCaFHCRM8qgb9d1p3H3cROWZNMBOt-hF_3zTWUseH_vsElq_AYxqma6MzlGyriAthV27RyR3e9Ur1u40p_e8qRTJcyxydUwlPsj202xMzjHlztIvZh1PcxJnFCQmqRZl0oCSMIxHM3JFwQ_ItOm2urXe-4r6cTg-gc8puaTbl4r6iyyBy78C2quahe6krEE60rsdEPIcUblMIY0SScY6hCnPiUSOXOHBLKi9mJ8eOZaKRSY1Q7KfTYPagcyGiKKHWb-84SBvPSYBqNcHjcXL2dbvAgGS6iFh0A2bW63N676nGt4c5RSKqmcKf5r9qFkarGD3KeZ92i6Bkoo_jry-bcpfNKLwnorJQKBcwF6DCTiCdDyWTV8nNw3LQ0ZdMCu_Ok8aY6Zcj16sRcrCKL7Z4mIfy0LKeAlubtO6BMPVg4mSb30qY8q0ILxrnfPZmrhO7fAn9DQFklLKLzJ5duHmodXAZGx9jnK0KWPm_0CLIeCfeH96S0C5DA5JvtN64q_9qBgPnLEesRS7B8pu0cQcMx82PjzcOMO6qjcgX2fPz31VmCf8sS5B80p46228TbLc3X_lvIeif5nwYfZxN_-7B83rw52CQUjOdGSOvUBKCYC2g9eoEdVV9xDhkEVe-jROflfvvoof5lQ1jNtIhBd9FS9UiKI4TTyOJzQSRF8ThtnzAoigcmTKw5U2Mwf5QLbiRBvl0GW50bbmU4RGreqprBL4Pf3zX8cKfePoIsggbUao0NCQgRe5PjCFoanxxGtg3JvaGWEL0ibRIR1Z6ktbP9OJk6Hb762XLxjUTvpQhToFwM7hxMzJeIhf3GtrrJYPYAvhfF062K2IytikOz-ApBN3IcZob4epNME-tka9bRIPdnV9bAnDWm6OSShFuibmOfS54NURQbGg311lZ-Xfv2Ci5yznXHmOJNRfgyH5TA5k47MRfTFFr3VEgGvPE1zNDALWDQ50dRB-dTxhtxUEo9M81L7DIC2G27irCuelk_VPMRLZmKSX_EbtMxt5cUnWZ5GIhwlMoa8XxTDpUbrlNDYfTBHgcpT4gup5ZxCoSVKdXNvur8wA0TI_GU4D4e7s5c1iCp-Dq5nATdqdwfRv3HwrZBbovKf4zfT3UsDUlsTlS1t5cbuxCaFT_kAlljRyJKiFj_CtPg_mWtH24BSYBej3XyPRaBLPfBZ-dl9WGule3V0KsehkxPkrloa6rMuhe3-3vFquye0fACZ7ONkO_2wtFdBu3VqM9I824z4HlDhaQBv39WpxvvfIt04ZWtgUaFcIcQKJ3R2L_UpXLbdME_O40u4f3BZzsLVO8m2ZWc0UXVTSRluEjSEkjqQl3_G5fVvbMh7bVlqCa0o-8Nk3_TeA2qTGys67EqJQVczF3WeAax8tAzNQty8rqOgYDVt6FxmVk7X_SB3-uM7zmlVzlt2MK8jzlhqX54VQuAOjPiTlzDhTXzVJYmv6B1sdxLtXZr_wFVPJwDBvjXFlCT7PoTN7QQbLNHjv8H-STGZ3K-y5-G9ExUqXQGuPA-emLuSlAm8R9HT2IKproFUYpUd2u51x-cUCEm2bTjJtfnwL0vW4qChGib5HlYzlZnykksTqCInj5qCwUpaxTCURjGryIx-1G00]--></g></svg>