<?xml version="1.0" encoding="us-ascii" standalone="no"?><svg xmlns="http://www.w3.org/2000/svg" xmlns:xlink="http://www.w3.org/1999/xlink" contentStyleType="text/css" height="406px" preserveAspectRatio="none" style="width:1705px;height:406px;background:#FFFFFF;" version="1.1" viewBox="0 0 1705 406" width="1705px" zoomAndPan="magnify"><defs/><g><rect fill="#FFFFFF" height="33.3687" rx="12.5" ry="12.5" style="stroke:#AAAAAA;stroke-width:1.5;" width="240" x="661" y="185.4238"/><text fill="#000000" font-family="Verdana" font-size="11" font-weight="bold" lengthAdjust="spacing" textLength="220" x="671" y="206.4829">Compet&#234;ncias Digitais na Educa&#231;&#227;o</text><rect fill="#FFFFFF" height="33.3687" rx="12.5" ry="12.5" style="stroke:#AAAAAA;stroke-width:1.5;" width="166" x="951" y="24.053"/><text fill="#000000" font-family="Verdana" font-size="11" lengthAdjust="spacing" textLength="146" x="961" y="45.1121">Envolvimento Profissional</text><text fill="#000000" font-family="Verdana" font-size="11" lengthAdjust="spacing" textLength="495" x="1170" y="22.0591">Criar, reutilizar e partilhar materiais em colabora&#231;&#227;o com outros educadores em rede.</text><path d="M1117,40.7373 L1127,40.7373 C1142,40.7373 1142,17.6843 1157,17.6843 L1167,17.6843 " fill="none" style="stroke:#000000;stroke-width:1.0;"/><text fill="#000000" font-family="Verdana" font-size="11" lengthAdjust="spacing" textLength="56" x="1170" y="52.7964">promover</text><text fill="#000000" font-family="Verdana" font-size="11" lengthAdjust="spacing" textLength="201" x="1279" y="37.4277">Estrat&#233;gias de comunica&#231;&#227;o digital.</text><path d="M1226,48.4216 L1236,48.4216 C1251,48.4216 1251,33.053 1266,33.053 L1276,33.053 " fill="none" style="stroke:#000000;stroke-width:1.0;"/><text fill="#000000" font-family="Verdana" font-size="11" lengthAdjust="spacing" textLength="368" x="1279" y="52.7964">Inova&#231;&#227;o no ensino atrav&#233;s da utiliza&#231;&#227;o de tecnologias digitais.</text><path d="M1226,48.4216 L1236,48.4216 C1251,48.4216 1251,48.4216 1266,48.4216 L1276,48.4216 " fill="none" style="stroke:#000000;stroke-width:1.0;"/><text fill="#000000" font-family="Verdana" font-size="11" lengthAdjust="spacing" textLength="243" x="1279" y="68.165">Certifica&#231;&#227;o no uso de tecnologias digitais.</text><path d="M1226,48.4216 L1236,48.4216 C1251,48.4216 1251,63.7903 1266,63.7903 L1276,63.7903 " fill="none" style="stroke:#000000;stroke-width:1.0;"/><path d="M1117,40.7373 L1127,40.7373 C1142,40.7373 1142,48.4216 1157,48.4216 L1167,48.4216 " fill="none" style="stroke:#000000;stroke-width:1.0;"/><path d="M901,202.1082 L911,202.1082 C926,202.1082 926,40.7373 941,40.7373 L951,40.7373 " fill="none" style="stroke:#000000;stroke-width:1.0;"/><rect fill="#FFFFFF" height="33.3687" rx="12.5" ry="12.5" style="stroke:#AAAAAA;stroke-width:1.5;" width="154" x="951" y="100.8962"/><text fill="#000000" font-family="Verdana" font-size="11" lengthAdjust="spacing" textLength="134" x="961" y="121.9553">Ensino e Aprendizagem</text><text fill="#000000" font-family="Verdana" font-size="11" lengthAdjust="spacing" textLength="424" x="1158" y="83.5337">Conceber atividades curriculares que exijam o uso de tecnologias digitais.</text><path d="M1105,117.5806 L1115,117.5806 C1130,117.5806 1130,79.1589 1145,79.1589 L1155,79.1589 " fill="none" style="stroke:#000000;stroke-width:1.0;"/><text fill="#000000" font-family="Verdana" font-size="11" lengthAdjust="spacing" textLength="38" x="1158" y="106.5867">utilizar</text><text fill="#000000" font-family="Verdana" font-size="11" lengthAdjust="spacing" textLength="435" x="1249" y="98.9023">Ferramentas digitais para implementar estrat&#233;gias pedag&#243;gicas inovadoras.</text><path d="M1196,102.2119 L1206,102.2119 C1221,102.2119 1221,94.5276 1236,94.5276 L1246,94.5276 " fill="none" style="stroke:#000000;stroke-width:1.0;"/><text fill="#000000" font-family="Verdana" font-size="11" lengthAdjust="spacing" textLength="315" x="1249" y="114.271">Aplica&#231;&#245;es e/ou jogos digitais para envolver os alunos.</text><path d="M1196,102.2119 L1206,102.2119 C1221,102.2119 1221,109.8962 1236,109.8962 L1246,109.8962 " fill="none" style="stroke:#000000;stroke-width:1.0;"/><path d="M1105,117.5806 L1115,117.5806 C1130,117.5806 1130,102.2119 1145,102.2119 L1155,102.2119 " fill="none" style="stroke:#000000;stroke-width:1.0;"/><text fill="#000000" font-family="Verdana" font-size="11" lengthAdjust="spacing" textLength="67" x="1158" y="137.324">promover a</text><text fill="#000000" font-family="Verdana" font-size="11" lengthAdjust="spacing" textLength="160" x="1278" y="129.6396">Aprendizagem colaborativa.</text><path d="M1225,132.9492 L1235,132.9492 C1250,132.9492 1250,125.2649 1265,125.2649 L1275,125.2649 " fill="none" style="stroke:#000000;stroke-width:1.0;"/><text fill="#000000" font-family="Verdana" font-size="11" lengthAdjust="spacing" textLength="224" x="1278" y="145.0083">Co-cria&#231;&#227;o e partilha de conhecimento.</text><path d="M1225,132.9492 L1235,132.9492 C1250,132.9492 1250,140.6335 1265,140.6335 L1275,140.6335 " fill="none" style="stroke:#000000;stroke-width:1.0;"/><path d="M1105,117.5806 L1115,117.5806 C1130,117.5806 1130,132.9492 1145,132.9492 L1155,132.9492 " fill="none" style="stroke:#000000;stroke-width:1.0;"/><text fill="#000000" font-family="Verdana" font-size="11" lengthAdjust="spacing" textLength="357" x="1158" y="160.377">Redirecionar a atividade online dos alunos quando necess&#225;rio.</text><path d="M1105,117.5806 L1115,117.5806 C1130,117.5806 1130,156.0022 1145,156.0022 L1155,156.0022 " fill="none" style="stroke:#000000;stroke-width:1.0;"/><path d="M901,202.1082 L911,202.1082 C926,202.1082 926,117.5806 941,117.5806 L951,117.5806 " fill="none" style="stroke:#000000;stroke-width:1.0;"/><rect fill="#FFFFFF" height="33.3687" rx="12.5" ry="12.5" style="stroke:#AAAAAA;stroke-width:1.5;" width="173" x="951" y="185.4238"/><text fill="#000000" font-family="Verdana" font-size="11" lengthAdjust="spacing" textLength="153" x="961" y="206.4829">Capacita&#231;&#227;o de Estudantes</text><text fill="#000000" font-family="Verdana" font-size="11" lengthAdjust="spacing" textLength="142" x="1177" y="191.1143">promover a utiliza&#231;&#227;o de</text><text fill="#000000" font-family="Verdana" font-size="11" lengthAdjust="spacing" textLength="252" x="1376" y="175.7456">Ferramentas digitais acess&#237;veis e inclusivas.</text><path d="M1323,186.7395 L1333,186.7395 C1348,186.7395 1348,171.3708 1363,171.3708 L1373,171.3708 " fill="none" style="stroke:#000000;stroke-width:1.0;"/><text fill="#000000" font-family="Verdana" font-size="11" lengthAdjust="spacing" textLength="157" x="1376" y="191.1143">Formatos de c&#243;digo aberto.</text><path d="M1323,186.7395 L1333,186.7395 C1348,186.7395 1348,186.7395 1363,186.7395 L1373,186.7395 " fill="none" style="stroke:#000000;stroke-width:1.0;"/><text fill="#000000" font-family="Verdana" font-size="11" lengthAdjust="spacing" textLength="167" x="1376" y="206.4829">Licen&#231;as abertas apropriadas</text><path d="M1323,186.7395 L1333,186.7395 C1348,186.7395 1348,202.1082 1363,202.1082 L1373,202.1082 " fill="none" style="stroke:#000000;stroke-width:1.0;"/><path d="M1124,202.1082 L1134,202.1082 C1149,202.1082 1149,186.7395 1164,186.7395 L1174,186.7395 " fill="none" style="stroke:#000000;stroke-width:1.0;"/><text fill="#000000" font-family="Verdana" font-size="11" lengthAdjust="spacing" textLength="47" x="1177" y="229.5359">apoiar a</text><text fill="#000000" font-family="Verdana" font-size="11" lengthAdjust="spacing" textLength="299" x="1277" y="221.8516">Defini&#231;&#227;o de objetivos e planeamento de atividades.</text><path d="M1224,225.1611 L1234,225.1611 C1249,225.1611 1249,217.4768 1264,217.4768 L1274,217.4768 " fill="none" style="stroke:#000000;stroke-width:1.0;"/><text fill="#000000" font-family="Verdana" font-size="11" lengthAdjust="spacing" textLength="295" x="1277" y="237.2202">Cria&#231;&#227;o, apresenta&#231;&#227;o, e partilha de conhecimento.</text><path d="M1224,225.1611 L1234,225.1611 C1249,225.1611 1249,232.8455 1264,232.8455 L1274,232.8455 " fill="none" style="stroke:#000000;stroke-width:1.0;"/><path d="M1124,202.1082 L1134,202.1082 C1149,202.1082 1149,225.1611 1164,225.1611 L1174,225.1611 " fill="none" style="stroke:#000000;stroke-width:1.0;"/><path d="M901,202.1082 L911,202.1082 C926,202.1082 926,202.1082 941,202.1082 L951,202.1082 " fill="none" style="stroke:#000000;stroke-width:1.0;"/><rect fill="#FFFFFF" height="46.7373" rx="12.5" ry="12.5" style="stroke:#AAAAAA;stroke-width:1.5;" width="175" x="951" y="294.0044"/><text fill="#000000" font-family="Verdana" font-size="11" lengthAdjust="spacing" textLength="155" x="961" y="315.0635">Facilita&#231;&#227;o da Compet&#234;ncia</text><text fill="#000000" font-family="Verdana" font-size="11" lengthAdjust="spacing" textLength="119" x="961" y="328.4321">Digital de Estudantes</text><text fill="#000000" font-family="Verdana" font-size="11" lengthAdjust="spacing" textLength="115" x="1179" y="260.2732">debater sobre como</text><text fill="#000000" font-family="Verdana" font-size="11" lengthAdjust="spacing" textLength="294" x="1347" y="252.5889">A informa&#231;&#227;o &#233; gerada e como pode ser distorcida.</text><path d="M1294,255.8984 L1304,255.8984 C1319,255.8984 1319,248.2141 1334,248.2141 L1344,248.2141 " fill="none" style="stroke:#000000;stroke-width:1.0;"/><text fill="#000000" font-family="Verdana" font-size="11" lengthAdjust="spacing" textLength="237" x="1347" y="267.9575">Identificar desinforma&#231;&#227;o e preconceitos.</text><path d="M1294,255.8984 L1304,255.8984 C1319,255.8984 1319,263.5828 1334,263.5828 L1344,263.5828 " fill="none" style="stroke:#000000;stroke-width:1.0;"/><path d="M1126,317.373 L1136,317.373 C1151,317.373 1151,255.8984 1166,255.8984 L1176,255.8984 " fill="none" style="stroke:#000000;stroke-width:1.0;"/><text fill="#000000" font-family="Verdana" font-size="11" lengthAdjust="spacing" textLength="56" x="1179" y="291.0105">identificar</text><text fill="#000000" font-family="Verdana" font-size="11" lengthAdjust="spacing" textLength="371" x="1292" y="283.3262">Conte&#250;dos licenciados abertamente que possam ser reutilizados.</text><path d="M1239,286.6357 L1249,286.6357 C1264,286.6357 1264,278.9514 1279,278.9514 L1289,278.9514 " fill="none" style="stroke:#000000;stroke-width:1.0;"/><text fill="#000000" font-family="Verdana" font-size="11" lengthAdjust="spacing" textLength="301" x="1292" y="298.6948">Licen&#231;as a aplicar na partilha de conte&#250;dos pr&#243;prios.</text><path d="M1239,286.6357 L1249,286.6357 C1264,286.6357 1264,294.3201 1279,294.3201 L1289,294.3201 " fill="none" style="stroke:#000000;stroke-width:1.0;"/><path d="M1126,317.373 L1136,317.373 C1151,317.373 1151,286.6357 1166,286.6357 L1176,286.6357 " fill="none" style="stroke:#000000;stroke-width:1.0;"/><text fill="#000000" font-family="Verdana" font-size="11" lengthAdjust="spacing" textLength="133" x="1179" y="337.1165">incentivar estudantes a</text><text fill="#000000" font-family="Verdana" font-size="11" lengthAdjust="spacing" textLength="287" x="1365" y="314.0635">Utilizar meios digitais para comunicar e colaborar.</text><path d="M1312,332.7417 L1322,332.7417 C1337,332.7417 1337,309.6887 1352,309.6887 L1362,309.6887 " fill="none" style="stroke:#000000;stroke-width:1.0;"/><text fill="#000000" font-family="Verdana" font-size="11" lengthAdjust="spacing" textLength="138" x="1365" y="329.4321">Criar conte&#250;dos digitais.</text><path d="M1312,332.7417 L1322,332.7417 C1337,332.7417 1337,325.0574 1352,325.0574 L1362,325.0574 " fill="none" style="stroke:#000000;stroke-width:1.0;"/><text fill="#000000" font-family="Verdana" font-size="11" lengthAdjust="spacing" textLength="328" x="1365" y="344.8008">Utilizar compet&#234;ncias digitais de resolu&#231;&#227;o de problemas.</text><path d="M1312,332.7417 L1322,332.7417 C1337,332.7417 1337,340.426 1352,340.426 L1362,340.426 " fill="none" style="stroke:#000000;stroke-width:1.0;"/><text fill="#000000" font-family="Verdana" font-size="11" lengthAdjust="spacing" textLength="280" x="1365" y="360.1694">Identificar autonomamente essas oportunidades.</text><path d="M1312,332.7417 L1322,332.7417 C1337,332.7417 1337,355.7947 1352,355.7947 L1362,355.7947 " fill="none" style="stroke:#000000;stroke-width:1.0;"/><path d="M1126,317.373 L1136,317.373 C1151,317.373 1151,332.7417 1166,332.7417 L1176,332.7417 " fill="none" style="stroke:#000000;stroke-width:1.0;"/><text fill="#000000" font-family="Verdana" font-size="11" lengthAdjust="spacing" textLength="53" x="1179" y="383.2224">ensinar a</text><text fill="#000000" font-family="Verdana" font-size="11" lengthAdjust="spacing" textLength="330" x="1285" y="375.5381">Identificar e avaliar comportamentos inadequados online.</text><path d="M1232,378.8477 L1242,378.8477 C1257,378.8477 1257,371.1633 1272,371.1633 L1282,371.1633 " fill="none" style="stroke:#000000;stroke-width:1.0;"/><text fill="#000000" font-family="Verdana" font-size="11" lengthAdjust="spacing" textLength="405" x="1285" y="390.9067">Identificar formas de den&#250;ncia em casos de ofensa ou ataque pessoal.</text><path d="M1232,378.8477 L1242,378.8477 C1257,378.8477 1257,386.532 1272,386.532 L1282,386.532 " fill="none" style="stroke:#000000;stroke-width:1.0;"/><path d="M1126,317.373 L1136,317.373 C1151,317.373 1151,378.8477 1166,378.8477 L1176,378.8477 " fill="none" style="stroke:#000000;stroke-width:1.0;"/><path d="M901,202.1082 L911,202.1082 C926,202.1082 926,317.373 941,317.373 L951,317.373 " fill="none" style="stroke:#000000;stroke-width:1.0;"/><rect fill="#FFFFFF" height="33.3687" rx="12.5" ry="12.5" style="stroke:#AAAAAA;stroke-width:1.5;" width="116" x="495" y="125.3708"/><text fill="#000000" font-family="Verdana" font-size="11" lengthAdjust="spacing" textLength="96" x="505" y="146.4299">Educa&#231;&#227;o Aberta</text><text fill="#000000" font-family="Verdana" font-size="11" lengthAdjust="spacing" textLength="208" x="234" y="131.0613">Utilizar recursos educativos abertos.</text><path d="M495,142.0552 L485,142.0552 C470,142.0552 470,126.6865 455,126.6865 L445,126.6865 " fill="none" style="stroke:#000000;stroke-width:1.0;"/><text fill="#000000" font-family="Verdana" font-size="11" lengthAdjust="spacing" textLength="296" x="146" y="146.4299">Licenciar recursos educativos com licen&#231;as abertas.</text><path d="M495,142.0552 L485,142.0552 C470,142.0552 470,142.0552 455,142.0552 L445,142.0552 " fill="none" style="stroke:#000000;stroke-width:1.0;"/><text fill="#000000" font-family="Verdana" font-size="11" lengthAdjust="spacing" textLength="381" x="61" y="161.7986">Discutir princ&#237;pios e implementar pol&#237;ticas para a educa&#231;&#227;o aberta.</text><path d="M495,142.0552 L485,142.0552 C470,142.0552 470,157.4238 455,157.4238 L445,157.4238 " fill="none" style="stroke:#000000;stroke-width:1.0;"/><path d="M661,202.1082 L651,202.1082 C636,202.1082 636,142.0552 621,142.0552 L611,142.0552 " fill="none" style="stroke:#000000;stroke-width:1.0;"/><rect fill="#FFFFFF" height="46.7373" rx="12.5" ry="12.5" style="stroke:#AAAAAA;stroke-width:1.5;" width="210" x="401" y="178.7395"/><text fill="#000000" font-family="Verdana" font-size="11" lengthAdjust="spacing" textLength="190" x="411" y="199.7986">Avalia&#231;&#227;o apoiada em Aplica&#231;&#245;es</text><text fill="#000000" font-family="Verdana" font-size="11" lengthAdjust="spacing" textLength="128" x="411" y="213.1672">e Ferramentas Digitais</text><text fill="#000000" font-family="Verdana" font-size="11" lengthAdjust="spacing" textLength="338" x="10" y="184.4299">Incentivar estudantes a analisar os seus pr&#243;prios dados de</text><text fill="#000000" font-family="Verdana" font-size="11" lengthAdjust="spacing" textLength="298" x="10" y="197.7986">desempenho e a definir objetivos de aprendizagem.</text><path d="M401,202.1082 L391,202.1082 C376,202.1082 376,186.7395 361,186.7395 L351,186.7395 " fill="none" style="stroke:#000000;stroke-width:1.0;"/><text fill="#000000" font-family="Verdana" font-size="11" lengthAdjust="spacing" textLength="201" x="147" y="213.1672">Monitorizar progresso e/ou avaliar.</text><path d="M401,202.1082 L391,202.1082 C376,202.1082 376,208.7925 361,208.7925 L351,208.7925 " fill="none" style="stroke:#000000;stroke-width:1.0;"/><text fill="#000000" font-family="Verdana" font-size="11" lengthAdjust="spacing" textLength="110" x="238" y="228.5359">Fornecer feedback.</text><path d="M401,202.1082 L391,202.1082 C376,202.1082 376,224.1611 361,224.1611 L351,224.1611 " fill="none" style="stroke:#000000;stroke-width:1.0;"/><path d="M661,202.1082 L651,202.1082 C636,202.1082 636,202.1082 621,202.1082 L611,202.1082 " fill="none" style="stroke:#000000;stroke-width:1.0;"/><rect fill="#FFFFFF" height="33.3687" rx="12.5" ry="12.5" style="stroke:#AAAAAA;stroke-width:1.5;" width="117" x="494" y="245.4768"/><text fill="#000000" font-family="Verdana" font-size="11" lengthAdjust="spacing" textLength="97" x="504" y="266.5359">Recursos Digitais</text><text fill="#000000" font-family="Verdana" font-size="11" lengthAdjust="spacing" textLength="353" x="88" y="251.1672">Adaptar, utilizar, partilhar e criar recursos digitais interativos.</text><path d="M494,262.1611 L484,262.1611 C469,262.1611 469,246.7925 454,246.7925 L444,246.7925 " fill="none" style="stroke:#000000;stroke-width:1.0;"/><text fill="#000000" font-family="Verdana" font-size="11" lengthAdjust="spacing" textLength="325" x="116" y="266.5359">Proteger dados digitais relativos a sujeitos identific&#225;veis.</text><path d="M494,262.1611 L484,262.1611 C469,262.1611 469,262.1611 454,262.1611 L444,262.1611 " fill="none" style="stroke:#000000;stroke-width:1.0;"/><text fill="#000000" font-family="Verdana" font-size="11" lengthAdjust="spacing" textLength="219" x="222" y="281.9045">Assegurar conformidade com o RGPD.</text><path d="M494,262.1611 L484,262.1611 C469,262.1611 469,277.5298 454,277.5298 L444,277.5298 " fill="none" style="stroke:#000000;stroke-width:1.0;"/><path d="M661,202.1082 L651,202.1082 C636,202.1082 636,262.1611 621,262.1611 L611,262.1611 " fill="none" style="stroke:#000000;stroke-width:1.0;"/><!--SRC=[xLdBRXov5TtNLt20B6O4kzKljILbCtewTkICuLUo4rYiMzNqL9CLajKpci0VCyXYu01U6TdCjdyiXwndjpf65ib0Yhe5I5qiylBSSy-zbwNwrZfkt4AgPC4BDXnV3qVNGYyASgI4vFOwaPbqNDheguHIgOXTFNlwXpUdLsyleg-a4dcPK6boDdUkiCVx-vcqRe0Lyp8kBHcX5Gov0KpkyqLcznCwU78m6mv7Otx83z8XJSVJOJev6iUp9uTyEjmt_8TzSJISY5ayJKUpU3QC3uZIoNXwc0wF9jEZ9oddD7boc1wCzgsxoMbGb8iyscDxUsS1-EeV0Jaxhv4pnTb5KWg- -cNrTxst5qKvfOvPcL0KxUtrxh6Jc8pZ6DoxPc-TpELFt313eZHMMqP-efDBVEL-ehQ3QkgL586jxNFXEylzZDKll5x9cvNdqehIISCA0p9NdmhfrpAvA79QW3YOB7I- -kIamDg26yvuPRi2N5aRU3-EJvOybyrueILFC7N1JWfixeV_IJOYTad6y62wO-Zt0SpnCmMGm8nDoReouOWT03EkODXY5DWibS1XLfy169S9J_nlYXAo1FBLN0C-Pq4hS4l7xwbY8S5mOKWbu3IZnQ3QaxtGIZfj0j65qPaXQs5YNvUC1tzCpTIbDee46POI9J4NtmUdsQk6yCQNQlP9mWkGzuYLTHGVUVBmVUwTOyAi1QlHE9Fms5HXgxTzQRIZ3DlMdZOp3UMD59WjtnESmFB4yvTAiVfvIR8nSM8jPQN1XiY6L9k5X2qAij3irTENv_34o6pUbwHQwdmfVPYqXv1AQwL662gBPnx-8s1el8DBdNiB3YUa1ude2vtpM9jQ5c7Fqfb6e8a6ttwQeOHgk8Z2GY_9-2jSNbW7HbOVCvzI5UnIoKP_5H_ve9xyJEbbVKSXYifA_E4mi5nzz69fmb4l9kP8A9thodZDRMFi3DBsP7O6I_k5HHLlOKU2w3kfrPnfg1lPmdpOGWIGcQKnKfGvzopyjIH6Fyhtt8VbYpi5UmtrDTX-MhKY2VdQpsNgarbGmhFLvooajlJC8HoyTR-VjrL2lDUPthHEGIaKSfFdfMg5suIHyTPUHqah2v_jBT_wiS-BYkrEK5NGrPn4fSVQ_YjA91B8gzBu6j6mohJAVPj8Ma1Wbgi40KJwMhlw6OK3qTgK_1alk81ZhJGksXAqwT0j5Nqf1Zni-iddeo-ilcDPEDtIZBg2XAaAb5XznhgwgkfcnjLcxVQ5JAF-eS3Ms4AvxQW-3zMlXTSLGR2QSqMyIcnV4binjb5eGl0er4lhtQcllnGJtm0kGM3UKSXPlnz6LO7Crwcjgt12iIyQpEhOX1JNZMZ0c2zPjStLHuPQ61fBc8Nc17FMbqVqVMq4V6bhGLCCGGpyMxC3Jw0Tdv6owwAojw2L942kVlLQokiUcpJTDv188MqBRItIrkDeQsAYxPO0WjCyR80pmGQPpKPjSsjWRU-AjUtsbB0WUIivcrePMawTSQOVQDFVUBF-jQR5sh6ctGAmeG-TbwtG8CiOjQOJTpy6l7HQwKLD6v82jdIXZGF4Je7NLTNkYRblWvgc733fEWY-yobOG9vxFwe2i0r2K400Zi7LhzwVqAEuhV9FfzYSCz_x7G-1zQS1trwYw5iKh_gOYel_-DGwXwgmH-5k424trydQ47VEoBZqDSP_xFTI-S11IiW6qkwceBDJd3KoeqkLdA4L63RYivaOH_MdMn9lp4lJDBezIqWZSahEqAYvy2dtjuWnP9J4iUeGNrFeuRNyYTXeL5_z2HopTsGWF1vzMBELSsk30NPhzz-TVlUNqwUu1SqbPAf1pdcOxCrM8yFXSDiscpWwEYxRfPF9vDQTRWLZt1ZzGt-NC71vUwjsl6-t7MnC-h4cMhSczszq6DhXPyYoPlZ3MZWG0st-3OLuGfdHU8F2Elg_2OjhmGxLIiW2vUTEXdnTcJhFIJWS3kpT1_iQXGjbWqxrZzknqj3_R60LuVERmUtX3GyfASurzqAteL4ekW-gLVumS-TH9kYDCRVt02dIghopC7iuIqlYhXBwF-Ya7pOQ89v0S1HwYCxRklBNpj_JOr4kKxh2YVkq5wAs1xGtj_UqDJfYVvkRctlILvGpEhyNMFqJaBlBj6uf2EUIBxHA7afTO0mEPo2WdqLRdYx-EuyTU7nrz72e3K_h6sgdZUVfTOBylyo4Uq1DQUqOwkx9qJxNPV8W3mu6ukGgo-_18Tp_MvPdTnRexhNjxhNjxhNjxhNjxhNjxhNjxhNjxhNjxhNj__5hsvV88lVsnHL3FV2DaOq6u-5uEfXy_MPUeWx4R7J0HaV7q-7ny83z-U8DyxU_YRv- -l9gEORCIoCeQ3OyOCF2Dz5pkCPUbG2xe6Fs7Suopy__s0puZYoDLjxTwFcx5zs4sVJngNJiDHbVczwzY93ylCmTLWYTI9KTixTlBXyVHbSuvvSeliTWE3h3oTcP6znx_Iy0]--></g></svg>