<?xml version="1.0" encoding="us-ascii" standalone="no"?><svg xmlns="http://www.w3.org/2000/svg" xmlns:xlink="http://www.w3.org/1999/xlink" contentStyleType="text/css" height="213px" preserveAspectRatio="none" style="width:1820px;height:213px;background:#FFFFFF;" version="1.1" viewBox="0 0 1820 213" width="1820px" zoomAndPan="magnify"><defs/><g><rect fill="#FFFFFF" height="46.7373" rx="12.5" ry="12.5" style="stroke:#AAAAAA;stroke-width:1.5;" width="159" x="817" y="82.4746"/><text fill="#000000" font-family="Verdana" font-size="11" font-weight="bold" lengthAdjust="spacing" textLength="139" x="827" y="103.5337">Conte&#250;dos e Recursos</text><text fill="#000000" font-family="Verdana" font-size="11" font-weight="bold" lengthAdjust="spacing" textLength="120" x="827" y="116.9023">Educativos Digitais</text><text fill="#000000" font-family="Verdana" font-size="11" lengthAdjust="spacing" textLength="56" x="1029" y="41.0591">envolvem</text><rect fill="#FFFFFF" height="33.3687" rx="12.5" ry="12.5" style="stroke:#AAAAAA;stroke-width:1.5;" width="204" x="1135" y="20"/><text fill="#000000" font-family="Verdana" font-size="11" lengthAdjust="spacing" textLength="184" x="1145" y="41.0591">Ferramentas e Recursos Digitais</text><text fill="#000000" font-family="Verdana" font-size="11" lengthAdjust="spacing" textLength="243" x="1392" y="33.3748">Apoiam a sistematiza&#231;&#227;o do conhecimento</text><path d="M1339,36.6843 L1349,36.6843 C1364,36.6843 1364,29 1379,29 L1389,29 " fill="none" style="stroke:#000000;stroke-width:1.0;"/><text fill="#000000" font-family="Verdana" font-size="11" lengthAdjust="spacing" textLength="252" x="1392" y="48.7434">Requerem utiliza&#231;&#227;o consciente e cuidadosa</text><path d="M1339,36.6843 L1349,36.6843 C1364,36.6843 1364,44.3687 1379,44.3687 L1389,44.3687 " fill="none" style="stroke:#000000;stroke-width:1.0;"/><path d="M1085,36.6843 L1095,36.6843 C1110,36.6843 1110,36.6843 1125,36.6843 L1135,36.6843 " fill="none" style="stroke:#000000;stroke-width:1.0;"/><path d="M976,105.8433 L986,105.8433 C1001,105.8433 1001,36.6843 1016,36.6843 L1026,36.6843 " fill="none" style="stroke:#000000;stroke-width:1.0;"/><text fill="#000000" font-family="Verdana" font-size="11" lengthAdjust="spacing" textLength="78" x="1029" y="98.4807">enriquecem o</text><rect fill="#FFFFFF" height="33.3687" rx="12.5" ry="12.5" style="stroke:#AAAAAA;stroke-width:1.5;" width="127" x="1157" y="77.4216"/><text fill="#000000" font-family="Verdana" font-size="11" lengthAdjust="spacing" textLength="107" x="1167" y="98.4807">Papel do Professor</text><text fill="#000000" font-family="Verdana" font-size="11" lengthAdjust="spacing" textLength="67" x="1337" y="75.4277">procura por</text><text fill="#000000" font-family="Verdana" font-size="11" lengthAdjust="spacing" textLength="291" x="1457" y="75.4277">Produzir uma experi&#234;ncia educativa enriquecedora</text><path d="M1404,71.053 L1414,71.053 C1429,71.053 1429,71.053 1444,71.053 L1454,71.053 " fill="none" style="stroke:#000000;stroke-width:1.0;"/><path d="M1284,94.106 L1294,94.106 C1309,94.106 1309,71.053 1324,71.053 L1334,71.053 " fill="none" style="stroke:#000000;stroke-width:1.0;"/><text fill="#000000" font-family="Verdana" font-size="11" lengthAdjust="spacing" textLength="61" x="1337" y="106.165">atrav&#233;s da</text><text fill="#000000" font-family="Verdana" font-size="11" lengthAdjust="spacing" textLength="304" x="1451" y="90.7964">Sele&#231;&#227;o de estrat&#233;gias e recursos digitais adequados</text><path d="M1398,101.7903 L1408,101.7903 C1423,101.7903 1423,86.4216 1438,86.4216 L1448,86.4216 " fill="none" style="stroke:#000000;stroke-width:1.0;"/><text fill="#000000" font-family="Verdana" font-size="11" lengthAdjust="spacing" textLength="184" x="1451" y="106.165">Orienta&#231;&#227;o cr&#237;tica de estudantes</text><path d="M1398,101.7903 L1408,101.7903 C1423,101.7903 1423,101.7903 1438,101.7903 L1448,101.7903 " fill="none" style="stroke:#000000;stroke-width:1.0;"/><text fill="#000000" font-family="Verdana" font-size="11" lengthAdjust="spacing" textLength="286" x="1451" y="121.5337">Avalia&#231;&#227;o da qualidade e adequa&#231;&#227;o dos recursos</text><path d="M1398,101.7903 L1408,101.7903 C1423,101.7903 1423,117.1589 1438,117.1589 L1448,117.1589 " fill="none" style="stroke:#000000;stroke-width:1.0;"/><path d="M1284,94.106 L1294,94.106 C1309,94.106 1309,101.7903 1324,101.7903 L1334,101.7903 " fill="none" style="stroke:#000000;stroke-width:1.0;"/><path d="M1107,94.106 L1117,94.106 C1132,94.106 1132,94.106 1147,94.106 L1157,94.106 " fill="none" style="stroke:#000000;stroke-width:1.0;"/><path d="M976,105.8433 L986,105.8433 C1001,105.8433 1001,94.106 1016,94.106 L1026,94.106 " fill="none" style="stroke:#000000;stroke-width:1.0;"/><text fill="#000000" font-family="Verdana" font-size="11" lengthAdjust="spacing" textLength="57" x="1029" y="167.6396">definem a</text><rect fill="#FFFFFF" height="33.3687" rx="12.5" ry="12.5" style="stroke:#AAAAAA;stroke-width:1.5;" width="205" x="1136" y="146.5806"/><text fill="#000000" font-family="Verdana" font-size="11" lengthAdjust="spacing" textLength="185" x="1146" y="167.6396">Educa&#231;&#227;o no Ecossistema Digital</text><text fill="#000000" font-family="Verdana" font-size="11" lengthAdjust="spacing" textLength="94" x="1394" y="167.6396">caraterizada por</text><text fill="#000000" font-family="Verdana" font-size="11" lengthAdjust="spacing" textLength="267" x="1541" y="136.9023">Alinhamento com desafios da sociedade digital</text><path d="M1488,163.2649 L1498,163.2649 C1513,163.2649 1513,132.5276 1528,132.5276 L1538,132.5276 " fill="none" style="stroke:#000000;stroke-width:1.0;"/><text fill="#000000" font-family="Verdana" font-size="11" lengthAdjust="spacing" textLength="219" x="1541" y="152.271">Aprendizagem em rede e colaborativa</text><path d="M1488,163.2649 L1498,163.2649 C1513,163.2649 1513,147.8962 1528,147.8962 L1538,147.8962 " fill="none" style="stroke:#000000;stroke-width:1.0;"/><text fill="#000000" font-family="Verdana" font-size="11" lengthAdjust="spacing" textLength="193" x="1541" y="167.6396">Perspetiva ecol&#243;gica da educa&#231;&#227;o</text><path d="M1488,163.2649 L1498,163.2649 C1513,163.2649 1513,163.2649 1528,163.2649 L1538,163.2649 " fill="none" style="stroke:#000000;stroke-width:1.0;"/><text fill="#000000" font-family="Verdana" font-size="11" lengthAdjust="spacing" textLength="221" x="1541" y="183.0083">Complementaridade o f&#237;sico e o virtual</text><path d="M1488,163.2649 L1498,163.2649 C1513,163.2649 1513,178.6335 1528,178.6335 L1538,178.6335 " fill="none" style="stroke:#000000;stroke-width:1.0;"/><text fill="#000000" font-family="Verdana" font-size="11" lengthAdjust="spacing" textLength="245" x="1541" y="198.377">Adaptabilidade &#224;s necessidades individuais</text><path d="M1488,163.2649 L1498,163.2649 C1513,163.2649 1513,194.0022 1528,194.0022 L1538,194.0022 " fill="none" style="stroke:#000000;stroke-width:1.0;"/><path d="M1341,163.2649 L1351,163.2649 C1366,163.2649 1366,163.2649 1381,163.2649 L1391,163.2649 " fill="none" style="stroke:#000000;stroke-width:1.0;"/><path d="M1086,163.2649 L1096,163.2649 C1111,163.2649 1111,163.2649 1126,163.2649 L1136,163.2649 " fill="none" style="stroke:#000000;stroke-width:1.0;"/><path d="M976,105.8433 L986,105.8433 C1001,105.8433 1001,163.2649 1016,163.2649 L1026,163.2649 " fill="none" style="stroke:#000000;stroke-width:1.0;"/><text fill="#000000" font-family="Verdana" font-size="11" lengthAdjust="spacing" textLength="103" x="661" y="110.218">contextualizam os</text><rect fill="#FFFFFF" height="33.3687" rx="12.5" ry="12.5" style="stroke:#AAAAAA;stroke-width:1.5;" width="230" x="381" y="29.106"/><text fill="#000000" font-family="Verdana" font-size="11" lengthAdjust="spacing" textLength="210" x="391" y="50.165">Novas formas de ensinar e aprender</text><path d="M661,105.8433 L651,105.8433 C636,105.8433 636,45.7903 621,45.7903 L611,45.7903 " fill="none" style="stroke:#000000;stroke-width:1.0;"/><rect fill="#FFFFFF" height="46.7373" rx="12.5" ry="12.5" style="stroke:#AAAAAA;stroke-width:1.5;" width="164" x="447" y="82.4746"/><text fill="#000000" font-family="Verdana" font-size="11" lengthAdjust="spacing" textLength="144" x="457" y="103.5337">Professores e estudantes</text><text fill="#000000" font-family="Verdana" font-size="11" lengthAdjust="spacing" textLength="103" x="457" y="116.9023">com pap&#233;is ativos</text><text fill="#000000" font-family="Verdana" font-size="11" lengthAdjust="spacing" textLength="51" x="343" y="110.218">promove</text><text fill="#000000" font-family="Verdana" font-size="11" lengthAdjust="spacing" textLength="167" x="123" y="102.5337">Cria&#231;&#227;o de conte&#250;dos digitais</text><path d="M343,105.8433 L333,105.8433 C318,105.8433 318,98.1589 303,98.1589 L293,98.1589 " fill="none" style="stroke:#000000;stroke-width:1.0;"/><text fill="#000000" font-family="Verdana" font-size="11" lengthAdjust="spacing" textLength="189" x="101" y="117.9023">Intera&#231;&#227;o com conte&#250;dos digitais</text><path d="M343,105.8433 L333,105.8433 C318,105.8433 318,113.5276 303,113.5276 L293,113.5276 " fill="none" style="stroke:#000000;stroke-width:1.0;"/><path d="M447,105.8433 L437,105.8433 C422,105.8433 422,105.8433 407,105.8433 L397,105.8433 " fill="none" style="stroke:#000000;stroke-width:1.0;"/><path d="M661,105.8433 L651,105.8433 C636,105.8433 636,105.8433 621,105.8433 L611,105.8433 " fill="none" style="stroke:#000000;stroke-width:1.0;"/><rect fill="#FFFFFF" height="33.3687" rx="12.5" ry="12.5" style="stroke:#AAAAAA;stroke-width:1.5;" width="235" x="376" y="149.2119"/><text fill="#000000" font-family="Verdana" font-size="11" lengthAdjust="spacing" textLength="215" x="386" y="170.271">Ambientes de aprendizagem diversos</text><text fill="#000000" font-family="Verdana" font-size="11" lengthAdjust="spacing" textLength="69" x="254" y="170.271">conduzem a</text><text fill="#000000" font-family="Verdana" font-size="11" lengthAdjust="spacing" textLength="191" x="10" y="162.5867">Participa&#231;&#227;o ativa dos estudantes</text><path d="M254,165.8962 L244,165.8962 C229,165.8962 229,158.2119 214,158.2119 L204,158.2119 " fill="none" style="stroke:#000000;stroke-width:1.0;"/><text fill="#000000" font-family="Verdana" font-size="11" lengthAdjust="spacing" textLength="165" x="36" y="177.9553">Constru&#231;&#227;o do conhecimento</text><path d="M254,165.8962 L244,165.8962 C229,165.8962 229,173.5806 214,173.5806 L204,173.5806 " fill="none" style="stroke:#000000;stroke-width:1.0;"/><path d="M376,165.8962 L366,165.8962 C351,165.8962 351,165.8962 336,165.8962 L326,165.8962 " fill="none" style="stroke:#000000;stroke-width:1.0;"/><path d="M661,105.8433 L651,105.8433 C636,105.8433 636,165.8962 621,165.8962 L611,165.8962 " fill="none" style="stroke:#000000;stroke-width:1.0;"/><path d="M817,105.8433 L807,105.8433 C792,105.8433 792,105.8433 777,105.8433 L767,105.8433 " fill="none" style="stroke:#000000;stroke-width:1.0;"/><!--SRC=[xLbBRzj64BxpLso17X81iQYdRUKIouyqgPCOiPFsPensXz8sv2wp3oLsaVzIe8SY1NBghLVziSvI9FMmSseRIB1f0IPtPsU- -RxXFi0dre5ncLGYWvp5xKlwSQqSUg7j9LuQvDxOS2iy1oUdT2laM3gGDlfEO28LijDdJt-u69w-EOw-augdNg0tAPiubzj1ipcMrktGY8aVUOkcyAxS3jTP4xAnRGhixVRwSTngmnxqaXYxxMwSTFRRe_xk7dJZfe4FJRuVTtX_r4rQ_L4_7lKGaqwxkvV4-vtk_cu2W9tTlQJNQbftbU9ExhCqYXg3HkCmX9lzJTamPA_BR1gDgD4uhZDYHsL6ZSRZA4enSSnAWUIWSSaAl1-TXrHUGyQqfTO6UwcdO5cYJKR_139KLYem50DoWqgW2MQ3CwCJj5OR3E7HEY-0tDc8icSvvBFFqh8vYCTX0CNBZSxq58idUZmq4cP_p7xN8GfV95EBKDezenvJMWRdNp5b1zb8Oe0G_CsnKbvZpCXiYe6S4WSv4FwQsg4ASKQL8hdCooW1Dh22s4LU5Mgjh3E-11uGgGbocL5a7KL6ZYVB5AEQwdIAMG7m18s1O0ZBYjKIbUWESYr93I0lrc56MAxXzcXp-zVutgEXRBoJQMrBXfONT50exgK0IWSgK4RI64vZ2YUKVevfS5-Bkb2CG0BBovP0bT54dZJCPy3mOuv6plvKND93MNMm222qWT8LE0FJsMSIfsRz75Ei2u2ODk1cdyUoOATwEsk96GXAD6HH3NzbGdvLlcRsXII4qjMQQ0TJgl6AHM3lGyaJ8u6RkTkAO5i7dbCrdmRAIc75UpKtLPeTSsrBZKeDqwh0W58XOgv1h71ta4erAIfWNia2BIGo94bgQvAhm2IMV1Nri5J9z3DOuEOwXH7H6mYljQ4gpt4k0VNF_XeNZ9JI5C0NPPpbAHR5QEPKQ9RClbZ9DGltKsd2n523490x6CcIjjblbYdIb_8FpvRHB2kdKlXGnj4JmblEk_JmRwRXYGovPhcxOXcwYHOhJU2SaICVT0wNVITLJindZ3GngDrLZeT3uE_6Hdib3dMg3Mj1ly_RKNajXepMx98aYMvQSMbuYk9mGa-SWh1V8yOC2EajswFRX18xbzV8MgtowIN9pTwYeNg4wDEAhnIiBHom6z6_7xxwUVYKkaXXcd3dZG1G60UtyvOuZcyBiuvZGST9FRJJwTpeMOnW38pH7vQZ50qdDqFLxSj-wyRAPMYhrBfXlDonm50tFwDogPe_hSX16cZp5GffoUrZUut2KlrlmkAAs7crm2YtaPAlLgPEK-HEqXAo-M3Fm_AdE0xrnzknOXp-rh3oulfcS9Vmoh2RIO3ZLjGjhLAvLhWDLQkqmCr7AO2MKR1RW9HUAx-nC9TmqicBRogX_yDA-cbj0QHj5ss5xcBojfpvo-ItT5kKoWHFwOmnN9AeNWFgpjlNj1KwHg4RpDMMh2lA6Prk1LPQ_Rx-Ycq2r5icX2C9cLRYhimBZ0xWC2O2bj-YMquN_ysnWqwq3kyEjSK1VgtQSUqylKgG7lr2vuSxj2YjR4FTbcpjK-t5dTmu62fEKEDq2pRXrca3uytTXjz_XxZ_3d7_7UB-EyJcVuSuIqc9DozEMNW5fLQijTEEszsTpeEBYQTNOiHQFTRQ7tJZGTnZFnrViD3zC7hmzEnqsYPQlE614plV7fA7Xz5pe0nVUpeVP3XWht9Kpuz-h1hOiIBmMeNSekTlNomC-jr7G-cex0nXOMzVH4UOW4yTZU1QI3KUi3SN9u_sebDQfJpnFQ1AZWvftdVcYlhE_m40]--></g></svg>