<?xml version="1.0" encoding="us-ascii" standalone="no"?><svg xmlns="http://www.w3.org/2000/svg" xmlns:xlink="http://www.w3.org/1999/xlink" contentStyleType="text/css" height="182px" preserveAspectRatio="none" style="width:1266px;height:182px;background:#FFFFFF;" version="1.1" viewBox="0 0 1266 182" width="1266px" zoomAndPan="magnify"><defs/><g><rect fill="#FFFFFF" height="33.3687" rx="12.5" ry="12.5" style="stroke:#AAAAAA;stroke-width:1.5;" width="169" x="451" y="73.7903"/><text fill="#000000" font-family="Verdana" font-size="11" font-weight="bold" lengthAdjust="spacing" textLength="149" x="461" y="94.8494">Web Social na Educa&#231;&#227;o</text><text fill="#000000" font-family="Verdana" font-size="11" lengthAdjust="spacing" textLength="51" x="673" y="68.165">promove</text><text fill="#000000" font-family="Verdana" font-size="11" lengthAdjust="spacing" textLength="216" x="777" y="22.0591">Aumento da motiva&#231;&#227;o de estudantes</text><path d="M724,63.7903 L734,63.7903 C749,63.7903 749,17.6843 764,17.6843 L774,17.6843 " fill="none" style="stroke:#000000;stroke-width:1.0;"/><text fill="#000000" font-family="Verdana" font-size="11" lengthAdjust="spacing" textLength="178" x="777" y="37.4277">Intera&#231;&#227;o al&#233;m da sala de aula</text><path d="M724,63.7903 L734,63.7903 C749,63.7903 749,33.053 764,33.053 L774,33.053 " fill="none" style="stroke:#000000;stroke-width:1.0;"/><text fill="#000000" font-family="Verdana" font-size="11" lengthAdjust="spacing" textLength="228" x="777" y="52.7964">Comunidades Virtuais de Aprendizagem</text><path d="M724,63.7903 L734,63.7903 C749,63.7903 749,48.4216 764,48.4216 L774,48.4216 " fill="none" style="stroke:#000000;stroke-width:1.0;"/><text fill="#000000" font-family="Verdana" font-size="11" lengthAdjust="spacing" textLength="162" x="777" y="68.165">Co-cria&#231;&#227;o de conhecimento</text><path d="M724,63.7903 L734,63.7903 C749,63.7903 749,63.7903 764,63.7903 L774,63.7903 " fill="none" style="stroke:#000000;stroke-width:1.0;"/><text fill="#000000" font-family="Verdana" font-size="11" lengthAdjust="spacing" textLength="101" x="777" y="83.5337">Participa&#231;&#227;o ativa</text><path d="M724,63.7903 L734,63.7903 C749,63.7903 749,79.1589 764,79.1589 L774,79.1589 " fill="none" style="stroke:#000000;stroke-width:1.0;"/><text fill="#000000" font-family="Verdana" font-size="11" lengthAdjust="spacing" textLength="115" x="777" y="98.9023">Sentido de perten&#231;a</text><path d="M724,63.7903 L734,63.7903 C749,63.7903 749,94.5276 764,94.5276 L774,94.5276 " fill="none" style="stroke:#000000;stroke-width:1.0;"/><text fill="#000000" font-family="Verdana" font-size="11" lengthAdjust="spacing" textLength="205" x="777" y="114.271">Cultura de participa&#231;&#227;o respons&#225;vel</text><path d="M724,63.7903 L734,63.7903 C749,63.7903 749,109.8962 764,109.8962 L774,109.8962 " fill="none" style="stroke:#000000;stroke-width:1.0;"/><path d="M620,90.4746 L630,90.4746 C645,90.4746 645,63.7903 660,63.7903 L670,63.7903 " fill="none" style="stroke:#000000;stroke-width:1.0;"/><text fill="#000000" font-family="Verdana" font-size="11" lengthAdjust="spacing" textLength="45" x="673" y="148.6396">envolve</text><rect fill="#FFFFFF" height="33.3687" rx="12.5" ry="12.5" style="stroke:#AAAAAA;stroke-width:1.5;" width="209" x="768" y="127.5806"/><text fill="#000000" font-family="Verdana" font-size="11" lengthAdjust="spacing" textLength="189" x="778" y="148.6396">Integra&#231;&#227;o no Sistema de Ensino</text><text fill="#000000" font-family="Verdana" font-size="11" lengthAdjust="spacing" textLength="224" x="1030" y="133.271">Extens&#227;o da cultura em rede ao ensino</text><path d="M977,144.2649 L987,144.2649 C1002,144.2649 1002,128.8962 1017,128.8962 L1027,128.8962 " fill="none" style="stroke:#000000;stroke-width:1.0;"/><text fill="#000000" font-family="Verdana" font-size="11" lengthAdjust="spacing" textLength="168" x="1030" y="148.6396">Import&#226;ncia da aplicabilidade</text><path d="M977,144.2649 L987,144.2649 C1002,144.2649 1002,144.2649 1017,144.2649 L1027,144.2649 " fill="none" style="stroke:#000000;stroke-width:1.0;"/><text fill="#000000" font-family="Verdana" font-size="11" lengthAdjust="spacing" textLength="172" x="1030" y="164.0083">Forma&#231;&#227;o de cidad&#227;os digitais</text><path d="M977,144.2649 L987,144.2649 C1002,144.2649 1002,159.6335 1017,159.6335 L1027,159.6335 " fill="none" style="stroke:#000000;stroke-width:1.0;"/><path d="M718,144.2649 L728,144.2649 C743,144.2649 743,144.2649 758,144.2649 L768,144.2649 " fill="none" style="stroke:#000000;stroke-width:1.0;"/><path d="M620,90.4746 L630,90.4746 C645,90.4746 645,144.2649 660,144.2649 L670,144.2649 " fill="none" style="stroke:#000000;stroke-width:1.0;"/><text fill="#000000" font-family="Verdana" font-size="11" lengthAdjust="spacing" textLength="155" x="243" y="94.8494">confere compet&#234;ncias para</text><text fill="#000000" font-family="Verdana" font-size="11" lengthAdjust="spacing" textLength="86" x="104" y="79.4807">Literacia digital</text><path d="M243,90.4746 L233,90.4746 C218,90.4746 218,75.106 203,75.106 L193,75.106 " fill="none" style="stroke:#000000;stroke-width:1.0;"/><text fill="#000000" font-family="Verdana" font-size="11" lengthAdjust="spacing" textLength="77" x="113" y="94.8494">Redes sociais</text><path d="M243,90.4746 L233,90.4746 C218,90.4746 218,90.4746 203,90.4746 L193,90.4746 " fill="none" style="stroke:#000000;stroke-width:1.0;"/><text fill="#000000" font-family="Verdana" font-size="11" lengthAdjust="spacing" textLength="180" x="10" y="110.218">Comunidades de aprendizagem</text><path d="M243,90.4746 L233,90.4746 C218,90.4746 218,105.8433 203,105.8433 L193,105.8433 " fill="none" style="stroke:#000000;stroke-width:1.0;"/><path d="M451,90.4746 L441,90.4746 C426,90.4746 426,90.4746 411,90.4746 L401,90.4746 " fill="none" style="stroke:#000000;stroke-width:1.0;"/><!--SRC=[xLZ9SXit4BtFLy1LETYiaZXSHUaaKuiZXOfLrkBSM3r03uaO0qm036KvfOz9Sd0bly4VIsEuY8joYrnaoQE3Xhq-l6viS-WyM9z9BJB8MLplnus-HwwDCWC9hY-rHmjUZkXTGFyEaxupN8Bgvs2X3trk9N0mVO5zo1A9PE_wA0eUd8oBNWbCfKRMEtltutMtTtCIlPAQgq9WOHKRUf-xWsfr89tV7KW_B9B2eUM6mcY_oqrMXMpWgW9RUwrs7DVgq85M6cEptepJnduzQUzre1bNBTnL-NxSuEsacTRQIJjEMeXfezxifF5-exc_bm9WOw-JjcfLv-yLxkP5fgAemYgLZvYmgt9KJ0Cx2U37NyT_cKebYXIcdZafa4mhVKR8KhH8_xCS_VWVJLwE1Iv8JVgU37oHa0b9um4r4Nz0WOwLp4at4HsPhD1IG508P91Rr49-WG5cKMJbOBYODhScCoESUBujCYB7C04iCw4q9TWG19ql18GIJ2pFokfDrA36VsV1nu62CcEXO1tAhRI-8931ukqYfgdbJYZuF27HCKGkIpmJYqjg9ybbFiiQy4qqLsGaHUcMewNwZh_EyXVA5xO4bI-xMtIvqMxynmXLIGJgaL4J8ihH3MR3quPTKHDXLeOvqKxg4X7vd7ocPAv438nFSs56mGCBXc8k69zbkR5-_ASkQmXK5oKv95AL_4oDJetD5aW8AdftqvfJXG-9j-caYgB3vvvZGnbgd-N-dcNeXqOiYS1xAvCYD4Lut2UfGzoC4LiMZR_FyQWB_DF0caAB8q9bMGtQRLwFfi-ZIx9YbwPfj6x5fUKAnT6GVd5AmdwF6BCWPE5OXrvJcjvNyWkoMctwwsV8aDsYfUQ5w64fbWBdoW1iBViFtVU_TD-HAZ5Me9q80Q0q3c4daZYEdqgpYkEHZjEvQwFHMDCyUZ06rfgxnIobu7GzrLo-67Skd8KCibcrremN5OyOvk8pceipySDIEQW6nlu7XRIUjh6-Gk6q-j-4nQLYpsU_zXjPykNED4eXzvBMfyq7UuM_5QWvTitdfx5Y7FvMiFBo-MPm5_2MQs8A7BUYRyDfm6ZSXgxLHk3cenJW8G6t1KXfMXKR2tC19nsh-QOI-WmxwSFA1YX7aev2Bt7mRhhoJmU_fSSY9LFiqJsokr2Y-HumLpwzfotHaGGrsFijsLUqjqPj1TPmk_ERJEiJ2yAnXCneyLBM1SPem7HZpXPdqHEtY__dsa6tNeylXzhoah_IxRXodruco2I_qltX1MrAIyTGloL7UsKAyI8F3fQQ4_H0RS4Xt7bZOR2vn_3l7vc_VsH-ve_CbufASdFHOoEqJXhDQhlrkDxSRRo-7XRib9glrcAr_ODcV12tsCUJQnRKRwBNxovxepfrJM7fZY1eTEM-JX7UHESm0lQX84OpF63lSzJdnp_D13JyaRH6Xx94vxSNZmRjvavNUYg59IpizY8wnfJwm9C7DqBgmG6xkJxTwKGzMbuAgli1iHCTqOJrzfvqL_y2]--></g></svg>